<svg width="500" height="495" viewBox="0 0 500 495" fill="none" xmlns="http://www.w3.org/2000/svg">
<rect width="500" height="495" rx="20" fill="black"/>
<rect x="20" y="20" width="50" height="50" rx="25" fill="#FF0000"/>
<path d="M80 40C80 28.9543 88.9543 20 100 20H460C471.046 20 480 28.9543 480 40V290C480 301.046 471.046 310 460 310H80V40Z" fill="#FF0000" fill-opacity="0.3"/>
<path d="M107.64 72.6328C104.985 72.6328 102.568 72.1406 100.389 71.1562C98.2266 70.1719 96.4248 68.8008 94.9834 67.043C93.542 65.2852 92.584 63.2373 92.1094 60.8994L92.0566 60.6357H96.8555L96.9346 60.873C97.4619 62.4551 98.2266 63.7998 99.2285 64.9072C100.23 65.9971 101.435 66.832 102.841 67.4121C104.265 67.9746 105.864 68.2559 107.64 68.2559C110.188 68.2559 112.395 67.623 114.258 66.3574C116.139 65.0918 117.589 63.3164 118.608 61.0312C119.628 58.7285 120.138 56.0391 120.138 52.9629V52.9365C120.138 49.8428 119.628 47.1621 118.608 44.8945C117.589 42.6094 116.147 40.8428 114.284 39.5947C112.421 38.3291 110.206 37.6963 107.64 37.6963C105.864 37.6963 104.265 37.9863 102.841 38.5664C101.435 39.1289 100.23 39.9551 99.2285 41.0449C98.2266 42.1348 97.4619 43.4795 96.9346 45.0791L96.8555 45.3164H92.0566L92.1094 45.0527C92.584 42.7324 93.542 40.6934 94.9834 38.9355C96.4424 37.1602 98.2529 35.7803 100.415 34.7959C102.595 33.8115 105.003 33.3193 107.64 33.3193C111.173 33.3193 114.24 34.1279 116.842 35.7451C119.443 37.3447 121.447 39.6123 122.854 42.5479C124.277 45.4834 124.989 48.9463 124.989 52.9365V52.9629C124.989 56.9531 124.277 60.4248 122.854 63.3779C121.43 66.3135 119.417 68.5898 116.815 70.207C114.231 71.8242 111.173 72.6328 107.64 72.6328ZM122.511 54.6768H102.946V50.4053H122.511V54.6768ZM130.711 72V44.5781H135.299V64.96H137.514L134.376 66.6475L149.168 44.5781H153.703V72H149.115V51.6182H146.9L150.038 49.9307L135.246 72H130.711ZM142.523 41.4668C140.854 41.4668 139.412 41.1416 138.199 40.4912C137.004 39.8232 136.09 38.9268 135.457 37.8018C134.824 36.6592 134.508 35.3936 134.508 34.0049V33.9258H138.278V34.0576C138.278 35.2354 138.63 36.2549 139.333 37.1162C140.054 37.9775 141.126 38.4082 142.55 38.4082C143.921 38.4082 144.976 37.9775 145.714 37.1162C146.452 36.2549 146.821 35.2354 146.821 34.0576V33.9258H150.592V34.0049C150.592 35.3936 150.267 36.6592 149.616 37.8018C148.983 38.9268 148.069 39.8232 146.874 40.4912C145.679 41.1416 144.229 41.4668 142.523 41.4668ZM158.054 79.4619L160.374 66.5684H165.173L161.323 79.4619H158.054ZM191.936 72.5273C189.141 72.5273 186.785 71.9033 184.869 70.6553C182.971 69.4072 181.529 67.5527 180.545 65.0918C179.578 62.6309 179.095 59.5898 179.095 55.9688V55.916C179.095 52.1367 179.358 48.8936 179.886 46.1865C180.431 43.4795 181.274 41.2559 182.417 39.5156C183.577 37.7578 185.089 36.4482 186.952 35.5869C188.833 34.708 191.101 34.2158 193.755 34.1104L195.785 34.0312C197.104 33.9785 198.431 33.8203 199.767 33.5566C201.103 33.293 202.157 32.959 202.931 32.5547V36.5625C202.491 36.9492 201.621 37.3008 200.32 37.6172C199.02 37.916 197.578 38.1006 195.996 38.1709L193.966 38.25C191.47 38.3379 189.492 38.7861 188.033 39.5947C186.574 40.4033 185.467 41.6338 184.711 43.2861C183.973 44.9209 183.41 47.0654 183.023 49.7197L182.971 50.0889H183.076C183.691 48.999 184.465 48.0938 185.396 47.373C186.346 46.6348 187.427 46.0811 188.64 45.7119C189.87 45.3428 191.197 45.1582 192.621 45.1582C195.1 45.1582 197.244 45.7119 199.055 46.8193C200.865 47.9092 202.263 49.4561 203.247 51.46C204.249 53.4463 204.75 55.8018 204.75 58.5264V58.5791C204.75 61.4443 204.231 63.9229 203.194 66.0146C202.157 68.1064 200.681 69.7148 198.765 70.8398C196.866 71.9648 194.59 72.5273 191.936 72.5273ZM191.936 68.4668C193.658 68.4668 195.117 68.0801 196.312 67.3066C197.525 66.5332 198.448 65.4082 199.081 63.9316C199.731 62.4551 200.057 60.6709 200.057 58.5791V58.5264C200.057 56.54 199.731 54.8525 199.081 53.4639C198.448 52.0752 197.525 51.0205 196.312 50.2998C195.117 49.5791 193.658 49.2188 191.936 49.2188C190.213 49.2188 188.745 49.5791 187.532 50.2998C186.319 51.0205 185.388 52.0752 184.737 53.4639C184.104 54.8525 183.788 56.54 183.788 58.5264V58.5791C183.788 60.6709 184.104 62.4551 184.737 63.9316C185.388 65.4082 186.319 66.5332 187.532 67.3066C188.745 68.0801 190.213 68.4668 191.936 68.4668ZM209.892 81.2285V44.5781H214.479V49.2188H214.585C215.165 48.1465 215.877 47.2324 216.721 46.4766C217.582 45.7031 218.566 45.1055 219.674 44.6836C220.781 44.2617 221.985 44.0508 223.286 44.0508C225.624 44.0508 227.663 44.6396 229.403 45.8174C231.161 46.9775 232.523 48.6299 233.49 50.7744C234.457 52.9014 234.94 55.4062 234.94 58.2891V58.3154C234.94 61.1982 234.448 63.7031 233.464 65.8301C232.497 67.957 231.144 69.6094 229.403 70.7871C227.681 71.9473 225.668 72.5273 223.365 72.5273C222.082 72.5273 220.878 72.3252 219.753 71.9209C218.628 71.499 217.626 70.9102 216.747 70.1543C215.886 69.3809 215.165 68.4668 214.585 67.4121H214.479V81.2285H209.892ZM222.39 68.4668C224.007 68.4668 225.404 68.0537 226.582 67.2275C227.76 66.4014 228.665 65.2324 229.298 63.7207C229.931 62.1914 230.247 60.3896 230.247 58.3154V58.2891C230.247 56.1797 229.931 54.3691 229.298 52.8574C228.665 51.3281 227.76 50.1592 226.582 49.3506C225.404 48.5244 224.007 48.1113 222.39 48.1113C220.843 48.1113 219.472 48.5332 218.276 49.377C217.081 50.2207 216.141 51.4072 215.455 52.9365C214.787 54.4482 214.453 56.2324 214.453 58.2891V58.3154C214.453 60.3545 214.796 62.1387 215.481 63.668C216.167 65.1797 217.099 66.3574 218.276 67.2012C219.472 68.0449 220.843 68.4668 222.39 68.4668ZM251.473 72.5273C248.941 72.5273 246.718 71.9473 244.802 70.7871C242.903 69.627 241.418 67.9834 240.346 65.8564C239.291 63.7119 238.764 61.1895 238.764 58.2891V58.2363C238.764 55.3184 239.291 52.8047 240.346 50.6953C241.418 48.5684 242.903 46.9336 244.802 45.791C246.718 44.6309 248.933 44.0508 251.446 44.0508C253.978 44.0508 256.192 44.6309 258.091 45.791C260.007 46.9336 261.492 48.5684 262.547 50.6953C263.619 52.8047 264.155 55.3184 264.155 58.2363V58.2891C264.155 61.207 263.619 63.7295 262.547 65.8564C261.492 67.9834 260.016 69.627 258.117 70.7871C256.219 71.9473 254.004 72.5273 251.473 72.5273ZM251.499 68.4668C253.116 68.4668 254.514 68.0713 255.691 67.2803C256.887 66.4717 257.81 65.3115 258.46 63.7998C259.128 62.2705 259.462 60.4336 259.462 58.2891V58.2363C259.462 56.0918 259.128 54.2637 258.46 52.752C257.81 51.2402 256.878 50.0889 255.665 49.2979C254.47 48.5068 253.063 48.1113 251.446 48.1113C249.864 48.1113 248.467 48.5156 247.254 49.3242C246.059 50.1152 245.127 51.2666 244.459 52.7783C243.791 54.2725 243.457 56.0918 243.457 58.2363V58.2891C243.457 60.4336 243.791 62.2705 244.459 63.7998C245.127 65.3115 246.059 66.4717 247.254 67.2803C248.467 68.0713 249.882 68.4668 251.499 68.4668ZM265.632 79.4619L267.952 66.5684H272.751L268.901 79.4619H265.632ZM93.2168 117V89.5781H104.95C107.517 89.5781 109.538 90.2109 111.015 91.4766C112.491 92.7422 113.229 94.4648 113.229 96.6445V96.6973C113.229 98.1035 112.79 99.3779 111.911 100.521C111.05 101.663 109.986 102.366 108.721 102.63V102.841C109.881 102.999 110.883 103.359 111.727 103.922C112.588 104.484 113.256 105.205 113.73 106.084C114.205 106.963 114.442 107.965 114.442 109.09V109.143C114.442 110.742 114.064 112.131 113.309 113.309C112.553 114.486 111.472 115.4 110.065 116.051C108.659 116.684 106.98 117 105.029 117H93.2168ZM97.8047 113.203H104.634C106.304 113.203 107.569 112.852 108.431 112.148C109.31 111.445 109.749 110.408 109.749 109.037V108.984C109.749 107.578 109.257 106.541 108.272 105.873C107.306 105.188 105.82 104.845 103.816 104.845H97.8047V113.203ZM97.8047 101.048H103.579C105.302 101.048 106.576 100.731 107.402 100.099C108.246 99.4658 108.668 98.4902 108.668 97.1719V97.1191C108.668 95.8887 108.29 94.957 107.534 94.3242C106.796 93.6914 105.706 93.375 104.265 93.375H97.8047V101.048ZM131.08 117.527C128.549 117.527 126.325 116.947 124.409 115.787C122.511 114.627 121.025 112.983 119.953 110.856C118.898 108.712 118.371 106.189 118.371 103.289V103.236C118.371 100.318 118.898 97.8047 119.953 95.6953C121.025 93.5684 122.511 91.9336 124.409 90.791C126.325 89.6309 128.54 89.0508 131.054 89.0508C133.585 89.0508 135.8 89.6309 137.698 90.791C139.614 91.9336 141.1 93.5684 142.154 95.6953C143.227 97.8047 143.763 100.318 143.763 103.236V103.289C143.763 106.207 143.227 108.729 142.154 110.856C141.1 112.983 139.623 114.627 137.725 115.787C135.826 116.947 133.611 117.527 131.08 117.527ZM131.106 113.467C132.724 113.467 134.121 113.071 135.299 112.28C136.494 111.472 137.417 110.312 138.067 108.8C138.735 107.271 139.069 105.434 139.069 103.289V103.236C139.069 101.092 138.735 99.2637 138.067 97.752C137.417 96.2402 136.485 95.0889 135.272 94.2979C134.077 93.5068 132.671 93.1113 131.054 93.1113C129.472 93.1113 128.074 93.5156 126.861 94.3242C125.666 95.1152 124.734 96.2666 124.066 97.7783C123.398 99.2725 123.064 101.092 123.064 103.236V103.289C123.064 105.434 123.398 107.271 124.066 108.8C124.734 110.312 125.666 111.472 126.861 112.28C128.074 113.071 129.489 113.467 131.106 113.467ZM160.295 117.527C157.764 117.527 155.54 116.947 153.624 115.787C151.726 114.627 150.24 112.983 149.168 110.856C148.113 108.712 147.586 106.189 147.586 103.289V103.236C147.586 100.318 148.113 97.8047 149.168 95.6953C150.24 93.5684 151.726 91.9336 153.624 90.791C155.54 89.6309 157.755 89.0508 160.269 89.0508C162.8 89.0508 165.015 89.6309 166.913 90.791C168.829 91.9336 170.314 93.5684 171.369 95.6953C172.441 97.8047 172.978 100.318 172.978 103.236V103.289C172.978 106.207 172.441 108.729 171.369 110.856C170.314 112.983 168.838 114.627 166.939 115.787C165.041 116.947 162.826 117.527 160.295 117.527ZM160.321 113.467C161.938 113.467 163.336 113.071 164.514 112.28C165.709 111.472 166.632 110.312 167.282 108.8C167.95 107.271 168.284 105.434 168.284 103.289V103.236C168.284 101.092 167.95 99.2637 167.282 97.752C166.632 96.2402 165.7 95.0889 164.487 94.2979C163.292 93.5068 161.886 93.1113 160.269 93.1113C158.687 93.1113 157.289 93.5156 156.076 94.3242C154.881 95.1152 153.949 96.2666 153.281 97.7783C152.613 99.2725 152.279 101.092 152.279 103.236V103.289C152.279 105.434 152.613 107.271 153.281 108.8C153.949 110.312 154.881 111.472 156.076 112.28C157.289 113.071 158.704 113.467 160.321 113.467ZM189.879 117.527C187.084 117.527 184.729 116.903 182.812 115.655C180.914 114.407 179.473 112.553 178.488 110.092C177.521 107.631 177.038 104.59 177.038 100.969V100.916C177.038 97.1367 177.302 93.8936 177.829 91.1865C178.374 88.4795 179.218 86.2559 180.36 84.5156C181.521 82.7578 183.032 81.4482 184.896 80.5869C186.776 79.708 189.044 79.2158 191.698 79.1104L193.729 79.0312C195.047 78.9785 196.374 78.8203 197.71 78.5566C199.046 78.293 200.101 77.959 200.874 77.5547V81.5625C200.435 81.9492 199.564 82.3008 198.264 82.6172C196.963 82.916 195.521 83.1006 193.939 83.1709L191.909 83.25C189.413 83.3379 187.436 83.7861 185.977 84.5947C184.518 85.4033 183.41 86.6338 182.654 88.2861C181.916 89.9209 181.354 92.0654 180.967 94.7197L180.914 95.0889H181.02C181.635 93.999 182.408 93.0938 183.34 92.373C184.289 91.6348 185.37 91.0811 186.583 90.7119C187.813 90.3428 189.141 90.1582 190.564 90.1582C193.043 90.1582 195.188 90.7119 196.998 91.8193C198.809 92.9092 200.206 94.4561 201.19 96.46C202.192 98.4463 202.693 100.802 202.693 103.526V103.579C202.693 106.444 202.175 108.923 201.138 111.015C200.101 113.106 198.624 114.715 196.708 115.84C194.81 116.965 192.533 117.527 189.879 117.527ZM189.879 113.467C191.602 113.467 193.061 113.08 194.256 112.307C195.469 111.533 196.392 110.408 197.024 108.932C197.675 107.455 198 105.671 198 103.579V103.526C198 101.54 197.675 99.8525 197.024 98.4639C196.392 97.0752 195.469 96.0205 194.256 95.2998C193.061 94.5791 191.602 94.2188 189.879 94.2188C188.156 94.2188 186.688 94.5791 185.476 95.2998C184.263 96.0205 183.331 97.0752 182.681 98.4639C182.048 99.8525 181.731 101.54 181.731 103.526V103.579C181.731 105.671 182.048 107.455 182.681 108.932C183.331 110.408 184.263 111.533 185.476 112.307C186.688 113.08 188.156 113.467 189.879 113.467ZM207.809 117V89.5781H212.396V113.203H222.442V89.5781H227.03V113.203H237.076V89.5781H241.664V117H207.809ZM241.77 124.515V117H237.076V113.203H245.936V124.515H241.77ZM261.36 117.527C258.741 117.527 256.482 116.947 254.584 115.787C252.703 114.627 251.253 112.992 250.233 110.883C249.231 108.756 248.73 106.26 248.73 103.395V103.368C248.73 100.538 249.24 98.0508 250.26 95.9062C251.279 93.7441 252.712 92.0654 254.558 90.8701C256.403 89.6572 258.574 89.0508 261.07 89.0508C263.566 89.0508 265.711 89.6309 267.504 90.791C269.314 91.9336 270.703 93.542 271.67 95.6162C272.637 97.6904 273.12 100.099 273.12 102.841V104.528H251.024V100.942H270.853L268.532 104.265V102.498C268.532 100.371 268.207 98.6133 267.557 97.2246C266.924 95.8359 266.045 94.8076 264.92 94.1396C263.795 93.4541 262.503 93.1113 261.044 93.1113C259.585 93.1113 258.275 93.4717 257.115 94.1924C255.955 94.8955 255.041 95.9502 254.373 97.3564C253.705 98.7451 253.371 100.459 253.371 102.498V104.265C253.371 106.198 253.696 107.851 254.347 109.222C255.015 110.593 255.955 111.647 257.168 112.386C258.381 113.106 259.813 113.467 261.466 113.467C262.626 113.467 263.663 113.291 264.577 112.939C265.491 112.588 266.256 112.104 266.871 111.489C267.486 110.874 267.926 110.171 268.189 109.38L268.269 109.143H272.777L272.725 109.406C272.496 110.531 272.057 111.586 271.406 112.57C270.773 113.555 269.956 114.425 268.954 115.181C267.952 115.919 266.81 116.499 265.526 116.921C264.243 117.325 262.854 117.527 261.36 117.527ZM282.85 117H278.262V89.5781H283.878L293.581 110.936H293.792L303.574 89.5781H308.953V117H304.365V97.541H304.181L295.348 116.209H291.841L283.034 97.541H282.85V117ZM313.304 124.462L315.624 111.568H320.423L316.573 124.462H313.304ZM350.877 117V107.244H345.735L338.774 117H333.475L341.121 106.4C339.188 105.838 337.667 104.88 336.56 103.526C335.452 102.173 334.898 100.564 334.898 98.7012V98.6484C334.898 96.7676 335.32 95.1504 336.164 93.7969C337.025 92.4434 338.229 91.4062 339.776 90.6855C341.341 89.9473 343.169 89.5781 345.261 89.5781H355.465V117H350.877ZM345.287 103.447H350.877V93.375H345.287C343.512 93.375 342.114 93.832 341.095 94.7461C340.093 95.6602 339.592 96.9346 339.592 98.5693V98.6221C339.592 100.028 340.102 101.188 341.121 102.103C342.141 102.999 343.529 103.447 345.287 103.447ZM393.038 89.5781V93.375H384.205V117H379.617V93.375H370.784V89.5781H393.038ZM399.946 126.229C399.507 126.229 399.059 126.202 398.602 126.149C398.162 126.114 397.793 126.07 397.494 126.018V122.273C397.688 122.309 397.907 122.344 398.153 122.379C398.417 122.414 398.689 122.432 398.971 122.432C400.43 122.432 401.59 122.177 402.451 121.667C403.33 121.157 404.042 120.129 404.587 118.582L405.141 117.026L394.963 89.5781H399.867L407.777 113.467L406.802 112.412H408.173L407.197 113.467L415.134 89.5781H419.959L409.254 118.714C408.604 120.454 407.874 121.878 407.065 122.985C406.257 124.093 405.281 124.91 404.139 125.438C402.996 125.965 401.599 126.229 399.946 126.229ZM444.138 89.5781V93.375H435.305V117H430.717V93.375H421.884V89.5781H444.138ZM93.2168 162V134.578H115.576V162H110.962V138.375H97.8047V162H93.2168ZM122.036 171.229V134.578H126.624V139.219H126.729C127.31 138.146 128.021 137.232 128.865 136.477C129.727 135.703 130.711 135.105 131.818 134.684C132.926 134.262 134.13 134.051 135.431 134.051C137.769 134.051 139.808 134.64 141.548 135.817C143.306 136.978 144.668 138.63 145.635 140.774C146.602 142.901 147.085 145.406 147.085 148.289V148.315C147.085 151.198 146.593 153.703 145.608 155.83C144.642 157.957 143.288 159.609 141.548 160.787C139.825 161.947 137.812 162.527 135.51 162.527C134.227 162.527 133.022 162.325 131.897 161.921C130.772 161.499 129.771 160.91 128.892 160.154C128.03 159.381 127.31 158.467 126.729 157.412H126.624V171.229H122.036ZM134.534 158.467C136.151 158.467 137.549 158.054 138.727 157.228C139.904 156.401 140.81 155.232 141.442 153.721C142.075 152.191 142.392 150.39 142.392 148.315V148.289C142.392 146.18 142.075 144.369 141.442 142.857C140.81 141.328 139.904 140.159 138.727 139.351C137.549 138.524 136.151 138.111 134.534 138.111C132.987 138.111 131.616 138.533 130.421 139.377C129.226 140.221 128.285 141.407 127.6 142.937C126.932 144.448 126.598 146.232 126.598 148.289V148.315C126.598 150.354 126.94 152.139 127.626 153.668C128.312 155.18 129.243 156.357 130.421 157.201C131.616 158.045 132.987 158.467 134.534 158.467ZM152.227 162V134.578H156.814V154.96H159.029L155.892 156.647L170.684 134.578H175.219V162H170.631V141.618H168.416L171.554 139.931L156.762 162H152.227ZM183.208 169.515H178.937V158.203H181.23C182.232 157.535 182.988 156.428 183.498 154.881C184.025 153.334 184.351 151.638 184.474 149.792L185.528 134.578H204.407V158.203H208.758V169.515H204.486V162H183.208V169.515ZM199.819 158.203V138.375H189.562L188.719 149.897C188.596 151.62 188.35 153.202 187.98 154.644C187.611 156.067 187.084 157.219 186.398 158.098V158.203H199.819ZM215.007 171.229C214.567 171.229 214.119 171.202 213.662 171.149C213.223 171.114 212.854 171.07 212.555 171.018V167.273C212.748 167.309 212.968 167.344 213.214 167.379C213.478 167.414 213.75 167.432 214.031 167.432C215.49 167.432 216.65 167.177 217.512 166.667C218.391 166.157 219.103 165.129 219.647 163.582L220.201 162.026L210.023 134.578H214.928L222.838 158.467L221.862 157.412H223.233L222.258 158.467L230.194 134.578H235.02L224.314 163.714C223.664 165.454 222.935 166.878 222.126 167.985C221.317 169.093 220.342 169.91 219.199 170.438C218.057 170.965 216.659 171.229 215.007 171.229ZM243.721 162H239.133V134.578H244.749L254.452 155.936H254.663L264.445 134.578H269.824V162H265.236V142.541H265.052L256.219 161.209H252.712L243.905 142.541H243.721V162ZM284.3 162.527C282.489 162.527 280.898 162.185 279.527 161.499C278.156 160.813 277.084 159.847 276.311 158.599C275.555 157.351 275.177 155.9 275.177 154.248V154.195C275.177 152.631 275.563 151.277 276.337 150.135C277.128 148.992 278.262 148.087 279.738 147.419C281.232 146.751 283.025 146.355 285.117 146.232L295.269 145.652V149.212L285.645 149.792C283.816 149.897 282.393 150.337 281.373 151.11C280.371 151.884 279.87 152.912 279.87 154.195V154.248C279.87 155.566 280.362 156.612 281.347 157.386C282.349 158.159 283.676 158.546 285.328 158.546C286.77 158.546 288.062 158.247 289.204 157.649C290.364 157.034 291.278 156.199 291.946 155.145C292.632 154.09 292.975 152.903 292.975 151.585V143.49C292.975 141.82 292.447 140.511 291.393 139.562C290.355 138.595 288.879 138.111 286.963 138.111C285.205 138.111 283.781 138.498 282.691 139.271C281.619 140.027 280.951 141.021 280.688 142.251L280.635 142.488H276.205L276.231 142.198C276.372 140.687 276.882 139.315 277.761 138.085C278.657 136.854 279.888 135.879 281.452 135.158C283.017 134.42 284.871 134.051 287.016 134.051C289.178 134.051 291.041 134.42 292.605 135.158C294.188 135.896 295.409 136.942 296.271 138.296C297.132 139.632 297.562 141.214 297.562 143.042V162H292.975V157.544H292.869C292.342 158.546 291.639 159.425 290.76 160.181C289.881 160.919 288.888 161.499 287.78 161.921C286.69 162.325 285.53 162.527 284.3 162.527ZM311.511 149.924C311.317 152.438 310.948 154.626 310.403 156.489C309.876 158.335 309.05 159.759 307.925 160.761C306.817 161.763 305.288 162.264 303.337 162.264C302.897 162.264 302.511 162.237 302.177 162.185C301.86 162.132 301.605 162.07 301.412 162V157.86C301.535 157.896 301.72 157.939 301.966 157.992C302.212 158.027 302.511 158.045 302.862 158.045C303.847 158.045 304.629 157.711 305.209 157.043C305.789 156.375 306.229 155.426 306.527 154.195C306.826 152.947 307.037 151.488 307.16 149.818L308.241 134.578H327.516V162H322.928V138.375H312.381L311.511 149.924ZM113.282 179.578V183.375H104.449V207H99.8613V183.375H91.0283V179.578H113.282ZM128.391 207.527C125.859 207.527 123.636 206.947 121.72 205.787C119.821 204.627 118.336 202.983 117.264 200.856C116.209 198.712 115.682 196.189 115.682 193.289V193.236C115.682 190.318 116.209 187.805 117.264 185.695C118.336 183.568 119.821 181.934 121.72 180.791C123.636 179.631 125.851 179.051 128.364 179.051C130.896 179.051 133.11 179.631 135.009 180.791C136.925 181.934 138.41 183.568 139.465 185.695C140.537 187.805 141.073 190.318 141.073 193.236V193.289C141.073 196.207 140.537 198.729 139.465 200.856C138.41 202.983 136.934 204.627 135.035 205.787C133.137 206.947 130.922 207.527 128.391 207.527ZM128.417 203.467C130.034 203.467 131.432 203.071 132.609 202.28C133.805 201.472 134.728 200.312 135.378 198.8C136.046 197.271 136.38 195.434 136.38 193.289V193.236C136.38 191.092 136.046 189.264 135.378 187.752C134.728 186.24 133.796 185.089 132.583 184.298C131.388 183.507 129.981 183.111 128.364 183.111C126.782 183.111 125.385 183.516 124.172 184.324C122.977 185.115 122.045 186.267 121.377 187.778C120.709 189.272 120.375 191.092 120.375 193.236V193.289C120.375 195.434 120.709 197.271 121.377 198.8C122.045 200.312 122.977 201.472 124.172 202.28C125.385 203.071 126.8 203.467 128.417 203.467ZM146.215 207V179.578H168.574V207H163.96V183.375H150.803V207H146.215ZM186.398 207.527C183.867 207.527 181.644 206.947 179.728 205.787C177.829 204.627 176.344 202.983 175.271 200.856C174.217 198.712 173.689 196.189 173.689 193.289V193.236C173.689 190.318 174.217 187.805 175.271 185.695C176.344 183.568 177.829 181.934 179.728 180.791C181.644 179.631 183.858 179.051 186.372 179.051C188.903 179.051 191.118 179.631 193.017 180.791C194.933 181.934 196.418 183.568 197.473 185.695C198.545 187.805 199.081 190.318 199.081 193.236V193.289C199.081 196.207 198.545 198.729 197.473 200.856C196.418 202.983 194.941 204.627 193.043 205.787C191.145 206.947 188.93 207.527 186.398 207.527ZM186.425 203.467C188.042 203.467 189.439 203.071 190.617 202.28C191.812 201.472 192.735 200.312 193.386 198.8C194.054 197.271 194.388 195.434 194.388 193.289V193.236C194.388 191.092 194.054 189.264 193.386 187.752C192.735 186.24 191.804 185.089 190.591 184.298C189.396 183.507 187.989 183.111 186.372 183.111C184.79 183.111 183.393 183.516 182.18 184.324C180.984 185.115 180.053 186.267 179.385 187.778C178.717 189.272 178.383 191.092 178.383 193.236V193.289C178.383 195.434 178.717 197.271 179.385 198.8C180.053 200.312 180.984 201.472 182.18 202.28C183.393 203.071 184.808 203.467 186.425 203.467ZM204.223 207V179.578H215.956C218.522 179.578 220.544 180.211 222.021 181.477C223.497 182.742 224.235 184.465 224.235 186.645V186.697C224.235 188.104 223.796 189.378 222.917 190.521C222.056 191.663 220.992 192.366 219.727 192.63V192.841C220.887 192.999 221.889 193.359 222.732 193.922C223.594 194.484 224.262 195.205 224.736 196.084C225.211 196.963 225.448 197.965 225.448 199.09V199.143C225.448 200.742 225.07 202.131 224.314 203.309C223.559 204.486 222.478 205.4 221.071 206.051C219.665 206.684 217.986 207 216.035 207H204.223ZM208.811 203.203H215.64C217.31 203.203 218.575 202.852 219.437 202.148C220.315 201.445 220.755 200.408 220.755 199.037V198.984C220.755 197.578 220.263 196.541 219.278 195.873C218.312 195.188 216.826 194.845 214.822 194.845H208.811V203.203ZM208.811 191.048H214.585C216.308 191.048 217.582 190.731 218.408 190.099C219.252 189.466 219.674 188.49 219.674 187.172V187.119C219.674 185.889 219.296 184.957 218.54 184.324C217.802 183.691 216.712 183.375 215.271 183.375H208.811V191.048ZM230.695 207V179.578H235.283V188.332H240.425C243.571 188.332 246.076 189.176 247.939 190.863C249.803 192.533 250.734 194.792 250.734 197.64V197.692C250.734 200.54 249.803 202.808 247.939 204.495C246.076 206.165 243.571 207 240.425 207H230.695ZM240.346 192.129H235.283V203.203H240.346C242.104 203.203 243.492 202.702 244.512 201.7C245.531 200.681 246.041 199.345 246.041 197.692V197.64C246.041 195.97 245.522 194.634 244.485 193.632C243.466 192.63 242.086 192.129 240.346 192.129ZM254.215 207V179.578H258.803V207H254.215ZM265.236 207V179.578H269.824V199.96H272.039L268.901 201.647L283.693 179.578H288.229V207H283.641V186.618H281.426L284.563 184.931L269.771 207H265.236ZM277.049 176.467C275.379 176.467 273.938 176.142 272.725 175.491C271.529 174.823 270.615 173.927 269.982 172.802C269.35 171.659 269.033 170.394 269.033 169.005V168.926H272.804V169.058C272.804 170.235 273.155 171.255 273.858 172.116C274.579 172.978 275.651 173.408 277.075 173.408C278.446 173.408 279.501 172.978 280.239 172.116C280.978 171.255 281.347 170.235 281.347 169.058V168.926H285.117V169.005C285.117 170.394 284.792 171.659 284.142 172.802C283.509 173.927 282.595 174.823 281.399 175.491C280.204 176.142 278.754 176.467 277.049 176.467ZM114.126 252H109.538V240.003H109.433C108.571 240.759 107.525 241.33 106.295 241.717C105.082 242.104 103.825 242.297 102.524 242.297C99.2373 242.297 96.75 241.436 95.0625 239.713C93.375 237.973 92.5312 235.644 92.5312 232.726V224.578H97.1191V232.409C97.1191 234.36 97.6377 235.819 98.6748 236.786C99.7295 237.753 101.303 238.236 103.395 238.236C104.203 238.236 104.994 238.148 105.768 237.973C106.559 237.797 107.279 237.551 107.93 237.234C108.58 236.918 109.116 236.549 109.538 236.127V224.578H114.126V252ZM131.897 252.527C129.278 252.527 127.02 251.947 125.121 250.787C123.24 249.627 121.79 247.992 120.771 245.883C119.769 243.756 119.268 241.26 119.268 238.395V238.368C119.268 235.538 119.777 233.051 120.797 230.906C121.816 228.744 123.249 227.065 125.095 225.87C126.94 224.657 129.111 224.051 131.607 224.051C134.104 224.051 136.248 224.631 138.041 225.791C139.852 226.934 141.24 228.542 142.207 230.616C143.174 232.69 143.657 235.099 143.657 237.841V239.528H121.562V235.942H141.39L139.069 239.265V237.498C139.069 235.371 138.744 233.613 138.094 232.225C137.461 230.836 136.582 229.808 135.457 229.14C134.332 228.454 133.04 228.111 131.581 228.111C130.122 228.111 128.812 228.472 127.652 229.192C126.492 229.896 125.578 230.95 124.91 232.356C124.242 233.745 123.908 235.459 123.908 237.498V239.265C123.908 241.198 124.233 242.851 124.884 244.222C125.552 245.593 126.492 246.647 127.705 247.386C128.918 248.106 130.351 248.467 132.003 248.467C133.163 248.467 134.2 248.291 135.114 247.939C136.028 247.588 136.793 247.104 137.408 246.489C138.023 245.874 138.463 245.171 138.727 244.38L138.806 244.143H143.314L143.262 244.406C143.033 245.531 142.594 246.586 141.943 247.57C141.311 248.555 140.493 249.425 139.491 250.181C138.489 250.919 137.347 251.499 136.063 251.921C134.78 252.325 133.392 252.527 131.897 252.527ZM155.364 239.924C155.171 242.438 154.802 244.626 154.257 246.489C153.729 248.335 152.903 249.759 151.778 250.761C150.671 251.763 149.142 252.264 147.19 252.264C146.751 252.264 146.364 252.237 146.03 252.185C145.714 252.132 145.459 252.07 145.266 252V247.86C145.389 247.896 145.573 247.939 145.819 247.992C146.065 248.027 146.364 248.045 146.716 248.045C147.7 248.045 148.482 247.711 149.062 247.043C149.643 246.375 150.082 245.426 150.381 244.195C150.68 242.947 150.891 241.488 151.014 239.818L152.095 224.578H171.369V252H166.781V228.375H156.234L155.364 239.924ZM185.476 239.924C185.282 242.438 184.913 244.626 184.368 246.489C183.841 248.335 183.015 249.759 181.89 250.761C180.782 251.763 179.253 252.264 177.302 252.264C176.862 252.264 176.476 252.237 176.142 252.185C175.825 252.132 175.57 252.07 175.377 252V247.86C175.5 247.896 175.685 247.939 175.931 247.992C176.177 248.027 176.476 248.045 176.827 248.045C177.812 248.045 178.594 247.711 179.174 247.043C179.754 246.375 180.193 245.426 180.492 244.195C180.791 242.947 181.002 241.488 181.125 239.818L182.206 224.578H201.48V252H196.893V228.375H186.346L185.476 239.924ZM219.278 252.527C216.659 252.527 214.4 251.947 212.502 250.787C210.621 249.627 209.171 247.992 208.151 245.883C207.149 243.756 206.648 241.26 206.648 238.395V238.368C206.648 235.538 207.158 233.051 208.178 230.906C209.197 228.744 210.63 227.065 212.476 225.87C214.321 224.657 216.492 224.051 218.988 224.051C221.484 224.051 223.629 224.631 225.422 225.791C227.232 226.934 228.621 228.542 229.588 230.616C230.555 232.69 231.038 235.099 231.038 237.841V239.528H208.942V235.942H228.771L226.45 239.265V237.498C226.45 235.371 226.125 233.613 225.475 232.225C224.842 230.836 223.963 229.808 222.838 229.14C221.713 228.454 220.421 228.111 218.962 228.111C217.503 228.111 216.193 228.472 215.033 229.192C213.873 229.896 212.959 230.95 212.291 232.356C211.623 233.745 211.289 235.459 211.289 237.498V239.265C211.289 241.198 211.614 242.851 212.265 244.222C212.933 245.593 213.873 246.647 215.086 247.386C216.299 248.106 217.731 248.467 219.384 248.467C220.544 248.467 221.581 248.291 222.495 247.939C223.409 247.588 224.174 247.104 224.789 246.489C225.404 245.874 225.844 245.171 226.107 244.38L226.187 244.143H230.695L230.643 244.406C230.414 245.531 229.975 246.586 229.324 247.57C228.691 248.555 227.874 249.425 226.872 250.181C225.87 250.919 224.728 251.499 223.444 251.921C222.161 252.325 220.772 252.527 219.278 252.527ZM254.188 252V239.687H240.768V252H236.18V224.578H240.768V235.89H254.188V224.578H258.776V252H254.188ZM266.792 259.515H262.521V248.203H264.814C265.816 247.535 266.572 246.428 267.082 244.881C267.609 243.334 267.935 241.638 268.058 239.792L269.112 224.578H287.991V248.203H292.342V259.515H288.07V252H266.792V259.515ZM283.403 248.203V228.375H273.146L272.303 239.897C272.18 241.62 271.934 243.202 271.564 244.644C271.195 246.067 270.668 247.219 269.982 248.098V248.203H283.403ZM299.725 252H293.845L306.765 236.944V238.104L294.267 224.578H299.856L310.43 236.285H311.221V224.578H315.65V236.285H316.441L327.015 224.578H332.604L320.106 238.104V236.944L333.026 252H327.146L316.441 239.238H315.65V252H311.221V239.238H310.43L299.725 252ZM349.479 259.515H345.208V248.203H347.502C348.504 247.535 349.26 246.428 349.77 244.881C350.297 243.334 350.622 241.638 350.745 239.792L351.8 224.578H370.679V248.203H375.029V259.515H370.758V252H349.479V259.515ZM366.091 248.203V228.375H355.834L354.99 239.897C354.867 241.62 354.621 243.202 354.252 244.644C353.883 246.067 353.355 247.219 352.67 248.098V248.203H366.091ZM386.763 239.924C386.569 242.438 386.2 244.626 385.655 246.489C385.128 248.335 384.302 249.759 383.177 250.761C382.069 251.763 380.54 252.264 378.589 252.264C378.149 252.264 377.763 252.237 377.429 252.185C377.112 252.132 376.857 252.07 376.664 252V247.86C376.787 247.896 376.972 247.939 377.218 247.992C377.464 248.027 377.763 248.045 378.114 248.045C379.099 248.045 379.881 247.711 380.461 247.043C381.041 246.375 381.48 245.426 381.779 244.195C382.078 242.947 382.289 241.488 382.412 239.818L383.493 224.578H402.768V252H398.18V228.375H387.633L386.763 239.924ZM424.705 252V242.244H419.563L412.603 252H407.303L414.949 241.4C413.016 240.838 411.495 239.88 410.388 238.526C409.28 237.173 408.727 235.564 408.727 233.701V233.648C408.727 231.768 409.148 230.15 409.992 228.797C410.854 227.443 412.058 226.406 413.604 225.686C415.169 224.947 416.997 224.578 419.089 224.578H429.293V252H424.705ZM419.115 238.447H424.705V228.375H419.115C417.34 228.375 415.942 228.832 414.923 229.746C413.921 230.66 413.42 231.935 413.42 233.569V233.622C413.42 235.028 413.93 236.188 414.949 237.103C415.969 237.999 417.357 238.447 419.115 238.447ZM93.2168 297V269.578H104.95C107.517 269.578 109.538 270.211 111.015 271.477C112.491 272.742 113.229 274.465 113.229 276.645V276.697C113.229 278.104 112.79 279.378 111.911 280.521C111.05 281.663 109.986 282.366 108.721 282.63V282.841C109.881 282.999 110.883 283.359 111.727 283.922C112.588 284.484 113.256 285.205 113.73 286.084C114.205 286.963 114.442 287.965 114.442 289.09V289.143C114.442 290.742 114.064 292.131 113.309 293.309C112.553 294.486 111.472 295.4 110.065 296.051C108.659 296.684 106.98 297 105.029 297H93.2168ZM97.8047 293.203H104.634C106.304 293.203 107.569 292.852 108.431 292.148C109.31 291.445 109.749 290.408 109.749 289.037V288.984C109.749 287.578 109.257 286.541 108.272 285.873C107.306 285.188 105.82 284.845 103.816 284.845H97.8047V293.203ZM97.8047 281.048H103.579C105.302 281.048 106.576 280.731 107.402 280.099C108.246 279.466 108.668 278.49 108.668 277.172V277.119C108.668 275.889 108.29 274.957 107.534 274.324C106.796 273.691 105.706 273.375 104.265 273.375H97.8047V281.048ZM119.689 297V269.578H124.277V289.96H126.492L123.354 291.647L138.146 269.578H142.682V297H138.094V276.618H135.879L139.017 274.931L124.225 297H119.689ZM150.671 304.515H146.399V293.203H148.693C149.695 292.535 150.451 291.428 150.961 289.881C151.488 288.334 151.813 286.638 151.937 284.792L152.991 269.578H171.87V293.203H176.221V304.515H171.949V297H150.671V304.515ZM167.282 293.203V273.375H157.025L156.182 284.897C156.059 286.62 155.812 288.202 155.443 289.644C155.074 291.067 154.547 292.219 153.861 293.098V293.203H167.282ZM191.725 297.527C189.193 297.527 186.97 296.947 185.054 295.787C183.155 294.627 181.67 292.983 180.598 290.856C179.543 288.712 179.016 286.189 179.016 283.289V283.236C179.016 280.318 179.543 277.805 180.598 275.695C181.67 273.568 183.155 271.934 185.054 270.791C186.97 269.631 189.185 269.051 191.698 269.051C194.229 269.051 196.444 269.631 198.343 270.791C200.259 271.934 201.744 273.568 202.799 275.695C203.871 277.805 204.407 280.318 204.407 283.236V283.289C204.407 286.207 203.871 288.729 202.799 290.856C201.744 292.983 200.268 294.627 198.369 295.787C196.471 296.947 194.256 297.527 191.725 297.527ZM191.751 293.467C193.368 293.467 194.766 293.071 195.943 292.28C197.139 291.472 198.062 290.312 198.712 288.8C199.38 287.271 199.714 285.434 199.714 283.289V283.236C199.714 281.092 199.38 279.264 198.712 277.752C198.062 276.24 197.13 275.089 195.917 274.298C194.722 273.507 193.315 273.111 191.698 273.111C190.116 273.111 188.719 273.516 187.506 274.324C186.311 275.115 185.379 276.267 184.711 277.778C184.043 279.272 183.709 281.092 183.709 283.236V283.289C183.709 285.434 184.043 287.271 184.711 288.8C185.379 290.312 186.311 291.472 187.506 292.28C188.719 293.071 190.134 293.467 191.751 293.467ZM220.939 297.527C218.355 297.527 216.105 296.947 214.189 295.787C212.291 294.609 210.823 292.957 209.786 290.83C208.749 288.686 208.23 286.163 208.23 283.263V283.236C208.23 280.354 208.758 277.849 209.812 275.722C210.867 273.595 212.344 271.951 214.242 270.791C216.141 269.631 218.355 269.051 220.887 269.051C223.172 269.051 225.132 269.499 226.767 270.396C228.401 271.274 229.685 272.417 230.616 273.823C231.565 275.229 232.137 276.715 232.33 278.279L232.356 278.49H227.874L227.821 278.279C227.487 276.908 226.749 275.704 225.606 274.667C224.481 273.63 222.908 273.111 220.887 273.111C219.305 273.111 217.916 273.533 216.721 274.377C215.525 275.203 214.594 276.381 213.926 277.91C213.258 279.422 212.924 281.215 212.924 283.289V283.315C212.924 285.442 213.258 287.262 213.926 288.773C214.611 290.285 215.552 291.445 216.747 292.254C217.96 293.062 219.357 293.467 220.939 293.467C222.82 293.467 224.341 292.992 225.501 292.043C226.679 291.076 227.461 289.828 227.848 288.299L227.9 288.088H232.409L232.383 288.272C232.137 290.013 231.495 291.586 230.458 292.992C229.438 294.381 228.111 295.488 226.477 296.314C224.859 297.123 223.014 297.527 220.939 297.527ZM245.171 297.527C243.36 297.527 241.77 297.185 240.398 296.499C239.027 295.813 237.955 294.847 237.182 293.599C236.426 292.351 236.048 290.9 236.048 289.248V289.195C236.048 287.631 236.435 286.277 237.208 285.135C237.999 283.992 239.133 283.087 240.609 282.419C242.104 281.751 243.896 281.355 245.988 281.232L256.14 280.652V284.212L246.516 284.792C244.688 284.897 243.264 285.337 242.244 286.11C241.242 286.884 240.741 287.912 240.741 289.195V289.248C240.741 290.566 241.233 291.612 242.218 292.386C243.22 293.159 244.547 293.546 246.199 293.546C247.641 293.546 248.933 293.247 250.075 292.649C251.235 292.034 252.149 291.199 252.817 290.145C253.503 289.09 253.846 287.903 253.846 286.585V278.49C253.846 276.82 253.318 275.511 252.264 274.562C251.227 273.595 249.75 273.111 247.834 273.111C246.076 273.111 244.652 273.498 243.562 274.271C242.49 275.027 241.822 276.021 241.559 277.251L241.506 277.488H237.076L237.103 277.198C237.243 275.687 237.753 274.315 238.632 273.085C239.528 271.854 240.759 270.879 242.323 270.158C243.888 269.42 245.742 269.051 247.887 269.051C250.049 269.051 251.912 269.42 253.477 270.158C255.059 270.896 256.28 271.942 257.142 273.296C258.003 274.632 258.434 276.214 258.434 278.042V297H253.846V292.544H253.74C253.213 293.546 252.51 294.425 251.631 295.181C250.752 295.919 249.759 296.499 248.651 296.921C247.562 297.325 246.401 297.527 245.171 297.527ZM266.687 284.37L266.37 258.952H271.116L270.8 284.37H266.687ZM268.743 297.264C267.899 297.264 267.188 296.974 266.607 296.394C266.027 295.813 265.737 295.102 265.737 294.258C265.737 293.396 266.027 292.685 266.607 292.122C267.188 291.542 267.899 291.252 268.743 291.252C269.604 291.252 270.316 291.542 270.879 292.122C271.459 292.685 271.749 293.396 271.749 294.258C271.749 295.102 271.459 295.813 270.879 296.394C270.316 296.974 269.604 297.264 268.743 297.264Z" fill="#FF0000"/>
<path d="M20 340C20 328.954 28.9543 320 40 320H400C411.046 320 420 328.954 420 340V475H40C28.9543 475 20 466.046 20 455V340Z" fill="#5DCF00" fill-opacity="0.3"/>
<path d="M38.7012 372H33.9551V333.952H38.7012V350.669H40.2832L55.0488 333.952H61.0078L43.6846 352.726L43.7373 351.565L62.7744 372H56.3936L40.2832 354.466H38.7012V372ZM73.8486 372.527C72.0381 372.527 70.4473 372.185 69.0762 371.499C67.7051 370.813 66.6328 369.847 65.8594 368.599C65.1035 367.351 64.7256 365.9 64.7256 364.248V364.195C64.7256 362.631 65.1123 361.277 65.8857 360.135C66.6768 358.992 67.8105 358.087 69.2871 357.419C70.7812 356.751 72.5742 356.355 74.666 356.232L84.8174 355.652V359.212L75.1934 359.792C73.3652 359.897 71.9414 360.337 70.9219 361.11C69.9199 361.884 69.4189 362.912 69.4189 364.195V364.248C69.4189 365.566 69.9111 366.612 70.8955 367.386C71.8975 368.159 73.2246 368.546 74.877 368.546C76.3184 368.546 77.6104 368.247 78.7529 367.649C79.9131 367.034 80.8271 366.199 81.4951 365.145C82.1807 364.09 82.5234 362.903 82.5234 361.585V353.49C82.5234 351.82 81.9961 350.511 80.9414 349.562C79.9043 348.595 78.4277 348.111 76.5117 348.111C74.7539 348.111 73.3301 348.498 72.2402 349.271C71.168 350.027 70.5 351.021 70.2363 352.251L70.1836 352.488H65.7539L65.7803 352.198C65.9209 350.687 66.4307 349.315 67.3096 348.085C68.2061 346.854 69.4365 345.879 71.001 345.158C72.5654 344.42 74.4199 344.051 76.5645 344.051C78.7266 344.051 80.5898 344.42 82.1543 345.158C83.7363 345.896 84.958 346.942 85.8193 348.296C86.6807 349.632 87.1113 351.214 87.1113 353.042V372H82.5234V367.544H82.418C81.8906 368.546 81.1875 369.425 80.3086 370.181C79.4297 370.919 78.4365 371.499 77.3291 371.921C76.2393 372.325 75.0791 372.527 73.8486 372.527ZM93.4395 372V344.578H98.0273V364.96H100.242L97.1045 366.647L111.896 344.578H116.432V372H111.844V351.618H109.629L112.767 349.931L97.9746 372H93.4395ZM105.252 341.467C103.582 341.467 102.141 341.142 100.928 340.491C99.7324 339.823 98.8184 338.927 98.1855 337.802C97.5527 336.659 97.2363 335.394 97.2363 334.005V333.926H101.007V334.058C101.007 335.235 101.358 336.255 102.062 337.116C102.782 337.978 103.854 338.408 105.278 338.408C106.649 338.408 107.704 337.978 108.442 337.116C109.181 336.255 109.55 335.235 109.55 334.058V333.926H113.32V334.005C113.32 335.394 112.995 336.659 112.345 337.802C111.712 338.927 110.798 339.823 109.603 340.491C108.407 341.142 106.957 341.467 105.252 341.467ZM135.732 381.149V372.343C132.885 372.29 130.397 371.684 128.271 370.523C126.144 369.363 124.491 367.746 123.313 365.672C122.136 363.58 121.547 361.128 121.547 358.315V358.263C121.547 355.45 122.136 353.007 123.313 350.933C124.491 348.841 126.144 347.215 128.271 346.055C130.397 344.877 132.885 344.271 135.732 344.235V335.561H140.162V344.235C142.992 344.288 145.471 344.895 147.598 346.055C149.725 347.215 151.377 348.841 152.555 350.933C153.732 353.007 154.321 355.45 154.321 358.263V358.315C154.321 361.128 153.732 363.58 152.555 365.672C151.377 367.746 149.725 369.363 147.598 370.523C145.471 371.684 142.992 372.29 140.162 372.343V381.149H135.732ZM135.732 368.414V348.164C133.781 348.199 132.085 348.63 130.644 349.456C129.22 350.282 128.112 351.442 127.321 352.937C126.548 354.431 126.161 356.206 126.161 358.263V358.315C126.161 360.354 126.548 362.121 127.321 363.615C128.112 365.109 129.22 366.27 130.644 367.096C132.085 367.922 133.781 368.361 135.732 368.414ZM140.162 368.414C142.113 368.361 143.801 367.931 145.225 367.122C146.648 366.296 147.747 365.136 148.521 363.642C149.312 362.147 149.707 360.372 149.707 358.315V358.263C149.707 356.206 149.312 354.439 148.521 352.963C147.747 351.469 146.648 350.309 145.225 349.482C143.801 348.656 142.113 348.217 140.162 348.164V368.414ZM161.388 359.37L161.071 333.952H165.817L165.501 359.37H161.388ZM163.444 372.264C162.601 372.264 161.889 371.974 161.309 371.394C160.729 370.813 160.438 370.102 160.438 369.258C160.438 368.396 160.729 367.685 161.309 367.122C161.889 366.542 162.601 366.252 163.444 366.252C164.306 366.252 165.018 366.542 165.58 367.122C166.16 367.685 166.45 368.396 166.45 369.258C166.45 370.102 166.16 370.813 165.58 371.394C165.018 371.974 164.306 372.264 163.444 372.264ZM195.296 372V338.224H183.299V333.952H212.039V338.224H200.042V372H195.296ZM223.746 372.527C221.215 372.527 218.991 371.947 217.075 370.787C215.177 369.627 213.691 367.983 212.619 365.856C211.564 363.712 211.037 361.189 211.037 358.289V358.236C211.037 355.318 211.564 352.805 212.619 350.695C213.691 348.568 215.177 346.934 217.075 345.791C218.991 344.631 221.206 344.051 223.72 344.051C226.251 344.051 228.466 344.631 230.364 345.791C232.28 346.934 233.766 348.568 234.82 350.695C235.893 352.805 236.429 355.318 236.429 358.236V358.289C236.429 361.207 235.893 363.729 234.82 365.856C233.766 367.983 232.289 369.627 230.391 370.787C228.492 371.947 226.277 372.527 223.746 372.527ZM223.772 368.467C225.39 368.467 226.787 368.071 227.965 367.28C229.16 366.472 230.083 365.312 230.733 363.8C231.401 362.271 231.735 360.434 231.735 358.289V358.236C231.735 356.092 231.401 354.264 230.733 352.752C230.083 351.24 229.151 350.089 227.938 349.298C226.743 348.507 225.337 348.111 223.72 348.111C222.138 348.111 220.74 348.516 219.527 349.324C218.332 350.115 217.4 351.267 216.732 352.778C216.064 354.272 215.73 356.092 215.73 358.236V358.289C215.73 360.434 216.064 362.271 216.732 363.8C217.4 365.312 218.332 366.472 219.527 367.28C220.74 368.071 222.155 368.467 223.772 368.467ZM247.213 359.344H246.158V372H241.57V344.578H246.158V356.18H247.213L258.023 344.578H263.587L251.168 357.762V357.34L263.956 372H258.155L247.213 359.344ZM265.696 379.462L268.017 366.568H272.815L268.966 379.462H265.696ZM44.9766 417.527C42.1816 417.527 39.8262 416.903 37.9102 415.655C36.0117 414.407 34.5703 412.553 33.5859 410.092C32.6191 407.631 32.1357 404.59 32.1357 400.969V400.916C32.1357 397.137 32.3994 393.894 32.9268 391.187C33.4717 388.479 34.3154 386.256 35.458 384.516C36.6182 382.758 38.1299 381.448 39.9932 380.587C41.874 379.708 44.1416 379.216 46.7959 379.11L48.8262 379.031C50.1445 378.979 51.4717 378.82 52.8076 378.557C54.1436 378.293 55.1982 377.959 55.9717 377.555V381.562C55.5322 381.949 54.6621 382.301 53.3613 382.617C52.0605 382.916 50.6191 383.101 49.0371 383.171L47.0068 383.25C44.5107 383.338 42.5332 383.786 41.0742 384.595C39.6152 385.403 38.5078 386.634 37.752 388.286C37.0137 389.921 36.4512 392.065 36.0645 394.72L36.0117 395.089H36.1172C36.7324 393.999 37.5059 393.094 38.4375 392.373C39.3867 391.635 40.4678 391.081 41.6807 390.712C42.9111 390.343 44.2383 390.158 45.6621 390.158C48.1406 390.158 50.2852 390.712 52.0957 391.819C53.9062 392.909 55.3037 394.456 56.2881 396.46C57.29 398.446 57.791 400.802 57.791 403.526V403.579C57.791 406.444 57.2725 408.923 56.2354 411.015C55.1982 413.106 53.7217 414.715 51.8057 415.84C49.9072 416.965 47.6309 417.527 44.9766 417.527ZM44.9766 413.467C46.6992 413.467 48.1582 413.08 49.3535 412.307C50.5664 411.533 51.4893 410.408 52.1221 408.932C52.7725 407.455 53.0977 405.671 53.0977 403.579V403.526C53.0977 401.54 52.7725 399.853 52.1221 398.464C51.4893 397.075 50.5664 396.021 49.3535 395.3C48.1582 394.579 46.6992 394.219 44.9766 394.219C43.2539 394.219 41.7861 394.579 40.5732 395.3C39.3604 396.021 38.4287 397.075 37.7783 398.464C37.1455 399.853 36.8291 401.54 36.8291 403.526V403.579C36.8291 405.671 37.1455 407.455 37.7783 408.932C38.4287 410.408 39.3604 411.533 40.5732 412.307C41.7861 413.08 43.2539 413.467 44.9766 413.467ZM62.9326 426.229V389.578H67.5205V394.219H67.626C68.2061 393.146 68.918 392.232 69.7617 391.477C70.623 390.703 71.6074 390.105 72.7148 389.684C73.8223 389.262 75.0264 389.051 76.3271 389.051C78.665 389.051 80.7041 389.64 82.4443 390.817C84.2021 391.978 85.5645 393.63 86.5312 395.774C87.498 397.901 87.9814 400.406 87.9814 403.289V403.315C87.9814 406.198 87.4893 408.703 86.5049 410.83C85.5381 412.957 84.1846 414.609 82.4443 415.787C80.7217 416.947 78.709 417.527 76.4062 417.527C75.123 417.527 73.9189 417.325 72.7939 416.921C71.6689 416.499 70.667 415.91 69.7881 415.154C68.9268 414.381 68.2061 413.467 67.626 412.412H67.5205V426.229H62.9326ZM75.4307 413.467C77.0479 413.467 78.4453 413.054 79.623 412.228C80.8008 411.401 81.7061 410.232 82.3389 408.721C82.9717 407.191 83.2881 405.39 83.2881 403.315V403.289C83.2881 401.18 82.9717 399.369 82.3389 397.857C81.7061 396.328 80.8008 395.159 79.623 394.351C78.4453 393.524 77.0479 393.111 75.4307 393.111C73.8838 393.111 72.5127 393.533 71.3174 394.377C70.1221 395.221 69.1816 396.407 68.4961 397.937C67.8281 399.448 67.4941 401.232 67.4941 403.289V403.315C67.4941 405.354 67.8369 407.139 68.5225 408.668C69.208 410.18 70.1396 411.357 71.3174 412.201C72.5127 413.045 73.8838 413.467 75.4307 413.467ZM101.165 417.527C99.3545 417.527 97.7637 417.185 96.3926 416.499C95.0215 415.813 93.9492 414.847 93.1758 413.599C92.4199 412.351 92.042 410.9 92.042 409.248V409.195C92.042 407.631 92.4287 406.277 93.2021 405.135C93.9932 403.992 95.127 403.087 96.6035 402.419C98.0977 401.751 99.8906 401.355 101.982 401.232L112.134 400.652V404.212L102.51 404.792C100.682 404.897 99.2578 405.337 98.2383 406.11C97.2363 406.884 96.7354 407.912 96.7354 409.195V409.248C96.7354 410.566 97.2275 411.612 98.2119 412.386C99.2139 413.159 100.541 413.546 102.193 413.546C103.635 413.546 104.927 413.247 106.069 412.649C107.229 412.034 108.144 411.199 108.812 410.145C109.497 409.09 109.84 407.903 109.84 406.585V398.49C109.84 396.82 109.312 395.511 108.258 394.562C107.221 393.595 105.744 393.111 103.828 393.111C102.07 393.111 100.646 393.498 99.5566 394.271C98.4844 395.027 97.8164 396.021 97.5527 397.251L97.5 397.488H93.0703L93.0967 397.198C93.2373 395.687 93.7471 394.315 94.626 393.085C95.5225 391.854 96.7529 390.879 98.3174 390.158C99.8818 389.42 101.736 389.051 103.881 389.051C106.043 389.051 107.906 389.42 109.471 390.158C111.053 390.896 112.274 391.942 113.136 393.296C113.997 394.632 114.428 396.214 114.428 398.042V417H109.84V412.544H109.734C109.207 413.546 108.504 414.425 107.625 415.181C106.746 415.919 105.753 416.499 104.646 416.921C103.556 417.325 102.396 417.527 101.165 417.527ZM140.294 389.578V393.375H131.461V417H126.873V393.375H118.04V389.578H140.294ZM151.526 417.527C149.716 417.527 148.125 417.185 146.754 416.499C145.383 415.813 144.311 414.847 143.537 413.599C142.781 412.351 142.403 410.9 142.403 409.248V409.195C142.403 407.631 142.79 406.277 143.563 405.135C144.354 403.992 145.488 403.087 146.965 402.419C148.459 401.751 150.252 401.355 152.344 401.232L162.495 400.652V404.212L152.871 404.792C151.043 404.897 149.619 405.337 148.6 406.11C147.598 406.884 147.097 407.912 147.097 409.195V409.248C147.097 410.566 147.589 411.612 148.573 412.386C149.575 413.159 150.902 413.546 152.555 413.546C153.996 413.546 155.288 413.247 156.431 412.649C157.591 412.034 158.505 411.199 159.173 410.145C159.858 409.09 160.201 407.903 160.201 406.585V398.49C160.201 396.82 159.674 395.511 158.619 394.562C157.582 393.595 156.105 393.111 154.189 393.111C152.432 393.111 151.008 393.498 149.918 394.271C148.846 395.027 148.178 396.021 147.914 397.251L147.861 397.488H143.432L143.458 397.198C143.599 395.687 144.108 394.315 144.987 393.085C145.884 391.854 147.114 390.879 148.679 390.158C150.243 389.42 152.098 389.051 154.242 389.051C156.404 389.051 158.268 389.42 159.832 390.158C161.414 390.896 162.636 391.942 163.497 393.296C164.358 394.632 164.789 396.214 164.789 398.042V417H160.201V412.544H160.096C159.568 413.546 158.865 414.425 157.986 415.181C157.107 415.919 156.114 416.499 155.007 416.921C153.917 417.325 152.757 417.527 151.526 417.527ZM189.126 417V404.687H175.705V417H171.117V389.578H175.705V400.89H189.126V389.578H193.714V417H189.126ZM198.091 424.462L200.411 411.568H205.21L201.36 424.462H198.091ZM42.7881 458.177L33.5596 447.208V446.997C34.0693 446.382 34.5791 445.775 35.0889 445.178C35.6162 444.562 36.1348 443.956 36.6445 443.358C37.1543 442.743 37.6641 442.128 38.1738 441.513C38.6836 440.897 39.1934 440.291 39.7031 439.693C40.2129 439.078 40.7227 438.472 41.2324 437.874C41.7598 437.259 42.2783 436.644 42.7881 436.028H48.167L38.9121 446.918V447.287L48.167 458.177H42.7881ZM54.4688 458.177L45.2402 447.208V446.997C45.75 446.382 46.2598 445.775 46.7695 445.178C47.2969 444.562 47.8154 443.956 48.3252 443.358C48.835 442.743 49.3447 442.128 49.8545 441.513C50.3643 440.897 50.874 440.291 51.3838 439.693C51.9111 439.078 52.4297 438.472 52.9395 437.874C53.4492 437.259 53.959 436.644 54.4688 436.028H59.8477L50.5928 446.918V447.287L59.8477 458.177H54.4688ZM66.6504 462V434.578H78.3838C80.9502 434.578 82.9717 435.211 84.4482 436.477C85.9248 437.742 86.6631 439.465 86.6631 441.645V441.697C86.6631 443.104 86.2236 444.378 85.3447 445.521C84.4834 446.663 83.4199 447.366 82.1543 447.63V447.841C83.3145 447.999 84.3164 448.359 85.1602 448.922C86.0215 449.484 86.6895 450.205 87.1641 451.084C87.6387 451.963 87.876 452.965 87.876 454.09V454.143C87.876 455.742 87.498 457.131 86.7422 458.309C85.9863 459.486 84.9053 460.4 83.499 461.051C82.0928 461.684 80.4141 462 78.4629 462H66.6504ZM71.2383 458.203H78.0674C79.7373 458.203 81.0029 457.852 81.8643 457.148C82.7432 456.445 83.1826 455.408 83.1826 454.037V453.984C83.1826 452.578 82.6904 451.541 81.7061 450.873C80.7393 450.188 79.2539 449.845 77.25 449.845H71.2383V458.203ZM71.2383 446.048H77.0127C78.7354 446.048 80.0098 445.731 80.8359 445.099C81.6797 444.466 82.1016 443.49 82.1016 442.172V442.119C82.1016 440.889 81.7236 439.957 80.9678 439.324C80.2295 438.691 79.1396 438.375 77.6982 438.375H71.2383V446.048ZM115.588 462.527C113.057 462.527 110.833 461.947 108.917 460.787C107.019 459.627 105.533 457.983 104.461 455.856C103.406 453.712 102.879 451.189 102.879 448.289V448.236C102.879 445.318 103.406 442.805 104.461 440.695C105.533 438.568 107.019 436.934 108.917 435.791C110.833 434.631 113.048 434.051 115.562 434.051C118.093 434.051 120.308 434.631 122.206 435.791C124.122 436.934 125.607 438.568 126.662 440.695C127.734 442.805 128.271 445.318 128.271 448.236V448.289C128.271 451.207 127.734 453.729 126.662 455.856C125.607 457.983 124.131 459.627 122.232 460.787C120.334 461.947 118.119 462.527 115.588 462.527ZM115.614 458.467C117.231 458.467 118.629 458.071 119.807 457.28C121.002 456.472 121.925 455.312 122.575 453.8C123.243 452.271 123.577 450.434 123.577 448.289V448.236C123.577 446.092 123.243 444.264 122.575 442.752C121.925 441.24 120.993 440.089 119.78 439.298C118.585 438.507 117.179 438.111 115.562 438.111C113.979 438.111 112.582 438.516 111.369 439.324C110.174 440.115 109.242 441.267 108.574 442.778C107.906 444.272 107.572 446.092 107.572 448.236V448.289C107.572 450.434 107.906 452.271 108.574 453.8C109.242 455.312 110.174 456.472 111.369 457.28C112.582 458.071 113.997 458.467 115.614 458.467ZM145.172 462.527C142.377 462.527 140.021 461.903 138.105 460.655C136.207 459.407 134.766 457.553 133.781 455.092C132.814 452.631 132.331 449.59 132.331 445.969V445.916C132.331 442.137 132.595 438.894 133.122 436.187C133.667 433.479 134.511 431.256 135.653 429.516C136.813 427.758 138.325 426.448 140.188 425.587C142.069 424.708 144.337 424.216 146.991 424.11L149.021 424.031C150.34 423.979 151.667 423.82 153.003 423.557C154.339 423.293 155.394 422.959 156.167 422.555V426.562C155.728 426.949 154.857 427.301 153.557 427.617C152.256 427.916 150.814 428.101 149.232 428.171L147.202 428.25C144.706 428.338 142.729 428.786 141.27 429.595C139.811 430.403 138.703 431.634 137.947 433.286C137.209 434.921 136.646 437.065 136.26 439.72L136.207 440.089H136.312C136.928 438.999 137.701 438.094 138.633 437.373C139.582 436.635 140.663 436.081 141.876 435.712C143.106 435.343 144.434 435.158 145.857 435.158C148.336 435.158 150.48 435.712 152.291 436.819C154.102 437.909 155.499 439.456 156.483 441.46C157.485 443.446 157.986 445.802 157.986 448.526V448.579C157.986 451.444 157.468 453.923 156.431 456.015C155.394 458.106 153.917 459.715 152.001 460.84C150.103 461.965 147.826 462.527 145.172 462.527ZM145.172 458.467C146.895 458.467 148.354 458.08 149.549 457.307C150.762 456.533 151.685 455.408 152.317 453.932C152.968 452.455 153.293 450.671 153.293 448.579V448.526C153.293 446.54 152.968 444.853 152.317 443.464C151.685 442.075 150.762 441.021 149.549 440.3C148.354 439.579 146.895 439.219 145.172 439.219C143.449 439.219 141.981 439.579 140.769 440.3C139.556 441.021 138.624 442.075 137.974 443.464C137.341 444.853 137.024 446.54 137.024 448.526V448.579C137.024 450.671 137.341 452.455 137.974 453.932C138.624 455.408 139.556 456.533 140.769 457.307C141.981 458.08 143.449 458.467 145.172 458.467ZM163.102 462V434.578H167.689V458.203H177.735V434.578H182.323V458.203H192.369V434.578H196.957V462H163.102ZM197.062 469.515V462H192.369V458.203H201.229V469.515H197.062ZM216.653 462.527C214.034 462.527 211.775 461.947 209.877 460.787C207.996 459.627 206.546 457.992 205.526 455.883C204.524 453.756 204.023 451.26 204.023 448.395V448.368C204.023 445.538 204.533 443.051 205.553 440.906C206.572 438.744 208.005 437.065 209.851 435.87C211.696 434.657 213.867 434.051 216.363 434.051C218.859 434.051 221.004 434.631 222.797 435.791C224.607 436.934 225.996 438.542 226.963 440.616C227.93 442.69 228.413 445.099 228.413 447.841V449.528H206.317V445.942H226.146L223.825 449.265V447.498C223.825 445.371 223.5 443.613 222.85 442.225C222.217 440.836 221.338 439.808 220.213 439.14C219.088 438.454 217.796 438.111 216.337 438.111C214.878 438.111 213.568 438.472 212.408 439.192C211.248 439.896 210.334 440.95 209.666 442.356C208.998 443.745 208.664 445.459 208.664 447.498V449.265C208.664 451.198 208.989 452.851 209.64 454.222C210.308 455.593 211.248 456.647 212.461 457.386C213.674 458.106 215.106 458.467 216.759 458.467C217.919 458.467 218.956 458.291 219.87 457.939C220.784 457.588 221.549 457.104 222.164 456.489C222.779 455.874 223.219 455.171 223.482 454.38L223.562 454.143H228.07L228.018 454.406C227.789 455.531 227.35 456.586 226.699 457.57C226.066 458.555 225.249 459.425 224.247 460.181C223.245 460.919 222.103 461.499 220.819 461.921C219.536 462.325 218.147 462.527 216.653 462.527ZM238.143 462H233.555V434.578H239.171L248.874 455.936H249.085L258.867 434.578H264.246V462H259.658V442.541H259.474L250.641 461.209H247.134L238.327 442.541H238.143V462ZM288.082 436.028L297.311 446.997V447.208C296.801 447.823 296.291 448.438 295.781 449.054C295.271 449.651 294.753 450.258 294.226 450.873C293.716 451.471 293.206 452.077 292.696 452.692C292.187 453.308 291.677 453.923 291.167 454.538C290.657 455.136 290.139 455.742 289.611 456.357C289.102 456.955 288.592 457.562 288.082 458.177H282.703L291.958 447.287V446.918L282.703 436.028H288.082ZM276.401 436.028L285.63 446.997V447.208C285.12 447.823 284.61 448.438 284.101 449.054C283.591 449.651 283.072 450.258 282.545 450.873C282.035 451.471 281.525 452.077 281.016 452.692C280.506 453.308 279.996 453.923 279.486 454.538C278.977 455.136 278.458 455.742 277.931 456.357C277.421 456.955 276.911 457.562 276.401 458.177H271.022L280.277 447.287V446.918L271.022 436.028H276.401ZM318.457 462H312.577L325.497 446.944V448.104L312.999 434.578H318.589L329.162 446.285H329.953V434.578H334.383V446.285H335.174L345.747 434.578H351.337L338.839 448.104V446.944L351.759 462H345.879L335.174 449.238H334.383V462H329.953V449.238H329.162L318.457 462ZM366.103 462.527C363.483 462.527 361.225 461.947 359.326 460.787C357.445 459.627 355.995 457.992 354.976 455.883C353.974 453.756 353.473 451.26 353.473 448.395V448.368C353.473 445.538 353.982 443.051 355.002 440.906C356.021 438.744 357.454 437.065 359.3 435.87C361.146 434.657 363.316 434.051 365.812 434.051C368.309 434.051 370.453 434.631 372.246 435.791C374.057 436.934 375.445 438.542 376.412 440.616C377.379 442.69 377.862 445.099 377.862 447.841V449.528H355.767V445.942H375.595L373.274 449.265V447.498C373.274 445.371 372.949 443.613 372.299 442.225C371.666 440.836 370.787 439.808 369.662 439.14C368.537 438.454 367.245 438.111 365.786 438.111C364.327 438.111 363.018 438.472 361.857 439.192C360.697 439.896 359.783 440.95 359.115 442.356C358.447 443.745 358.113 445.459 358.113 447.498V449.265C358.113 451.198 358.438 452.851 359.089 454.222C359.757 455.593 360.697 456.647 361.91 457.386C363.123 458.106 364.556 458.467 366.208 458.467C367.368 458.467 368.405 458.291 369.319 457.939C370.233 457.588 370.998 457.104 371.613 456.489C372.229 455.874 372.668 455.171 372.932 454.38L373.011 454.143H377.52L377.467 454.406C377.238 455.531 376.799 456.586 376.148 457.57C375.516 458.555 374.698 459.425 373.696 460.181C372.694 460.919 371.552 461.499 370.269 461.921C368.985 462.325 367.597 462.527 366.103 462.527ZM385.588 462.369C384.744 462.369 384.032 462.079 383.452 461.499C382.872 460.919 382.582 460.207 382.582 459.363C382.582 458.52 382.872 457.808 383.452 457.228C384.032 456.647 384.744 456.357 385.588 456.357C386.432 456.357 387.144 456.647 387.724 457.228C388.304 457.808 388.594 458.52 388.594 459.363C388.594 460.207 388.304 460.919 387.724 461.499C387.144 462.079 386.432 462.369 385.588 462.369Z" fill="#5DCF00"/>
<rect x="430" y="425" width="50" height="50" rx="25" fill="#5DCF00"/>
</svg>
