<svg width="900" height="315" viewBox="0 0 900 315" fill="none" xmlns="http://www.w3.org/2000/svg">
<rect width="900" height="315" rx="20" fill="black"/>
<rect x="20" y="20" width="50" height="50" rx="25" fill="#FF0000"/>
<path d="M80 40C80 28.9543 88.9543 20 100 20H860C871.046 20 880 28.9543 880 40V155C880 166.046 871.046 175 860 175H80V40Z" fill="#FF0000" fill-opacity="0.3"/>
<path d="M107.64 72.6328C104.985 72.6328 102.568 72.1406 100.389 71.1562C98.2266 70.1719 96.4248 68.8008 94.9834 67.043C93.542 65.2852 92.584 63.2373 92.1094 60.8994L92.0566 60.6357H96.8555L96.9346 60.873C97.4619 62.4551 98.2266 63.7998 99.2285 64.9072C100.23 65.9971 101.435 66.832 102.841 67.4121C104.265 67.9746 105.864 68.2559 107.64 68.2559C110.188 68.2559 112.395 67.623 114.258 66.3574C116.139 65.0918 117.589 63.3164 118.608 61.0312C119.628 58.7285 120.138 56.0391 120.138 52.9629V52.9365C120.138 49.8428 119.628 47.1621 118.608 44.8945C117.589 42.6094 116.147 40.8428 114.284 39.5947C112.421 38.3291 110.206 37.6963 107.64 37.6963C105.864 37.6963 104.265 37.9863 102.841 38.5664C101.435 39.1289 100.23 39.9551 99.2285 41.0449C98.2266 42.1348 97.4619 43.4795 96.9346 45.0791L96.8555 45.3164H92.0566L92.1094 45.0527C92.584 42.7324 93.542 40.6934 94.9834 38.9355C96.4424 37.1602 98.2529 35.7803 100.415 34.7959C102.595 33.8115 105.003 33.3193 107.64 33.3193C111.173 33.3193 114.24 34.1279 116.842 35.7451C119.443 37.3447 121.447 39.6123 122.854 42.5479C124.277 45.4834 124.989 48.9463 124.989 52.9365V52.9629C124.989 56.9531 124.277 60.4248 122.854 63.3779C121.43 66.3135 119.417 68.5898 116.815 70.207C114.231 71.8242 111.173 72.6328 107.64 72.6328ZM122.511 54.6768H102.946V50.4053H122.511V54.6768ZM130.711 72V44.5781H135.299V64.96H137.514L134.376 66.6475L149.168 44.5781H153.703V72H149.115V51.6182H146.9L150.038 49.9307L135.246 72H130.711ZM142.523 41.4668C140.854 41.4668 139.412 41.1416 138.199 40.4912C137.004 39.8232 136.09 38.9268 135.457 37.8018C134.824 36.6592 134.508 35.3936 134.508 34.0049V33.9258H138.278V34.0576C138.278 35.2354 138.63 36.2549 139.333 37.1162C140.054 37.9775 141.126 38.4082 142.55 38.4082C143.921 38.4082 144.976 37.9775 145.714 37.1162C146.452 36.2549 146.821 35.2354 146.821 34.0576V33.9258H150.592V34.0049C150.592 35.3936 150.267 36.6592 149.616 37.8018C148.983 38.9268 148.069 39.8232 146.874 40.4912C145.679 41.1416 144.229 41.4668 142.523 41.4668ZM158.054 79.4619L160.374 66.5684H165.173L161.323 79.4619H158.054ZM191.936 72.5273C189.141 72.5273 186.785 71.9033 184.869 70.6553C182.971 69.4072 181.529 67.5527 180.545 65.0918C179.578 62.6309 179.095 59.5898 179.095 55.9688V55.916C179.095 52.1367 179.358 48.8936 179.886 46.1865C180.431 43.4795 181.274 41.2559 182.417 39.5156C183.577 37.7578 185.089 36.4482 186.952 35.5869C188.833 34.708 191.101 34.2158 193.755 34.1104L195.785 34.0312C197.104 33.9785 198.431 33.8203 199.767 33.5566C201.103 33.293 202.157 32.959 202.931 32.5547V36.5625C202.491 36.9492 201.621 37.3008 200.32 37.6172C199.02 37.916 197.578 38.1006 195.996 38.1709L193.966 38.25C191.47 38.3379 189.492 38.7861 188.033 39.5947C186.574 40.4033 185.467 41.6338 184.711 43.2861C183.973 44.9209 183.41 47.0654 183.023 49.7197L182.971 50.0889H183.076C183.691 48.999 184.465 48.0938 185.396 47.373C186.346 46.6348 187.427 46.0811 188.64 45.7119C189.87 45.3428 191.197 45.1582 192.621 45.1582C195.1 45.1582 197.244 45.7119 199.055 46.8193C200.865 47.9092 202.263 49.4561 203.247 51.46C204.249 53.4463 204.75 55.8018 204.75 58.5264V58.5791C204.75 61.4443 204.231 63.9229 203.194 66.0146C202.157 68.1064 200.681 69.7148 198.765 70.8398C196.866 71.9648 194.59 72.5273 191.936 72.5273ZM191.936 68.4668C193.658 68.4668 195.117 68.0801 196.312 67.3066C197.525 66.5332 198.448 65.4082 199.081 63.9316C199.731 62.4551 200.057 60.6709 200.057 58.5791V58.5264C200.057 56.54 199.731 54.8525 199.081 53.4639C198.448 52.0752 197.525 51.0205 196.312 50.2998C195.117 49.5791 193.658 49.2188 191.936 49.2188C190.213 49.2188 188.745 49.5791 187.532 50.2998C186.319 51.0205 185.388 52.0752 184.737 53.4639C184.104 54.8525 183.788 56.54 183.788 58.5264V58.5791C183.788 60.6709 184.104 62.4551 184.737 63.9316C185.388 65.4082 186.319 66.5332 187.532 67.3066C188.745 68.0801 190.213 68.4668 191.936 68.4668ZM209.892 81.2285V44.5781H214.479V49.2188H214.585C215.165 48.1465 215.877 47.2324 216.721 46.4766C217.582 45.7031 218.566 45.1055 219.674 44.6836C220.781 44.2617 221.985 44.0508 223.286 44.0508C225.624 44.0508 227.663 44.6396 229.403 45.8174C231.161 46.9775 232.523 48.6299 233.49 50.7744C234.457 52.9014 234.94 55.4062 234.94 58.2891V58.3154C234.94 61.1982 234.448 63.7031 233.464 65.8301C232.497 67.957 231.144 69.6094 229.403 70.7871C227.681 71.9473 225.668 72.5273 223.365 72.5273C222.082 72.5273 220.878 72.3252 219.753 71.9209C218.628 71.499 217.626 70.9102 216.747 70.1543C215.886 69.3809 215.165 68.4668 214.585 67.4121H214.479V81.2285H209.892ZM222.39 68.4668C224.007 68.4668 225.404 68.0537 226.582 67.2275C227.76 66.4014 228.665 65.2324 229.298 63.7207C229.931 62.1914 230.247 60.3896 230.247 58.3154V58.2891C230.247 56.1797 229.931 54.3691 229.298 52.8574C228.665 51.3281 227.76 50.1592 226.582 49.3506C225.404 48.5244 224.007 48.1113 222.39 48.1113C220.843 48.1113 219.472 48.5332 218.276 49.377C217.081 50.2207 216.141 51.4072 215.455 52.9365C214.787 54.4482 214.453 56.2324 214.453 58.2891V58.3154C214.453 60.3545 214.796 62.1387 215.481 63.668C216.167 65.1797 217.099 66.3574 218.276 67.2012C219.472 68.0449 220.843 68.4668 222.39 68.4668ZM251.473 72.5273C248.941 72.5273 246.718 71.9473 244.802 70.7871C242.903 69.627 241.418 67.9834 240.346 65.8564C239.291 63.7119 238.764 61.1895 238.764 58.2891V58.2363C238.764 55.3184 239.291 52.8047 240.346 50.6953C241.418 48.5684 242.903 46.9336 244.802 45.791C246.718 44.6309 248.933 44.0508 251.446 44.0508C253.978 44.0508 256.192 44.6309 258.091 45.791C260.007 46.9336 261.492 48.5684 262.547 50.6953C263.619 52.8047 264.155 55.3184 264.155 58.2363V58.2891C264.155 61.207 263.619 63.7295 262.547 65.8564C261.492 67.9834 260.016 69.627 258.117 70.7871C256.219 71.9473 254.004 72.5273 251.473 72.5273ZM251.499 68.4668C253.116 68.4668 254.514 68.0713 255.691 67.2803C256.887 66.4717 257.81 65.3115 258.46 63.7998C259.128 62.2705 259.462 60.4336 259.462 58.2891V58.2363C259.462 56.0918 259.128 54.2637 258.46 52.752C257.81 51.2402 256.878 50.0889 255.665 49.2979C254.47 48.5068 253.063 48.1113 251.446 48.1113C249.864 48.1113 248.467 48.5156 247.254 49.3242C246.059 50.1152 245.127 51.2666 244.459 52.7783C243.791 54.2725 243.457 56.0918 243.457 58.2363V58.2891C243.457 60.4336 243.791 62.2705 244.459 63.7998C245.127 65.3115 246.059 66.4717 247.254 67.2803C248.467 68.0713 249.882 68.4668 251.499 68.4668ZM265.632 79.4619L267.952 66.5684H272.751L268.901 79.4619H265.632ZM287.754 72V44.5781H299.487C302.054 44.5781 304.075 45.2109 305.552 46.4766C307.028 47.7422 307.767 49.4648 307.767 51.6445V51.6973C307.767 53.1035 307.327 54.3779 306.448 55.5205C305.587 56.6631 304.523 57.3662 303.258 57.6299V57.8408C304.418 57.999 305.42 58.3594 306.264 58.9219C307.125 59.4844 307.793 60.2051 308.268 61.084C308.742 61.9629 308.979 62.9648 308.979 64.0898V64.1426C308.979 65.7422 308.602 67.1309 307.846 68.3086C307.09 69.4863 306.009 70.4004 304.603 71.0508C303.196 71.6836 301.518 72 299.566 72H287.754ZM292.342 68.2031H299.171C300.841 68.2031 302.106 67.8516 302.968 67.1484C303.847 66.4453 304.286 65.4082 304.286 64.0371V63.9844C304.286 62.5781 303.794 61.541 302.81 60.873C301.843 60.1875 300.357 59.8447 298.354 59.8447H292.342V68.2031ZM292.342 56.0479H298.116C299.839 56.0479 301.113 55.7314 301.939 55.0986C302.783 54.4658 303.205 53.4902 303.205 52.1719V52.1191C303.205 50.8887 302.827 49.957 302.071 49.3242C301.333 48.6914 300.243 48.375 298.802 48.375H292.342V56.0479ZM325.617 72.5273C323.086 72.5273 320.862 71.9473 318.946 70.7871C317.048 69.627 315.562 67.9834 314.49 65.8564C313.436 63.7119 312.908 61.1895 312.908 58.2891V58.2363C312.908 55.3184 313.436 52.8047 314.49 50.6953C315.562 48.5684 317.048 46.9336 318.946 45.791C320.862 44.6309 323.077 44.0508 325.591 44.0508C328.122 44.0508 330.337 44.6309 332.235 45.791C334.151 46.9336 335.637 48.5684 336.691 50.6953C337.764 52.8047 338.3 55.3184 338.3 58.2363V58.2891C338.3 61.207 337.764 63.7295 336.691 65.8564C335.637 67.9834 334.16 69.627 332.262 70.7871C330.363 71.9473 328.148 72.5273 325.617 72.5273ZM325.644 68.4668C327.261 68.4668 328.658 68.0713 329.836 67.2803C331.031 66.4717 331.954 65.3115 332.604 63.7998C333.272 62.2705 333.606 60.4336 333.606 58.2891V58.2363C333.606 56.0918 333.272 54.2637 332.604 52.752C331.954 51.2402 331.022 50.0889 329.81 49.2979C328.614 48.5068 327.208 48.1113 325.591 48.1113C324.009 48.1113 322.611 48.5156 321.398 49.3242C320.203 50.1152 319.271 51.2666 318.604 52.7783C317.936 54.2725 317.602 56.0918 317.602 58.2363V58.2891C317.602 60.4336 317.936 62.2705 318.604 63.7998C319.271 65.3115 320.203 66.4717 321.398 67.2803C322.611 68.0713 324.026 68.4668 325.644 68.4668ZM354.832 72.5273C352.301 72.5273 350.077 71.9473 348.161 70.7871C346.263 69.627 344.777 67.9834 343.705 65.8564C342.65 63.7119 342.123 61.1895 342.123 58.2891V58.2363C342.123 55.3184 342.65 52.8047 343.705 50.6953C344.777 48.5684 346.263 46.9336 348.161 45.791C350.077 44.6309 352.292 44.0508 354.806 44.0508C357.337 44.0508 359.552 44.6309 361.45 45.791C363.366 46.9336 364.852 48.5684 365.906 50.6953C366.979 52.8047 367.515 55.3184 367.515 58.2363V58.2891C367.515 61.207 366.979 63.7295 365.906 65.8564C364.852 67.9834 363.375 69.627 361.477 70.7871C359.578 71.9473 357.363 72.5273 354.832 72.5273ZM354.858 68.4668C356.476 68.4668 357.873 68.0713 359.051 67.2803C360.246 66.4717 361.169 65.3115 361.819 63.7998C362.487 62.2705 362.821 60.4336 362.821 58.2891V58.2363C362.821 56.0918 362.487 54.2637 361.819 52.752C361.169 51.2402 360.237 50.0889 359.024 49.2979C357.829 48.5068 356.423 48.1113 354.806 48.1113C353.224 48.1113 351.826 48.5156 350.613 49.3242C349.418 50.1152 348.486 51.2666 347.818 52.7783C347.15 54.2725 346.816 56.0918 346.816 58.2363V58.2891C346.816 60.4336 347.15 62.2705 347.818 63.7998C348.486 65.3115 349.418 66.4717 350.613 67.2803C351.826 68.0713 353.241 68.4668 354.858 68.4668ZM384.416 72.5273C381.621 72.5273 379.266 71.9033 377.35 70.6553C375.451 69.4072 374.01 67.5527 373.025 65.0918C372.059 62.6309 371.575 59.5898 371.575 55.9688V55.916C371.575 52.1367 371.839 48.8936 372.366 46.1865C372.911 43.4795 373.755 41.2559 374.897 39.5156C376.058 37.7578 377.569 36.4482 379.433 35.5869C381.313 34.708 383.581 34.2158 386.235 34.1104L388.266 34.0312C389.584 33.9785 390.911 33.8203 392.247 33.5566C393.583 33.293 394.638 32.959 395.411 32.5547V36.5625C394.972 36.9492 394.102 37.3008 392.801 37.6172C391.5 37.916 390.059 38.1006 388.477 38.1709L386.446 38.25C383.95 38.3379 381.973 38.7861 380.514 39.5947C379.055 40.4033 377.947 41.6338 377.191 43.2861C376.453 44.9209 375.891 47.0654 375.504 49.7197L375.451 50.0889H375.557C376.172 48.999 376.945 48.0938 377.877 47.373C378.826 46.6348 379.907 46.0811 381.12 45.7119C382.351 45.3428 383.678 45.1582 385.102 45.1582C387.58 45.1582 389.725 45.7119 391.535 46.8193C393.346 47.9092 394.743 49.4561 395.728 51.46C396.729 53.4463 397.23 55.8018 397.23 58.5264V58.5791C397.23 61.4443 396.712 63.9229 395.675 66.0146C394.638 68.1064 393.161 69.7148 391.245 70.8398C389.347 71.9648 387.07 72.5273 384.416 72.5273ZM384.416 68.4668C386.139 68.4668 387.598 68.0801 388.793 67.3066C390.006 66.5332 390.929 65.4082 391.562 63.9316C392.212 62.4551 392.537 60.6709 392.537 58.5791V58.5264C392.537 56.54 392.212 54.8525 391.562 53.4639C390.929 52.0752 390.006 51.0205 388.793 50.2998C387.598 49.5791 386.139 49.2188 384.416 49.2188C382.693 49.2188 381.226 49.5791 380.013 50.2998C378.8 51.0205 377.868 52.0752 377.218 53.4639C376.585 54.8525 376.269 56.54 376.269 58.5264V58.5791C376.269 60.6709 376.585 62.4551 377.218 63.9316C377.868 65.4082 378.8 66.5332 380.013 67.3066C381.226 68.0801 382.693 68.4668 384.416 68.4668ZM402.346 72V44.5781H406.934V68.2031H416.979V44.5781H421.567V68.2031H431.613V44.5781H436.201V72H402.346ZM436.307 79.5146V72H431.613V68.2031H440.473V79.5146H436.307ZM455.897 72.5273C453.278 72.5273 451.02 71.9473 449.121 70.7871C447.24 69.627 445.79 67.9922 444.771 65.8828C443.769 63.7559 443.268 61.2598 443.268 58.3945V58.3682C443.268 55.5381 443.777 53.0508 444.797 50.9062C445.816 48.7441 447.249 47.0654 449.095 45.8701C450.94 44.6572 453.111 44.0508 455.607 44.0508C458.104 44.0508 460.248 44.6309 462.041 45.791C463.852 46.9336 465.24 48.542 466.207 50.6162C467.174 52.6904 467.657 55.0986 467.657 57.8408V59.5283H445.562V55.9424H465.39L463.069 59.2646V57.498C463.069 55.3711 462.744 53.6133 462.094 52.2246C461.461 50.8359 460.582 49.8076 459.457 49.1396C458.332 48.4541 457.04 48.1113 455.581 48.1113C454.122 48.1113 452.812 48.4717 451.652 49.1924C450.492 49.8955 449.578 50.9502 448.91 52.3564C448.242 53.7451 447.908 55.459 447.908 57.498V59.2646C447.908 61.1982 448.233 62.8506 448.884 64.2217C449.552 65.5928 450.492 66.6475 451.705 67.3857C452.918 68.1064 454.351 68.4668 456.003 68.4668C457.163 68.4668 458.2 68.291 459.114 67.9395C460.028 67.5879 460.793 67.1045 461.408 66.4893C462.023 65.874 462.463 65.1709 462.727 64.3799L462.806 64.1426H467.314L467.262 64.4062C467.033 65.5312 466.594 66.5859 465.943 67.5703C465.311 68.5547 464.493 69.4248 463.491 70.1807C462.489 70.9189 461.347 71.499 460.063 71.9209C458.78 72.3252 457.392 72.5273 455.897 72.5273ZM477.387 72H472.799V44.5781H478.415L488.118 65.9355H488.329L498.111 44.5781H503.49V72H498.902V52.541H498.718L489.885 71.209H486.378L477.571 52.541H477.387V72ZM507.841 79.4619L510.161 66.5684H514.96L511.11 79.4619H507.841ZM545.414 72V62.2441H540.272L533.312 72H528.012L535.658 61.4004C533.725 60.8379 532.204 59.8799 531.097 58.5264C529.989 57.1729 529.436 55.5645 529.436 53.7012V53.6484C529.436 51.7676 529.857 50.1504 530.701 48.7969C531.562 47.4434 532.767 46.4062 534.313 45.6855C535.878 44.9473 537.706 44.5781 539.798 44.5781H550.002V72H545.414ZM539.824 58.4473H545.414V48.375H539.824C538.049 48.375 536.651 48.832 535.632 49.7461C534.63 50.6602 534.129 51.9346 534.129 53.5693V53.6221C534.129 55.0283 534.639 56.1885 535.658 57.1025C536.678 57.999 538.066 58.4473 539.824 58.4473ZM587.575 44.5781V48.375H578.742V72H574.154V48.375H565.321V44.5781H587.575ZM594.483 81.2285C594.044 81.2285 593.596 81.2021 593.139 81.1494C592.699 81.1143 592.33 81.0703 592.031 81.0176V77.2734C592.225 77.3086 592.444 77.3438 592.69 77.3789C592.954 77.4141 593.227 77.4316 593.508 77.4316C594.967 77.4316 596.127 77.1768 596.988 76.667C597.867 76.1572 598.579 75.1289 599.124 73.582L599.678 72.0264L589.5 44.5781H594.404L602.314 68.4668L601.339 67.4121H602.71L601.734 68.4668L609.671 44.5781H614.496L603.791 73.7139C603.141 75.4541 602.411 76.8779 601.603 77.9854C600.794 79.0928 599.818 79.9102 598.676 80.4375C597.533 80.9648 596.136 81.2285 594.483 81.2285ZM638.675 44.5781V48.375H629.842V72H625.254V48.375H616.421V44.5781H638.675ZM93.2168 117V89.5781H115.576V117H110.962V93.375H97.8047V117H93.2168ZM122.036 126.229V89.5781H126.624V94.2188H126.729C127.31 93.1465 128.021 92.2324 128.865 91.4766C129.727 90.7031 130.711 90.1055 131.818 89.6836C132.926 89.2617 134.13 89.0508 135.431 89.0508C137.769 89.0508 139.808 89.6396 141.548 90.8174C143.306 91.9775 144.668 93.6299 145.635 95.7744C146.602 97.9014 147.085 100.406 147.085 103.289V103.315C147.085 106.198 146.593 108.703 145.608 110.83C144.642 112.957 143.288 114.609 141.548 115.787C139.825 116.947 137.812 117.527 135.51 117.527C134.227 117.527 133.022 117.325 131.897 116.921C130.772 116.499 129.771 115.91 128.892 115.154C128.03 114.381 127.31 113.467 126.729 112.412H126.624V126.229H122.036ZM134.534 113.467C136.151 113.467 137.549 113.054 138.727 112.228C139.904 111.401 140.81 110.232 141.442 108.721C142.075 107.191 142.392 105.39 142.392 103.315V103.289C142.392 101.18 142.075 99.3691 141.442 97.8574C140.81 96.3281 139.904 95.1592 138.727 94.3506C137.549 93.5244 136.151 93.1113 134.534 93.1113C132.987 93.1113 131.616 93.5332 130.421 94.377C129.226 95.2207 128.285 96.4072 127.6 97.9365C126.932 99.4482 126.598 101.232 126.598 103.289V103.315C126.598 105.354 126.94 107.139 127.626 108.668C128.312 110.18 129.243 111.357 130.421 112.201C131.616 113.045 132.987 113.467 134.534 113.467ZM152.227 117V89.5781H156.814V109.96H159.029L155.892 111.647L170.684 89.5781H175.219V117H170.631V96.6182H168.416L171.554 94.9307L156.762 117H152.227ZM183.208 124.515H178.937V113.203H181.23C182.232 112.535 182.988 111.428 183.498 109.881C184.025 108.334 184.351 106.638 184.474 104.792L185.528 89.5781H204.407V113.203H208.758V124.515H204.486V117H183.208V124.515ZM199.819 113.203V93.375H189.562L188.719 104.897C188.596 106.62 188.35 108.202 187.98 109.644C187.611 111.067 187.084 112.219 186.398 113.098V113.203H199.819ZM215.007 126.229C214.567 126.229 214.119 126.202 213.662 126.149C213.223 126.114 212.854 126.07 212.555 126.018V122.273C212.748 122.309 212.968 122.344 213.214 122.379C213.478 122.414 213.75 122.432 214.031 122.432C215.49 122.432 216.65 122.177 217.512 121.667C218.391 121.157 219.103 120.129 219.647 118.582L220.201 117.026L210.023 89.5781H214.928L222.838 113.467L221.862 112.412H223.233L222.258 113.467L230.194 89.5781H235.02L224.314 118.714C223.664 120.454 222.935 121.878 222.126 122.985C221.317 124.093 220.342 124.91 219.199 125.438C218.057 125.965 216.659 126.229 215.007 126.229ZM243.721 117H239.133V89.5781H244.749L254.452 110.936H254.663L264.445 89.5781H269.824V117H265.236V97.541H265.052L256.219 116.209H252.712L243.905 97.541H243.721V117ZM284.3 117.527C282.489 117.527 280.898 117.185 279.527 116.499C278.156 115.813 277.084 114.847 276.311 113.599C275.555 112.351 275.177 110.9 275.177 109.248V109.195C275.177 107.631 275.563 106.277 276.337 105.135C277.128 103.992 278.262 103.087 279.738 102.419C281.232 101.751 283.025 101.355 285.117 101.232L295.269 100.652V104.212L285.645 104.792C283.816 104.897 282.393 105.337 281.373 106.11C280.371 106.884 279.87 107.912 279.87 109.195V109.248C279.87 110.566 280.362 111.612 281.347 112.386C282.349 113.159 283.676 113.546 285.328 113.546C286.77 113.546 288.062 113.247 289.204 112.649C290.364 112.034 291.278 111.199 291.946 110.145C292.632 109.09 292.975 107.903 292.975 106.585V98.4902C292.975 96.8203 292.447 95.5107 291.393 94.5615C290.355 93.5947 288.879 93.1113 286.963 93.1113C285.205 93.1113 283.781 93.498 282.691 94.2715C281.619 95.0273 280.951 96.0205 280.688 97.251L280.635 97.4883H276.205L276.231 97.1982C276.372 95.6865 276.882 94.3154 277.761 93.085C278.657 91.8545 279.888 90.8789 281.452 90.1582C283.017 89.4199 284.871 89.0508 287.016 89.0508C289.178 89.0508 291.041 89.4199 292.605 90.1582C294.188 90.8965 295.409 91.9424 296.271 93.2959C297.132 94.6318 297.562 96.2139 297.562 98.042V117H292.975V112.544H292.869C292.342 113.546 291.639 114.425 290.76 115.181C289.881 115.919 288.888 116.499 287.78 116.921C286.69 117.325 285.53 117.527 284.3 117.527ZM311.511 104.924C311.317 107.438 310.948 109.626 310.403 111.489C309.876 113.335 309.05 114.759 307.925 115.761C306.817 116.763 305.288 117.264 303.337 117.264C302.897 117.264 302.511 117.237 302.177 117.185C301.86 117.132 301.605 117.07 301.412 117V112.86C301.535 112.896 301.72 112.939 301.966 112.992C302.212 113.027 302.511 113.045 302.862 113.045C303.847 113.045 304.629 112.711 305.209 112.043C305.789 111.375 306.229 110.426 306.527 109.195C306.826 107.947 307.037 106.488 307.16 104.818L308.241 89.5781H327.516V117H322.928V93.375H312.381L311.511 104.924ZM365.142 89.5781V93.375H356.309V117H351.721V93.375H342.888V89.5781H365.142ZM380.25 117.527C377.719 117.527 375.495 116.947 373.579 115.787C371.681 114.627 370.195 112.983 369.123 110.856C368.068 108.712 367.541 106.189 367.541 103.289V103.236C367.541 100.318 368.068 97.8047 369.123 95.6953C370.195 93.5684 371.681 91.9336 373.579 90.791C375.495 89.6309 377.71 89.0508 380.224 89.0508C382.755 89.0508 384.97 89.6309 386.868 90.791C388.784 91.9336 390.27 93.5684 391.324 95.6953C392.396 97.8047 392.933 100.318 392.933 103.236V103.289C392.933 106.207 392.396 108.729 391.324 110.856C390.27 112.983 388.793 114.627 386.895 115.787C384.996 116.947 382.781 117.527 380.25 117.527ZM380.276 113.467C381.894 113.467 383.291 113.071 384.469 112.28C385.664 111.472 386.587 110.312 387.237 108.8C387.905 107.271 388.239 105.434 388.239 103.289V103.236C388.239 101.092 387.905 99.2637 387.237 97.752C386.587 96.2402 385.655 95.0889 384.442 94.2979C383.247 93.5068 381.841 93.1113 380.224 93.1113C378.642 93.1113 377.244 93.5156 376.031 94.3242C374.836 95.1152 373.904 96.2666 373.236 97.7783C372.568 99.2725 372.234 101.092 372.234 103.236V103.289C372.234 105.434 372.568 107.271 373.236 108.8C373.904 110.312 374.836 111.472 376.031 112.28C377.244 113.071 378.659 113.467 380.276 113.467ZM398.074 117V89.5781H420.434V117H415.819V93.375H402.662V117H398.074ZM438.258 117.527C435.727 117.527 433.503 116.947 431.587 115.787C429.688 114.627 428.203 112.983 427.131 110.856C426.076 108.712 425.549 106.189 425.549 103.289V103.236C425.549 100.318 426.076 97.8047 427.131 95.6953C428.203 93.5684 429.688 91.9336 431.587 90.791C433.503 89.6309 435.718 89.0508 438.231 89.0508C440.763 89.0508 442.978 89.6309 444.876 90.791C446.792 91.9336 448.277 93.5684 449.332 95.6953C450.404 97.8047 450.94 100.318 450.94 103.236V103.289C450.94 106.207 450.404 108.729 449.332 110.856C448.277 112.983 446.801 114.627 444.902 115.787C443.004 116.947 440.789 117.527 438.258 117.527ZM438.284 113.467C439.901 113.467 441.299 113.071 442.477 112.28C443.672 111.472 444.595 110.312 445.245 108.8C445.913 107.271 446.247 105.434 446.247 103.289V103.236C446.247 101.092 445.913 99.2637 445.245 97.752C444.595 96.2402 443.663 95.0889 442.45 94.2979C441.255 93.5068 439.849 93.1113 438.231 93.1113C436.649 93.1113 435.252 93.5156 434.039 94.3242C432.844 95.1152 431.912 96.2666 431.244 97.7783C430.576 99.2725 430.242 101.092 430.242 103.236V103.289C430.242 105.434 430.576 107.271 431.244 108.8C431.912 110.312 432.844 111.472 434.039 112.28C435.252 113.071 436.667 113.467 438.284 113.467ZM456.082 117V89.5781H467.815C470.382 89.5781 472.403 90.2109 473.88 91.4766C475.356 92.7422 476.095 94.4648 476.095 96.6445V96.6973C476.095 98.1035 475.655 99.3779 474.776 100.521C473.915 101.663 472.852 102.366 471.586 102.63V102.841C472.746 102.999 473.748 103.359 474.592 103.922C475.453 104.484 476.121 105.205 476.596 106.084C477.07 106.963 477.308 107.965 477.308 109.09V109.143C477.308 110.742 476.93 112.131 476.174 113.309C475.418 114.486 474.337 115.4 472.931 116.051C471.524 116.684 469.846 117 467.895 117H456.082ZM460.67 113.203H467.499C469.169 113.203 470.435 112.852 471.296 112.148C472.175 111.445 472.614 110.408 472.614 109.037V108.984C472.614 107.578 472.122 106.541 471.138 105.873C470.171 105.188 468.686 104.845 466.682 104.845H460.67V113.203ZM460.67 101.048H466.444C468.167 101.048 469.441 100.731 470.268 100.099C471.111 99.4658 471.533 98.4902 471.533 97.1719V97.1191C471.533 95.8887 471.155 94.957 470.399 94.3242C469.661 93.6914 468.571 93.375 467.13 93.375H460.67V101.048ZM482.555 117V89.5781H487.143V98.332H492.284C495.431 98.332 497.936 99.1758 499.799 100.863C501.662 102.533 502.594 104.792 502.594 107.64V107.692C502.594 110.54 501.662 112.808 499.799 114.495C497.936 116.165 495.431 117 492.284 117H482.555ZM492.205 102.129H487.143V113.203H492.205C493.963 113.203 495.352 112.702 496.371 111.7C497.391 110.681 497.9 109.345 497.9 107.692V107.64C497.9 105.97 497.382 104.634 496.345 103.632C495.325 102.63 493.945 102.129 492.205 102.129ZM506.074 117V89.5781H510.662V117H506.074ZM517.096 117V89.5781H521.684V109.96H523.898L520.761 111.647L535.553 89.5781H540.088V117H535.5V96.6182H533.285L536.423 94.9307L521.631 117H517.096ZM528.908 86.4668C527.238 86.4668 525.797 86.1416 524.584 85.4912C523.389 84.8232 522.475 83.9268 521.842 82.8018C521.209 81.6592 520.893 80.3936 520.893 79.0049V78.9258H524.663V79.0576C524.663 80.2354 525.015 81.2549 525.718 82.1162C526.438 82.9775 527.511 83.4082 528.935 83.4082C530.306 83.4082 531.36 82.9775 532.099 82.1162C532.837 81.2549 533.206 80.2354 533.206 79.0576V78.9258H536.977V79.0049C536.977 80.3936 536.651 81.6592 536.001 82.8018C535.368 83.9268 534.454 84.8232 533.259 85.4912C532.063 86.1416 530.613 86.4668 528.908 86.4668ZM578.505 117H573.917V105.003H573.812C572.95 105.759 571.904 106.33 570.674 106.717C569.461 107.104 568.204 107.297 566.903 107.297C563.616 107.297 561.129 106.436 559.441 104.713C557.754 102.973 556.91 100.644 556.91 97.7256V89.5781H561.498V97.4092C561.498 99.3604 562.017 100.819 563.054 101.786C564.108 102.753 565.682 103.236 567.773 103.236C568.582 103.236 569.373 103.148 570.146 102.973C570.938 102.797 571.658 102.551 572.309 102.234C572.959 101.918 573.495 101.549 573.917 101.127V89.5781H578.505V117ZM596.276 117.527C593.657 117.527 591.398 116.947 589.5 115.787C587.619 114.627 586.169 112.992 585.149 110.883C584.147 108.756 583.646 106.26 583.646 103.395V103.368C583.646 100.538 584.156 98.0508 585.176 95.9062C586.195 93.7441 587.628 92.0654 589.474 90.8701C591.319 89.6572 593.49 89.0508 595.986 89.0508C598.482 89.0508 600.627 89.6309 602.42 90.791C604.23 91.9336 605.619 93.542 606.586 95.6162C607.553 97.6904 608.036 100.099 608.036 102.841V104.528H585.94V100.942H605.769L603.448 104.265V102.498C603.448 100.371 603.123 98.6133 602.473 97.2246C601.84 95.8359 600.961 94.8076 599.836 94.1396C598.711 93.4541 597.419 93.1113 595.96 93.1113C594.501 93.1113 593.191 93.4717 592.031 94.1924C590.871 94.8955 589.957 95.9502 589.289 97.3564C588.621 98.7451 588.287 100.459 588.287 102.498V104.265C588.287 106.198 588.612 107.851 589.263 109.222C589.931 110.593 590.871 111.647 592.084 112.386C593.297 113.106 594.729 113.467 596.382 113.467C597.542 113.467 598.579 113.291 599.493 112.939C600.407 112.588 601.172 112.104 601.787 111.489C602.402 110.874 602.842 110.171 603.105 109.38L603.185 109.143H607.693L607.641 109.406C607.412 110.531 606.973 111.586 606.322 112.57C605.689 113.555 604.872 114.425 603.87 115.181C602.868 115.919 601.726 116.499 600.442 116.921C599.159 117.325 597.771 117.527 596.276 117.527ZM619.743 104.924C619.55 107.438 619.181 109.626 618.636 111.489C618.108 113.335 617.282 114.759 616.157 115.761C615.05 116.763 613.521 117.264 611.569 117.264C611.13 117.264 610.743 117.237 610.409 117.185C610.093 117.132 609.838 117.07 609.645 117V112.86C609.768 112.896 609.952 112.939 610.198 112.992C610.444 113.027 610.743 113.045 611.095 113.045C612.079 113.045 612.861 112.711 613.441 112.043C614.021 111.375 614.461 110.426 614.76 109.195C615.059 107.947 615.27 106.488 615.393 104.818L616.474 89.5781H635.748V117H631.16V93.375H620.613L619.743 104.924ZM649.854 104.924C649.661 107.438 649.292 109.626 648.747 111.489C648.22 113.335 647.394 114.759 646.269 115.761C645.161 116.763 643.632 117.264 641.681 117.264C641.241 117.264 640.854 117.237 640.521 117.185C640.204 117.132 639.949 117.07 639.756 117V112.86C639.879 112.896 640.063 112.939 640.31 112.992C640.556 113.027 640.854 113.045 641.206 113.045C642.19 113.045 642.973 112.711 643.553 112.043C644.133 111.375 644.572 110.426 644.871 109.195C645.17 107.947 645.381 106.488 645.504 104.818L646.585 89.5781H665.859V117H661.271V93.375H650.725L649.854 104.924ZM683.657 117.527C681.038 117.527 678.779 116.947 676.881 115.787C675 114.627 673.55 112.992 672.53 110.883C671.528 108.756 671.027 106.26 671.027 103.395V103.368C671.027 100.538 671.537 98.0508 672.557 95.9062C673.576 93.7441 675.009 92.0654 676.854 90.8701C678.7 89.6572 680.871 89.0508 683.367 89.0508C685.863 89.0508 688.008 89.6309 689.801 90.791C691.611 91.9336 693 93.542 693.967 95.6162C694.934 97.6904 695.417 100.099 695.417 102.841V104.528H673.321V100.942H693.149L690.829 104.265V102.498C690.829 100.371 690.504 98.6133 689.854 97.2246C689.221 95.8359 688.342 94.8076 687.217 94.1396C686.092 93.4541 684.8 93.1113 683.341 93.1113C681.882 93.1113 680.572 93.4717 679.412 94.1924C678.252 94.8955 677.338 95.9502 676.67 97.3564C676.002 98.7451 675.668 100.459 675.668 102.498V104.265C675.668 106.198 675.993 107.851 676.644 109.222C677.312 110.593 678.252 111.647 679.465 112.386C680.678 113.106 682.11 113.467 683.763 113.467C684.923 113.467 685.96 113.291 686.874 112.939C687.788 112.588 688.553 112.104 689.168 111.489C689.783 110.874 690.223 110.171 690.486 109.38L690.565 109.143H695.074L695.021 109.406C694.793 110.531 694.354 111.586 693.703 112.57C693.07 113.555 692.253 114.425 691.251 115.181C690.249 115.919 689.106 116.499 687.823 116.921C686.54 117.325 685.151 117.527 683.657 117.527ZM718.567 117V104.687H705.146V117H700.559V89.5781H705.146V100.89H718.567V89.5781H723.155V117H718.567ZM731.171 124.515H726.899V113.203H729.193C730.195 112.535 730.951 111.428 731.461 109.881C731.988 108.334 732.313 106.638 732.437 104.792L733.491 89.5781H752.37V113.203H756.721V124.515H752.449V117H731.171V124.515ZM747.782 113.203V93.375H737.525L736.682 104.897C736.559 106.62 736.312 108.202 735.943 109.644C735.574 111.067 735.047 112.219 734.361 113.098V113.203H747.782ZM764.104 117H758.224L771.144 101.944V103.104L758.646 89.5781H764.235L774.809 101.285H775.6V89.5781H780.029V101.285H780.82L791.394 89.5781H796.983L784.485 103.104V101.944L797.405 117H791.525L780.82 104.238H780.029V117H775.6V104.238H774.809L764.104 117ZM94.7725 169.515H90.501V158.203H92.7949C93.7969 157.535 94.5527 156.428 95.0625 154.881C95.5898 153.334 95.915 151.638 96.0381 149.792L97.0928 134.578H115.972V158.203H120.322V169.515H116.051V162H94.7725V169.515ZM111.384 158.203V138.375H101.127L100.283 149.897C100.16 151.62 99.9141 153.202 99.5449 154.644C99.1758 156.067 98.6484 157.219 97.9629 158.098V158.203H111.384ZM132.056 149.924C131.862 152.438 131.493 154.626 130.948 156.489C130.421 158.335 129.595 159.759 128.47 160.761C127.362 161.763 125.833 162.264 123.882 162.264C123.442 162.264 123.056 162.237 122.722 162.185C122.405 162.132 122.15 162.07 121.957 162V157.86C122.08 157.896 122.265 157.939 122.511 157.992C122.757 158.027 123.056 158.045 123.407 158.045C124.392 158.045 125.174 157.711 125.754 157.043C126.334 156.375 126.773 155.426 127.072 154.195C127.371 152.947 127.582 151.488 127.705 149.818L128.786 134.578H148.061V162H143.473V138.375H132.926L132.056 149.924ZM169.998 162V152.244H164.856L157.896 162H152.596L160.242 151.4C158.309 150.838 156.788 149.88 155.681 148.526C154.573 147.173 154.02 145.564 154.02 143.701V143.648C154.02 141.768 154.441 140.15 155.285 138.797C156.146 137.443 157.351 136.406 158.897 135.686C160.462 134.947 162.29 134.578 164.382 134.578H174.586V162H169.998ZM164.408 148.447H169.998V138.375H164.408C162.633 138.375 161.235 138.832 160.216 139.746C159.214 140.66 158.713 141.935 158.713 143.569V143.622C158.713 145.028 159.223 146.188 160.242 147.103C161.262 147.999 162.65 148.447 164.408 148.447ZM192.094 162V134.578H203.827C206.394 134.578 208.415 135.211 209.892 136.477C211.368 137.742 212.106 139.465 212.106 141.645V141.697C212.106 143.104 211.667 144.378 210.788 145.521C209.927 146.663 208.863 147.366 207.598 147.63V147.841C208.758 147.999 209.76 148.359 210.604 148.922C211.465 149.484 212.133 150.205 212.607 151.084C213.082 151.963 213.319 152.965 213.319 154.09V154.143C213.319 155.742 212.941 157.131 212.186 158.309C211.43 159.486 210.349 160.4 208.942 161.051C207.536 161.684 205.857 162 203.906 162H192.094ZM196.682 158.203H203.511C205.181 158.203 206.446 157.852 207.308 157.148C208.187 156.445 208.626 155.408 208.626 154.037V153.984C208.626 152.578 208.134 151.541 207.149 150.873C206.183 150.188 204.697 149.845 202.693 149.845H196.682V158.203ZM196.682 146.048H202.456C204.179 146.048 205.453 145.731 206.279 145.099C207.123 144.466 207.545 143.49 207.545 142.172V142.119C207.545 140.889 207.167 139.957 206.411 139.324C205.673 138.691 204.583 138.375 203.142 138.375H196.682V146.048ZM218.566 162V134.578H223.154V154.96H225.369L222.231 156.647L237.023 134.578H241.559V162H236.971V141.618H234.756L237.894 139.931L223.102 162H218.566ZM249.548 169.515H245.276V158.203H247.57C248.572 157.535 249.328 156.428 249.838 154.881C250.365 153.334 250.69 151.638 250.813 149.792L251.868 134.578H270.747V158.203H275.098V169.515H270.826V162H249.548V169.515ZM266.159 158.203V138.375H255.902L255.059 149.897C254.936 151.62 254.689 153.202 254.32 154.644C253.951 156.067 253.424 157.219 252.738 158.098V158.203H266.159ZM290.602 162.527C288.07 162.527 285.847 161.947 283.931 160.787C282.032 159.627 280.547 157.983 279.475 155.856C278.42 153.712 277.893 151.189 277.893 148.289V148.236C277.893 145.318 278.42 142.805 279.475 140.695C280.547 138.568 282.032 136.934 283.931 135.791C285.847 134.631 288.062 134.051 290.575 134.051C293.106 134.051 295.321 134.631 297.22 135.791C299.136 136.934 300.621 138.568 301.676 140.695C302.748 142.805 303.284 145.318 303.284 148.236V148.289C303.284 151.207 302.748 153.729 301.676 155.856C300.621 157.983 299.145 159.627 297.246 160.787C295.348 161.947 293.133 162.527 290.602 162.527ZM290.628 158.467C292.245 158.467 293.643 158.071 294.82 157.28C296.016 156.472 296.938 155.312 297.589 153.8C298.257 152.271 298.591 150.434 298.591 148.289V148.236C298.591 146.092 298.257 144.264 297.589 142.752C296.938 141.24 296.007 140.089 294.794 139.298C293.599 138.507 292.192 138.111 290.575 138.111C288.993 138.111 287.596 138.516 286.383 139.324C285.188 140.115 284.256 141.267 283.588 142.778C282.92 144.272 282.586 146.092 282.586 148.236V148.289C282.586 150.434 282.92 152.271 283.588 153.8C284.256 155.312 285.188 156.472 286.383 157.28C287.596 158.071 289.011 158.467 290.628 158.467ZM319.816 162.527C317.232 162.527 314.982 161.947 313.066 160.787C311.168 159.609 309.7 157.957 308.663 155.83C307.626 153.686 307.107 151.163 307.107 148.263V148.236C307.107 145.354 307.635 142.849 308.689 140.722C309.744 138.595 311.221 136.951 313.119 135.791C315.018 134.631 317.232 134.051 319.764 134.051C322.049 134.051 324.009 134.499 325.644 135.396C327.278 136.274 328.562 137.417 329.493 138.823C330.442 140.229 331.014 141.715 331.207 143.279L331.233 143.49H326.751L326.698 143.279C326.364 141.908 325.626 140.704 324.483 139.667C323.358 138.63 321.785 138.111 319.764 138.111C318.182 138.111 316.793 138.533 315.598 139.377C314.402 140.203 313.471 141.381 312.803 142.91C312.135 144.422 311.801 146.215 311.801 148.289V148.315C311.801 150.442 312.135 152.262 312.803 153.773C313.488 155.285 314.429 156.445 315.624 157.254C316.837 158.062 318.234 158.467 319.816 158.467C321.697 158.467 323.218 157.992 324.378 157.043C325.556 156.076 326.338 154.828 326.725 153.299L326.777 153.088H331.286L331.26 153.272C331.014 155.013 330.372 156.586 329.335 157.992C328.315 159.381 326.988 160.488 325.354 161.314C323.736 162.123 321.891 162.527 319.816 162.527ZM344.048 162.527C342.237 162.527 340.646 162.185 339.275 161.499C337.904 160.813 336.832 159.847 336.059 158.599C335.303 157.351 334.925 155.9 334.925 154.248V154.195C334.925 152.631 335.312 151.277 336.085 150.135C336.876 148.992 338.01 148.087 339.486 147.419C340.98 146.751 342.773 146.355 344.865 146.232L355.017 145.652V149.212L345.393 149.792C343.564 149.897 342.141 150.337 341.121 151.11C340.119 151.884 339.618 152.912 339.618 154.195V154.248C339.618 155.566 340.11 156.612 341.095 157.386C342.097 158.159 343.424 158.546 345.076 158.546C346.518 158.546 347.81 158.247 348.952 157.649C350.112 157.034 351.026 156.199 351.694 155.145C352.38 154.09 352.723 152.903 352.723 151.585V143.49C352.723 141.82 352.195 140.511 351.141 139.562C350.104 138.595 348.627 138.111 346.711 138.111C344.953 138.111 343.529 138.498 342.439 139.271C341.367 140.027 340.699 141.021 340.436 142.251L340.383 142.488H335.953L335.979 142.198C336.12 140.687 336.63 139.315 337.509 138.085C338.405 136.854 339.636 135.879 341.2 135.158C342.765 134.42 344.619 134.051 346.764 134.051C348.926 134.051 350.789 134.42 352.354 135.158C353.936 135.896 355.157 136.942 356.019 138.296C356.88 139.632 357.311 141.214 357.311 143.042V162H352.723V157.544H352.617C352.09 158.546 351.387 159.425 350.508 160.181C349.629 160.919 348.636 161.499 347.528 161.921C346.438 162.325 345.278 162.527 344.048 162.527ZM365.563 149.37L365.247 123.952H369.993L369.677 149.37H365.563ZM367.62 162.264C366.776 162.264 366.064 161.974 365.484 161.394C364.904 160.813 364.614 160.102 364.614 159.258C364.614 158.396 364.904 157.685 365.484 157.122C366.064 156.542 366.776 156.252 367.62 156.252C368.481 156.252 369.193 156.542 369.756 157.122C370.336 157.685 370.626 158.396 370.626 159.258C370.626 160.102 370.336 160.813 369.756 161.394C369.193 161.974 368.481 162.264 367.62 162.264Z" fill="#FF0000"/>
<path d="M20 205C20 193.954 28.9543 185 40 185H800C811.046 185 820 193.954 820 205V295H40C28.9543 295 20 286.046 20 275V205Z" fill="#5DCF00" fill-opacity="0.3"/>
<path d="M38.7012 237H33.9551V198.952H38.7012V215.669H40.2832L55.0488 198.952H61.0078L43.6846 217.726L43.7373 216.565L62.7744 237H56.3936L40.2832 219.466H38.7012V237ZM73.8486 237.527C72.0381 237.527 70.4473 237.185 69.0762 236.499C67.7051 235.813 66.6328 234.847 65.8594 233.599C65.1035 232.351 64.7256 230.9 64.7256 229.248V229.195C64.7256 227.631 65.1123 226.277 65.8857 225.135C66.6768 223.992 67.8105 223.087 69.2871 222.419C70.7812 221.751 72.5742 221.355 74.666 221.232L84.8174 220.652V224.212L75.1934 224.792C73.3652 224.897 71.9414 225.337 70.9219 226.11C69.9199 226.884 69.4189 227.912 69.4189 229.195V229.248C69.4189 230.566 69.9111 231.612 70.8955 232.386C71.8975 233.159 73.2246 233.546 74.877 233.546C76.3184 233.546 77.6104 233.247 78.7529 232.649C79.9131 232.034 80.8271 231.199 81.4951 230.145C82.1807 229.09 82.5234 227.903 82.5234 226.585V218.49C82.5234 216.82 81.9961 215.511 80.9414 214.562C79.9043 213.595 78.4277 213.111 76.5117 213.111C74.7539 213.111 73.3301 213.498 72.2402 214.271C71.168 215.027 70.5 216.021 70.2363 217.251L70.1836 217.488H65.7539L65.7803 217.198C65.9209 215.687 66.4307 214.315 67.3096 213.085C68.2061 211.854 69.4365 210.879 71.001 210.158C72.5654 209.42 74.4199 209.051 76.5645 209.051C78.7266 209.051 80.5898 209.42 82.1543 210.158C83.7363 210.896 84.958 211.942 85.8193 213.296C86.6807 214.632 87.1113 216.214 87.1113 218.042V237H82.5234V232.544H82.418C81.8906 233.546 81.1875 234.425 80.3086 235.181C79.4297 235.919 78.4365 236.499 77.3291 236.921C76.2393 237.325 75.0791 237.527 73.8486 237.527ZM93.4395 237V209.578H98.0273V229.96H100.242L97.1045 231.647L111.896 209.578H116.432V237H111.844V216.618H109.629L112.767 214.931L97.9746 237H93.4395ZM105.252 206.467C103.582 206.467 102.141 206.142 100.928 205.491C99.7324 204.823 98.8184 203.927 98.1855 202.802C97.5527 201.659 97.2363 200.394 97.2363 199.005V198.926H101.007V199.058C101.007 200.235 101.358 201.255 102.062 202.116C102.782 202.978 103.854 203.408 105.278 203.408C106.649 203.408 107.704 202.978 108.442 202.116C109.181 201.255 109.55 200.235 109.55 199.058V198.926H113.32V199.005C113.32 200.394 112.995 201.659 112.345 202.802C111.712 203.927 110.798 204.823 109.603 205.491C108.407 206.142 106.957 206.467 105.252 206.467ZM135.732 246.149V237.343C132.885 237.29 130.397 236.684 128.271 235.523C126.144 234.363 124.491 232.746 123.313 230.672C122.136 228.58 121.547 226.128 121.547 223.315V223.263C121.547 220.45 122.136 218.007 123.313 215.933C124.491 213.841 126.144 212.215 128.271 211.055C130.397 209.877 132.885 209.271 135.732 209.235V200.561H140.162V209.235C142.992 209.288 145.471 209.895 147.598 211.055C149.725 212.215 151.377 213.841 152.555 215.933C153.732 218.007 154.321 220.45 154.321 223.263V223.315C154.321 226.128 153.732 228.58 152.555 230.672C151.377 232.746 149.725 234.363 147.598 235.523C145.471 236.684 142.992 237.29 140.162 237.343V246.149H135.732ZM135.732 233.414V213.164C133.781 213.199 132.085 213.63 130.644 214.456C129.22 215.282 128.112 216.442 127.321 217.937C126.548 219.431 126.161 221.206 126.161 223.263V223.315C126.161 225.354 126.548 227.121 127.321 228.615C128.112 230.109 129.22 231.27 130.644 232.096C132.085 232.922 133.781 233.361 135.732 233.414ZM140.162 233.414C142.113 233.361 143.801 232.931 145.225 232.122C146.648 231.296 147.747 230.136 148.521 228.642C149.312 227.147 149.707 225.372 149.707 223.315V223.263C149.707 221.206 149.312 219.439 148.521 217.963C147.747 216.469 146.648 215.309 145.225 214.482C143.801 213.656 142.113 213.217 140.162 213.164V233.414ZM161.388 224.37L161.071 198.952H165.817L165.501 224.37H161.388ZM163.444 237.264C162.601 237.264 161.889 236.974 161.309 236.394C160.729 235.813 160.438 235.102 160.438 234.258C160.438 233.396 160.729 232.685 161.309 232.122C161.889 231.542 162.601 231.252 163.444 231.252C164.306 231.252 165.018 231.542 165.58 232.122C166.16 232.685 166.45 233.396 166.45 234.258C166.45 235.102 166.16 235.813 165.58 236.394C165.018 236.974 164.306 237.264 163.444 237.264ZM195.296 237V203.224H183.299V198.952H212.039V203.224H200.042V237H195.296ZM223.746 237.527C221.215 237.527 218.991 236.947 217.075 235.787C215.177 234.627 213.691 232.983 212.619 230.856C211.564 228.712 211.037 226.189 211.037 223.289V223.236C211.037 220.318 211.564 217.805 212.619 215.695C213.691 213.568 215.177 211.934 217.075 210.791C218.991 209.631 221.206 209.051 223.72 209.051C226.251 209.051 228.466 209.631 230.364 210.791C232.28 211.934 233.766 213.568 234.82 215.695C235.893 217.805 236.429 220.318 236.429 223.236V223.289C236.429 226.207 235.893 228.729 234.82 230.856C233.766 232.983 232.289 234.627 230.391 235.787C228.492 236.947 226.277 237.527 223.746 237.527ZM223.772 233.467C225.39 233.467 226.787 233.071 227.965 232.28C229.16 231.472 230.083 230.312 230.733 228.8C231.401 227.271 231.735 225.434 231.735 223.289V223.236C231.735 221.092 231.401 219.264 230.733 217.752C230.083 216.24 229.151 215.089 227.938 214.298C226.743 213.507 225.337 213.111 223.72 213.111C222.138 213.111 220.74 213.516 219.527 214.324C218.332 215.115 217.4 216.267 216.732 217.778C216.064 219.272 215.73 221.092 215.73 223.236V223.289C215.73 225.434 216.064 227.271 216.732 228.8C217.4 230.312 218.332 231.472 219.527 232.28C220.74 233.071 222.155 233.467 223.772 233.467ZM247.213 224.344H246.158V237H241.57V209.578H246.158V221.18H247.213L258.023 209.578H263.587L251.168 222.762V222.34L263.956 237H258.155L247.213 224.344ZM265.696 244.462L268.017 231.568H272.815L268.966 244.462H265.696ZM299.578 237.527C296.783 237.527 294.428 236.903 292.512 235.655C290.613 234.407 289.172 232.553 288.188 230.092C287.221 227.631 286.737 224.59 286.737 220.969V220.916C286.737 217.137 287.001 213.894 287.528 211.187C288.073 208.479 288.917 206.256 290.06 204.516C291.22 202.758 292.731 201.448 294.595 200.587C296.476 199.708 298.743 199.216 301.397 199.11L303.428 199.031C304.746 198.979 306.073 198.82 307.409 198.557C308.745 198.293 309.8 197.959 310.573 197.555V201.562C310.134 201.949 309.264 202.301 307.963 202.617C306.662 202.916 305.221 203.101 303.639 203.171L301.608 203.25C299.112 203.338 297.135 203.786 295.676 204.595C294.217 205.403 293.109 206.634 292.354 208.286C291.615 209.921 291.053 212.065 290.666 214.72L290.613 215.089H290.719C291.334 213.999 292.107 213.094 293.039 212.373C293.988 211.635 295.069 211.081 296.282 210.712C297.513 210.343 298.84 210.158 300.264 210.158C302.742 210.158 304.887 210.712 306.697 211.819C308.508 212.909 309.905 214.456 310.89 216.46C311.892 218.446 312.393 220.802 312.393 223.526V223.579C312.393 226.444 311.874 228.923 310.837 231.015C309.8 233.106 308.323 234.715 306.407 235.84C304.509 236.965 302.232 237.527 299.578 237.527ZM299.578 233.467C301.301 233.467 302.76 233.08 303.955 232.307C305.168 231.533 306.091 230.408 306.724 228.932C307.374 227.455 307.699 225.671 307.699 223.579V223.526C307.699 221.54 307.374 219.853 306.724 218.464C306.091 217.075 305.168 216.021 303.955 215.3C302.76 214.579 301.301 214.219 299.578 214.219C297.855 214.219 296.388 214.579 295.175 215.3C293.962 216.021 293.03 217.075 292.38 218.464C291.747 219.853 291.431 221.54 291.431 223.526V223.579C291.431 225.671 291.747 227.455 292.38 228.932C293.03 230.408 293.962 231.533 295.175 232.307C296.388 233.08 297.855 233.467 299.578 233.467ZM317.534 246.229V209.578H322.122V214.219H322.228C322.808 213.146 323.52 212.232 324.363 211.477C325.225 210.703 326.209 210.105 327.316 209.684C328.424 209.262 329.628 209.051 330.929 209.051C333.267 209.051 335.306 209.64 337.046 210.817C338.804 211.978 340.166 213.63 341.133 215.774C342.1 217.901 342.583 220.406 342.583 223.289V223.315C342.583 226.198 342.091 228.703 341.106 230.83C340.14 232.957 338.786 234.609 337.046 235.787C335.323 236.947 333.311 237.527 331.008 237.527C329.725 237.527 328.521 237.325 327.396 236.921C326.271 236.499 325.269 235.91 324.39 235.154C323.528 234.381 322.808 233.467 322.228 232.412H322.122V246.229H317.534ZM330.032 233.467C331.649 233.467 333.047 233.054 334.225 232.228C335.402 231.401 336.308 230.232 336.94 228.721C337.573 227.191 337.89 225.39 337.89 223.315V223.289C337.89 221.18 337.573 219.369 336.94 217.857C336.308 216.328 335.402 215.159 334.225 214.351C333.047 213.524 331.649 213.111 330.032 213.111C328.485 213.111 327.114 213.533 325.919 214.377C324.724 215.221 323.783 216.407 323.098 217.937C322.43 219.448 322.096 221.232 322.096 223.289V223.315C322.096 225.354 322.438 227.139 323.124 228.668C323.81 230.18 324.741 231.357 325.919 232.201C327.114 233.045 328.485 233.467 330.032 233.467ZM355.767 237.527C353.956 237.527 352.365 237.185 350.994 236.499C349.623 235.813 348.551 234.847 347.777 233.599C347.021 232.351 346.644 230.9 346.644 229.248V229.195C346.644 227.631 347.03 226.277 347.804 225.135C348.595 223.992 349.729 223.087 351.205 222.419C352.699 221.751 354.492 221.355 356.584 221.232L366.735 220.652V224.212L357.111 224.792C355.283 224.897 353.859 225.337 352.84 226.11C351.838 226.884 351.337 227.912 351.337 229.195V229.248C351.337 230.566 351.829 231.612 352.813 232.386C353.815 233.159 355.143 233.546 356.795 233.546C358.236 233.546 359.528 233.247 360.671 232.649C361.831 232.034 362.745 231.199 363.413 230.145C364.099 229.09 364.441 227.903 364.441 226.585V218.49C364.441 216.82 363.914 215.511 362.859 214.562C361.822 213.595 360.346 213.111 358.43 213.111C356.672 213.111 355.248 213.498 354.158 214.271C353.086 215.027 352.418 216.021 352.154 217.251L352.102 217.488H347.672L347.698 217.198C347.839 215.687 348.349 214.315 349.228 213.085C350.124 211.854 351.354 210.879 352.919 210.158C354.483 209.42 356.338 209.051 358.482 209.051C360.645 209.051 362.508 209.42 364.072 210.158C365.654 210.896 366.876 211.942 367.737 213.296C368.599 214.632 369.029 216.214 369.029 218.042V237H364.441V232.544H364.336C363.809 233.546 363.105 234.425 362.227 235.181C361.348 235.919 360.354 236.499 359.247 236.921C358.157 237.325 356.997 237.527 355.767 237.527ZM394.896 209.578V213.375H386.062V237H381.475V213.375H372.642V209.578H394.896ZM406.128 237.527C404.317 237.527 402.727 237.185 401.355 236.499C399.984 235.813 398.912 234.847 398.139 233.599C397.383 232.351 397.005 230.9 397.005 229.248V229.195C397.005 227.631 397.392 226.277 398.165 225.135C398.956 223.992 400.09 223.087 401.566 222.419C403.061 221.751 404.854 221.355 406.945 221.232L417.097 220.652V224.212L407.473 224.792C405.645 224.897 404.221 225.337 403.201 226.11C402.199 226.884 401.698 227.912 401.698 229.195V229.248C401.698 230.566 402.19 231.612 403.175 232.386C404.177 233.159 405.504 233.546 407.156 233.546C408.598 233.546 409.89 233.247 411.032 232.649C412.192 232.034 413.106 231.199 413.774 230.145C414.46 229.09 414.803 227.903 414.803 226.585V218.49C414.803 216.82 414.275 215.511 413.221 214.562C412.184 213.595 410.707 213.111 408.791 213.111C407.033 213.111 405.609 213.498 404.52 214.271C403.447 215.027 402.779 216.021 402.516 217.251L402.463 217.488H398.033L398.06 217.198C398.2 215.687 398.71 214.315 399.589 213.085C400.485 211.854 401.716 210.879 403.28 210.158C404.845 209.42 406.699 209.051 408.844 209.051C411.006 209.051 412.869 209.42 414.434 210.158C416.016 210.896 417.237 211.942 418.099 213.296C418.96 214.632 419.391 216.214 419.391 218.042V237H414.803V232.544H414.697C414.17 233.546 413.467 234.425 412.588 235.181C411.709 235.919 410.716 236.499 409.608 236.921C408.519 237.325 407.358 237.527 406.128 237.527ZM443.728 237V224.687H430.307V237H425.719V209.578H430.307V220.89H443.728V209.578H448.315V237H443.728ZM452.692 244.462L455.013 231.568H459.812L455.962 244.462H452.692ZM484.386 233.177L475.157 222.208V221.997C475.667 221.382 476.177 220.775 476.687 220.178C477.214 219.562 477.732 218.956 478.242 218.358C478.752 217.743 479.262 217.128 479.771 216.513C480.281 215.897 480.791 215.291 481.301 214.693C481.811 214.078 482.32 213.472 482.83 212.874C483.357 212.259 483.876 211.644 484.386 211.028H489.765L480.51 221.918V222.287L489.765 233.177H484.386ZM496.066 233.177L486.838 222.208V221.997C487.348 221.382 487.857 220.775 488.367 220.178C488.895 219.562 489.413 218.956 489.923 218.358C490.433 217.743 490.942 217.128 491.452 216.513C491.962 215.897 492.472 215.291 492.981 214.693C493.509 214.078 494.027 213.472 494.537 212.874C495.047 212.259 495.557 211.644 496.066 211.028H501.445L492.19 221.918V222.287L501.445 233.177H496.066ZM508.248 237V209.578H519.981C522.548 209.578 524.569 210.211 526.046 211.477C527.522 212.742 528.261 214.465 528.261 216.645V216.697C528.261 218.104 527.821 219.378 526.942 220.521C526.081 221.663 525.018 222.366 523.752 222.63V222.841C524.912 222.999 525.914 223.359 526.758 223.922C527.619 224.484 528.287 225.205 528.762 226.084C529.236 226.963 529.474 227.965 529.474 229.09V229.143C529.474 230.742 529.096 232.131 528.34 233.309C527.584 234.486 526.503 235.4 525.097 236.051C523.69 236.684 522.012 237 520.061 237H508.248ZM512.836 233.203H519.665C521.335 233.203 522.601 232.852 523.462 232.148C524.341 231.445 524.78 230.408 524.78 229.037V228.984C524.78 227.578 524.288 226.541 523.304 225.873C522.337 225.188 520.852 224.845 518.848 224.845H512.836V233.203ZM512.836 221.048H518.61C520.333 221.048 521.607 220.731 522.434 220.099C523.277 219.466 523.699 218.49 523.699 217.172V217.119C523.699 215.889 523.321 214.957 522.565 214.324C521.827 213.691 520.737 213.375 519.296 213.375H512.836V221.048ZM557.186 237.527C554.654 237.527 552.431 236.947 550.515 235.787C548.616 234.627 547.131 232.983 546.059 230.856C545.004 228.712 544.477 226.189 544.477 223.289V223.236C544.477 220.318 545.004 217.805 546.059 215.695C547.131 213.568 548.616 211.934 550.515 210.791C552.431 209.631 554.646 209.051 557.159 209.051C559.69 209.051 561.905 209.631 563.804 210.791C565.72 211.934 567.205 213.568 568.26 215.695C569.332 217.805 569.868 220.318 569.868 223.236V223.289C569.868 226.207 569.332 228.729 568.26 230.856C567.205 232.983 565.729 234.627 563.83 235.787C561.932 236.947 559.717 237.527 557.186 237.527ZM557.212 233.467C558.829 233.467 560.227 233.071 561.404 232.28C562.6 231.472 563.522 230.312 564.173 228.8C564.841 227.271 565.175 225.434 565.175 223.289V223.236C565.175 221.092 564.841 219.264 564.173 217.752C563.522 216.24 562.591 215.089 561.378 214.298C560.183 213.507 558.776 213.111 557.159 213.111C555.577 213.111 554.18 213.516 552.967 214.324C551.771 215.115 550.84 216.267 550.172 217.778C549.504 219.272 549.17 221.092 549.17 223.236V223.289C549.17 225.434 549.504 227.271 550.172 228.8C550.84 230.312 551.771 231.472 552.967 232.28C554.18 233.071 555.595 233.467 557.212 233.467ZM586.77 237.527C583.975 237.527 581.619 236.903 579.703 235.655C577.805 234.407 576.363 232.553 575.379 230.092C574.412 227.631 573.929 224.59 573.929 220.969V220.916C573.929 217.137 574.192 213.894 574.72 211.187C575.265 208.479 576.108 206.256 577.251 204.516C578.411 202.758 579.923 201.448 581.786 200.587C583.667 199.708 585.935 199.216 588.589 199.11L590.619 199.031C591.938 198.979 593.265 198.82 594.601 198.557C595.937 198.293 596.991 197.959 597.765 197.555V201.562C597.325 201.949 596.455 202.301 595.154 202.617C593.854 202.916 592.412 203.101 590.83 203.171L588.8 203.25C586.304 203.338 584.326 203.786 582.867 204.595C581.408 205.403 580.301 206.634 579.545 208.286C578.807 209.921 578.244 212.065 577.857 214.72L577.805 215.089H577.91C578.525 213.999 579.299 213.094 580.23 212.373C581.18 211.635 582.261 211.081 583.474 210.712C584.704 210.343 586.031 210.158 587.455 210.158C589.934 210.158 592.078 210.712 593.889 211.819C595.699 212.909 597.097 214.456 598.081 216.46C599.083 218.446 599.584 220.802 599.584 223.526V223.579C599.584 226.444 599.065 228.923 598.028 231.015C596.991 233.106 595.515 234.715 593.599 235.84C591.7 236.965 589.424 237.527 586.77 237.527ZM586.77 233.467C588.492 233.467 589.951 233.08 591.146 232.307C592.359 231.533 593.282 230.408 593.915 228.932C594.565 227.455 594.891 225.671 594.891 223.579V223.526C594.891 221.54 594.565 219.853 593.915 218.464C593.282 217.075 592.359 216.021 591.146 215.3C589.951 214.579 588.492 214.219 586.77 214.219C585.047 214.219 583.579 214.579 582.366 215.3C581.153 216.021 580.222 217.075 579.571 218.464C578.938 219.853 578.622 221.54 578.622 223.526V223.579C578.622 225.671 578.938 227.455 579.571 228.932C580.222 230.408 581.153 231.533 582.366 232.307C583.579 233.08 585.047 233.467 586.77 233.467ZM604.699 237V209.578H609.287V233.203H619.333V209.578H623.921V233.203H633.967V209.578H638.555V237H604.699ZM638.66 244.515V237H633.967V233.203H642.826V244.515H638.66ZM658.251 237.527C655.632 237.527 653.373 236.947 651.475 235.787C649.594 234.627 648.144 232.992 647.124 230.883C646.122 228.756 645.621 226.26 645.621 223.395V223.368C645.621 220.538 646.131 218.051 647.15 215.906C648.17 213.744 649.603 212.065 651.448 210.87C653.294 209.657 655.465 209.051 657.961 209.051C660.457 209.051 662.602 209.631 664.395 210.791C666.205 211.934 667.594 213.542 668.561 215.616C669.527 217.69 670.011 220.099 670.011 222.841V224.528H647.915V220.942H667.743L665.423 224.265V222.498C665.423 220.371 665.098 218.613 664.447 217.225C663.814 215.836 662.936 214.808 661.811 214.14C660.686 213.454 659.394 213.111 657.935 213.111C656.476 213.111 655.166 213.472 654.006 214.192C652.846 214.896 651.932 215.95 651.264 217.356C650.596 218.745 650.262 220.459 650.262 222.498V224.265C650.262 226.198 650.587 227.851 651.237 229.222C651.905 230.593 652.846 231.647 654.059 232.386C655.271 233.106 656.704 233.467 658.356 233.467C659.517 233.467 660.554 233.291 661.468 232.939C662.382 232.588 663.146 232.104 663.762 231.489C664.377 230.874 664.816 230.171 665.08 229.38L665.159 229.143H669.668L669.615 229.406C669.387 230.531 668.947 231.586 668.297 232.57C667.664 233.555 666.847 234.425 665.845 235.181C664.843 235.919 663.7 236.499 662.417 236.921C661.134 237.325 659.745 237.527 658.251 237.527ZM679.74 237H675.152V209.578H680.769L690.472 230.936H690.683L700.465 209.578H705.844V237H701.256V217.541H701.071L692.238 236.209H688.731L679.925 217.541H679.74V237ZM729.68 211.028L738.908 221.997V222.208C738.398 222.823 737.889 223.438 737.379 224.054C736.869 224.651 736.351 225.258 735.823 225.873C735.313 226.471 734.804 227.077 734.294 227.692C733.784 228.308 733.274 228.923 732.765 229.538C732.255 230.136 731.736 230.742 731.209 231.357C730.699 231.955 730.189 232.562 729.68 233.177H724.301L733.556 222.287V221.918L724.301 211.028H729.68ZM717.999 211.028L727.228 221.997V222.208C726.718 222.823 726.208 223.438 725.698 224.054C725.188 224.651 724.67 225.258 724.143 225.873C723.633 226.471 723.123 227.077 722.613 227.692C722.104 228.308 721.594 228.923 721.084 229.538C720.574 230.136 720.056 230.742 719.528 231.357C719.019 231.955 718.509 232.562 717.999 233.177H712.62L721.875 222.287V221.918L712.62 211.028H717.999ZM36.4863 282H30.6064L43.5264 266.944V268.104L31.0283 254.578H36.6182L47.1914 266.285H47.9824V254.578H52.4121V266.285H53.2031L63.7764 254.578H69.3662L56.8682 268.104V266.944L69.7881 282H63.9082L53.2031 269.238H52.4121V282H47.9824V269.238H47.1914L36.4863 282ZM84.1318 282.527C81.5127 282.527 79.2539 281.947 77.3555 280.787C75.4746 279.627 74.0244 277.992 73.0049 275.883C72.0029 273.756 71.502 271.26 71.502 268.395V268.368C71.502 265.538 72.0117 263.051 73.0312 260.906C74.0508 258.744 75.4834 257.065 77.3291 255.87C79.1748 254.657 81.3457 254.051 83.8418 254.051C86.3379 254.051 88.4824 254.631 90.2754 255.791C92.0859 256.934 93.4746 258.542 94.4414 260.616C95.4082 262.69 95.8916 265.099 95.8916 267.841V269.528H73.7959V265.942H93.624L91.3037 269.265V267.498C91.3037 265.371 90.9785 263.613 90.3281 262.225C89.6953 260.836 88.8164 259.808 87.6914 259.14C86.5664 258.454 85.2744 258.111 83.8154 258.111C82.3564 258.111 81.0469 258.472 79.8867 259.192C78.7266 259.896 77.8125 260.95 77.1445 262.356C76.4766 263.745 76.1426 265.459 76.1426 267.498V269.265C76.1426 271.198 76.4678 272.851 77.1182 274.222C77.7861 275.593 78.7266 276.647 79.9395 277.386C81.1523 278.106 82.585 278.467 84.2373 278.467C85.3975 278.467 86.4346 278.291 87.3486 277.939C88.2627 277.588 89.0273 277.104 89.6426 276.489C90.2578 275.874 90.6973 275.171 90.9609 274.38L91.04 274.143H95.5488L95.4961 274.406C95.2676 275.531 94.8281 276.586 94.1777 277.57C93.5449 278.555 92.7275 279.425 91.7256 280.181C90.7236 280.919 89.5811 281.499 88.2979 281.921C87.0146 282.325 85.626 282.527 84.1318 282.527ZM103.617 282.369C102.773 282.369 102.062 282.079 101.481 281.499C100.901 280.919 100.611 280.207 100.611 279.363C100.611 278.52 100.901 277.808 101.481 277.228C102.062 276.647 102.773 276.357 103.617 276.357C104.461 276.357 105.173 276.647 105.753 277.228C106.333 277.808 106.623 278.52 106.623 279.363C106.623 280.207 106.333 280.919 105.753 281.499C105.173 282.079 104.461 282.369 103.617 282.369Z" fill="#5DCF00"/>
<rect x="830" y="245" width="50" height="50" rx="25" fill="#5DCF00"/>
</svg>
