<svg width="500" height="470" viewBox="0 0 500 470" fill="none" xmlns="http://www.w3.org/2000/svg">
<rect width="500" height="470" fill="black"/>
<path d="M30 50V21.12H34.6V50H30ZM24.04 50V45.96H40.56V50H24.04ZM25.24 25.16L23.12 21.12H34.6V25.16H25.24ZM56.2084 50.48C54.1818 50.48 52.4351 50.04 50.9684 49.16C49.5151 48.2667 48.3951 47.02 47.6084 45.42C46.8351 43.8067 46.4484 41.92 46.4484 39.76C46.4484 37.5467 46.8484 35.6467 47.6484 34.06C48.4484 32.46 49.5751 31.2333 51.0284 30.38C52.4951 29.5133 54.2218 29.08 56.2084 29.08C57.8484 29.08 59.3418 29.4267 60.6884 30.12C62.0351 30.8133 63.1018 31.8733 63.8884 33.3C64.6884 34.7267 65.0884 36.5467 65.0884 38.76C65.0884 39.12 65.0818 39.5467 65.0684 40.04C65.0551 40.5333 65.0084 41.04 64.9284 41.56H49.9684V37.64H60.5684C60.4751 36.5867 60.2151 35.7267 59.7884 35.06C59.3618 34.3933 58.8351 33.9067 58.2084 33.6C57.5818 33.28 56.9151 33.12 56.2084 33.12C54.3284 33.12 52.9684 33.7067 52.1284 34.88C51.3018 36.0533 50.8884 37.6533 50.8884 39.68C50.8884 41.6933 51.3551 43.32 52.2884 44.56C53.2351 45.7867 54.5551 46.4 56.2484 46.4C57.1551 46.4 57.9751 46.24 58.7084 45.92C59.4418 45.6 60.1284 45.0933 60.7684 44.4L63.5284 47.32C62.6751 48.2533 61.6351 49.0133 60.4084 49.6C59.1951 50.1867 57.7951 50.48 56.2084 50.48ZM68.6569 50V29.56H72.8569V34.6L72.1369 34.2C72.3369 32.6 72.8169 31.3467 73.5769 30.44C74.3502 29.5333 75.3235 29.08 76.4969 29.08C77.5369 29.08 78.3635 29.3933 78.9769 30.02C79.5902 30.6467 80.0169 31.32 80.2569 32.04C80.7235 31.2933 81.3302 30.6133 82.0769 30C82.8369 29.3867 83.7769 29.08 84.8969 29.08C86.4969 29.08 87.7102 29.6533 88.5369 30.8C89.3635 31.9467 89.7769 33.96 89.7769 36.84V50H85.5769V37.52C85.5769 36.12 85.4502 35.1 85.1969 34.46C84.9435 33.8067 84.4435 33.48 83.6969 33.48C83.2302 33.48 82.8235 33.64 82.4769 33.96C82.1435 34.28 81.8835 34.7467 81.6969 35.36C81.5102 35.96 81.4169 36.6933 81.4169 37.56V50H77.2169V37.4C77.2169 36.5733 77.1502 35.8667 77.0169 35.28C76.8835 34.6933 76.6769 34.2467 76.3969 33.94C76.1169 33.6333 75.7502 33.48 75.2969 33.48C74.8035 33.48 74.3702 33.64 73.9969 33.96C73.6369 34.28 73.3569 34.7467 73.1569 35.36C72.9569 35.96 72.8569 36.6933 72.8569 37.56V50H68.6569ZM102.665 50.48C100.652 50.48 98.912 50.0467 97.4453 49.18C95.9786 48.3133 94.8453 47.0867 94.0453 45.5C93.2586 43.9 92.8653 42 92.8653 39.8C92.8653 37.6267 93.2586 35.74 94.0453 34.14C94.8453 32.5267 95.9786 31.28 97.4453 30.4C98.912 29.52 100.652 29.08 102.665 29.08C104.692 29.08 106.439 29.52 107.905 30.4C109.372 31.2667 110.499 32.5067 111.285 34.12C112.072 35.72 112.465 37.6133 112.465 39.8C112.465 41.9867 112.072 43.88 111.285 45.48C110.499 47.08 109.372 48.3133 107.905 49.18C106.439 50.0467 104.692 50.48 102.665 50.48ZM102.665 46.08C104.345 46.08 105.625 45.5067 106.505 44.36C107.385 43.2133 107.825 41.6933 107.825 39.8C107.825 37.8933 107.392 36.36 106.525 35.2C105.659 34.0267 104.372 33.44 102.665 33.44C101.012 33.44 99.7386 34.02 98.8453 35.18C97.952 36.34 97.5053 37.88 97.5053 39.8C97.5053 41.6933 97.952 43.2133 98.8453 44.36C99.7386 45.5067 101.012 46.08 102.665 46.08ZM117.154 50V29.56H121.754V34.4L121.154 33.04C121.154 32.44 121.44 31.84 122.014 31.24C122.587 30.6267 123.354 30.1133 124.314 29.7C125.287 29.2867 126.367 29.08 127.554 29.08C128.914 29.08 130.167 29.3467 131.314 29.88C132.46 30.4133 133.38 31.3 134.074 32.54C134.767 33.7667 135.114 35.4267 135.114 37.52V50H130.514V38.48C130.514 36.6 130.094 35.2933 129.254 34.56C128.427 33.8133 127.434 33.44 126.274 33.44C125.46 33.44 124.707 33.5933 124.014 33.9C123.334 34.1933 122.787 34.7 122.374 35.42C121.96 36.14 121.754 37.1333 121.754 38.4V50H117.154ZM152.242 50V43.92H138.842V40.96L152.242 22H156.882V39.56H160.442V43.92H156.882V50H152.242ZM145.002 39.56H152.242V28.64L145.002 39.56ZM170.891 50V29.56H175.491V50H170.891ZM165.251 50V45.96H181.131V50H165.251ZM165.251 33.6V29.56H173.891V33.6H165.251ZM173.171 26.72C172.411 26.72 171.764 26.4533 171.231 25.92C170.711 25.3733 170.451 24.72 170.451 23.96C170.451 23.2 170.711 22.56 171.231 22.04C171.764 21.5067 172.411 21.24 173.171 21.24C173.957 21.24 174.611 21.5067 175.131 22.04C175.664 22.56 175.931 23.2 175.931 23.96C175.931 24.72 175.664 25.3733 175.131 25.92C174.611 26.4533 173.957 26.72 173.171 26.72ZM187.659 50V23.28L192.259 21.12V50H187.659ZM191.579 42.28V37.24L199.379 29.56H204.859L191.579 42.28ZM201.139 50L195.019 38.16L198.379 34.88L206.179 50H201.139ZM219.887 36.8C218.981 36.8 218.227 36.5 217.627 35.9C217.041 35.3 216.747 34.5667 216.747 33.7C216.747 32.8467 217.041 32.12 217.627 31.52C218.227 30.9067 218.974 30.6 219.867 30.6C220.774 30.6 221.534 30.9067 222.147 31.52C222.761 32.12 223.067 32.8467 223.067 33.7C223.067 34.5667 222.761 35.3 222.147 35.9C221.534 36.5 220.781 36.8 219.887 36.8ZM219.887 50.52C218.981 50.52 218.227 50.2133 217.627 49.6C217.041 48.9867 216.747 48.2533 216.747 47.4C216.747 46.56 217.041 45.8333 217.627 45.22C218.227 44.5933 218.974 44.28 219.867 44.28C220.774 44.28 221.534 44.5933 222.147 45.22C222.761 45.8333 223.067 46.56 223.067 47.4C223.067 48.2533 222.761 48.9867 222.147 49.6C221.534 50.2133 220.781 50.52 219.887 50.52ZM271.744 50V40.46C271.131 41.3267 270.338 41.9867 269.364 42.44C268.404 42.8933 267.278 43.12 265.984 43.12C264.184 43.12 262.711 42.7867 261.564 42.12C260.431 41.44 259.591 40.4133 259.044 39.04C258.511 37.6667 258.244 35.9333 258.244 33.84V29.56H261.504V34.5C261.504 36.4733 261.944 37.9133 262.824 38.82C263.718 39.7133 264.938 40.16 266.484 40.16C268.098 40.16 269.378 39.7533 270.324 38.94C271.271 38.1133 271.744 36.66 271.744 34.58V29.56H274.984V50H271.744ZM290.673 50.48C288.713 50.48 287.033 50 285.633 49.04C284.246 48.08 283.186 46.7867 282.453 45.16C281.719 43.5333 281.353 41.7333 281.353 39.76C281.353 37.5067 281.739 35.5867 282.513 34C283.286 32.4 284.366 31.18 285.753 30.34C287.153 29.5 288.793 29.08 290.673 29.08C292.206 29.08 293.613 29.4267 294.893 30.12C296.186 30.8133 297.219 31.8867 297.993 33.34C298.766 34.78 299.153 36.6333 299.153 38.9C299.153 39.1533 299.146 39.4667 299.133 39.84C299.133 40.2 299.106 40.6133 299.053 41.08H283.913V38.2H295.893C295.866 36.5733 295.573 35.3133 295.013 34.42C294.466 33.5133 293.793 32.88 292.993 32.52C292.193 32.16 291.419 31.98 290.673 31.98C288.593 31.98 287.066 32.64 286.093 33.96C285.119 35.2667 284.633 37.02 284.633 39.22C284.633 41.78 285.173 43.8 286.253 45.28C287.333 46.76 288.839 47.5 290.773 47.5C291.586 47.5 292.393 47.3733 293.193 47.12C293.993 46.8533 294.779 46.4133 295.553 45.8L297.393 47.94C296.539 48.6733 295.533 49.28 294.373 49.76C293.226 50.24 291.993 50.48 290.673 50.48ZM304.461 50.48L302.861 47.84C304.155 47.6 305.095 47.1867 305.681 46.6C306.268 46.0133 306.635 45.1067 306.781 43.88L308.441 29.56H321.901V50H318.641V32.58H311.361L310.001 44.5C309.815 46.2333 309.255 47.5933 308.321 48.58C307.401 49.5533 306.115 50.1867 304.461 50.48ZM327.45 50V29.56H330.69V37.3H333.75C335.87 37.3 337.57 37.88 338.85 39.04C340.13 40.2 340.77 41.74 340.77 43.66C340.77 45.5667 340.13 47.1 338.85 48.26C337.57 49.42 335.87 50 333.75 50H327.45ZM330.69 47.08H333.75C334.936 47.08 335.856 46.78 336.51 46.18C337.176 45.5667 337.51 44.7267 337.51 43.66C337.51 42.58 337.176 41.7333 336.51 41.12C335.843 40.5067 334.923 40.2 333.75 40.2H330.69V47.08ZM343.63 50V29.56H346.87V50H343.63ZM359.538 56.98L357.858 56.36C358.471 55.64 359.038 54.7533 359.558 53.7C360.078 52.6467 360.358 51.64 360.398 50.68C359.651 50.6133 359.031 50.3467 358.538 49.88C358.058 49.4133 357.818 48.7933 357.818 48.02C357.818 47.2067 358.085 46.5533 358.618 46.06C359.165 45.5533 359.798 45.3 360.518 45.3C361.291 45.3 361.965 45.5867 362.538 46.16C363.125 46.7333 363.418 47.6133 363.418 48.8C363.418 49.96 363.225 51.0733 362.838 52.14C362.451 53.2067 361.958 54.16 361.358 55C360.758 55.8533 360.151 56.5133 359.538 56.98ZM412.035 50V42.26H406.875C404.742 42.26 403.035 41.68 401.755 40.52C400.475 39.3467 399.835 37.8067 399.835 35.9C399.835 33.9667 400.475 32.4267 401.755 31.28C403.035 30.1333 404.735 29.56 406.855 29.56H415.275V50H412.035ZM398.135 50L404.975 40.76H408.695L402.035 50H398.135ZM406.875 39.34H412.035V32.48H406.875C405.688 32.48 404.762 32.78 404.095 33.38C403.442 33.98 403.115 34.82 403.115 35.9C403.115 36.9667 403.448 37.8067 404.115 38.42C404.782 39.0333 405.702 39.34 406.875 39.34ZM30.68 90V72.46H23.9V69.56H40.74V72.46H33.92V90H30.68ZM51.1084 97.76L54.1684 89.42L46.6484 69.56H49.9484L54.9884 83.56C55.0951 83.8667 55.2018 84.1933 55.3084 84.54C55.4151 84.8733 55.5284 85.2267 55.6484 85.6C55.7551 85.2533 55.8684 84.9133 55.9884 84.58C56.1084 84.2333 56.2284 83.8933 56.3484 83.56L61.4484 69.56H64.8684L54.3684 97.76H51.1084ZM77.5769 90V72.46H70.7969V69.56H87.6369V72.46H80.8169V90H77.5769ZM117.974 98.1V69.56H121.234V71.32C121.86 70.7333 122.594 70.2133 123.434 69.76C124.274 69.3067 125.387 69.08 126.774 69.08C128.614 69.08 130.194 69.52 131.514 70.4C132.847 71.2667 133.874 72.5 134.594 74.1C135.314 75.7 135.674 77.5867 135.674 79.76C135.674 82.04 135.294 83.98 134.534 85.58C133.787 87.1667 132.747 88.38 131.414 89.22C130.094 90.06 128.587 90.48 126.894 90.48C125.4 90.48 124.22 90.24 123.354 89.76C122.5 89.2667 121.794 88.6867 121.234 88.02V96.52L117.974 98.1ZM126.494 87.48C128.347 87.48 129.78 86.82 130.794 85.5C131.807 84.1667 132.314 82.2533 132.314 79.76C132.314 77.4267 131.794 75.56 130.754 74.16C129.714 72.76 128.247 72.06 126.354 72.06C125.234 72.06 124.227 72.3133 123.334 72.82C122.454 73.3267 121.754 74.0333 121.234 74.94V84.6C121.86 85.4133 122.594 86.1 123.434 86.66C124.274 87.2067 125.294 87.48 126.494 87.48ZM149.982 90.48C148.022 90.48 146.342 90 144.942 89.04C143.556 88.08 142.496 86.7867 141.762 85.16C141.029 83.5333 140.662 81.7333 140.662 79.76C140.662 77.5067 141.049 75.5867 141.822 74C142.596 72.4 143.676 71.18 145.062 70.34C146.462 69.5 148.102 69.08 149.982 69.08C151.516 69.08 152.922 69.4267 154.202 70.12C155.496 70.8133 156.529 71.8867 157.302 73.34C158.076 74.78 158.462 76.6333 158.462 78.9C158.462 79.1533 158.456 79.4667 158.442 79.84C158.442 80.2 158.416 80.6133 158.362 81.08H143.222V78.2H155.202C155.176 76.5733 154.882 75.3133 154.322 74.42C153.776 73.5133 153.102 72.88 152.302 72.52C151.502 72.16 150.729 71.98 149.982 71.98C147.902 71.98 146.376 72.64 145.402 73.96C144.429 75.2667 143.942 77.02 143.942 79.22C143.942 81.78 144.482 83.8 145.562 85.28C146.642 86.76 148.149 87.5 150.082 87.5C150.896 87.5 151.702 87.3733 152.502 87.12C153.302 86.8533 154.089 86.4133 154.862 85.8L156.702 87.94C155.849 88.6733 154.842 89.28 153.682 89.76C152.536 90.24 151.302 90.48 149.982 90.48ZM163.231 90V69.56H166.391V87.12H171.431V69.56H174.591V87.12H179.651V69.56H182.791V90H163.231ZM188.099 90V69.56H191.339V84.3L201.619 69.56H204.839V90H201.579V75.3L191.319 90H188.099ZM210.667 90.48L209.067 87.84C210.361 87.6 211.301 87.1867 211.887 86.6C212.474 86.0133 212.841 85.1067 212.987 83.88L214.647 69.56H228.107V90H224.847V72.58H217.567L216.207 84.5C216.021 86.2333 215.461 87.5933 214.527 88.58C213.607 89.5533 212.321 90.1867 210.667 90.48ZM24.22 130V109.56H40.44V130H37.16V112.46H27.48V130H24.22ZM47.6284 138.1V109.56H50.8884V111.32C51.5151 110.733 52.2484 110.213 53.0884 109.76C53.9284 109.307 55.0418 109.08 56.4284 109.08C58.2684 109.08 59.8484 109.52 61.1684 110.4C62.5018 111.267 63.5284 112.5 64.2484 114.1C64.9684 115.7 65.3284 117.587 65.3284 119.76C65.3284 122.04 64.9484 123.98 64.1884 125.58C63.4418 127.167 62.4018 128.38 61.0684 129.22C59.7484 130.06 58.2418 130.48 56.5484 130.48C55.0551 130.48 53.8751 130.24 53.0084 129.76C52.1551 129.267 51.4484 128.687 50.8884 128.02V136.52L47.6284 138.1ZM56.1484 127.48C58.0018 127.48 59.4351 126.82 60.4484 125.5C61.4618 124.167 61.9684 122.253 61.9684 119.76C61.9684 117.427 61.4484 115.56 60.4084 114.16C59.3684 112.76 57.9018 112.06 56.0084 112.06C54.8884 112.06 53.8818 112.313 52.9884 112.82C52.1084 113.327 51.4084 114.033 50.8884 114.94V124.6C51.5151 125.413 52.2484 126.1 53.0884 126.66C53.9284 127.207 54.9484 127.48 56.1484 127.48ZM79.2169 130.48C77.3102 130.48 75.6435 130.06 74.2169 129.22C72.7902 128.38 71.6769 127.167 70.8769 125.58C70.0902 123.98 69.6969 122.053 69.6969 119.8C69.6969 117.573 70.0902 115.66 70.8769 114.06C71.6769 112.46 72.7902 111.233 74.2169 110.38C75.6435 109.513 77.3102 109.08 79.2169 109.08C81.1369 109.08 82.8102 109.5 84.2369 110.34C85.6769 111.18 86.7902 112.4 87.5769 114C88.3635 115.6 88.7569 117.52 88.7569 119.76C88.7569 121.987 88.3635 123.9 87.5769 125.5C86.7902 127.1 85.6769 128.333 84.2369 129.2C82.8102 130.053 81.1369 130.48 79.2169 130.48ZM79.2169 127.48C81.1902 127.48 82.7102 126.793 83.7769 125.42C84.8569 124.047 85.3969 122.16 85.3969 119.76C85.3969 117.373 84.8769 115.493 83.8369 114.12C82.7969 112.747 81.2569 112.06 79.2169 112.06C77.2035 112.06 75.6702 112.733 74.6169 114.08C73.5635 115.413 73.0369 117.32 73.0369 119.8C73.0369 122.173 73.5635 124.047 74.6169 125.42C75.6702 126.793 77.2035 127.48 79.2169 127.48ZM96.1453 127.36V123L106.745 109.56H110.465L96.1453 127.36ZM94.4853 130V109.56H97.7453V130H94.4853ZM108.385 130L101.905 118.04L104.045 115.38L112.025 130H108.385ZM124.774 130.48C123.347 130.48 122.08 130.227 120.974 129.72C119.88 129.2 119.02 128.433 118.394 127.42C117.78 126.393 117.474 125.113 117.474 123.58C117.474 122.007 117.847 120.727 118.594 119.74C119.34 118.74 120.307 118.007 121.494 117.54C122.68 117.06 123.94 116.82 125.274 116.82C126.274 116.82 127.22 116.92 128.114 117.12C129.02 117.32 129.94 117.673 130.874 118.18V116.58C130.874 115.327 130.674 114.367 130.274 113.7C129.874 113.02 129.34 112.553 128.674 112.3C128.007 112.047 127.28 111.92 126.494 111.92C125.4 111.92 124.26 112.147 123.074 112.6C121.9 113.04 120.88 113.533 120.014 114.08L119.074 111.34C119.967 110.793 121.094 110.28 122.454 109.8C123.827 109.32 125.28 109.08 126.814 109.08C127.587 109.08 128.387 109.18 129.214 109.38C130.04 109.567 130.814 109.92 131.534 110.44C132.254 110.96 132.834 111.693 133.274 112.64C133.714 113.573 133.934 114.793 133.934 116.3V130H130.874V128.1C130.114 128.78 129.22 129.347 128.194 129.8C127.18 130.253 126.04 130.48 124.774 130.48ZM125.194 127.64C126.487 127.64 127.607 127.34 128.554 126.74C129.5 126.127 130.274 125.467 130.874 124.76V121.12C130.234 120.72 129.447 120.373 128.514 120.08C127.58 119.787 126.634 119.64 125.674 119.64C124.3 119.64 123.1 119.96 122.074 120.6C121.047 121.227 120.534 122.22 120.534 123.58C120.534 124.793 120.934 125.773 121.734 126.52C122.547 127.267 123.7 127.64 125.194 127.64ZM154.502 130V120.46C153.889 121.327 153.096 121.987 152.122 122.44C151.162 122.893 150.036 123.12 148.742 123.12C146.942 123.12 145.469 122.787 144.322 122.12C143.189 121.44 142.349 120.413 141.802 119.04C141.269 117.667 141.002 115.933 141.002 113.84V109.56H144.262V114.5C144.262 116.473 144.702 117.913 145.582 118.82C146.476 119.713 147.696 120.16 149.242 120.16C150.856 120.16 152.136 119.753 153.082 118.94C154.029 118.113 154.502 116.66 154.502 114.58V109.56H157.742V130H154.502ZM171.671 130.48C170.244 130.48 168.977 130.227 167.871 129.72C166.777 129.2 165.917 128.433 165.291 127.42C164.677 126.393 164.371 125.113 164.371 123.58C164.371 122.007 164.744 120.727 165.491 119.74C166.237 118.74 167.204 118.007 168.391 117.54C169.577 117.06 170.837 116.82 172.171 116.82C173.171 116.82 174.117 116.92 175.011 117.12C175.917 117.32 176.837 117.673 177.771 118.18V116.58C177.771 115.327 177.571 114.367 177.171 113.7C176.771 113.02 176.237 112.553 175.571 112.3C174.904 112.047 174.177 111.92 173.391 111.92C172.297 111.92 171.157 112.147 169.971 112.6C168.797 113.04 167.777 113.533 166.911 114.08L165.971 111.34C166.864 110.793 167.991 110.28 169.351 109.8C170.724 109.32 172.177 109.08 173.711 109.08C174.484 109.08 175.284 109.18 176.111 109.38C176.937 109.567 177.711 109.92 178.431 110.44C179.151 110.96 179.731 111.693 180.171 112.64C180.611 113.573 180.831 114.793 180.831 116.3V130H177.771V128.1C177.011 128.78 176.117 129.347 175.091 129.8C174.077 130.253 172.937 130.48 171.671 130.48ZM172.091 127.64C173.384 127.64 174.504 127.34 175.451 126.74C176.397 126.127 177.171 125.467 177.771 124.76V121.12C177.131 120.72 176.344 120.373 175.411 120.08C174.477 119.787 173.531 119.64 172.571 119.64C171.197 119.64 169.997 119.96 168.971 120.6C167.944 121.227 167.431 122.22 167.431 123.58C167.431 124.793 167.831 125.773 168.631 126.52C169.444 127.267 170.597 127.64 172.091 127.64ZM194.819 130V112.46H188.039V109.56H204.879V112.46H198.059V130H194.819ZM220.367 130.48C217.727 130.48 215.634 129.547 214.087 127.68C212.554 125.813 211.787 123.187 211.787 119.8C211.787 117.56 212.141 115.64 212.847 114.04C213.554 112.44 214.567 111.213 215.887 110.36C217.207 109.507 218.787 109.08 220.627 109.08C222.347 109.08 223.827 109.467 225.067 110.24C226.321 111.013 227.241 112.16 227.827 113.68L224.827 114.8C224.494 114.013 223.987 113.36 223.307 112.84C222.627 112.32 221.707 112.06 220.547 112.06C218.654 112.06 217.281 112.76 216.427 114.16C215.574 115.547 215.147 117.427 215.147 119.8C215.147 122.213 215.581 124.1 216.447 125.46C217.314 126.807 218.654 127.48 220.467 127.48C221.614 127.48 222.581 127.207 223.367 126.66C224.167 126.113 224.741 125.36 225.087 124.4L228.067 125.46C227.547 127.033 226.614 128.267 225.267 129.16C223.921 130.04 222.287 130.48 220.367 130.48ZM247.896 130V122.26H242.736C240.603 122.26 238.896 121.68 237.616 120.52C236.336 119.347 235.696 117.807 235.696 115.9C235.696 113.967 236.336 112.427 237.616 111.28C238.896 110.133 240.596 109.56 242.716 109.56H251.136V130H247.896ZM233.996 130L240.836 120.76H244.556L237.896 130H233.996ZM242.736 119.34H247.896V112.48H242.736C241.549 112.48 240.623 112.78 239.956 113.38C239.303 113.98 238.976 114.82 238.976 115.9C238.976 116.967 239.309 117.807 239.976 118.42C240.643 119.033 241.563 119.34 242.736 119.34ZM282.073 130V109.56H291.593C293.246 109.56 294.546 109.827 295.493 110.36C296.439 110.88 297.106 111.553 297.493 112.38C297.879 113.193 298.073 114.027 298.073 114.88C298.073 115.893 297.786 116.78 297.213 117.54C296.653 118.3 295.933 118.867 295.053 119.24C296.173 119.52 297.073 120.087 297.753 120.94C298.446 121.793 298.793 122.867 298.793 124.16C298.793 125.107 298.573 126.027 298.133 126.92C297.706 127.813 296.993 128.553 295.993 129.14C294.993 129.713 293.633 130 291.913 130H282.073ZM285.333 127.1H291.673C293.099 127.1 294.093 126.8 294.653 126.2C295.226 125.6 295.513 124.86 295.513 123.98C295.513 123.087 295.186 122.347 294.533 121.76C293.879 121.173 292.826 120.88 291.373 120.88H285.333V127.1ZM285.333 118.02H291.253C292.586 118.02 293.506 117.733 294.013 117.16C294.533 116.573 294.793 115.927 294.793 115.22C294.793 114.753 294.693 114.313 294.493 113.9C294.293 113.473 293.939 113.127 293.433 112.86C292.926 112.58 292.199 112.44 291.253 112.44H285.333V118.02ZM337.61 130.48C334.97 130.48 332.876 129.547 331.33 127.68C329.796 125.813 329.03 123.187 329.03 119.8C329.03 117.56 329.383 115.64 330.09 114.04C330.796 112.44 331.81 111.213 333.13 110.36C334.45 109.507 336.03 109.08 337.87 109.08C339.59 109.08 341.07 109.467 342.31 110.24C343.563 111.013 344.483 112.16 345.07 113.68L342.07 114.8C341.736 114.013 341.23 113.36 340.55 112.84C339.87 112.32 338.95 112.06 337.79 112.06C335.896 112.06 334.523 112.76 333.67 114.16C332.816 115.547 332.39 117.427 332.39 119.8C332.39 122.213 332.823 124.1 333.69 125.46C334.556 126.807 335.896 127.48 337.71 127.48C338.856 127.48 339.823 127.207 340.61 126.66C341.41 126.113 341.983 125.36 342.33 124.4L345.31 125.46C344.79 127.033 343.856 128.267 342.51 129.16C341.163 130.04 339.53 130.48 337.61 130.48ZM360.598 130.48C358.691 130.48 357.025 130.06 355.598 129.22C354.171 128.38 353.058 127.167 352.258 125.58C351.471 123.98 351.078 122.053 351.078 119.8C351.078 117.573 351.471 115.66 352.258 114.06C353.058 112.46 354.171 111.233 355.598 110.38C357.025 109.513 358.691 109.08 360.598 109.08C362.518 109.08 364.191 109.5 365.618 110.34C367.058 111.18 368.171 112.4 368.958 114C369.745 115.6 370.138 117.52 370.138 119.76C370.138 121.987 369.745 123.9 368.958 125.5C368.171 127.1 367.058 128.333 365.618 129.2C364.191 130.053 362.518 130.48 360.598 130.48ZM360.598 127.48C362.571 127.48 364.091 126.793 365.158 125.42C366.238 124.047 366.778 122.16 366.778 119.76C366.778 117.373 366.258 115.493 365.218 114.12C364.178 112.747 362.638 112.06 360.598 112.06C358.585 112.06 357.051 112.733 355.998 114.08C354.945 115.413 354.418 117.32 354.418 119.8C354.418 122.173 354.945 124.047 355.998 125.42C357.051 126.793 358.585 127.48 360.598 127.48ZM374.807 130.48L373.207 127.84C374.5 127.6 375.44 127.187 376.027 126.6C376.613 126.013 376.98 125.107 377.127 123.88L378.787 109.56H392.247V130H388.987V112.58H381.707L380.347 124.5C380.16 126.233 379.6 127.593 378.667 128.58C377.747 129.553 376.46 130.187 374.807 130.48ZM407.495 130.48C405.588 130.48 403.922 130.06 402.495 129.22C401.068 128.38 399.955 127.167 399.155 125.58C398.368 123.98 397.975 122.053 397.975 119.8C397.975 117.573 398.368 115.66 399.155 114.06C399.955 112.46 401.068 111.233 402.495 110.38C403.922 109.513 405.588 109.08 407.495 109.08C409.415 109.08 411.088 109.5 412.515 110.34C413.955 111.18 415.068 112.4 415.855 114C416.642 115.6 417.035 117.52 417.035 119.76C417.035 121.987 416.642 123.9 415.855 125.5C415.068 127.1 413.955 128.333 412.515 129.2C411.088 130.053 409.415 130.48 407.495 130.48ZM407.495 127.48C409.468 127.48 410.988 126.793 412.055 125.42C413.135 124.047 413.675 122.16 413.675 119.76C413.675 117.373 413.155 115.493 412.115 114.12C411.075 112.747 409.535 112.06 407.495 112.06C405.482 112.06 403.948 112.733 402.895 114.08C401.842 115.413 401.315 117.32 401.315 119.8C401.315 122.173 401.842 124.047 402.895 125.42C403.948 126.793 405.482 127.48 407.495 127.48ZM429.883 136.98L428.203 136.36C428.817 135.64 429.383 134.753 429.903 133.7C430.423 132.647 430.703 131.64 430.743 130.68C429.997 130.613 429.377 130.347 428.883 129.88C428.403 129.413 428.163 128.793 428.163 128.02C428.163 127.207 428.43 126.553 428.963 126.06C429.51 125.553 430.143 125.3 430.863 125.3C431.637 125.3 432.31 125.587 432.883 126.16C433.47 126.733 433.763 127.613 433.763 128.8C433.763 129.96 433.57 131.073 433.183 132.14C432.797 133.207 432.303 134.16 431.703 135C431.103 135.853 430.497 136.513 429.883 136.98ZM23.9 170V149.56H27.14V157.92H37.5V149.56H40.76V170H37.5V160.82H27.14V170H23.9ZM55.7684 170.48C53.8618 170.48 52.1951 170.06 50.7684 169.22C49.3418 168.38 48.2284 167.167 47.4284 165.58C46.6418 163.98 46.2484 162.053 46.2484 159.8C46.2484 157.573 46.6418 155.66 47.4284 154.06C48.2284 152.46 49.3418 151.233 50.7684 150.38C52.1951 149.513 53.8618 149.08 55.7684 149.08C57.6884 149.08 59.3618 149.5 60.7884 150.34C62.2284 151.18 63.3418 152.4 64.1284 154C64.9151 155.6 65.3084 157.52 65.3084 159.76C65.3084 161.987 64.9151 163.9 64.1284 165.5C63.3418 167.1 62.2284 168.333 60.7884 169.2C59.3618 170.053 57.6884 170.48 55.7684 170.48ZM55.7684 167.48C57.7418 167.48 59.2618 166.793 60.3284 165.42C61.4084 164.047 61.9484 162.16 61.9484 159.76C61.9484 157.373 61.4284 155.493 60.3884 154.12C59.3484 152.747 57.8084 152.06 55.7684 152.06C53.7551 152.06 52.2218 152.733 51.1684 154.08C50.1151 155.413 49.5884 157.32 49.5884 159.8C49.5884 162.173 50.1151 164.047 51.1684 165.42C52.2218 166.793 53.7551 167.48 55.7684 167.48ZM78.1569 176.98L76.4769 176.36C77.0902 175.64 77.6569 174.753 78.1769 173.7C78.6969 172.647 78.9769 171.64 79.0169 170.68C78.2702 170.613 77.6502 170.347 77.1569 169.88C76.6769 169.413 76.4369 168.793 76.4369 168.02C76.4369 167.207 76.7035 166.553 77.2369 166.06C77.7835 165.553 78.4169 165.3 79.1369 165.3C79.9102 165.3 80.5835 165.587 81.1569 166.16C81.7435 166.733 82.0369 167.613 82.0369 168.8C82.0369 169.96 81.8435 171.073 81.4569 172.14C81.0702 173.207 80.5769 174.16 79.9769 175C79.3769 175.853 78.7702 176.513 78.1569 176.98ZM118.014 170V149.56H134.234V170H130.954V152.46H121.274V170H118.014ZM149.562 170.48C147.656 170.48 145.989 170.06 144.562 169.22C143.136 168.38 142.022 167.167 141.222 165.58C140.436 163.98 140.042 162.053 140.042 159.8C140.042 157.573 140.436 155.66 141.222 154.06C142.022 152.46 143.136 151.233 144.562 150.38C145.989 149.513 147.656 149.08 149.562 149.08C151.482 149.08 153.156 149.5 154.582 150.34C156.022 151.18 157.136 152.4 157.922 154C158.709 155.6 159.102 157.52 159.102 159.76C159.102 161.987 158.709 163.9 157.922 165.5C157.136 167.1 156.022 168.333 154.582 169.2C153.156 170.053 151.482 170.48 149.562 170.48ZM149.562 167.48C151.536 167.48 153.056 166.793 154.122 165.42C155.202 164.047 155.742 162.16 155.742 159.76C155.742 157.373 155.222 155.493 154.182 154.12C153.142 152.747 151.602 152.06 149.562 152.06C147.549 152.06 146.016 152.733 144.962 154.08C143.909 155.413 143.382 157.32 143.382 159.8C143.382 162.173 143.909 164.047 144.962 165.42C146.016 166.793 147.549 167.48 149.562 167.48ZM163.651 170L171.211 159.42L164.131 149.56H167.731L172.011 155.52C172.184 155.747 172.351 155.993 172.511 156.26C172.684 156.513 172.851 156.76 173.011 157C173.157 156.76 173.317 156.513 173.491 156.26C173.664 155.993 173.837 155.747 174.011 155.52L178.291 149.56H181.891L174.811 159.42L182.371 170H178.771L174.011 163.34C173.837 163.1 173.664 162.853 173.491 162.6C173.317 162.347 173.157 162.1 173.011 161.86C172.851 162.1 172.684 162.347 172.511 162.6C172.351 162.853 172.184 163.1 172.011 163.34L167.251 170H163.651ZM196.459 170.48C194.552 170.48 192.886 170.06 191.459 169.22C190.032 168.38 188.919 167.167 188.119 165.58C187.332 163.98 186.939 162.053 186.939 159.8C186.939 157.573 187.332 155.66 188.119 154.06C188.919 152.46 190.032 151.233 191.459 150.38C192.886 149.513 194.552 149.08 196.459 149.08C198.379 149.08 200.052 149.5 201.479 150.34C202.919 151.18 204.032 152.4 204.819 154C205.606 155.6 205.999 157.52 205.999 159.76C205.999 161.987 205.606 163.9 204.819 165.5C204.032 167.1 202.919 168.333 201.479 169.2C200.052 170.053 198.379 170.48 196.459 170.48ZM196.459 167.48C198.432 167.48 199.952 166.793 201.019 165.42C202.099 164.047 202.639 162.16 202.639 159.76C202.639 157.373 202.119 155.493 201.079 154.12C200.039 152.747 198.499 152.06 196.459 152.06C194.446 152.06 192.912 152.733 191.859 154.08C190.806 155.413 190.279 157.32 190.279 159.8C190.279 162.173 190.806 164.047 191.859 165.42C192.912 166.793 194.446 167.48 196.459 167.48ZM220.447 166.64L220.307 161.24L226.647 149.56H229.827L220.447 166.64ZM209.387 170L214.387 155.2L216.387 158.74L212.647 170H209.387ZM219.387 166.64L209.987 149.56H213.167L219.507 161.24L219.387 166.64ZM218.347 170V149.56H221.487V170H218.347ZM227.187 170L223.427 158.74L225.427 155.2L230.427 170H227.187ZM243.776 170.48C241.816 170.48 240.136 170 238.736 169.04C237.349 168.08 236.289 166.787 235.556 165.16C234.823 163.533 234.456 161.733 234.456 159.76C234.456 157.507 234.843 155.587 235.616 154C236.389 152.4 237.469 151.18 238.856 150.34C240.256 149.5 241.896 149.08 243.776 149.08C245.309 149.08 246.716 149.427 247.996 150.12C249.289 150.813 250.323 151.887 251.096 153.34C251.869 154.78 252.256 156.633 252.256 158.9C252.256 159.153 252.249 159.467 252.236 159.84C252.236 160.2 252.209 160.613 252.156 161.08H237.016V158.2H248.996C248.969 156.573 248.676 155.313 248.116 154.42C247.569 153.513 246.896 152.88 246.096 152.52C245.296 152.16 244.523 151.98 243.776 151.98C241.696 151.98 240.169 152.64 239.196 153.96C238.223 155.267 237.736 157.02 237.736 159.22C237.736 161.78 238.276 163.8 239.356 165.28C240.436 166.76 241.943 167.5 243.876 167.5C244.689 167.5 245.496 167.373 246.296 167.12C247.096 166.853 247.883 166.413 248.656 165.8L250.496 167.94C249.643 168.673 248.636 169.28 247.476 169.76C246.329 170.24 245.096 170.48 243.776 170.48ZM265.744 176.98L264.064 176.36C264.678 175.64 265.244 174.753 265.764 173.7C266.284 172.647 266.564 171.64 266.604 170.68C265.858 170.613 265.238 170.347 264.744 169.88C264.264 169.413 264.024 168.793 264.024 168.02C264.024 167.207 264.291 166.553 264.824 166.06C265.371 165.553 266.004 165.3 266.724 165.3C267.498 165.3 268.171 165.587 268.744 166.16C269.331 166.733 269.624 167.613 269.624 168.8C269.624 169.96 269.431 171.073 269.044 172.14C268.658 173.207 268.164 174.16 267.564 175C266.964 175.853 266.358 176.513 265.744 176.98ZM313.701 170.36L308.001 157.88C307.868 157.627 307.748 157.38 307.641 157.14C307.535 156.887 307.421 156.62 307.301 156.34C307.328 156.607 307.341 156.86 307.341 157.1C307.341 157.34 307.341 157.613 307.341 157.92V170H304.081V149.56H307.521L313.001 161.54C313.161 161.86 313.295 162.153 313.401 162.42C313.521 162.687 313.621 162.92 313.701 163.12C313.781 162.92 313.881 162.687 314.001 162.42C314.121 162.153 314.255 161.86 314.401 161.54L319.921 149.56H323.321V170H320.081V157.92C320.081 157.587 320.081 157.3 320.081 157.06C320.095 156.807 320.108 156.567 320.121 156.34C320.001 156.58 319.888 156.827 319.781 157.08C319.675 157.333 319.555 157.6 319.421 157.88L313.701 170.36ZM328.73 170V149.56H331.97V157.92H342.33V149.56H345.59V170H342.33V160.82H331.97V170H328.73ZM361.018 170.48C359.058 170.48 357.378 170 355.978 169.04C354.591 168.08 353.531 166.787 352.798 165.16C352.065 163.533 351.698 161.733 351.698 159.76C351.698 157.507 352.085 155.587 352.858 154C353.631 152.4 354.711 151.18 356.098 150.34C357.498 149.5 359.138 149.08 361.018 149.08C362.551 149.08 363.958 149.427 365.238 150.12C366.531 150.813 367.565 151.887 368.338 153.34C369.111 154.78 369.498 156.633 369.498 158.9C369.498 159.153 369.491 159.467 369.478 159.84C369.478 160.2 369.451 160.613 369.398 161.08H354.258V158.2H366.238C366.211 156.573 365.918 155.313 365.358 154.42C364.811 153.513 364.138 152.88 363.338 152.52C362.538 152.16 361.765 151.98 361.018 151.98C358.938 151.98 357.411 152.64 356.438 153.96C355.465 155.267 354.978 157.02 354.978 159.22C354.978 161.78 355.518 163.8 356.598 165.28C357.678 166.76 359.185 167.5 361.118 167.5C361.931 167.5 362.738 167.373 363.538 167.12C364.338 166.853 365.125 166.413 365.898 165.8L367.738 167.94C366.885 168.673 365.878 169.28 364.718 169.76C363.571 170.24 362.338 170.48 361.018 170.48ZM23.9 210V189.56H27.14V197.92H37.5V189.56H40.76V210H37.5V200.82H27.14V210H23.9ZM51.1084 217.76L54.1684 209.42L46.6484 189.56H49.9484L54.9884 203.56C55.0951 203.867 55.2018 204.193 55.3084 204.54C55.4151 204.873 55.5284 205.227 55.6484 205.6C55.7551 205.253 55.8684 204.913 55.9884 204.58C56.1084 204.233 56.2284 203.893 56.3484 203.56L61.4484 189.56H64.8684L54.3684 217.76H51.1084ZM79.7569 206.64L79.6169 201.24L85.9569 189.56H89.1369L79.7569 206.64ZM68.6969 210L73.6969 195.2L75.6969 198.74L71.9569 210H68.6969ZM78.6969 206.64L69.2969 189.56H72.4769L78.8169 201.24L78.6969 206.64ZM77.6569 210V189.56H80.7969V210H77.6569ZM86.4969 210L82.7369 198.74L84.7369 195.2L89.7369 210H86.4969ZM94.2453 210V189.56H97.4853V197.92H107.845V189.56H111.105V210H107.845V200.82H97.4853V210H94.2453ZM124.774 210.48C123.347 210.48 122.08 210.227 120.974 209.72C119.88 209.2 119.02 208.433 118.394 207.42C117.78 206.393 117.474 205.113 117.474 203.58C117.474 202.007 117.847 200.727 118.594 199.74C119.34 198.74 120.307 198.007 121.494 197.54C122.68 197.06 123.94 196.82 125.274 196.82C126.274 196.82 127.22 196.92 128.114 197.12C129.02 197.32 129.94 197.673 130.874 198.18V196.58C130.874 195.327 130.674 194.367 130.274 193.7C129.874 193.02 129.34 192.553 128.674 192.3C128.007 192.047 127.28 191.92 126.494 191.92C125.4 191.92 124.26 192.147 123.074 192.6C121.9 193.04 120.88 193.533 120.014 194.08L119.074 191.34C119.967 190.793 121.094 190.28 122.454 189.8C123.827 189.32 125.28 189.08 126.814 189.08C127.587 189.08 128.387 189.18 129.214 189.38C130.04 189.567 130.814 189.92 131.534 190.44C132.254 190.96 132.834 191.693 133.274 192.64C133.714 193.573 133.934 194.793 133.934 196.3V210H130.874V208.1C130.114 208.78 129.22 209.347 128.194 209.8C127.18 210.253 126.04 210.48 124.774 210.48ZM125.194 207.64C126.487 207.64 127.607 207.34 128.554 206.74C129.5 206.127 130.274 205.467 130.874 204.76V201.12C130.234 200.72 129.447 200.373 128.514 200.08C127.58 199.787 126.634 199.64 125.674 199.64C124.3 199.64 123.1 199.96 122.074 200.6C121.047 201.227 120.534 202.22 120.534 203.58C120.534 204.793 120.934 205.773 121.734 206.52C122.547 207.267 123.7 207.64 125.194 207.64ZM164.911 210V189.56H181.131V210H177.851V192.46H168.171V210H164.911ZM196.459 210.48C194.552 210.48 192.886 210.06 191.459 209.22C190.032 208.38 188.919 207.167 188.119 205.58C187.332 203.98 186.939 202.053 186.939 199.8C186.939 197.573 187.332 195.66 188.119 194.06C188.919 192.46 190.032 191.233 191.459 190.38C192.886 189.513 194.552 189.08 196.459 189.08C198.379 189.08 200.052 189.5 201.479 190.34C202.919 191.18 204.032 192.4 204.819 194C205.606 195.6 205.999 197.52 205.999 199.76C205.999 201.987 205.606 203.9 204.819 205.5C204.032 207.1 202.919 208.333 201.479 209.2C200.052 210.053 198.379 210.48 196.459 210.48ZM196.459 207.48C198.432 207.48 199.952 206.793 201.019 205.42C202.099 204.047 202.639 202.16 202.639 199.76C202.639 197.373 202.119 195.493 201.079 194.12C200.039 192.747 198.499 192.06 196.459 192.06C194.446 192.06 192.912 192.733 191.859 194.08C190.806 195.413 190.279 197.32 190.279 199.8C190.279 202.173 190.806 204.047 191.859 205.42C192.912 206.793 194.446 207.48 196.459 207.48ZM219.907 210.36L214.207 197.88C214.074 197.627 213.954 197.38 213.847 197.14C213.741 196.887 213.627 196.62 213.507 196.34C213.534 196.607 213.547 196.86 213.547 197.1C213.547 197.34 213.547 197.613 213.547 197.92V210H210.287V189.56H213.727L219.207 201.54C219.367 201.86 219.501 202.153 219.607 202.42C219.727 202.687 219.827 202.92 219.907 203.12C219.987 202.92 220.087 202.687 220.207 202.42C220.327 202.153 220.461 201.86 220.607 201.54L226.127 189.56H229.527V210H226.287V197.92C226.287 197.587 226.287 197.3 226.287 197.06C226.301 196.807 226.314 196.567 226.327 196.34C226.207 196.58 226.094 196.827 225.987 197.08C225.881 197.333 225.761 197.6 225.627 197.88L219.907 210.36ZM243.356 210.48C241.449 210.48 239.783 210.06 238.356 209.22C236.929 208.38 235.816 207.167 235.016 205.58C234.229 203.98 233.836 202.053 233.836 199.8C233.836 197.573 234.229 195.66 235.016 194.06C235.816 192.46 236.929 191.233 238.356 190.38C239.783 189.513 241.449 189.08 243.356 189.08C245.276 189.08 246.949 189.5 248.376 190.34C249.816 191.18 250.929 192.4 251.716 194C252.503 195.6 252.896 197.52 252.896 199.76C252.896 201.987 252.503 203.9 251.716 205.5C250.929 207.1 249.816 208.333 248.376 209.2C246.949 210.053 245.276 210.48 243.356 210.48ZM243.356 207.48C245.329 207.48 246.849 206.793 247.916 205.42C248.996 204.047 249.536 202.16 249.536 199.76C249.536 197.373 249.016 195.493 247.976 194.12C246.936 192.747 245.396 192.06 243.356 192.06C241.343 192.06 239.809 192.733 238.756 194.08C237.703 195.413 237.176 197.32 237.176 199.8C237.176 202.173 237.703 204.047 238.756 205.42C239.809 206.793 241.343 207.48 243.356 207.48ZM276.004 216.42V210H273.744V207.12H279.124V214.9L276.004 216.42ZM257.324 210V189.56H260.484V207.12H265.104V189.56H268.244V207.12H272.864V189.56H276.024V210H257.324ZM283.233 210V189.56H286.493V197.3H291.693C293.826 197.3 295.533 197.88 296.813 199.04C298.093 200.2 298.733 201.74 298.733 203.66C298.733 205.567 298.093 207.1 296.813 208.26C295.533 209.42 293.826 210 291.693 210H283.233ZM286.493 207.08H291.713C292.899 207.08 293.819 206.78 294.473 206.18C295.126 205.567 295.453 204.727 295.453 203.66C295.453 202.58 295.119 201.733 294.453 201.12C293.786 200.507 292.873 200.2 291.713 200.2H286.493V207.08ZM313.701 210.54C312.928 210.54 312.288 210.273 311.781 209.74C311.275 209.193 311.021 208.573 311.021 207.88C311.021 207.187 311.275 206.567 311.781 206.02C312.288 205.473 312.928 205.2 313.701 205.2C314.461 205.2 315.095 205.473 315.601 206.02C316.121 206.567 316.381 207.187 316.381 207.88C316.381 208.573 316.121 209.193 315.601 209.74C315.095 210.273 314.461 210.54 313.701 210.54Z" fill="#FF0000"/>
<path d="M24.64 250V229.56H40.8V233.64H29.24V250H24.64ZM46.9684 258.04V229.56H51.5684V231.12C52.1151 230.533 52.7818 230.047 53.5684 229.66C54.3684 229.273 55.3684 229.08 56.5684 229.08C58.3818 229.08 59.9551 229.5 61.2884 230.34C62.6351 231.18 63.6751 232.4 64.4084 234C65.1551 235.6 65.5284 237.533 65.5284 239.8C65.5284 242.04 65.1418 243.96 64.3684 245.56C63.5951 247.147 62.5351 248.367 61.1884 249.22C59.8418 250.06 58.3151 250.48 56.6084 250.48C55.3684 250.48 54.3484 250.28 53.5484 249.88C52.7484 249.467 52.0884 248.96 51.5684 248.36V255.92L46.9684 258.04ZM55.9284 246.08C57.5151 246.08 58.7351 245.54 59.5884 244.46C60.4551 243.367 60.8884 241.813 60.8884 239.8C60.8884 237.88 60.4618 236.34 59.6084 235.18C58.7551 234.02 57.5151 233.44 55.8884 233.44C54.8751 233.44 54.0084 233.627 53.2884 234C52.5818 234.36 52.0084 234.853 51.5684 235.48V244.04C51.9551 244.573 52.5151 245.047 53.2484 245.46C53.9818 245.873 54.8751 246.08 55.9284 246.08ZM77.6569 250.48C76.2302 250.48 74.9435 250.227 73.7969 249.72C72.6635 249.213 71.7635 248.46 71.0969 247.46C70.4302 246.447 70.0969 245.187 70.0969 243.68C70.0969 242.107 70.4969 240.827 71.2969 239.84C72.0969 238.84 73.1169 238.107 74.3569 237.64C75.6102 237.16 76.9102 236.92 78.2569 236.92C79.2969 236.92 80.2235 237.013 81.0369 237.2C81.8502 237.373 82.6169 237.64 83.3369 238V236.8C83.3369 235.893 83.1769 235.173 82.8569 234.64C82.5369 234.093 82.0702 233.707 81.4569 233.48C80.8569 233.24 80.1369 233.12 79.2969 233.12C78.1635 233.12 77.0369 233.307 75.9169 233.68C74.8102 234.053 73.7769 234.56 72.8169 235.2L71.4169 231.44C72.4035 230.813 73.6169 230.267 75.0569 229.8C76.4969 229.32 78.0435 229.08 79.6969 229.08C80.6035 229.08 81.5302 229.173 82.4769 229.36C83.4369 229.533 84.3169 229.887 85.1169 230.42C85.9302 230.94 86.5835 231.713 87.0769 232.74C87.5702 233.753 87.8169 235.093 87.8169 236.76V250H83.3369V248.4C82.7769 248.933 82.0369 249.413 81.1169 249.84C80.2102 250.267 79.0569 250.48 77.6569 250.48ZM78.4969 246.44C79.6169 246.44 80.5702 246.233 81.3569 245.82C82.1569 245.407 82.8169 244.933 83.3369 244.4V241.76C82.7769 241.48 82.1169 241.26 81.3569 241.1C80.6102 240.927 79.8169 240.84 78.9769 240.84C77.8035 240.84 76.7702 241.067 75.8769 241.52C74.9835 241.96 74.5369 242.68 74.5369 243.68C74.5369 244.493 74.8835 245.16 75.5769 245.68C76.2702 246.187 77.2435 246.44 78.4969 246.44ZM102.665 250.36L98.4253 240.8C98.212 240.333 98.0186 239.907 97.8453 239.52C97.6853 239.133 97.5053 238.693 97.3053 238.2C97.332 238.613 97.3453 239.013 97.3453 239.4C97.3453 239.773 97.3453 240.293 97.3453 240.96V250H92.7453V229.56H97.9453L102.025 238.84C102.212 239.253 102.345 239.58 102.425 239.82C102.505 240.047 102.585 240.28 102.665 240.52C102.732 240.293 102.805 240.06 102.885 239.82C102.979 239.58 103.119 239.253 103.305 238.84L107.465 229.56H112.585V250H107.985V240.96C107.985 240.293 107.985 239.773 107.985 239.4C107.999 239.013 108.012 238.613 108.025 238.2C107.825 238.693 107.639 239.133 107.465 239.52C107.305 239.907 107.119 240.333 106.905 240.8L102.665 250.36ZM126.114 250.36L121.874 240.8C121.66 240.333 121.467 239.907 121.294 239.52C121.134 239.133 120.954 238.693 120.754 238.2C120.78 238.613 120.794 239.013 120.794 239.4C120.794 239.773 120.794 240.293 120.794 240.96V250H116.194V229.56H121.394L125.474 238.84C125.66 239.253 125.794 239.58 125.874 239.82C125.954 240.047 126.034 240.28 126.114 240.52C126.18 240.293 126.254 240.06 126.334 239.82C126.427 239.58 126.567 239.253 126.754 238.84L130.914 229.56H136.034V250H131.434V240.96C131.434 240.293 131.434 239.773 131.434 239.4C131.447 239.013 131.46 238.613 131.474 238.2C131.274 238.693 131.087 239.133 130.914 239.52C130.754 239.907 130.567 240.333 130.354 240.8L126.114 250.36ZM148.002 250.48C146.576 250.48 145.289 250.227 144.142 249.72C143.009 249.213 142.109 248.46 141.442 247.46C140.776 246.447 140.442 245.187 140.442 243.68C140.442 242.107 140.842 240.827 141.642 239.84C142.442 238.84 143.462 238.107 144.702 237.64C145.956 237.16 147.256 236.92 148.602 236.92C149.642 236.92 150.569 237.013 151.382 237.2C152.196 237.373 152.962 237.64 153.682 238V236.8C153.682 235.893 153.522 235.173 153.202 234.64C152.882 234.093 152.416 233.707 151.802 233.48C151.202 233.24 150.482 233.12 149.642 233.12C148.509 233.12 147.382 233.307 146.262 233.68C145.156 234.053 144.122 234.56 143.162 235.2L141.762 231.44C142.749 230.813 143.962 230.267 145.402 229.8C146.842 229.32 148.389 229.08 150.042 229.08C150.949 229.08 151.876 229.173 152.822 229.36C153.782 229.533 154.662 229.887 155.462 230.42C156.276 230.94 156.929 231.713 157.422 232.74C157.916 233.753 158.162 235.093 158.162 236.76V250H153.682V248.4C153.122 248.933 152.382 249.413 151.462 249.84C150.556 250.267 149.402 250.48 148.002 250.48ZM148.842 246.44C149.962 246.44 150.916 246.233 151.702 245.82C152.502 245.407 153.162 244.933 153.682 244.4V241.76C153.122 241.48 152.462 241.26 151.702 241.1C150.956 240.927 150.162 240.84 149.322 240.84C148.149 240.84 147.116 241.067 146.222 241.52C145.329 241.96 144.882 242.68 144.882 243.68C144.882 244.493 145.229 245.16 145.922 245.68C146.616 246.187 147.589 246.44 148.842 246.44ZM164.211 258.04V229.56H168.811V231.12C169.357 230.533 170.024 230.047 170.811 229.66C171.611 229.273 172.611 229.08 173.811 229.08C175.624 229.08 177.197 229.5 178.531 230.34C179.877 231.18 180.917 232.4 181.651 234C182.397 235.6 182.771 237.533 182.771 239.8C182.771 242.04 182.384 243.96 181.611 245.56C180.837 247.147 179.777 248.367 178.431 249.22C177.084 250.06 175.557 250.48 173.851 250.48C172.611 250.48 171.591 250.28 170.791 249.88C169.991 249.467 169.331 248.96 168.811 248.36V255.92L164.211 258.04ZM173.171 246.08C174.757 246.08 175.977 245.54 176.831 244.46C177.697 243.367 178.131 241.813 178.131 239.8C178.131 237.88 177.704 236.34 176.851 235.18C175.997 234.02 174.757 233.44 173.131 233.44C172.117 233.44 171.251 233.627 170.531 234C169.824 234.36 169.251 234.853 168.811 235.48V244.04C169.197 244.573 169.757 245.047 170.491 245.46C171.224 245.873 172.117 246.08 173.171 246.08ZM187.219 250V229.56H191.819V237.44H201.099V229.56H205.699V250H201.099V241.52H191.819V250H187.219ZM218.347 250.48C216.921 250.48 215.634 250.227 214.487 249.72C213.354 249.213 212.454 248.46 211.787 247.46C211.121 246.447 210.787 245.187 210.787 243.68C210.787 242.107 211.187 240.827 211.987 239.84C212.787 238.84 213.807 238.107 215.047 237.64C216.301 237.16 217.601 236.92 218.947 236.92C219.987 236.92 220.914 237.013 221.727 237.2C222.541 237.373 223.307 237.64 224.027 238V236.8C224.027 235.893 223.867 235.173 223.547 234.64C223.227 234.093 222.761 233.707 222.147 233.48C221.547 233.24 220.827 233.12 219.987 233.12C218.854 233.12 217.727 233.307 216.607 233.68C215.501 234.053 214.467 234.56 213.507 235.2L212.107 231.44C213.094 230.813 214.307 230.267 215.747 229.8C217.187 229.32 218.734 229.08 220.387 229.08C221.294 229.08 222.221 229.173 223.167 229.36C224.127 229.533 225.007 229.887 225.807 230.42C226.621 230.94 227.274 231.713 227.767 232.74C228.261 233.753 228.507 235.093 228.507 236.76V250H224.027V248.4C223.467 248.933 222.727 249.413 221.807 249.84C220.901 250.267 219.747 250.48 218.347 250.48ZM219.187 246.44C220.307 246.44 221.261 246.233 222.047 245.82C222.847 245.407 223.507 244.933 224.027 244.4V241.76C223.467 241.48 222.807 241.26 222.047 241.1C221.301 240.927 220.507 240.84 219.667 240.84C218.494 240.84 217.461 241.067 216.567 241.52C215.674 241.96 215.227 242.68 215.227 243.68C215.227 244.493 215.574 245.16 216.267 245.68C216.961 246.187 217.934 246.44 219.187 246.44ZM243.156 250.48C240.983 250.48 239.069 249.98 237.416 248.98C235.776 247.967 234.583 246.64 233.836 245L237.996 243.48C238.503 244.36 239.176 245.067 240.016 245.6C240.869 246.133 241.916 246.4 243.156 246.4C244.436 246.4 245.403 246.2 246.056 245.8C246.709 245.387 247.036 244.8 247.036 244.04C247.036 243.24 246.689 242.64 245.996 242.24C245.316 241.84 244.356 241.64 243.116 241.64H239.436V237.72H242.916C243.943 237.72 244.749 237.52 245.336 237.12C245.936 236.72 246.236 236.173 246.236 235.48C246.236 234.76 245.956 234.193 245.396 233.78C244.849 233.367 244.063 233.16 243.036 233.16C241.916 233.16 240.956 233.4 240.156 233.88C239.356 234.36 238.716 235 238.236 235.8L234.516 234.2C235.276 232.68 236.416 231.447 237.936 230.5C239.456 229.553 241.223 229.08 243.236 229.08C245.703 229.08 247.589 229.613 248.896 230.68C250.216 231.733 250.876 233.08 250.876 234.72C250.876 235.853 250.503 236.827 249.756 237.64C249.009 238.453 247.943 239.053 246.556 239.44C248.183 239.72 249.443 240.3 250.336 241.18C251.229 242.047 251.676 243.133 251.676 244.44C251.676 246.213 250.949 247.667 249.496 248.8C248.056 249.92 245.943 250.48 243.156 250.48ZM257.564 250V229.56H262.164V242.08L271.564 229.56H276.044V250H271.444V237.52L262.044 250H257.564ZM290.333 250.48C288.106 250.48 286.239 250.007 284.733 249.06C283.239 248.1 282.113 246.807 281.353 245.18C280.593 243.553 280.213 241.72 280.213 239.68C280.213 237.48 280.539 235.393 281.193 233.42C281.846 231.433 282.833 229.633 284.153 228.02C285.486 226.393 287.159 225.02 289.173 223.9C291.186 222.78 293.546 221.987 296.253 221.52V225.92C294.813 226.2 293.406 226.693 292.033 227.4C290.673 228.107 289.473 229.02 288.433 230.14C287.393 231.247 286.639 232.547 286.173 234.04C286.719 233.533 287.406 233.12 288.233 232.8C289.073 232.48 290.039 232.32 291.133 232.32C292.906 232.32 294.479 232.713 295.853 233.5C297.239 234.287 298.326 235.367 299.113 236.74C299.899 238.1 300.293 239.64 300.293 241.36C300.293 243.147 299.859 244.727 298.993 246.1C298.139 247.473 296.959 248.547 295.453 249.32C293.959 250.093 292.253 250.48 290.333 250.48ZM290.333 246C291.346 246 292.246 245.813 293.033 245.44C293.819 245.067 294.439 244.54 294.893 243.86C295.346 243.18 295.573 242.373 295.573 241.44C295.573 240.013 295.086 238.88 294.113 238.04C293.139 237.187 291.879 236.76 290.333 236.76C289.306 236.76 288.393 236.96 287.593 237.36C286.806 237.747 286.186 238.293 285.733 239C285.279 239.693 285.053 240.507 285.053 241.44C285.053 242.373 285.279 243.18 285.733 243.86C286.199 244.54 286.826 245.067 287.613 245.44C288.413 245.813 289.319 246 290.333 246ZM313.781 250.48C311.555 250.48 309.688 250.007 308.181 249.06C306.688 248.1 305.561 246.807 304.801 245.18C304.041 243.553 303.661 241.72 303.661 239.68C303.661 237.48 303.988 235.393 304.641 233.42C305.295 231.433 306.281 229.633 307.601 228.02C308.935 226.393 310.608 225.02 312.621 223.9C314.635 222.78 316.995 221.987 319.701 221.52V225.92C318.261 226.2 316.855 226.693 315.481 227.4C314.121 228.107 312.921 229.02 311.881 230.14C310.841 231.247 310.088 232.547 309.621 234.04C310.168 233.533 310.855 233.12 311.681 232.8C312.521 232.48 313.488 232.32 314.581 232.32C316.355 232.32 317.928 232.713 319.301 233.5C320.688 234.287 321.775 235.367 322.561 236.74C323.348 238.1 323.741 239.64 323.741 241.36C323.741 243.147 323.308 244.727 322.441 246.1C321.588 247.473 320.408 248.547 318.901 249.32C317.408 250.093 315.701 250.48 313.781 250.48ZM313.781 246C314.795 246 315.695 245.813 316.481 245.44C317.268 245.067 317.888 244.54 318.341 243.86C318.795 243.18 319.021 242.373 319.021 241.44C319.021 240.013 318.535 238.88 317.561 238.04C316.588 237.187 315.328 236.76 313.781 236.76C312.755 236.76 311.841 236.96 311.041 237.36C310.255 237.747 309.635 238.293 309.181 239C308.728 239.693 308.501 240.507 308.501 241.44C308.501 242.373 308.728 243.18 309.181 243.86C309.648 244.54 310.275 245.067 311.061 245.44C311.861 245.813 312.768 246 313.781 246ZM337.23 250.48C335.003 250.48 333.136 250.007 331.63 249.06C330.136 248.1 329.01 246.807 328.25 245.18C327.49 243.553 327.11 241.72 327.11 239.68C327.11 237.48 327.436 235.393 328.09 233.42C328.743 231.433 329.73 229.633 331.05 228.02C332.383 226.393 334.056 225.02 336.07 223.9C338.083 222.78 340.443 221.987 343.15 221.52V225.92C341.71 226.2 340.303 226.693 338.93 227.4C337.57 228.107 336.37 229.02 335.33 230.14C334.29 231.247 333.536 232.547 333.07 234.04C333.616 233.533 334.303 233.12 335.13 232.8C335.97 232.48 336.936 232.32 338.03 232.32C339.803 232.32 341.376 232.713 342.75 233.5C344.136 234.287 345.223 235.367 346.01 236.74C346.796 238.1 347.19 239.64 347.19 241.36C347.19 243.147 346.756 244.727 345.89 246.1C345.036 247.473 343.856 248.547 342.35 249.32C340.856 250.093 339.15 250.48 337.23 250.48ZM337.23 246C338.243 246 339.143 245.813 339.93 245.44C340.716 245.067 341.336 244.54 341.79 243.86C342.243 243.18 342.47 242.373 342.47 241.44C342.47 240.013 341.983 238.88 341.01 238.04C340.036 237.187 338.776 236.76 337.23 236.76C336.203 236.76 335.29 236.96 334.49 237.36C333.703 237.747 333.083 238.293 332.63 239C332.176 239.693 331.95 240.507 331.95 241.44C331.95 242.373 332.176 243.18 332.63 243.86C333.096 244.54 333.723 245.067 334.51 245.44C335.31 245.813 336.216 246 337.23 246ZM360.578 236.8C359.671 236.8 358.918 236.5 358.318 235.9C357.731 235.3 357.438 234.567 357.438 233.7C357.438 232.847 357.731 232.12 358.318 231.52C358.918 230.907 359.665 230.6 360.558 230.6C361.465 230.6 362.225 230.907 362.838 231.52C363.451 232.12 363.758 232.847 363.758 233.7C363.758 234.567 363.451 235.3 362.838 235.9C362.225 236.5 361.471 236.8 360.578 236.8ZM360.578 250.52C359.671 250.52 358.918 250.213 358.318 249.6C357.731 248.987 357.438 248.253 357.438 247.4C357.438 246.56 357.731 245.833 358.318 245.22C358.918 244.593 359.665 244.28 360.558 244.28C361.465 244.28 362.225 244.593 362.838 245.22C363.451 245.833 363.758 246.56 363.758 247.4C363.758 248.253 363.451 248.987 362.838 249.6C362.225 250.213 361.471 250.52 360.578 250.52ZM24.22 290V269.56H40.44V290H37.16V272.46H27.48V290H24.22ZM47.6284 298.1V269.56H50.8884V271.32C51.5151 270.733 52.2484 270.213 53.0884 269.76C53.9284 269.307 55.0418 269.08 56.4284 269.08C58.2684 269.08 59.8484 269.52 61.1684 270.4C62.5018 271.267 63.5284 272.5 64.2484 274.1C64.9684 275.7 65.3284 277.587 65.3284 279.76C65.3284 282.04 64.9484 283.98 64.1884 285.58C63.4418 287.167 62.4018 288.38 61.0684 289.22C59.7484 290.06 58.2418 290.48 56.5484 290.48C55.0551 290.48 53.8751 290.24 53.0084 289.76C52.1551 289.267 51.4484 288.687 50.8884 288.02V296.52L47.6284 298.1ZM56.1484 287.48C58.0018 287.48 59.4351 286.82 60.4484 285.5C61.4618 284.167 61.9684 282.253 61.9684 279.76C61.9684 277.427 61.4484 275.56 60.4084 274.16C59.3684 272.76 57.9018 272.06 56.0084 272.06C54.8884 272.06 53.8818 272.313 52.9884 272.82C52.1084 273.327 51.4084 274.033 50.8884 274.94V284.6C51.5151 285.413 52.2484 286.1 53.0884 286.66C53.9284 287.207 54.9484 287.48 56.1484 287.48ZM79.2169 290.48C77.3102 290.48 75.6435 290.06 74.2169 289.22C72.7902 288.38 71.6769 287.167 70.8769 285.58C70.0902 283.98 69.6969 282.053 69.6969 279.8C69.6969 277.573 70.0902 275.66 70.8769 274.06C71.6769 272.46 72.7902 271.233 74.2169 270.38C75.6435 269.513 77.3102 269.08 79.2169 269.08C81.1369 269.08 82.8102 269.5 84.2369 270.34C85.6769 271.18 86.7902 272.4 87.5769 274C88.3635 275.6 88.7569 277.52 88.7569 279.76C88.7569 281.987 88.3635 283.9 87.5769 285.5C86.7902 287.1 85.6769 288.333 84.2369 289.2C82.8102 290.053 81.1369 290.48 79.2169 290.48ZM79.2169 287.48C81.1902 287.48 82.7102 286.793 83.7769 285.42C84.8569 284.047 85.3969 282.16 85.3969 279.76C85.3969 277.373 84.8769 275.493 83.8369 274.12C82.7969 272.747 81.2569 272.06 79.2169 272.06C77.2035 272.06 75.6702 272.733 74.6169 274.08C73.5635 275.413 73.0369 277.32 73.0369 279.8C73.0369 282.173 73.5635 284.047 74.6169 285.42C75.6702 286.793 77.2035 287.48 79.2169 287.48ZM96.1453 287.36V283L106.745 269.56H110.465L96.1453 287.36ZM94.4853 290V269.56H97.7453V290H94.4853ZM108.385 290L101.905 278.04L104.045 275.38L112.025 290H108.385ZM124.774 290.48C123.347 290.48 122.08 290.227 120.974 289.72C119.88 289.2 119.02 288.433 118.394 287.42C117.78 286.393 117.474 285.113 117.474 283.58C117.474 282.007 117.847 280.727 118.594 279.74C119.34 278.74 120.307 278.007 121.494 277.54C122.68 277.06 123.94 276.82 125.274 276.82C126.274 276.82 127.22 276.92 128.114 277.12C129.02 277.32 129.94 277.673 130.874 278.18V276.58C130.874 275.327 130.674 274.367 130.274 273.7C129.874 273.02 129.34 272.553 128.674 272.3C128.007 272.047 127.28 271.92 126.494 271.92C125.4 271.92 124.26 272.147 123.074 272.6C121.9 273.04 120.88 273.533 120.014 274.08L119.074 271.34C119.967 270.793 121.094 270.28 122.454 269.8C123.827 269.32 125.28 269.08 126.814 269.08C127.587 269.08 128.387 269.18 129.214 269.38C130.04 269.567 130.814 269.92 131.534 270.44C132.254 270.96 132.834 271.693 133.274 272.64C133.714 273.573 133.934 274.793 133.934 276.3V290H130.874V288.1C130.114 288.78 129.22 289.347 128.194 289.8C127.18 290.253 126.04 290.48 124.774 290.48ZM125.194 287.64C126.487 287.64 127.607 287.34 128.554 286.74C129.5 286.127 130.274 285.467 130.874 284.76V281.12C130.234 280.72 129.447 280.373 128.514 280.08C127.58 279.787 126.634 279.64 125.674 279.64C124.3 279.64 123.1 279.96 122.074 280.6C121.047 281.227 120.534 282.22 120.534 283.58C120.534 284.793 120.934 285.773 121.734 286.52C122.547 287.267 123.7 287.64 125.194 287.64ZM154.502 290V280.46C153.889 281.327 153.096 281.987 152.122 282.44C151.162 282.893 150.036 283.12 148.742 283.12C146.942 283.12 145.469 282.787 144.322 282.12C143.189 281.44 142.349 280.413 141.802 279.04C141.269 277.667 141.002 275.933 141.002 273.84V269.56H144.262V274.5C144.262 276.473 144.702 277.913 145.582 278.82C146.476 279.713 147.696 280.16 149.242 280.16C150.856 280.16 152.136 279.753 153.082 278.94C154.029 278.113 154.502 276.66 154.502 274.58V269.56H157.742V290H154.502ZM171.671 290.48C170.244 290.48 168.977 290.227 167.871 289.72C166.777 289.2 165.917 288.433 165.291 287.42C164.677 286.393 164.371 285.113 164.371 283.58C164.371 282.007 164.744 280.727 165.491 279.74C166.237 278.74 167.204 278.007 168.391 277.54C169.577 277.06 170.837 276.82 172.171 276.82C173.171 276.82 174.117 276.92 175.011 277.12C175.917 277.32 176.837 277.673 177.771 278.18V276.58C177.771 275.327 177.571 274.367 177.171 273.7C176.771 273.02 176.237 272.553 175.571 272.3C174.904 272.047 174.177 271.92 173.391 271.92C172.297 271.92 171.157 272.147 169.971 272.6C168.797 273.04 167.777 273.533 166.911 274.08L165.971 271.34C166.864 270.793 167.991 270.28 169.351 269.8C170.724 269.32 172.177 269.08 173.711 269.08C174.484 269.08 175.284 269.18 176.111 269.38C176.937 269.567 177.711 269.92 178.431 270.44C179.151 270.96 179.731 271.693 180.171 272.64C180.611 273.573 180.831 274.793 180.831 276.3V290H177.771V288.1C177.011 288.78 176.117 289.347 175.091 289.8C174.077 290.253 172.937 290.48 171.671 290.48ZM172.091 287.64C173.384 287.64 174.504 287.34 175.451 286.74C176.397 286.127 177.171 285.467 177.771 284.76V281.12C177.131 280.72 176.344 280.373 175.411 280.08C174.477 279.787 173.531 279.64 172.571 279.64C171.197 279.64 169.997 279.96 168.971 280.6C167.944 281.227 167.431 282.22 167.431 283.58C167.431 284.793 167.831 285.773 168.631 286.52C169.444 287.267 170.597 287.64 172.091 287.64ZM194.819 290V272.46H188.039V269.56H204.879V272.46H198.059V290H194.819ZM212.887 290V269.56H216.147V277.3H221.347C223.481 277.3 225.187 277.88 226.467 279.04C227.747 280.2 228.387 281.74 228.387 283.66C228.387 285.567 227.747 287.1 226.467 288.26C225.187 289.42 223.481 290 221.347 290H212.887ZM216.147 287.08H221.367C222.554 287.08 223.474 286.78 224.127 286.18C224.781 285.567 225.107 284.727 225.107 283.66C225.107 282.58 224.774 281.733 224.107 281.12C223.441 280.507 222.527 280.2 221.367 280.2H216.147V287.08ZM243.816 290.48C241.176 290.48 239.083 289.547 237.536 287.68C236.003 285.813 235.236 283.187 235.236 279.8C235.236 277.56 235.589 275.64 236.296 274.04C237.003 272.44 238.016 271.213 239.336 270.36C240.656 269.507 242.236 269.08 244.076 269.08C245.796 269.08 247.276 269.467 248.516 270.24C249.769 271.013 250.689 272.16 251.276 273.68L248.276 274.8C247.943 274.013 247.436 273.36 246.756 272.84C246.076 272.32 245.156 272.06 243.996 272.06C242.103 272.06 240.729 272.76 239.876 274.16C239.023 275.547 238.596 277.427 238.596 279.8C238.596 282.213 239.029 284.1 239.896 285.46C240.763 286.807 242.103 287.48 243.916 287.48C245.063 287.48 246.029 287.207 246.816 286.66C247.616 286.113 248.189 285.36 248.536 284.4L251.516 285.46C250.996 287.033 250.063 288.267 248.716 289.16C247.369 290.04 245.736 290.48 243.816 290.48ZM271.344 290V282.26H266.184C264.051 282.26 262.344 281.68 261.064 280.52C259.784 279.347 259.144 277.807 259.144 275.9C259.144 273.967 259.784 272.427 261.064 271.28C262.344 270.133 264.044 269.56 266.164 269.56H274.584V290H271.344ZM257.444 290L264.284 280.76H268.004L261.344 290H257.444ZM266.184 279.34H271.344V272.48H266.184C264.998 272.48 264.071 272.78 263.404 273.38C262.751 273.98 262.424 274.82 262.424 275.9C262.424 276.967 262.758 277.807 263.424 278.42C264.091 279.033 265.011 279.34 266.184 279.34ZM289.193 296.98L287.513 296.36C288.126 295.64 288.693 294.753 289.213 293.7C289.733 292.647 290.013 291.64 290.053 290.68C289.306 290.613 288.686 290.347 288.193 289.88C287.713 289.413 287.473 288.793 287.473 288.02C287.473 287.207 287.739 286.553 288.273 286.06C288.819 285.553 289.453 285.3 290.173 285.3C290.946 285.3 291.619 285.587 292.193 286.16C292.779 286.733 293.073 287.613 293.073 288.8C293.073 289.96 292.879 291.073 292.493 292.14C292.106 293.207 291.613 294.16 291.013 295C290.413 295.853 289.806 296.513 289.193 296.98ZM337.15 290.48C334.256 290.48 331.943 289.547 330.21 287.68C328.49 285.8 327.63 283.173 327.63 279.8V277.1C327.63 273.633 328.05 270.827 328.89 268.68C329.743 266.52 330.99 264.907 332.63 263.84C334.283 262.76 336.31 262.113 338.71 261.9L345.51 261.28L343.55 264.52L338.53 264.96C336.996 265.093 335.763 265.407 334.83 265.9C333.896 266.38 333.15 267.08 332.59 268C332.043 268.92 331.59 270.093 331.23 271.52C331.176 271.76 331.123 271.987 331.07 272.2C331.03 272.4 330.99 272.633 330.95 272.9C331.043 272.713 331.156 272.5 331.29 272.26C331.423 272.02 331.59 271.787 331.79 271.56C332.403 270.827 333.19 270.233 334.15 269.78C335.123 269.313 336.316 269.08 337.73 269.08C339.45 269.08 340.983 269.507 342.33 270.36C343.676 271.2 344.736 272.42 345.51 274.02C346.296 275.607 346.69 277.52 346.69 279.76C346.69 282 346.29 283.92 345.49 285.52C344.69 287.12 343.576 288.347 342.15 289.2C340.723 290.053 339.056 290.48 337.15 290.48ZM337.15 287.48C339.043 287.48 340.543 286.807 341.65 285.46C342.77 284.1 343.33 282.2 343.33 279.76C343.33 277.333 342.776 275.447 341.67 274.1C340.563 272.74 339.063 272.06 337.17 272.06C335.356 272.06 333.87 272.74 332.71 274.1C331.55 275.447 330.97 277.347 330.97 279.8C330.97 282.213 331.516 284.1 332.61 285.46C333.703 286.807 335.216 287.48 337.15 287.48ZM352.458 298.1V269.56H355.718V271.32C356.345 270.733 357.078 270.213 357.918 269.76C358.758 269.307 359.871 269.08 361.258 269.08C363.098 269.08 364.678 269.52 365.998 270.4C367.331 271.267 368.358 272.5 369.078 274.1C369.798 275.7 370.158 277.587 370.158 279.76C370.158 282.04 369.778 283.98 369.018 285.58C368.271 287.167 367.231 288.38 365.898 289.22C364.578 290.06 363.071 290.48 361.378 290.48C359.885 290.48 358.705 290.24 357.838 289.76C356.985 289.267 356.278 288.687 355.718 288.02V296.52L352.458 298.1ZM360.978 287.48C362.831 287.48 364.265 286.82 365.278 285.5C366.291 284.167 366.798 282.253 366.798 279.76C366.798 277.427 366.278 275.56 365.238 274.16C364.198 272.76 362.731 272.06 360.838 272.06C359.718 272.06 358.711 272.313 357.818 272.82C356.938 273.327 356.238 274.033 355.718 274.94V284.6C356.345 285.413 357.078 286.1 357.918 286.66C358.758 287.207 359.778 287.48 360.978 287.48ZM384.047 290.48C382.14 290.48 380.473 290.06 379.047 289.22C377.62 288.38 376.507 287.167 375.707 285.58C374.92 283.98 374.527 282.053 374.527 279.8C374.527 277.573 374.92 275.66 375.707 274.06C376.507 272.46 377.62 271.233 379.047 270.38C380.473 269.513 382.14 269.08 384.047 269.08C385.967 269.08 387.64 269.5 389.067 270.34C390.507 271.18 391.62 272.4 392.407 274C393.193 275.6 393.587 277.52 393.587 279.76C393.587 281.987 393.193 283.9 392.407 285.5C391.62 287.1 390.507 288.333 389.067 289.2C387.64 290.053 385.967 290.48 384.047 290.48ZM384.047 287.48C386.02 287.48 387.54 286.793 388.607 285.42C389.687 284.047 390.227 282.16 390.227 279.76C390.227 277.373 389.707 275.493 388.667 274.12C387.627 272.747 386.087 272.06 384.047 272.06C382.033 272.06 380.5 272.733 379.447 274.08C378.393 275.413 377.867 277.32 377.867 279.8C377.867 282.173 378.393 284.047 379.447 285.42C380.5 286.793 382.033 287.48 384.047 287.48ZM407.495 290.54C406.722 290.54 406.082 290.273 405.575 289.74C405.068 289.193 404.815 288.573 404.815 287.88C404.815 287.187 405.068 286.567 405.575 286.02C406.082 285.473 406.722 285.2 407.495 285.2C408.255 285.2 408.888 285.473 409.395 286.02C409.915 286.567 410.175 287.187 410.175 287.88C410.175 288.573 409.915 289.193 409.395 289.74C408.888 290.273 408.255 290.54 407.495 290.54ZM32.32 330.48C29.4267 330.48 27.1133 329.547 25.38 327.68C23.66 325.8 22.8 323.173 22.8 319.8V317.1C22.8 313.633 23.22 310.827 24.06 308.68C24.9133 306.52 26.16 304.907 27.8 303.84C29.4533 302.76 31.48 302.113 33.88 301.9L40.68 301.28L38.72 304.52L33.7 304.96C32.1667 305.093 30.9333 305.407 30 305.9C29.0667 306.38 28.32 307.08 27.76 308C27.2133 308.92 26.76 310.093 26.4 311.52C26.3467 311.76 26.2933 311.987 26.24 312.2C26.2 312.4 26.16 312.633 26.12 312.9C26.2133 312.713 26.3267 312.5 26.46 312.26C26.5933 312.02 26.76 311.787 26.96 311.56C27.5733 310.827 28.36 310.233 29.32 309.78C30.2933 309.313 31.4867 309.08 32.9 309.08C34.62 309.08 36.1533 309.507 37.5 310.36C38.8467 311.2 39.9067 312.42 40.68 314.02C41.4667 315.607 41.86 317.52 41.86 319.76C41.86 322 41.46 323.92 40.66 325.52C39.86 327.12 38.7467 328.347 37.32 329.2C35.8933 330.053 34.2267 330.48 32.32 330.48ZM32.32 327.48C34.2133 327.48 35.7133 326.807 36.82 325.46C37.94 324.1 38.5 322.2 38.5 319.76C38.5 317.333 37.9467 315.447 36.84 314.1C35.7333 312.74 34.2333 312.06 32.34 312.06C30.5267 312.06 29.04 312.74 27.88 314.1C26.72 315.447 26.14 317.347 26.14 319.8C26.14 322.213 26.6867 324.1 27.78 325.46C28.8733 326.807 30.3867 327.48 32.32 327.48ZM56.1884 330.48C54.2284 330.48 52.5484 330 51.1484 329.04C49.7618 328.08 48.7018 326.787 47.9684 325.16C47.2351 323.533 46.8684 321.733 46.8684 319.76C46.8684 317.507 47.2551 315.587 48.0284 314C48.8018 312.4 49.8818 311.18 51.2684 310.34C52.6684 309.5 54.3084 309.08 56.1884 309.08C57.7218 309.08 59.1284 309.427 60.4084 310.12C61.7018 310.813 62.7351 311.887 63.5084 313.34C64.2818 314.78 64.6684 316.633 64.6684 318.9C64.6684 319.153 64.6618 319.467 64.6484 319.84C64.6484 320.2 64.6218 320.613 64.5684 321.08H49.4284V318.2H61.4084C61.3818 316.573 61.0884 315.313 60.5284 314.42C59.9818 313.513 59.3084 312.88 58.5084 312.52C57.7084 312.16 56.9351 311.98 56.1884 311.98C54.1084 311.98 52.5818 312.64 51.6084 313.96C50.6351 315.267 50.1484 317.02 50.1484 319.22C50.1484 321.78 50.6884 323.8 51.7684 325.28C52.8484 326.76 54.3551 327.5 56.2884 327.5C57.1018 327.5 57.9084 327.373 58.7084 327.12C59.5084 326.853 60.2951 326.413 61.0684 325.8L62.9084 327.94C62.0551 328.673 61.0484 329.28 59.8884 329.76C58.7418 330.24 57.5084 330.48 56.1884 330.48ZM79.2569 330.48C77.2169 330.48 75.4169 330.02 73.8569 329.1C72.3102 328.18 71.1635 326.893 70.4169 325.24L73.2969 324.2C73.8569 325.293 74.6369 326.127 75.6369 326.7C76.6369 327.273 77.8435 327.56 79.2569 327.56C80.6835 327.56 81.8035 327.267 82.6169 326.68C83.4435 326.093 83.8569 325.313 83.8569 324.34C83.8569 323.353 83.4302 322.567 82.5769 321.98C81.7235 321.393 80.5435 321.1 79.0369 321.1H75.5769V318.22H78.9969C80.2102 318.22 81.1835 317.92 81.9169 317.32C82.6635 316.707 83.0369 315.9 83.0369 314.9C83.0369 313.98 82.6902 313.267 81.9969 312.76C81.3035 312.24 80.3635 311.98 79.1769 311.98C77.9235 311.98 76.8502 312.24 75.9569 312.76C75.0635 313.28 74.3635 314.06 73.8569 315.1L71.1369 313.92C71.7902 312.4 72.8302 311.213 74.2569 310.36C75.6969 309.507 77.3502 309.08 79.2169 309.08C81.3902 309.08 83.1235 309.6 84.4169 310.64C85.7102 311.667 86.3569 313.027 86.3569 314.72C86.3569 315.733 86.0702 316.647 85.4969 317.46C84.9369 318.273 84.0502 318.933 82.8369 319.44C84.3169 319.84 85.4102 320.493 86.1169 321.4C86.8235 322.293 87.1769 323.307 87.1769 324.44C87.1769 326.227 86.4635 327.68 85.0369 328.8C83.6235 329.92 81.6969 330.48 79.2569 330.48ZM126.114 330.36L120.414 317.88C120.28 317.627 120.16 317.38 120.054 317.14C119.947 316.887 119.834 316.62 119.714 316.34C119.74 316.607 119.754 316.86 119.754 317.1C119.754 317.34 119.754 317.613 119.754 317.92V330H116.494V309.56H119.934L125.414 321.54C125.574 321.86 125.707 322.153 125.814 322.42C125.934 322.687 126.034 322.92 126.114 323.12C126.194 322.92 126.294 322.687 126.414 322.42C126.534 322.153 126.667 321.86 126.814 321.54L132.334 309.56H135.734V330H132.494V317.92C132.494 317.587 132.494 317.3 132.494 317.06C132.507 316.807 132.52 316.567 132.534 316.34C132.414 316.58 132.3 316.827 132.194 317.08C132.087 317.333 131.967 317.6 131.834 317.88L126.114 330.36ZM154.102 330V322.26H148.942C146.809 322.26 145.102 321.68 143.822 320.52C142.542 319.347 141.902 317.807 141.902 315.9C141.902 313.967 142.542 312.427 143.822 311.28C145.102 310.133 146.802 309.56 148.922 309.56H157.342V330H154.102ZM140.202 330L147.042 320.76H150.762L144.102 330H140.202ZM148.942 319.34H154.102V312.48H148.942C147.756 312.48 146.829 312.78 146.162 313.38C145.509 313.98 145.182 314.82 145.182 315.9C145.182 316.967 145.516 317.807 146.182 318.42C146.849 319.033 147.769 319.34 148.942 319.34ZM166.051 330V309.56H180.931V312.46H169.311V330H166.051ZM189.939 327.36V323L200.539 309.56H204.259L189.939 327.36ZM188.279 330V309.56H191.539V330H188.279ZM202.179 330L195.699 318.04L197.839 315.38L205.819 330H202.179ZM219.907 330.48C218.001 330.48 216.334 330.06 214.907 329.22C213.481 328.38 212.367 327.167 211.567 325.58C210.781 323.98 210.387 322.053 210.387 319.8C210.387 317.573 210.781 315.66 211.567 314.06C212.367 312.46 213.481 311.233 214.907 310.38C216.334 309.513 218.001 309.08 219.907 309.08C221.827 309.08 223.501 309.5 224.927 310.34C226.367 311.18 227.481 312.4 228.267 314C229.054 315.6 229.447 317.52 229.447 319.76C229.447 321.987 229.054 323.9 228.267 325.5C227.481 327.1 226.367 328.333 224.927 329.2C223.501 330.053 221.827 330.48 219.907 330.48ZM219.907 327.48C221.881 327.48 223.401 326.793 224.467 325.42C225.547 324.047 226.087 322.16 226.087 319.76C226.087 317.373 225.567 315.493 224.527 314.12C223.487 312.747 221.947 312.06 219.907 312.06C217.894 312.06 216.361 312.733 215.307 314.08C214.254 315.413 213.727 317.32 213.727 319.8C213.727 322.173 214.254 324.047 215.307 325.42C216.361 326.793 217.894 327.48 219.907 327.48ZM236.396 330V309.56H251.276V312.46H239.656V330H236.396ZM266.804 330.48C264.898 330.48 263.231 330.06 261.804 329.22C260.378 328.38 259.264 327.167 258.464 325.58C257.678 323.98 257.284 322.053 257.284 319.8C257.284 317.573 257.678 315.66 258.464 314.06C259.264 312.46 260.378 311.233 261.804 310.38C263.231 309.513 264.898 309.08 266.804 309.08C268.724 309.08 270.398 309.5 271.824 310.34C273.264 311.18 274.378 312.4 275.164 314C275.951 315.6 276.344 317.52 276.344 319.76C276.344 321.987 275.951 323.9 275.164 325.5C274.378 327.1 273.264 328.333 271.824 329.2C270.398 330.053 268.724 330.48 266.804 330.48ZM266.804 327.48C268.778 327.48 270.298 326.793 271.364 325.42C272.444 324.047 272.984 322.16 272.984 319.76C272.984 317.373 272.464 315.493 271.424 314.12C270.384 312.747 268.844 312.06 266.804 312.06C264.791 312.06 263.258 312.733 262.204 314.08C261.151 315.413 260.624 317.32 260.624 319.8C260.624 322.173 261.151 324.047 262.204 325.42C263.258 326.793 264.791 327.48 266.804 327.48ZM313.741 330.48C311.701 330.48 309.901 330.02 308.341 329.1C306.795 328.18 305.648 326.893 304.901 325.24L307.781 324.2C308.341 325.293 309.121 326.127 310.121 326.7C311.121 327.273 312.328 327.56 313.741 327.56C315.168 327.56 316.288 327.267 317.101 326.68C317.928 326.093 318.341 325.313 318.341 324.34C318.341 323.353 317.915 322.567 317.061 321.98C316.208 321.393 315.028 321.1 313.521 321.1H310.061V318.22H313.481C314.695 318.22 315.668 317.92 316.401 317.32C317.148 316.707 317.521 315.9 317.521 314.9C317.521 313.98 317.175 313.267 316.481 312.76C315.788 312.24 314.848 311.98 313.661 311.98C312.408 311.98 311.335 312.24 310.441 312.76C309.548 313.28 308.848 314.06 308.341 315.1L305.621 313.92C306.275 312.4 307.315 311.213 308.741 310.36C310.181 309.507 311.835 309.08 313.701 309.08C315.875 309.08 317.608 309.6 318.901 310.64C320.195 311.667 320.841 313.027 320.841 314.72C320.841 315.733 320.555 316.647 319.981 317.46C319.421 318.273 318.535 318.933 317.321 319.44C318.801 319.84 319.895 320.493 320.601 321.4C321.308 322.293 321.661 323.307 321.661 324.44C321.661 326.227 320.948 327.68 319.521 328.8C318.108 329.92 316.181 330.48 313.741 330.48ZM328.73 330V309.56H331.97V317.92H342.33V309.56H345.59V330H342.33V320.82H331.97V330H328.73ZM359.258 330.48C357.831 330.48 356.565 330.227 355.458 329.72C354.365 329.2 353.505 328.433 352.878 327.42C352.265 326.393 351.958 325.113 351.958 323.58C351.958 322.007 352.331 320.727 353.078 319.74C353.825 318.74 354.791 318.007 355.978 317.54C357.165 317.06 358.425 316.82 359.758 316.82C360.758 316.82 361.705 316.92 362.598 317.12C363.505 317.32 364.425 317.673 365.358 318.18V316.58C365.358 315.327 365.158 314.367 364.758 313.7C364.358 313.02 363.825 312.553 363.158 312.3C362.491 312.047 361.765 311.92 360.978 311.92C359.885 311.92 358.745 312.147 357.558 312.6C356.385 313.04 355.365 313.533 354.498 314.08L353.558 311.34C354.451 310.793 355.578 310.28 356.938 309.8C358.311 309.32 359.765 309.08 361.298 309.08C362.071 309.08 362.871 309.18 363.698 309.38C364.525 309.567 365.298 309.92 366.018 310.44C366.738 310.96 367.318 311.693 367.758 312.64C368.198 313.573 368.418 314.793 368.418 316.3V330H365.358V328.1C364.598 328.78 363.705 329.347 362.678 329.8C361.665 330.253 360.525 330.48 359.258 330.48ZM359.678 327.64C360.971 327.64 362.091 327.34 363.038 326.74C363.985 326.127 364.758 325.467 365.358 324.76V321.12C364.718 320.72 363.931 320.373 362.998 320.08C362.065 319.787 361.118 319.64 360.158 319.64C358.785 319.64 357.585 319.96 356.558 320.6C355.531 321.227 355.018 322.22 355.018 323.58C355.018 324.793 355.418 325.773 356.218 326.52C357.031 327.267 358.185 327.64 359.678 327.64ZM377.527 327.36V323L388.127 309.56H391.847L377.527 327.36ZM375.867 330V309.56H379.127V330H375.867ZM389.767 330L383.287 318.04L385.427 315.38L393.407 330H389.767ZM406.155 330.48C404.728 330.48 403.462 330.227 402.355 329.72C401.262 329.2 400.402 328.433 399.775 327.42C399.162 326.393 398.855 325.113 398.855 323.58C398.855 322.007 399.228 320.727 399.975 319.74C400.722 318.74 401.688 318.007 402.875 317.54C404.062 317.06 405.322 316.82 406.655 316.82C407.655 316.82 408.602 316.92 409.495 317.12C410.402 317.32 411.322 317.673 412.255 318.18V316.58C412.255 315.327 412.055 314.367 411.655 313.7C411.255 313.02 410.722 312.553 410.055 312.3C409.388 312.047 408.662 311.92 407.875 311.92C406.782 311.92 405.642 312.147 404.455 312.6C403.282 313.04 402.262 313.533 401.395 314.08L400.455 311.34C401.348 310.793 402.475 310.28 403.835 309.8C405.208 309.32 406.662 309.08 408.195 309.08C408.968 309.08 409.768 309.18 410.595 309.38C411.422 309.567 412.195 309.92 412.915 310.44C413.635 310.96 414.215 311.693 414.655 312.64C415.095 313.573 415.315 314.793 415.315 316.3V330H412.255V328.1C411.495 328.78 410.602 329.347 409.575 329.8C408.562 330.253 407.422 330.48 406.155 330.48ZM406.575 327.64C407.868 327.64 408.988 327.34 409.935 326.74C410.882 326.127 411.655 325.467 412.255 324.76V321.12C411.615 320.72 410.828 320.373 409.895 320.08C408.962 319.787 408.015 319.64 407.055 319.64C405.682 319.64 404.482 319.96 403.455 320.6C402.428 321.227 401.915 322.22 401.915 323.58C401.915 324.793 402.315 325.773 403.115 326.52C403.928 327.267 405.082 327.64 406.575 327.64ZM30.68 370V352.46H23.9V349.56H40.74V352.46H33.92V370H30.68ZM55.7684 370.48C53.8618 370.48 52.1951 370.06 50.7684 369.22C49.3418 368.38 48.2284 367.167 47.4284 365.58C46.6418 363.98 46.2484 362.053 46.2484 359.8C46.2484 357.573 46.6418 355.66 47.4284 354.06C48.2284 352.46 49.3418 351.233 50.7684 350.38C52.1951 349.513 53.8618 349.08 55.7684 349.08C57.6884 349.08 59.3618 349.5 60.7884 350.34C62.2284 351.18 63.3418 352.4 64.1284 354C64.9151 355.6 65.3084 357.52 65.3084 359.76C65.3084 361.987 64.9151 363.9 64.1284 365.5C63.3418 367.1 62.2284 368.333 60.7884 369.2C59.3618 370.053 57.6884 370.48 55.7684 370.48ZM55.7684 367.48C57.7418 367.48 59.2618 366.793 60.3284 365.42C61.4084 364.047 61.9484 362.16 61.9484 359.76C61.9484 357.373 61.4284 355.493 60.3884 354.12C59.3484 352.747 57.8084 352.06 55.7684 352.06C53.7551 352.06 52.2218 352.733 51.1684 354.08C50.1151 355.413 49.5884 357.32 49.5884 359.8C49.5884 362.173 50.1151 364.047 51.1684 365.42C52.2218 366.793 53.7551 367.48 55.7684 367.48ZM69.9769 370.48L68.3769 367.84C69.6702 367.6 70.6102 367.187 71.1969 366.6C71.7835 366.013 72.1502 365.107 72.2969 363.88L73.9569 349.56H87.4169V370H84.1569V352.58H76.8769L75.5169 364.5C75.3302 366.233 74.7702 367.593 73.8369 368.58C72.9169 369.553 71.6302 370.187 69.9769 370.48ZM95.6453 370V349.56H98.9053V357.3H104.105C106.239 357.3 107.945 357.88 109.225 359.04C110.505 360.2 111.145 361.74 111.145 363.66C111.145 365.567 110.505 367.1 109.225 368.26C107.945 369.42 106.239 370 104.105 370H95.6453ZM98.9053 367.08H104.125C105.312 367.08 106.232 366.78 106.885 366.18C107.539 365.567 107.865 364.727 107.865 363.66C107.865 362.58 107.532 361.733 106.865 361.12C106.199 360.507 105.285 360.2 104.125 360.2H98.9053V367.08ZM119.594 367.36V363L130.194 349.56H133.914L119.594 367.36ZM117.934 370V349.56H121.194V370H117.934ZM131.834 370L125.354 358.04L127.494 355.38L135.474 370H131.834ZM149.562 370.48C147.656 370.48 145.989 370.06 144.562 369.22C143.136 368.38 142.022 367.167 141.222 365.58C140.436 363.98 140.042 362.053 140.042 359.8C140.042 357.573 140.436 355.66 141.222 354.06C142.022 352.46 143.136 351.233 144.562 350.38C145.989 349.513 147.656 349.08 149.562 349.08C151.482 349.08 153.156 349.5 154.582 350.34C156.022 351.18 157.136 352.4 157.922 354C158.709 355.6 159.102 357.52 159.102 359.76C159.102 361.987 158.709 363.9 157.922 365.5C157.136 367.1 156.022 368.333 154.582 369.2C153.156 370.053 151.482 370.48 149.562 370.48ZM149.562 367.48C151.536 367.48 153.056 366.793 154.122 365.42C155.202 364.047 155.742 362.16 155.742 359.76C155.742 357.373 155.222 355.493 154.182 354.12C153.142 352.747 151.602 352.06 149.562 352.06C147.549 352.06 146.016 352.733 144.962 354.08C143.909 355.413 143.382 357.32 143.382 359.8C143.382 362.173 143.909 364.047 144.962 365.42C146.016 366.793 147.549 367.48 149.562 367.48ZM196.459 370.48C194.552 370.48 192.886 370.06 191.459 369.22C190.032 368.38 188.919 367.167 188.119 365.58C187.332 363.98 186.939 362.053 186.939 359.8C186.939 357.573 187.332 355.66 188.119 354.06C188.919 352.46 190.032 351.233 191.459 350.38C192.886 349.513 194.552 349.08 196.459 349.08C198.379 349.08 200.052 349.5 201.479 350.34C202.919 351.18 204.032 352.4 204.819 354C205.606 355.6 205.999 357.52 205.999 359.76C205.999 361.987 205.606 363.9 204.819 365.5C204.032 367.1 202.919 368.333 201.479 369.2C200.052 370.053 198.379 370.48 196.459 370.48ZM196.459 367.48C198.432 367.48 199.952 366.793 201.019 365.42C202.099 364.047 202.639 362.16 202.639 359.76C202.639 357.373 202.119 355.493 201.079 354.12C200.039 352.747 198.499 352.06 196.459 352.06C194.446 352.06 192.912 352.733 191.859 354.08C190.806 355.413 190.279 357.32 190.279 359.8C190.279 362.173 190.806 364.047 191.859 365.42C192.912 366.793 194.446 367.48 196.459 367.48ZM211.767 378.1V349.56H215.027V351.32C215.654 350.733 216.387 350.213 217.227 349.76C218.067 349.307 219.181 349.08 220.567 349.08C222.407 349.08 223.987 349.52 225.307 350.4C226.641 351.267 227.667 352.5 228.387 354.1C229.107 355.7 229.467 357.587 229.467 359.76C229.467 362.04 229.087 363.98 228.327 365.58C227.581 367.167 226.541 368.38 225.207 369.22C223.887 370.06 222.381 370.48 220.687 370.48C219.194 370.48 218.014 370.24 217.147 369.76C216.294 369.267 215.587 368.687 215.027 368.02V376.52L211.767 378.1ZM220.287 367.48C222.141 367.48 223.574 366.82 224.587 365.5C225.601 364.167 226.107 362.253 226.107 359.76C226.107 357.427 225.587 355.56 224.547 354.16C223.507 352.76 222.041 352.06 220.147 352.06C219.027 352.06 218.021 352.313 217.127 352.82C216.247 353.327 215.547 354.033 215.027 354.94V364.6C215.654 365.413 216.387 366.1 217.227 366.66C218.067 367.207 219.087 367.48 220.287 367.48ZM236.836 367.36V363L247.436 349.56H251.156L236.836 367.36ZM235.176 370V349.56H238.436V370H235.176ZM249.076 370L242.596 358.04L244.736 355.38L252.716 370H249.076ZM258.444 370V349.56H261.684V364.3L271.964 349.56H275.184V370H271.924V355.3L261.664 370H258.444ZM25.8 407.36V403L36.4 389.56H40.12L25.8 407.36ZM24.14 410V389.56H27.4V410H24.14ZM38.04 410L31.56 398.04L33.7 395.38L41.68 410H38.04ZM54.4284 410.48C53.0018 410.48 51.7351 410.227 50.6284 409.72C49.5351 409.2 48.6751 408.433 48.0484 407.42C47.4351 406.393 47.1284 405.113 47.1284 403.58C47.1284 402.007 47.5018 400.727 48.2484 399.74C48.9951 398.74 49.9618 398.007 51.1484 397.54C52.3351 397.06 53.5951 396.82 54.9284 396.82C55.9284 396.82 56.8751 396.92 57.7684 397.12C58.6751 397.32 59.5951 397.673 60.5284 398.18V396.58C60.5284 395.327 60.3284 394.367 59.9284 393.7C59.5284 393.02 58.9951 392.553 58.3284 392.3C57.6618 392.047 56.9351 391.92 56.1484 391.92C55.0551 391.92 53.9151 392.147 52.7284 392.6C51.5551 393.04 50.5351 393.533 49.6684 394.08L48.7284 391.34C49.6218 390.793 50.7484 390.28 52.1084 389.8C53.4818 389.32 54.9351 389.08 56.4684 389.08C57.2418 389.08 58.0418 389.18 58.8684 389.38C59.6951 389.567 60.4684 389.92 61.1884 390.44C61.9084 390.96 62.4884 391.693 62.9284 392.64C63.3684 393.573 63.5884 394.793 63.5884 396.3V410H60.5284V408.1C59.7684 408.78 58.8751 409.347 57.8484 409.8C56.8351 410.253 55.6951 410.48 54.4284 410.48ZM54.8484 407.64C56.1418 407.64 57.2618 407.34 58.2084 406.74C59.1551 406.127 59.9284 405.467 60.5284 404.76V401.12C59.8884 400.72 59.1018 400.373 58.1684 400.08C57.2351 399.787 56.2884 399.64 55.3284 399.64C53.9551 399.64 52.7551 399.96 51.7284 400.6C50.7018 401.227 50.1884 402.22 50.1884 403.58C50.1884 404.793 50.5884 405.773 51.3884 406.52C52.2018 407.267 53.3551 407.64 54.8484 407.64ZM84.1569 410V400.46C83.5435 401.327 82.7502 401.987 81.7769 402.44C80.8169 402.893 79.6902 403.12 78.3969 403.12C76.5969 403.12 75.1235 402.787 73.9769 402.12C72.8435 401.44 72.0035 400.413 71.4569 399.04C70.9235 397.667 70.6569 395.933 70.6569 393.84V389.56H73.9169V394.5C73.9169 396.473 74.3569 397.913 75.2369 398.82C76.1302 399.713 77.3502 400.16 78.8969 400.16C80.5102 400.16 81.7902 399.753 82.7369 398.94C83.6835 398.113 84.1569 396.66 84.1569 394.58V389.56H87.3969V410H84.1569ZM101.325 410.48C99.8986 410.48 98.632 410.227 97.5253 409.72C96.432 409.2 95.572 408.433 94.9453 407.42C94.332 406.393 94.0253 405.113 94.0253 403.58C94.0253 402.007 94.3986 400.727 95.1453 399.74C95.892 398.74 96.8586 398.007 98.0453 397.54C99.232 397.06 100.492 396.82 101.825 396.82C102.825 396.82 103.772 396.92 104.665 397.12C105.572 397.32 106.492 397.673 107.425 398.18V396.58C107.425 395.327 107.225 394.367 106.825 393.7C106.425 393.02 105.892 392.553 105.225 392.3C104.559 392.047 103.832 391.92 103.045 391.92C101.952 391.92 100.812 392.147 99.6253 392.6C98.452 393.04 97.432 393.533 96.5653 394.08L95.6253 391.34C96.5186 390.793 97.6453 390.28 99.0053 389.8C100.379 389.32 101.832 389.08 103.365 389.08C104.139 389.08 104.939 389.18 105.765 389.38C106.592 389.567 107.365 389.92 108.085 390.44C108.805 390.96 109.385 391.693 109.825 392.64C110.265 393.573 110.485 394.793 110.485 396.3V410H107.425V408.1C106.665 408.78 105.772 409.347 104.745 409.8C103.732 410.253 102.592 410.48 101.325 410.48ZM101.745 407.64C103.039 407.64 104.159 407.34 105.105 406.74C106.052 406.127 106.825 405.467 107.425 404.76V401.12C106.785 400.72 105.999 400.373 105.065 400.08C104.132 399.787 103.185 399.64 102.225 399.64C100.852 399.64 99.652 399.96 98.6253 400.6C97.5986 401.227 97.0853 402.22 97.0853 403.58C97.0853 404.793 97.4853 405.773 98.2853 406.52C99.0986 407.267 100.252 407.64 101.745 407.64ZM129.774 410.48C127.867 410.48 126.334 409.673 125.174 408.06C124.014 406.447 123.334 404.153 123.134 401.18H119.494V410H116.334V389.56H119.494V398.34H123.134C123.347 395.393 124.034 393.113 125.194 391.5C126.354 389.887 127.88 389.08 129.774 389.08C131.894 389.08 133.547 390.02 134.734 391.9C135.92 393.767 136.514 396.387 136.514 399.76C136.514 403.12 135.92 405.747 134.734 407.64C133.547 409.533 131.894 410.48 129.774 410.48ZM129.774 407.6C130.947 407.6 131.834 406.907 132.434 405.52C133.034 404.133 133.334 402.213 133.334 399.76C133.334 397.32 133.04 395.407 132.454 394.02C131.867 392.633 130.974 391.94 129.774 391.94C128.587 391.94 127.7 392.62 127.114 393.98C126.527 395.327 126.234 397.267 126.234 399.8C126.234 402.227 126.527 404.133 127.114 405.52C127.7 406.907 128.587 407.6 129.774 407.6ZM147.922 410V392.46H141.142V389.56H157.982V392.46H151.162V410H147.922ZM173.471 410.48C170.831 410.48 168.737 409.547 167.191 407.68C165.657 405.813 164.891 403.187 164.891 399.8C164.891 397.56 165.244 395.64 165.951 394.04C166.657 392.44 167.671 391.213 168.991 390.36C170.311 389.507 171.891 389.08 173.731 389.08C175.451 389.08 176.931 389.467 178.171 390.24C179.424 391.013 180.344 392.16 180.931 393.68L177.931 394.8C177.597 394.013 177.091 393.36 176.411 392.84C175.731 392.32 174.811 392.06 173.651 392.06C171.757 392.06 170.384 392.76 169.531 394.16C168.677 395.547 168.251 397.427 168.251 399.8C168.251 402.213 168.684 404.1 169.551 405.46C170.417 406.807 171.757 407.48 173.571 407.48C174.717 407.48 175.684 407.207 176.471 406.66C177.271 406.113 177.844 405.36 178.191 404.4L181.171 405.46C180.651 407.033 179.717 408.267 178.371 409.16C177.024 410.04 175.391 410.48 173.471 410.48ZM200.999 410V402.26H195.839C193.706 402.26 191.999 401.68 190.719 400.52C189.439 399.347 188.799 397.807 188.799 395.9C188.799 393.967 189.439 392.427 190.719 391.28C191.999 390.133 193.699 389.56 195.819 389.56H204.239V410H200.999ZM187.099 410L193.939 400.76H197.659L190.999 410H187.099ZM195.839 399.34H200.999V392.48H195.839C194.652 392.48 193.726 392.78 193.059 393.38C192.406 393.98 192.079 394.82 192.079 395.9C192.079 396.967 192.412 397.807 193.079 398.42C193.746 399.033 194.666 399.34 195.839 399.34ZM219.907 410.54C219.134 410.54 218.494 410.273 217.987 409.74C217.481 409.193 217.227 408.573 217.227 407.88C217.227 407.187 217.481 406.567 217.987 406.02C218.494 405.473 219.134 405.2 219.907 405.2C220.667 405.2 221.301 405.473 221.807 406.02C222.327 406.567 222.587 407.187 222.587 407.88C222.587 408.573 222.327 409.193 221.807 409.74C221.301 410.273 220.667 410.54 219.907 410.54Z" fill="#5DCF00"/>
<path d="M500 420V470H450L500 420Z" fill="white"/>
</svg>
