<svg width="900" height="310" viewBox="0 0 900 310" fill="none" xmlns="http://www.w3.org/2000/svg">
<rect width="900" height="310" fill="black"/>
<path d="M30 50V21.12H34.6V50H30ZM24.04 50V45.96H40.56V50H24.04ZM25.24 25.16L23.12 21.12H34.6V25.16H25.24ZM56.2084 50.48C54.1818 50.48 52.4351 50.04 50.9684 49.16C49.5151 48.2667 48.3951 47.02 47.6084 45.42C46.8351 43.8067 46.4484 41.92 46.4484 39.76C46.4484 37.5467 46.8484 35.6467 47.6484 34.06C48.4484 32.46 49.5751 31.2333 51.0284 30.38C52.4951 29.5133 54.2218 29.08 56.2084 29.08C57.8484 29.08 59.3418 29.4267 60.6884 30.12C62.0351 30.8133 63.1018 31.8733 63.8884 33.3C64.6884 34.7267 65.0884 36.5467 65.0884 38.76C65.0884 39.12 65.0818 39.5467 65.0684 40.04C65.0551 40.5333 65.0084 41.04 64.9284 41.56H49.9684V37.64H60.5684C60.4751 36.5867 60.2151 35.7267 59.7884 35.06C59.3618 34.3933 58.8351 33.9067 58.2084 33.6C57.5818 33.28 56.9151 33.12 56.2084 33.12C54.3284 33.12 52.9684 33.7067 52.1284 34.88C51.3018 36.0533 50.8884 37.6533 50.8884 39.68C50.8884 41.6933 51.3551 43.32 52.2884 44.56C53.2351 45.7867 54.5551 46.4 56.2484 46.4C57.1551 46.4 57.9751 46.24 58.7084 45.92C59.4418 45.6 60.1284 45.0933 60.7684 44.4L63.5284 47.32C62.6751 48.2533 61.6351 49.0133 60.4084 49.6C59.1951 50.1867 57.7951 50.48 56.2084 50.48ZM68.6569 50V29.56H72.8569V34.6L72.1369 34.2C72.3369 32.6 72.8169 31.3467 73.5769 30.44C74.3502 29.5333 75.3235 29.08 76.4969 29.08C77.5369 29.08 78.3635 29.3933 78.9769 30.02C79.5902 30.6467 80.0169 31.32 80.2569 32.04C80.7235 31.2933 81.3302 30.6133 82.0769 30C82.8369 29.3867 83.7769 29.08 84.8969 29.08C86.4969 29.08 87.7102 29.6533 88.5369 30.8C89.3635 31.9467 89.7769 33.96 89.7769 36.84V50H85.5769V37.52C85.5769 36.12 85.4502 35.1 85.1969 34.46C84.9435 33.8067 84.4435 33.48 83.6969 33.48C83.2302 33.48 82.8235 33.64 82.4769 33.96C82.1435 34.28 81.8835 34.7467 81.6969 35.36C81.5102 35.96 81.4169 36.6933 81.4169 37.56V50H77.2169V37.4C77.2169 36.5733 77.1502 35.8667 77.0169 35.28C76.8835 34.6933 76.6769 34.2467 76.3969 33.94C76.1169 33.6333 75.7502 33.48 75.2969 33.48C74.8035 33.48 74.3702 33.64 73.9969 33.96C73.6369 34.28 73.3569 34.7467 73.1569 35.36C72.9569 35.96 72.8569 36.6933 72.8569 37.56V50H68.6569ZM102.665 50.48C100.652 50.48 98.912 50.0467 97.4453 49.18C95.9786 48.3133 94.8453 47.0867 94.0453 45.5C93.2586 43.9 92.8653 42 92.8653 39.8C92.8653 37.6267 93.2586 35.74 94.0453 34.14C94.8453 32.5267 95.9786 31.28 97.4453 30.4C98.912 29.52 100.652 29.08 102.665 29.08C104.692 29.08 106.439 29.52 107.905 30.4C109.372 31.2667 110.499 32.5067 111.285 34.12C112.072 35.72 112.465 37.6133 112.465 39.8C112.465 41.9867 112.072 43.88 111.285 45.48C110.499 47.08 109.372 48.3133 107.905 49.18C106.439 50.0467 104.692 50.48 102.665 50.48ZM102.665 46.08C104.345 46.08 105.625 45.5067 106.505 44.36C107.385 43.2133 107.825 41.6933 107.825 39.8C107.825 37.8933 107.392 36.36 106.525 35.2C105.659 34.0267 104.372 33.44 102.665 33.44C101.012 33.44 99.7386 34.02 98.8453 35.18C97.952 36.34 97.5053 37.88 97.5053 39.8C97.5053 41.6933 97.952 43.2133 98.8453 44.36C99.7386 45.5067 101.012 46.08 102.665 46.08ZM117.154 50V29.56H121.754V34.4L121.154 33.04C121.154 32.44 121.44 31.84 122.014 31.24C122.587 30.6267 123.354 30.1133 124.314 29.7C125.287 29.2867 126.367 29.08 127.554 29.08C128.914 29.08 130.167 29.3467 131.314 29.88C132.46 30.4133 133.38 31.3 134.074 32.54C134.767 33.7667 135.114 35.4267 135.114 37.52V50H130.514V38.48C130.514 36.6 130.094 35.2933 129.254 34.56C128.427 33.8133 127.434 33.44 126.274 33.44C125.46 33.44 124.707 33.5933 124.014 33.9C123.334 34.1933 122.787 34.7 122.374 35.42C121.96 36.14 121.754 37.1333 121.754 38.4V50H117.154ZM152.242 50V43.92H138.842V40.96L152.242 22H156.882V39.56H160.442V43.92H156.882V50H152.242ZM145.002 39.56H152.242V28.64L145.002 39.56ZM170.891 50V29.56H175.491V50H170.891ZM165.251 50V45.96H181.131V50H165.251ZM165.251 33.6V29.56H173.891V33.6H165.251ZM173.171 26.72C172.411 26.72 171.764 26.4533 171.231 25.92C170.711 25.3733 170.451 24.72 170.451 23.96C170.451 23.2 170.711 22.56 171.231 22.04C171.764 21.5067 172.411 21.24 173.171 21.24C173.957 21.24 174.611 21.5067 175.131 22.04C175.664 22.56 175.931 23.2 175.931 23.96C175.931 24.72 175.664 25.3733 175.131 25.92C174.611 26.4533 173.957 26.72 173.171 26.72ZM187.659 50V23.28L192.259 21.12V50H187.659ZM191.579 42.28V37.24L199.379 29.56H204.859L191.579 42.28ZM201.139 50L195.019 38.16L198.379 34.88L206.179 50H201.139ZM219.887 36.8C218.981 36.8 218.227 36.5 217.627 35.9C217.041 35.3 216.747 34.5667 216.747 33.7C216.747 32.8467 217.041 32.12 217.627 31.52C218.227 30.9067 218.974 30.6 219.867 30.6C220.774 30.6 221.534 30.9067 222.147 31.52C222.761 32.12 223.067 32.8467 223.067 33.7C223.067 34.5667 222.761 35.3 222.147 35.9C221.534 36.5 220.781 36.8 219.887 36.8ZM219.887 50.52C218.981 50.52 218.227 50.2133 217.627 49.6C217.041 48.9867 216.747 48.2533 216.747 47.4C216.747 46.56 217.041 45.8333 217.627 45.22C218.227 44.5933 218.974 44.28 219.867 44.28C220.774 44.28 221.534 44.5933 222.147 45.22C222.761 45.8333 223.067 46.56 223.067 47.4C223.067 48.2533 222.761 48.9867 222.147 49.6C221.534 50.2133 220.781 50.52 219.887 50.52ZM271.744 50V40.46C271.131 41.3267 270.338 41.9867 269.364 42.44C268.404 42.8933 267.278 43.12 265.984 43.12C264.184 43.12 262.711 42.7867 261.564 42.12C260.431 41.44 259.591 40.4133 259.044 39.04C258.511 37.6667 258.244 35.9333 258.244 33.84V29.56H261.504V34.5C261.504 36.4733 261.944 37.9133 262.824 38.82C263.718 39.7133 264.938 40.16 266.484 40.16C268.098 40.16 269.378 39.7533 270.324 38.94C271.271 38.1133 271.744 36.66 271.744 34.58V29.56H274.984V50H271.744ZM290.673 50.48C288.713 50.48 287.033 50 285.633 49.04C284.246 48.08 283.186 46.7867 282.453 45.16C281.719 43.5333 281.353 41.7333 281.353 39.76C281.353 37.5067 281.739 35.5867 282.513 34C283.286 32.4 284.366 31.18 285.753 30.34C287.153 29.5 288.793 29.08 290.673 29.08C292.206 29.08 293.613 29.4267 294.893 30.12C296.186 30.8133 297.219 31.8867 297.993 33.34C298.766 34.78 299.153 36.6333 299.153 38.9C299.153 39.1533 299.146 39.4667 299.133 39.84C299.133 40.2 299.106 40.6133 299.053 41.08H283.913V38.2H295.893C295.866 36.5733 295.573 35.3133 295.013 34.42C294.466 33.5133 293.793 32.88 292.993 32.52C292.193 32.16 291.419 31.98 290.673 31.98C288.593 31.98 287.066 32.64 286.093 33.96C285.119 35.2667 284.633 37.02 284.633 39.22C284.633 41.78 285.173 43.8 286.253 45.28C287.333 46.76 288.839 47.5 290.773 47.5C291.586 47.5 292.393 47.3733 293.193 47.12C293.993 46.8533 294.779 46.4133 295.553 45.8L297.393 47.94C296.539 48.6733 295.533 49.28 294.373 49.76C293.226 50.24 291.993 50.48 290.673 50.48ZM304.461 50.48L302.861 47.84C304.155 47.6 305.095 47.1867 305.681 46.6C306.268 46.0133 306.635 45.1067 306.781 43.88L308.441 29.56H321.901V50H318.641V32.58H311.361L310.001 44.5C309.815 46.2333 309.255 47.5933 308.321 48.58C307.401 49.5533 306.115 50.1867 304.461 50.48ZM327.45 50V29.56H330.69V37.3H333.75C335.87 37.3 337.57 37.88 338.85 39.04C340.13 40.2 340.77 41.74 340.77 43.66C340.77 45.5667 340.13 47.1 338.85 48.26C337.57 49.42 335.87 50 333.75 50H327.45ZM330.69 47.08H333.75C334.936 47.08 335.856 46.78 336.51 46.18C337.176 45.5667 337.51 44.7267 337.51 43.66C337.51 42.58 337.176 41.7333 336.51 41.12C335.843 40.5067 334.923 40.2 333.75 40.2H330.69V47.08ZM343.63 50V29.56H346.87V50H343.63ZM359.538 56.98L357.858 56.36C358.471 55.64 359.038 54.7533 359.558 53.7C360.078 52.6467 360.358 51.64 360.398 50.68C359.651 50.6133 359.031 50.3467 358.538 49.88C358.058 49.4133 357.818 48.7933 357.818 48.02C357.818 47.2067 358.085 46.5533 358.618 46.06C359.165 45.5533 359.798 45.3 360.518 45.3C361.291 45.3 361.965 45.5867 362.538 46.16C363.125 46.7333 363.418 47.6133 363.418 48.8C363.418 49.96 363.225 51.0733 362.838 52.14C362.451 53.2067 361.958 54.16 361.358 55C360.758 55.8533 360.151 56.5133 359.538 56.98ZM412.035 50V42.26H406.875C404.742 42.26 403.035 41.68 401.755 40.52C400.475 39.3467 399.835 37.8067 399.835 35.9C399.835 33.9667 400.475 32.4267 401.755 31.28C403.035 30.1333 404.735 29.56 406.855 29.56H415.275V50H412.035ZM398.135 50L404.975 40.76H408.695L402.035 50H398.135ZM406.875 39.34H412.035V32.48H406.875C405.688 32.48 404.762 32.78 404.095 33.38C403.442 33.98 403.115 34.82 403.115 35.9C403.115 36.9667 403.448 37.8067 404.115 38.42C404.782 39.0333 405.702 39.34 406.875 39.34ZM452.752 50V32.46H445.972V29.56H462.812V32.46H455.992V50H452.752ZM473.18 57.76L476.24 49.42L468.72 29.56H472.02L477.06 43.56C477.167 43.8667 477.274 44.1933 477.38 44.54C477.487 44.8733 477.6 45.2267 477.72 45.6C477.827 45.2533 477.94 44.9133 478.06 44.58C478.18 44.2333 478.3 43.8933 478.42 43.56L483.52 29.56H486.94L476.44 57.76H473.18ZM499.649 50V32.46H492.869V29.56H509.709V32.46H502.889V50H499.649ZM540.046 58.1V29.56H543.306V31.32C543.932 30.7333 544.666 30.2133 545.506 29.76C546.346 29.3067 547.459 29.08 548.846 29.08C550.686 29.08 552.266 29.52 553.586 30.4C554.919 31.2667 555.946 32.5 556.666 34.1C557.386 35.7 557.746 37.5867 557.746 39.76C557.746 42.04 557.366 43.98 556.606 45.58C555.859 47.1667 554.819 48.38 553.486 49.22C552.166 50.06 550.659 50.48 548.966 50.48C547.472 50.48 546.292 50.24 545.426 49.76C544.572 49.2667 543.866 48.6867 543.306 48.02V56.52L540.046 58.1ZM548.566 47.48C550.419 47.48 551.852 46.82 552.866 45.5C553.879 44.1667 554.386 42.2533 554.386 39.76C554.386 37.4267 553.866 35.56 552.826 34.16C551.786 32.76 550.319 32.06 548.426 32.06C547.306 32.06 546.299 32.3133 545.406 32.82C544.526 33.3267 543.826 34.0333 543.306 34.94V44.6C543.932 45.4133 544.666 46.1 545.506 46.66C546.346 47.2067 547.366 47.48 548.566 47.48ZM572.054 50.48C570.094 50.48 568.414 50 567.014 49.04C565.627 48.08 564.567 46.7867 563.834 45.16C563.101 43.5333 562.734 41.7333 562.734 39.76C562.734 37.5067 563.121 35.5867 563.894 34C564.667 32.4 565.747 31.18 567.134 30.34C568.534 29.5 570.174 29.08 572.054 29.08C573.587 29.08 574.994 29.4267 576.274 30.12C577.567 30.8133 578.601 31.8867 579.374 33.34C580.147 34.78 580.534 36.6333 580.534 38.9C580.534 39.1533 580.527 39.4667 580.514 39.84C580.514 40.2 580.487 40.6133 580.434 41.08H565.294V38.2H577.274C577.247 36.5733 576.954 35.3133 576.394 34.42C575.847 33.5133 575.174 32.88 574.374 32.52C573.574 32.16 572.801 31.98 572.054 31.98C569.974 31.98 568.447 32.64 567.474 33.96C566.501 35.2667 566.014 37.02 566.014 39.22C566.014 41.78 566.554 43.8 567.634 45.28C568.714 46.76 570.221 47.5 572.154 47.5C572.967 47.5 573.774 47.3733 574.574 47.12C575.374 46.8533 576.161 46.4133 576.934 45.8L578.774 47.94C577.921 48.6733 576.914 49.28 575.754 49.76C574.607 50.24 573.374 50.48 572.054 50.48ZM585.303 50V29.56H588.463V47.12H593.503V29.56H596.663V47.12H601.723V29.56H604.863V50H585.303ZM610.171 50V29.56H613.411V44.3L623.691 29.56H626.911V50H623.651V35.3L613.391 50H610.171ZM632.739 50.48L631.139 47.84C632.433 47.6 633.373 47.1867 633.959 46.6C634.546 46.0133 634.913 45.1067 635.059 43.88L636.719 29.56H650.179V50H646.919V32.58H639.639L638.279 44.5C638.093 46.2333 637.533 47.5933 636.599 48.58C635.679 49.5533 634.393 50.1867 632.739 50.48ZM24.22 90V69.56H40.44V90H37.16V72.46H27.48V90H24.22ZM47.6284 98.1V69.56H50.8884V71.32C51.5151 70.7333 52.2484 70.2133 53.0884 69.76C53.9284 69.3067 55.0418 69.08 56.4284 69.08C58.2684 69.08 59.8484 69.52 61.1684 70.4C62.5018 71.2667 63.5284 72.5 64.2484 74.1C64.9684 75.7 65.3284 77.5867 65.3284 79.76C65.3284 82.04 64.9484 83.98 64.1884 85.58C63.4418 87.1667 62.4018 88.38 61.0684 89.22C59.7484 90.06 58.2418 90.48 56.5484 90.48C55.0551 90.48 53.8751 90.24 53.0084 89.76C52.1551 89.2667 51.4484 88.6867 50.8884 88.02V96.52L47.6284 98.1ZM56.1484 87.48C58.0018 87.48 59.4351 86.82 60.4484 85.5C61.4618 84.1667 61.9684 82.2533 61.9684 79.76C61.9684 77.4267 61.4484 75.56 60.4084 74.16C59.3684 72.76 57.9018 72.06 56.0084 72.06C54.8884 72.06 53.8818 72.3133 52.9884 72.82C52.1084 73.3267 51.4084 74.0333 50.8884 74.94V84.6C51.5151 85.4133 52.2484 86.1 53.0884 86.66C53.9284 87.2067 54.9484 87.48 56.1484 87.48ZM79.2169 90.48C77.3102 90.48 75.6435 90.06 74.2169 89.22C72.7902 88.38 71.6769 87.1667 70.8769 85.58C70.0902 83.98 69.6969 82.0533 69.6969 79.8C69.6969 77.5733 70.0902 75.66 70.8769 74.06C71.6769 72.46 72.7902 71.2333 74.2169 70.38C75.6435 69.5133 77.3102 69.08 79.2169 69.08C81.1369 69.08 82.8102 69.5 84.2369 70.34C85.6769 71.18 86.7902 72.4 87.5769 74C88.3635 75.6 88.7569 77.52 88.7569 79.76C88.7569 81.9867 88.3635 83.9 87.5769 85.5C86.7902 87.1 85.6769 88.3333 84.2369 89.2C82.8102 90.0533 81.1369 90.48 79.2169 90.48ZM79.2169 87.48C81.1902 87.48 82.7102 86.7933 83.7769 85.42C84.8569 84.0467 85.3969 82.16 85.3969 79.76C85.3969 77.3733 84.8769 75.4933 83.8369 74.12C82.7969 72.7467 81.2569 72.06 79.2169 72.06C77.2035 72.06 75.6702 72.7333 74.6169 74.08C73.5635 75.4133 73.0369 77.32 73.0369 79.8C73.0369 82.1733 73.5635 84.0467 74.6169 85.42C75.6702 86.7933 77.2035 87.48 79.2169 87.48ZM96.1453 87.36V83L106.745 69.56H110.465L96.1453 87.36ZM94.4853 90V69.56H97.7453V90H94.4853ZM108.385 90L101.905 78.04L104.045 75.38L112.025 90H108.385ZM124.774 90.48C123.347 90.48 122.08 90.2267 120.974 89.72C119.88 89.2 119.02 88.4333 118.394 87.42C117.78 86.3933 117.474 85.1133 117.474 83.58C117.474 82.0067 117.847 80.7267 118.594 79.74C119.34 78.74 120.307 78.0067 121.494 77.54C122.68 77.06 123.94 76.82 125.274 76.82C126.274 76.82 127.22 76.92 128.114 77.12C129.02 77.32 129.94 77.6733 130.874 78.18V76.58C130.874 75.3267 130.674 74.3667 130.274 73.7C129.874 73.02 129.34 72.5533 128.674 72.3C128.007 72.0467 127.28 71.92 126.494 71.92C125.4 71.92 124.26 72.1467 123.074 72.6C121.9 73.04 120.88 73.5333 120.014 74.08L119.074 71.34C119.967 70.7933 121.094 70.28 122.454 69.8C123.827 69.32 125.28 69.08 126.814 69.08C127.587 69.08 128.387 69.18 129.214 69.38C130.04 69.5667 130.814 69.92 131.534 70.44C132.254 70.96 132.834 71.6933 133.274 72.64C133.714 73.5733 133.934 74.7933 133.934 76.3V90H130.874V88.1C130.114 88.78 129.22 89.3467 128.194 89.8C127.18 90.2533 126.04 90.48 124.774 90.48ZM125.194 87.64C126.487 87.64 127.607 87.34 128.554 86.74C129.5 86.1267 130.274 85.4667 130.874 84.76V81.12C130.234 80.72 129.447 80.3733 128.514 80.08C127.58 79.7867 126.634 79.64 125.674 79.64C124.3 79.64 123.1 79.96 122.074 80.6C121.047 81.2267 120.534 82.22 120.534 83.58C120.534 84.7933 120.934 85.7733 121.734 86.52C122.547 87.2667 123.7 87.64 125.194 87.64ZM154.502 90V80.46C153.889 81.3267 153.096 81.9867 152.122 82.44C151.162 82.8933 150.036 83.12 148.742 83.12C146.942 83.12 145.469 82.7867 144.322 82.12C143.189 81.44 142.349 80.4133 141.802 79.04C141.269 77.6667 141.002 75.9333 141.002 73.84V69.56H144.262V74.5C144.262 76.4733 144.702 77.9133 145.582 78.82C146.476 79.7133 147.696 80.16 149.242 80.16C150.856 80.16 152.136 79.7533 153.082 78.94C154.029 78.1133 154.502 76.66 154.502 74.58V69.56H157.742V90H154.502ZM171.671 90.48C170.244 90.48 168.977 90.2267 167.871 89.72C166.777 89.2 165.917 88.4333 165.291 87.42C164.677 86.3933 164.371 85.1133 164.371 83.58C164.371 82.0067 164.744 80.7267 165.491 79.74C166.237 78.74 167.204 78.0067 168.391 77.54C169.577 77.06 170.837 76.82 172.171 76.82C173.171 76.82 174.117 76.92 175.011 77.12C175.917 77.32 176.837 77.6733 177.771 78.18V76.58C177.771 75.3267 177.571 74.3667 177.171 73.7C176.771 73.02 176.237 72.5533 175.571 72.3C174.904 72.0467 174.177 71.92 173.391 71.92C172.297 71.92 171.157 72.1467 169.971 72.6C168.797 73.04 167.777 73.5333 166.911 74.08L165.971 71.34C166.864 70.7933 167.991 70.28 169.351 69.8C170.724 69.32 172.177 69.08 173.711 69.08C174.484 69.08 175.284 69.18 176.111 69.38C176.937 69.5667 177.711 69.92 178.431 70.44C179.151 70.96 179.731 71.6933 180.171 72.64C180.611 73.5733 180.831 74.7933 180.831 76.3V90H177.771V88.1C177.011 88.78 176.117 89.3467 175.091 89.8C174.077 90.2533 172.937 90.48 171.671 90.48ZM172.091 87.64C173.384 87.64 174.504 87.34 175.451 86.74C176.397 86.1267 177.171 85.4667 177.771 84.76V81.12C177.131 80.72 176.344 80.3733 175.411 80.08C174.477 79.7867 173.531 79.64 172.571 79.64C171.197 79.64 169.997 79.96 168.971 80.6C167.944 81.2267 167.431 82.22 167.431 83.58C167.431 84.7933 167.831 85.7733 168.631 86.52C169.444 87.2667 170.597 87.64 172.091 87.64ZM194.819 90V72.46H188.039V69.56H204.879V72.46H198.059V90H194.819ZM220.367 90.48C217.727 90.48 215.634 89.5467 214.087 87.68C212.554 85.8133 211.787 83.1867 211.787 79.8C211.787 77.56 212.141 75.64 212.847 74.04C213.554 72.44 214.567 71.2133 215.887 70.36C217.207 69.5067 218.787 69.08 220.627 69.08C222.347 69.08 223.827 69.4667 225.067 70.24C226.321 71.0133 227.241 72.16 227.827 73.68L224.827 74.8C224.494 74.0133 223.987 73.36 223.307 72.84C222.627 72.32 221.707 72.06 220.547 72.06C218.654 72.06 217.281 72.76 216.427 74.16C215.574 75.5467 215.147 77.4267 215.147 79.8C215.147 82.2133 215.581 84.1 216.447 85.46C217.314 86.8067 218.654 87.48 220.467 87.48C221.614 87.48 222.581 87.2067 223.367 86.66C224.167 86.1133 224.741 85.36 225.087 84.4L228.067 85.46C227.547 87.0333 226.614 88.2667 225.267 89.16C223.921 90.04 222.287 90.48 220.367 90.48ZM247.896 90V82.26H242.736C240.603 82.26 238.896 81.68 237.616 80.52C236.336 79.3467 235.696 77.8067 235.696 75.9C235.696 73.9667 236.336 72.4267 237.616 71.28C238.896 70.1333 240.596 69.56 242.716 69.56H251.136V90H247.896ZM233.996 90L240.836 80.76H244.556L237.896 90H233.996ZM242.736 79.34H247.896V72.48H242.736C241.549 72.48 240.623 72.78 239.956 73.38C239.303 73.98 238.976 74.82 238.976 75.9C238.976 76.9667 239.309 77.8067 239.976 78.42C240.643 79.0333 241.563 79.34 242.736 79.34ZM282.073 90V69.56H291.593C293.246 69.56 294.546 69.8267 295.493 70.36C296.439 70.88 297.106 71.5533 297.493 72.38C297.879 73.1933 298.073 74.0267 298.073 74.88C298.073 75.8933 297.786 76.78 297.213 77.54C296.653 78.3 295.933 78.8667 295.053 79.24C296.173 79.52 297.073 80.0867 297.753 80.94C298.446 81.7933 298.793 82.8667 298.793 84.16C298.793 85.1067 298.573 86.0267 298.133 86.92C297.706 87.8133 296.993 88.5533 295.993 89.14C294.993 89.7133 293.633 90 291.913 90H282.073ZM285.333 87.1H291.673C293.099 87.1 294.093 86.8 294.653 86.2C295.226 85.6 295.513 84.86 295.513 83.98C295.513 83.0867 295.186 82.3467 294.533 81.76C293.879 81.1733 292.826 80.88 291.373 80.88H285.333V87.1ZM285.333 78.02H291.253C292.586 78.02 293.506 77.7333 294.013 77.16C294.533 76.5733 294.793 75.9267 294.793 75.22C294.793 74.7533 294.693 74.3133 294.493 73.9C294.293 73.4733 293.939 73.1267 293.433 72.86C292.926 72.58 292.199 72.44 291.253 72.44H285.333V78.02ZM337.61 90.48C334.97 90.48 332.876 89.5467 331.33 87.68C329.796 85.8133 329.03 83.1867 329.03 79.8C329.03 77.56 329.383 75.64 330.09 74.04C330.796 72.44 331.81 71.2133 333.13 70.36C334.45 69.5067 336.03 69.08 337.87 69.08C339.59 69.08 341.07 69.4667 342.31 70.24C343.563 71.0133 344.483 72.16 345.07 73.68L342.07 74.8C341.736 74.0133 341.23 73.36 340.55 72.84C339.87 72.32 338.95 72.06 337.79 72.06C335.896 72.06 334.523 72.76 333.67 74.16C332.816 75.5467 332.39 77.4267 332.39 79.8C332.39 82.2133 332.823 84.1 333.69 85.46C334.556 86.8067 335.896 87.48 337.71 87.48C338.856 87.48 339.823 87.2067 340.61 86.66C341.41 86.1133 341.983 85.36 342.33 84.4L345.31 85.46C344.79 87.0333 343.856 88.2667 342.51 89.16C341.163 90.04 339.53 90.48 337.61 90.48ZM360.598 90.48C358.691 90.48 357.025 90.06 355.598 89.22C354.171 88.38 353.058 87.1667 352.258 85.58C351.471 83.98 351.078 82.0533 351.078 79.8C351.078 77.5733 351.471 75.66 352.258 74.06C353.058 72.46 354.171 71.2333 355.598 70.38C357.025 69.5133 358.691 69.08 360.598 69.08C362.518 69.08 364.191 69.5 365.618 70.34C367.058 71.18 368.171 72.4 368.958 74C369.745 75.6 370.138 77.52 370.138 79.76C370.138 81.9867 369.745 83.9 368.958 85.5C368.171 87.1 367.058 88.3333 365.618 89.2C364.191 90.0533 362.518 90.48 360.598 90.48ZM360.598 87.48C362.571 87.48 364.091 86.7933 365.158 85.42C366.238 84.0467 366.778 82.16 366.778 79.76C366.778 77.3733 366.258 75.4933 365.218 74.12C364.178 72.7467 362.638 72.06 360.598 72.06C358.585 72.06 357.051 72.7333 355.998 74.08C354.945 75.4133 354.418 77.32 354.418 79.8C354.418 82.1733 354.945 84.0467 355.998 85.42C357.051 86.7933 358.585 87.48 360.598 87.48ZM374.807 90.48L373.207 87.84C374.5 87.6 375.44 87.1867 376.027 86.6C376.613 86.0133 376.98 85.1067 377.127 83.88L378.787 69.56H392.247V90H388.987V72.58H381.707L380.347 84.5C380.16 86.2333 379.6 87.5933 378.667 88.58C377.747 89.5533 376.46 90.1867 374.807 90.48ZM407.495 90.48C405.588 90.48 403.922 90.06 402.495 89.22C401.068 88.38 399.955 87.1667 399.155 85.58C398.368 83.98 397.975 82.0533 397.975 79.8C397.975 77.5733 398.368 75.66 399.155 74.06C399.955 72.46 401.068 71.2333 402.495 70.38C403.922 69.5133 405.588 69.08 407.495 69.08C409.415 69.08 411.088 69.5 412.515 70.34C413.955 71.18 415.068 72.4 415.855 74C416.642 75.6 417.035 77.52 417.035 79.76C417.035 81.9867 416.642 83.9 415.855 85.5C415.068 87.1 413.955 88.3333 412.515 89.2C411.088 90.0533 409.415 90.48 407.495 90.48ZM407.495 87.48C409.468 87.48 410.988 86.7933 412.055 85.42C413.135 84.0467 413.675 82.16 413.675 79.76C413.675 77.3733 413.155 75.4933 412.115 74.12C411.075 72.7467 409.535 72.06 407.495 72.06C405.482 72.06 403.948 72.7333 402.895 74.08C401.842 75.4133 401.315 77.32 401.315 79.8C401.315 82.1733 401.842 84.0467 402.895 85.42C403.948 86.7933 405.482 87.48 407.495 87.48ZM429.883 96.98L428.203 96.36C428.817 95.64 429.383 94.7533 429.903 93.7C430.423 92.6467 430.703 91.64 430.743 90.68C429.997 90.6133 429.377 90.3467 428.883 89.88C428.403 89.4133 428.163 88.7933 428.163 88.02C428.163 87.2067 428.43 86.5533 428.963 86.06C429.51 85.5533 430.143 85.3 430.863 85.3C431.637 85.3 432.31 85.5867 432.883 86.16C433.47 86.7333 433.763 87.6133 433.763 88.8C433.763 89.96 433.57 91.0733 433.183 92.14C432.797 93.2067 432.303 94.16 431.703 95C431.103 95.8533 430.497 96.5133 429.883 96.98ZM469.42 90V69.56H472.66V77.92H483.02V69.56H486.28V90H483.02V80.82H472.66V90H469.42ZM501.289 90.48C499.382 90.48 497.715 90.06 496.289 89.22C494.862 88.38 493.749 87.1667 492.949 85.58C492.162 83.98 491.769 82.0533 491.769 79.8C491.769 77.5733 492.162 75.66 492.949 74.06C493.749 72.46 494.862 71.2333 496.289 70.38C497.715 69.5133 499.382 69.08 501.289 69.08C503.209 69.08 504.882 69.5 506.309 70.34C507.749 71.18 508.862 72.4 509.649 74C510.435 75.6 510.829 77.52 510.829 79.76C510.829 81.9867 510.435 83.9 509.649 85.5C508.862 87.1 507.749 88.3333 506.309 89.2C504.882 90.0533 503.209 90.48 501.289 90.48ZM501.289 87.48C503.262 87.48 504.782 86.7933 505.849 85.42C506.929 84.0467 507.469 82.16 507.469 79.76C507.469 77.3733 506.949 75.4933 505.909 74.12C504.869 72.7467 503.329 72.06 501.289 72.06C499.275 72.06 497.742 72.7333 496.689 74.08C495.635 75.4133 495.109 77.32 495.109 79.8C495.109 82.1733 495.635 84.0467 496.689 85.42C497.742 86.7933 499.275 87.48 501.289 87.48ZM523.677 96.98L521.997 96.36C522.611 95.64 523.177 94.7533 523.697 93.7C524.217 92.6467 524.497 91.64 524.537 90.68C523.791 90.6133 523.171 90.3467 522.677 89.88C522.197 89.4133 521.957 88.7933 521.957 88.02C521.957 87.2067 522.224 86.5533 522.757 86.06C523.304 85.5533 523.937 85.3 524.657 85.3C525.431 85.3 526.104 85.5867 526.677 86.16C527.264 86.7333 527.557 87.6133 527.557 88.8C527.557 89.96 527.364 91.0733 526.977 92.14C526.591 93.2067 526.097 94.16 525.497 95C524.897 95.8533 524.291 96.5133 523.677 96.98ZM563.534 90V69.56H579.754V90H576.474V72.46H566.794V90H563.534ZM595.083 90.48C593.176 90.48 591.509 90.06 590.083 89.22C588.656 88.38 587.543 87.1667 586.743 85.58C585.956 83.98 585.563 82.0533 585.563 79.8C585.563 77.5733 585.956 75.66 586.743 74.06C587.543 72.46 588.656 71.2333 590.083 70.38C591.509 69.5133 593.176 69.08 595.083 69.08C597.003 69.08 598.676 69.5 600.103 70.34C601.543 71.18 602.656 72.4 603.443 74C604.229 75.6 604.623 77.52 604.623 79.76C604.623 81.9867 604.229 83.9 603.443 85.5C602.656 87.1 601.543 88.3333 600.103 89.2C598.676 90.0533 597.003 90.48 595.083 90.48ZM595.083 87.48C597.056 87.48 598.576 86.7933 599.643 85.42C600.723 84.0467 601.263 82.16 601.263 79.76C601.263 77.3733 600.743 75.4933 599.703 74.12C598.663 72.7467 597.123 72.06 595.083 72.06C593.069 72.06 591.536 72.7333 590.483 74.08C589.429 75.4133 588.903 77.32 588.903 79.8C588.903 82.1733 589.429 84.0467 590.483 85.42C591.536 86.7933 593.069 87.48 595.083 87.48ZM609.171 90L616.731 79.42L609.651 69.56H613.251L617.531 75.52C617.704 75.7467 617.871 75.9933 618.031 76.26C618.204 76.5133 618.371 76.76 618.531 77C618.678 76.76 618.838 76.5133 619.011 76.26C619.184 75.9933 619.358 75.7467 619.531 75.52L623.811 69.56H627.411L620.331 79.42L627.891 90H624.291L619.531 83.34C619.358 83.1 619.184 82.8533 619.011 82.6C618.838 82.3467 618.678 82.1 618.531 81.86C618.371 82.1 618.204 82.3467 618.031 82.6C617.871 82.8533 617.704 83.1 617.531 83.34L612.771 90H609.171ZM641.979 90.48C640.073 90.48 638.406 90.06 636.979 89.22C635.553 88.38 634.439 87.1667 633.639 85.58C632.853 83.98 632.459 82.0533 632.459 79.8C632.459 77.5733 632.853 75.66 633.639 74.06C634.439 72.46 635.553 71.2333 636.979 70.38C638.406 69.5133 640.073 69.08 641.979 69.08C643.899 69.08 645.573 69.5 646.999 70.34C648.439 71.18 649.553 72.4 650.339 74C651.126 75.6 651.519 77.52 651.519 79.76C651.519 81.9867 651.126 83.9 650.339 85.5C649.553 87.1 648.439 88.3333 646.999 89.2C645.573 90.0533 643.899 90.48 641.979 90.48ZM641.979 87.48C643.953 87.48 645.473 86.7933 646.539 85.42C647.619 84.0467 648.159 82.16 648.159 79.76C648.159 77.3733 647.639 75.4933 646.599 74.12C645.559 72.7467 644.019 72.06 641.979 72.06C639.966 72.06 638.433 72.7333 637.379 74.08C636.326 75.4133 635.799 77.32 635.799 79.8C635.799 82.1733 636.326 84.0467 637.379 85.42C638.433 86.7933 639.966 87.48 641.979 87.48ZM665.968 86.64L665.828 81.24L672.168 69.56H675.348L665.968 86.64ZM654.908 90L659.908 75.2L661.908 78.74L658.168 90H654.908ZM664.908 86.64L655.508 69.56H658.688L665.028 81.24L664.908 86.64ZM663.868 90V69.56H667.008V90H663.868ZM672.708 90L668.948 78.74L670.948 75.2L675.948 90H672.708ZM689.296 90.48C687.336 90.48 685.656 90 684.256 89.04C682.87 88.08 681.81 86.7867 681.076 85.16C680.343 83.5333 679.976 81.7333 679.976 79.76C679.976 77.5067 680.363 75.5867 681.136 74C681.91 72.4 682.99 71.18 684.376 70.34C685.776 69.5 687.416 69.08 689.296 69.08C690.83 69.08 692.236 69.4267 693.516 70.12C694.81 70.8133 695.843 71.8867 696.616 73.34C697.39 74.78 697.776 76.6333 697.776 78.9C697.776 79.1533 697.77 79.4667 697.756 79.84C697.756 80.2 697.73 80.6133 697.676 81.08H682.536V78.2H694.516C694.49 76.5733 694.196 75.3133 693.636 74.42C693.09 73.5133 692.416 72.88 691.616 72.52C690.816 72.16 690.043 71.98 689.296 71.98C687.216 71.98 685.69 72.64 684.716 73.96C683.743 75.2667 683.256 77.02 683.256 79.22C683.256 81.78 683.796 83.8 684.876 85.28C685.956 86.76 687.463 87.5 689.396 87.5C690.21 87.5 691.016 87.3733 691.816 87.12C692.616 86.8533 693.403 86.4133 694.176 85.8L696.016 87.94C695.163 88.6733 694.156 89.28 692.996 89.76C691.85 90.24 690.616 90.48 689.296 90.48ZM711.265 96.98L709.585 96.36C710.198 95.64 710.765 94.7533 711.285 93.7C711.805 92.6467 712.085 91.64 712.125 90.68C711.378 90.6133 710.758 90.3467 710.265 89.88C709.785 89.4133 709.545 88.7933 709.545 88.02C709.545 87.2067 709.811 86.5533 710.345 86.06C710.891 85.5533 711.525 85.3 712.245 85.3C713.018 85.3 713.691 85.5867 714.265 86.16C714.851 86.7333 715.145 87.6133 715.145 88.8C715.145 89.96 714.951 91.0733 714.565 92.14C714.178 93.2067 713.685 94.16 713.085 95C712.485 95.8533 711.878 96.5133 711.265 96.98ZM759.222 90.36L753.522 77.88C753.388 77.6267 753.268 77.38 753.162 77.14C753.055 76.8867 752.942 76.62 752.822 76.34C752.848 76.6067 752.862 76.86 752.862 77.1C752.862 77.34 752.862 77.6133 752.862 77.92V90H749.602V69.56H753.042L758.522 81.54C758.682 81.86 758.815 82.1533 758.922 82.42C759.042 82.6867 759.142 82.92 759.222 83.12C759.302 82.92 759.402 82.6867 759.522 82.42C759.642 82.1533 759.775 81.86 759.922 81.54L765.442 69.56H768.842V90H765.602V77.92C765.602 77.5867 765.602 77.3 765.602 77.06C765.615 76.8067 765.628 76.5667 765.642 76.34C765.522 76.58 765.408 76.8267 765.302 77.08C765.195 77.3333 765.075 77.6 764.942 77.88L759.222 90.36ZM774.25 90V69.56H777.49V77.92H787.85V69.56H791.11V90H787.85V80.82H777.49V90H774.25ZM806.538 90.48C804.578 90.48 802.898 90 801.498 89.04C800.112 88.08 799.052 86.7867 798.318 85.16C797.585 83.5333 797.218 81.7333 797.218 79.76C797.218 77.5067 797.605 75.5867 798.378 74C799.152 72.4 800.232 71.18 801.618 70.34C803.018 69.5 804.658 69.08 806.538 69.08C808.072 69.08 809.478 69.4267 810.758 70.12C812.052 70.8133 813.085 71.8867 813.858 73.34C814.632 74.78 815.018 76.6333 815.018 78.9C815.018 79.1533 815.012 79.4667 814.998 79.84C814.998 80.2 814.972 80.6133 814.918 81.08H799.778V78.2H811.758C811.732 76.5733 811.438 75.3133 810.878 74.42C810.332 73.5133 809.658 72.88 808.858 72.52C808.058 72.16 807.285 71.98 806.538 71.98C804.458 71.98 802.932 72.64 801.958 73.96C800.985 75.2667 800.498 77.02 800.498 79.22C800.498 81.78 801.038 83.8 802.118 85.28C803.198 86.76 804.705 87.5 806.638 87.5C807.452 87.5 808.258 87.3733 809.058 87.12C809.858 86.8533 810.645 86.4133 811.418 85.8L813.258 87.94C812.405 88.6733 811.398 89.28 810.238 89.76C809.092 90.24 807.858 90.48 806.538 90.48ZM23.9 130V109.56H27.14V117.92H37.5V109.56H40.76V130H37.5V120.82H27.14V130H23.9ZM51.1084 137.76L54.1684 129.42L46.6484 109.56H49.9484L54.9884 123.56C55.0951 123.867 55.2018 124.193 55.3084 124.54C55.4151 124.873 55.5284 125.227 55.6484 125.6C55.7551 125.253 55.8684 124.913 55.9884 124.58C56.1084 124.233 56.2284 123.893 56.3484 123.56L61.4484 109.56H64.8684L54.3684 137.76H51.1084ZM79.7569 126.64L79.6169 121.24L85.9569 109.56H89.1369L79.7569 126.64ZM68.6969 130L73.6969 115.2L75.6969 118.74L71.9569 130H68.6969ZM78.6969 126.64L69.2969 109.56H72.4769L78.8169 121.24L78.6969 126.64ZM77.6569 130V109.56H80.7969V130H77.6569ZM86.4969 130L82.7369 118.74L84.7369 115.2L89.7369 130H86.4969ZM94.2453 130V109.56H97.4853V117.92H107.845V109.56H111.105V130H107.845V120.82H97.4853V130H94.2453ZM124.774 130.48C123.347 130.48 122.08 130.227 120.974 129.72C119.88 129.2 119.02 128.433 118.394 127.42C117.78 126.393 117.474 125.113 117.474 123.58C117.474 122.007 117.847 120.727 118.594 119.74C119.34 118.74 120.307 118.007 121.494 117.54C122.68 117.06 123.94 116.82 125.274 116.82C126.274 116.82 127.22 116.92 128.114 117.12C129.02 117.32 129.94 117.673 130.874 118.18V116.58C130.874 115.327 130.674 114.367 130.274 113.7C129.874 113.02 129.34 112.553 128.674 112.3C128.007 112.047 127.28 111.92 126.494 111.92C125.4 111.92 124.26 112.147 123.074 112.6C121.9 113.04 120.88 113.533 120.014 114.08L119.074 111.34C119.967 110.793 121.094 110.28 122.454 109.8C123.827 109.32 125.28 109.08 126.814 109.08C127.587 109.08 128.387 109.18 129.214 109.38C130.04 109.567 130.814 109.92 131.534 110.44C132.254 110.96 132.834 111.693 133.274 112.64C133.714 113.573 133.934 114.793 133.934 116.3V130H130.874V128.1C130.114 128.78 129.22 129.347 128.194 129.8C127.18 130.253 126.04 130.48 124.774 130.48ZM125.194 127.64C126.487 127.64 127.607 127.34 128.554 126.74C129.5 126.127 130.274 125.467 130.874 124.76V121.12C130.234 120.72 129.447 120.373 128.514 120.08C127.58 119.787 126.634 119.64 125.674 119.64C124.3 119.64 123.1 119.96 122.074 120.6C121.047 121.227 120.534 122.22 120.534 123.58C120.534 124.793 120.934 125.773 121.734 126.52C122.547 127.267 123.7 127.64 125.194 127.64ZM164.911 130V109.56H181.131V130H177.851V112.46H168.171V130H164.911ZM196.459 130.48C194.552 130.48 192.886 130.06 191.459 129.22C190.032 128.38 188.919 127.167 188.119 125.58C187.332 123.98 186.939 122.053 186.939 119.8C186.939 117.573 187.332 115.66 188.119 114.06C188.919 112.46 190.032 111.233 191.459 110.38C192.886 109.513 194.552 109.08 196.459 109.08C198.379 109.08 200.052 109.5 201.479 110.34C202.919 111.18 204.032 112.4 204.819 114C205.606 115.6 205.999 117.52 205.999 119.76C205.999 121.987 205.606 123.9 204.819 125.5C204.032 127.1 202.919 128.333 201.479 129.2C200.052 130.053 198.379 130.48 196.459 130.48ZM196.459 127.48C198.432 127.48 199.952 126.793 201.019 125.42C202.099 124.047 202.639 122.16 202.639 119.76C202.639 117.373 202.119 115.493 201.079 114.12C200.039 112.747 198.499 112.06 196.459 112.06C194.446 112.06 192.912 112.733 191.859 114.08C190.806 115.413 190.279 117.32 190.279 119.8C190.279 122.173 190.806 124.047 191.859 125.42C192.912 126.793 194.446 127.48 196.459 127.48ZM219.907 130.36L214.207 117.88C214.074 117.627 213.954 117.38 213.847 117.14C213.741 116.887 213.627 116.62 213.507 116.34C213.534 116.607 213.547 116.86 213.547 117.1C213.547 117.34 213.547 117.613 213.547 117.92V130H210.287V109.56H213.727L219.207 121.54C219.367 121.86 219.501 122.153 219.607 122.42C219.727 122.687 219.827 122.92 219.907 123.12C219.987 122.92 220.087 122.687 220.207 122.42C220.327 122.153 220.461 121.86 220.607 121.54L226.127 109.56H229.527V130H226.287V117.92C226.287 117.587 226.287 117.3 226.287 117.06C226.301 116.807 226.314 116.567 226.327 116.34C226.207 116.58 226.094 116.827 225.987 117.08C225.881 117.333 225.761 117.6 225.627 117.88L219.907 130.36ZM243.356 130.48C241.449 130.48 239.783 130.06 238.356 129.22C236.929 128.38 235.816 127.167 235.016 125.58C234.229 123.98 233.836 122.053 233.836 119.8C233.836 117.573 234.229 115.66 235.016 114.06C235.816 112.46 236.929 111.233 238.356 110.38C239.783 109.513 241.449 109.08 243.356 109.08C245.276 109.08 246.949 109.5 248.376 110.34C249.816 111.18 250.929 112.4 251.716 114C252.503 115.6 252.896 117.52 252.896 119.76C252.896 121.987 252.503 123.9 251.716 125.5C250.929 127.1 249.816 128.333 248.376 129.2C246.949 130.053 245.276 130.48 243.356 130.48ZM243.356 127.48C245.329 127.48 246.849 126.793 247.916 125.42C248.996 124.047 249.536 122.16 249.536 119.76C249.536 117.373 249.016 115.493 247.976 114.12C246.936 112.747 245.396 112.06 243.356 112.06C241.343 112.06 239.809 112.733 238.756 114.08C237.703 115.413 237.176 117.32 237.176 119.8C237.176 122.173 237.703 124.047 238.756 125.42C239.809 126.793 241.343 127.48 243.356 127.48ZM276.004 136.42V130H273.744V127.12H279.124V134.9L276.004 136.42ZM257.324 130V109.56H260.484V127.12H265.104V109.56H268.244V127.12H272.864V109.56H276.024V130H257.324ZM283.233 130V109.56H286.493V117.3H291.693C293.826 117.3 295.533 117.88 296.813 119.04C298.093 120.2 298.733 121.74 298.733 123.66C298.733 125.567 298.093 127.1 296.813 128.26C295.533 129.42 293.826 130 291.693 130H283.233ZM286.493 127.08H291.713C292.899 127.08 293.819 126.78 294.473 126.18C295.126 125.567 295.453 124.727 295.453 123.66C295.453 122.58 295.119 121.733 294.453 121.12C293.786 120.507 292.873 120.2 291.713 120.2H286.493V127.08ZM313.701 130.54C312.928 130.54 312.288 130.273 311.781 129.74C311.275 129.193 311.021 128.573 311.021 127.88C311.021 127.187 311.275 126.567 311.781 126.02C312.288 125.473 312.928 125.2 313.701 125.2C314.461 125.2 315.095 125.473 315.601 126.02C316.121 126.567 316.381 127.187 316.381 127.88C316.381 128.573 316.121 129.193 315.601 129.74C315.095 130.273 314.461 130.54 313.701 130.54Z" fill="#FF0000"/>
<path d="M24.64 170V149.56H40.8V153.64H29.24V170H24.64ZM46.9684 178.04V149.56H51.5684V151.12C52.1151 150.533 52.7818 150.047 53.5684 149.66C54.3684 149.273 55.3684 149.08 56.5684 149.08C58.3818 149.08 59.9551 149.5 61.2884 150.34C62.6351 151.18 63.6751 152.4 64.4084 154C65.1551 155.6 65.5284 157.533 65.5284 159.8C65.5284 162.04 65.1418 163.96 64.3684 165.56C63.5951 167.147 62.5351 168.367 61.1884 169.22C59.8418 170.06 58.3151 170.48 56.6084 170.48C55.3684 170.48 54.3484 170.28 53.5484 169.88C52.7484 169.467 52.0884 168.96 51.5684 168.36V175.92L46.9684 178.04ZM55.9284 166.08C57.5151 166.08 58.7351 165.54 59.5884 164.46C60.4551 163.367 60.8884 161.813 60.8884 159.8C60.8884 157.88 60.4618 156.34 59.6084 155.18C58.7551 154.02 57.5151 153.44 55.8884 153.44C54.8751 153.44 54.0084 153.627 53.2884 154C52.5818 154.36 52.0084 154.853 51.5684 155.48V164.04C51.9551 164.573 52.5151 165.047 53.2484 165.46C53.9818 165.873 54.8751 166.08 55.9284 166.08ZM77.6569 170.48C76.2302 170.48 74.9435 170.227 73.7969 169.72C72.6635 169.213 71.7635 168.46 71.0969 167.46C70.4302 166.447 70.0969 165.187 70.0969 163.68C70.0969 162.107 70.4969 160.827 71.2969 159.84C72.0969 158.84 73.1169 158.107 74.3569 157.64C75.6102 157.16 76.9102 156.92 78.2569 156.92C79.2969 156.92 80.2235 157.013 81.0369 157.2C81.8502 157.373 82.6169 157.64 83.3369 158V156.8C83.3369 155.893 83.1769 155.173 82.8569 154.64C82.5369 154.093 82.0702 153.707 81.4569 153.48C80.8569 153.24 80.1369 153.12 79.2969 153.12C78.1635 153.12 77.0369 153.307 75.9169 153.68C74.8102 154.053 73.7769 154.56 72.8169 155.2L71.4169 151.44C72.4035 150.813 73.6169 150.267 75.0569 149.8C76.4969 149.32 78.0435 149.08 79.6969 149.08C80.6035 149.08 81.5302 149.173 82.4769 149.36C83.4369 149.533 84.3169 149.887 85.1169 150.42C85.9302 150.94 86.5835 151.713 87.0769 152.74C87.5702 153.753 87.8169 155.093 87.8169 156.76V170H83.3369V168.4C82.7769 168.933 82.0369 169.413 81.1169 169.84C80.2102 170.267 79.0569 170.48 77.6569 170.48ZM78.4969 166.44C79.6169 166.44 80.5702 166.233 81.3569 165.82C82.1569 165.407 82.8169 164.933 83.3369 164.4V161.76C82.7769 161.48 82.1169 161.26 81.3569 161.1C80.6102 160.927 79.8169 160.84 78.9769 160.84C77.8035 160.84 76.7702 161.067 75.8769 161.52C74.9835 161.96 74.5369 162.68 74.5369 163.68C74.5369 164.493 74.8835 165.16 75.5769 165.68C76.2702 166.187 77.2435 166.44 78.4969 166.44ZM102.665 170.36L98.4253 160.8C98.212 160.333 98.0186 159.907 97.8453 159.52C97.6853 159.133 97.5053 158.693 97.3053 158.2C97.332 158.613 97.3453 159.013 97.3453 159.4C97.3453 159.773 97.3453 160.293 97.3453 160.96V170H92.7453V149.56H97.9453L102.025 158.84C102.212 159.253 102.345 159.58 102.425 159.82C102.505 160.047 102.585 160.28 102.665 160.52C102.732 160.293 102.805 160.06 102.885 159.82C102.979 159.58 103.119 159.253 103.305 158.84L107.465 149.56H112.585V170H107.985V160.96C107.985 160.293 107.985 159.773 107.985 159.4C107.999 159.013 108.012 158.613 108.025 158.2C107.825 158.693 107.639 159.133 107.465 159.52C107.305 159.907 107.119 160.333 106.905 160.8L102.665 170.36ZM126.114 170.36L121.874 160.8C121.66 160.333 121.467 159.907 121.294 159.52C121.134 159.133 120.954 158.693 120.754 158.2C120.78 158.613 120.794 159.013 120.794 159.4C120.794 159.773 120.794 160.293 120.794 160.96V170H116.194V149.56H121.394L125.474 158.84C125.66 159.253 125.794 159.58 125.874 159.82C125.954 160.047 126.034 160.28 126.114 160.52C126.18 160.293 126.254 160.06 126.334 159.82C126.427 159.58 126.567 159.253 126.754 158.84L130.914 149.56H136.034V170H131.434V160.96C131.434 160.293 131.434 159.773 131.434 159.4C131.447 159.013 131.46 158.613 131.474 158.2C131.274 158.693 131.087 159.133 130.914 159.52C130.754 159.907 130.567 160.333 130.354 160.8L126.114 170.36ZM148.002 170.48C146.576 170.48 145.289 170.227 144.142 169.72C143.009 169.213 142.109 168.46 141.442 167.46C140.776 166.447 140.442 165.187 140.442 163.68C140.442 162.107 140.842 160.827 141.642 159.84C142.442 158.84 143.462 158.107 144.702 157.64C145.956 157.16 147.256 156.92 148.602 156.92C149.642 156.92 150.569 157.013 151.382 157.2C152.196 157.373 152.962 157.64 153.682 158V156.8C153.682 155.893 153.522 155.173 153.202 154.64C152.882 154.093 152.416 153.707 151.802 153.48C151.202 153.24 150.482 153.12 149.642 153.12C148.509 153.12 147.382 153.307 146.262 153.68C145.156 154.053 144.122 154.56 143.162 155.2L141.762 151.44C142.749 150.813 143.962 150.267 145.402 149.8C146.842 149.32 148.389 149.08 150.042 149.08C150.949 149.08 151.876 149.173 152.822 149.36C153.782 149.533 154.662 149.887 155.462 150.42C156.276 150.94 156.929 151.713 157.422 152.74C157.916 153.753 158.162 155.093 158.162 156.76V170H153.682V168.4C153.122 168.933 152.382 169.413 151.462 169.84C150.556 170.267 149.402 170.48 148.002 170.48ZM148.842 166.44C149.962 166.44 150.916 166.233 151.702 165.82C152.502 165.407 153.162 164.933 153.682 164.4V161.76C153.122 161.48 152.462 161.26 151.702 161.1C150.956 160.927 150.162 160.84 149.322 160.84C148.149 160.84 147.116 161.067 146.222 161.52C145.329 161.96 144.882 162.68 144.882 163.68C144.882 164.493 145.229 165.16 145.922 165.68C146.616 166.187 147.589 166.44 148.842 166.44ZM164.211 178.04V149.56H168.811V151.12C169.357 150.533 170.024 150.047 170.811 149.66C171.611 149.273 172.611 149.08 173.811 149.08C175.624 149.08 177.197 149.5 178.531 150.34C179.877 151.18 180.917 152.4 181.651 154C182.397 155.6 182.771 157.533 182.771 159.8C182.771 162.04 182.384 163.96 181.611 165.56C180.837 167.147 179.777 168.367 178.431 169.22C177.084 170.06 175.557 170.48 173.851 170.48C172.611 170.48 171.591 170.28 170.791 169.88C169.991 169.467 169.331 168.96 168.811 168.36V175.92L164.211 178.04ZM173.171 166.08C174.757 166.08 175.977 165.54 176.831 164.46C177.697 163.367 178.131 161.813 178.131 159.8C178.131 157.88 177.704 156.34 176.851 155.18C175.997 154.02 174.757 153.44 173.131 153.44C172.117 153.44 171.251 153.627 170.531 154C169.824 154.36 169.251 154.853 168.811 155.48V164.04C169.197 164.573 169.757 165.047 170.491 165.46C171.224 165.873 172.117 166.08 173.171 166.08ZM187.219 170V149.56H191.819V157.44H201.099V149.56H205.699V170H201.099V161.52H191.819V170H187.219ZM218.347 170.48C216.921 170.48 215.634 170.227 214.487 169.72C213.354 169.213 212.454 168.46 211.787 167.46C211.121 166.447 210.787 165.187 210.787 163.68C210.787 162.107 211.187 160.827 211.987 159.84C212.787 158.84 213.807 158.107 215.047 157.64C216.301 157.16 217.601 156.92 218.947 156.92C219.987 156.92 220.914 157.013 221.727 157.2C222.541 157.373 223.307 157.64 224.027 158V156.8C224.027 155.893 223.867 155.173 223.547 154.64C223.227 154.093 222.761 153.707 222.147 153.48C221.547 153.24 220.827 153.12 219.987 153.12C218.854 153.12 217.727 153.307 216.607 153.68C215.501 154.053 214.467 154.56 213.507 155.2L212.107 151.44C213.094 150.813 214.307 150.267 215.747 149.8C217.187 149.32 218.734 149.08 220.387 149.08C221.294 149.08 222.221 149.173 223.167 149.36C224.127 149.533 225.007 149.887 225.807 150.42C226.621 150.94 227.274 151.713 227.767 152.74C228.261 153.753 228.507 155.093 228.507 156.76V170H224.027V168.4C223.467 168.933 222.727 169.413 221.807 169.84C220.901 170.267 219.747 170.48 218.347 170.48ZM219.187 166.44C220.307 166.44 221.261 166.233 222.047 165.82C222.847 165.407 223.507 164.933 224.027 164.4V161.76C223.467 161.48 222.807 161.26 222.047 161.1C221.301 160.927 220.507 160.84 219.667 160.84C218.494 160.84 217.461 161.067 216.567 161.52C215.674 161.96 215.227 162.68 215.227 163.68C215.227 164.493 215.574 165.16 216.267 165.68C216.961 166.187 217.934 166.44 219.187 166.44ZM243.156 170.48C240.983 170.48 239.069 169.98 237.416 168.98C235.776 167.967 234.583 166.64 233.836 165L237.996 163.48C238.503 164.36 239.176 165.067 240.016 165.6C240.869 166.133 241.916 166.4 243.156 166.4C244.436 166.4 245.403 166.2 246.056 165.8C246.709 165.387 247.036 164.8 247.036 164.04C247.036 163.24 246.689 162.64 245.996 162.24C245.316 161.84 244.356 161.64 243.116 161.64H239.436V157.72H242.916C243.943 157.72 244.749 157.52 245.336 157.12C245.936 156.72 246.236 156.173 246.236 155.48C246.236 154.76 245.956 154.193 245.396 153.78C244.849 153.367 244.063 153.16 243.036 153.16C241.916 153.16 240.956 153.4 240.156 153.88C239.356 154.36 238.716 155 238.236 155.8L234.516 154.2C235.276 152.68 236.416 151.447 237.936 150.5C239.456 149.553 241.223 149.08 243.236 149.08C245.703 149.08 247.589 149.613 248.896 150.68C250.216 151.733 250.876 153.08 250.876 154.72C250.876 155.853 250.503 156.827 249.756 157.64C249.009 158.453 247.943 159.053 246.556 159.44C248.183 159.72 249.443 160.3 250.336 161.18C251.229 162.047 251.676 163.133 251.676 164.44C251.676 166.213 250.949 167.667 249.496 168.8C248.056 169.92 245.943 170.48 243.156 170.48ZM257.564 170V149.56H262.164V162.08L271.564 149.56H276.044V170H271.444V157.52L262.044 170H257.564ZM290.333 170.48C288.106 170.48 286.239 170.007 284.733 169.06C283.239 168.1 282.113 166.807 281.353 165.18C280.593 163.553 280.213 161.72 280.213 159.68C280.213 157.48 280.539 155.393 281.193 153.42C281.846 151.433 282.833 149.633 284.153 148.02C285.486 146.393 287.159 145.02 289.173 143.9C291.186 142.78 293.546 141.987 296.253 141.52V145.92C294.813 146.2 293.406 146.693 292.033 147.4C290.673 148.107 289.473 149.02 288.433 150.14C287.393 151.247 286.639 152.547 286.173 154.04C286.719 153.533 287.406 153.12 288.233 152.8C289.073 152.48 290.039 152.32 291.133 152.32C292.906 152.32 294.479 152.713 295.853 153.5C297.239 154.287 298.326 155.367 299.113 156.74C299.899 158.1 300.293 159.64 300.293 161.36C300.293 163.147 299.859 164.727 298.993 166.1C298.139 167.473 296.959 168.547 295.453 169.32C293.959 170.093 292.253 170.48 290.333 170.48ZM290.333 166C291.346 166 292.246 165.813 293.033 165.44C293.819 165.067 294.439 164.54 294.893 163.86C295.346 163.18 295.573 162.373 295.573 161.44C295.573 160.013 295.086 158.88 294.113 158.04C293.139 157.187 291.879 156.76 290.333 156.76C289.306 156.76 288.393 156.96 287.593 157.36C286.806 157.747 286.186 158.293 285.733 159C285.279 159.693 285.053 160.507 285.053 161.44C285.053 162.373 285.279 163.18 285.733 163.86C286.199 164.54 286.826 165.067 287.613 165.44C288.413 165.813 289.319 166 290.333 166ZM313.781 170.48C311.555 170.48 309.688 170.007 308.181 169.06C306.688 168.1 305.561 166.807 304.801 165.18C304.041 163.553 303.661 161.72 303.661 159.68C303.661 157.48 303.988 155.393 304.641 153.42C305.295 151.433 306.281 149.633 307.601 148.02C308.935 146.393 310.608 145.02 312.621 143.9C314.635 142.78 316.995 141.987 319.701 141.52V145.92C318.261 146.2 316.855 146.693 315.481 147.4C314.121 148.107 312.921 149.02 311.881 150.14C310.841 151.247 310.088 152.547 309.621 154.04C310.168 153.533 310.855 153.12 311.681 152.8C312.521 152.48 313.488 152.32 314.581 152.32C316.355 152.32 317.928 152.713 319.301 153.5C320.688 154.287 321.775 155.367 322.561 156.74C323.348 158.1 323.741 159.64 323.741 161.36C323.741 163.147 323.308 164.727 322.441 166.1C321.588 167.473 320.408 168.547 318.901 169.32C317.408 170.093 315.701 170.48 313.781 170.48ZM313.781 166C314.795 166 315.695 165.813 316.481 165.44C317.268 165.067 317.888 164.54 318.341 163.86C318.795 163.18 319.021 162.373 319.021 161.44C319.021 160.013 318.535 158.88 317.561 158.04C316.588 157.187 315.328 156.76 313.781 156.76C312.755 156.76 311.841 156.96 311.041 157.36C310.255 157.747 309.635 158.293 309.181 159C308.728 159.693 308.501 160.507 308.501 161.44C308.501 162.373 308.728 163.18 309.181 163.86C309.648 164.54 310.275 165.067 311.061 165.44C311.861 165.813 312.768 166 313.781 166ZM337.23 170.48C335.003 170.48 333.136 170.007 331.63 169.06C330.136 168.1 329.01 166.807 328.25 165.18C327.49 163.553 327.11 161.72 327.11 159.68C327.11 157.48 327.436 155.393 328.09 153.42C328.743 151.433 329.73 149.633 331.05 148.02C332.383 146.393 334.056 145.02 336.07 143.9C338.083 142.78 340.443 141.987 343.15 141.52V145.92C341.71 146.2 340.303 146.693 338.93 147.4C337.57 148.107 336.37 149.02 335.33 150.14C334.29 151.247 333.536 152.547 333.07 154.04C333.616 153.533 334.303 153.12 335.13 152.8C335.97 152.48 336.936 152.32 338.03 152.32C339.803 152.32 341.376 152.713 342.75 153.5C344.136 154.287 345.223 155.367 346.01 156.74C346.796 158.1 347.19 159.64 347.19 161.36C347.19 163.147 346.756 164.727 345.89 166.1C345.036 167.473 343.856 168.547 342.35 169.32C340.856 170.093 339.15 170.48 337.23 170.48ZM337.23 166C338.243 166 339.143 165.813 339.93 165.44C340.716 165.067 341.336 164.54 341.79 163.86C342.243 163.18 342.47 162.373 342.47 161.44C342.47 160.013 341.983 158.88 341.01 158.04C340.036 157.187 338.776 156.76 337.23 156.76C336.203 156.76 335.29 156.96 334.49 157.36C333.703 157.747 333.083 158.293 332.63 159C332.176 159.693 331.95 160.507 331.95 161.44C331.95 162.373 332.176 163.18 332.63 163.86C333.096 164.54 333.723 165.067 334.51 165.44C335.31 165.813 336.216 166 337.23 166ZM360.578 156.8C359.671 156.8 358.918 156.5 358.318 155.9C357.731 155.3 357.438 154.567 357.438 153.7C357.438 152.847 357.731 152.12 358.318 151.52C358.918 150.907 359.665 150.6 360.558 150.6C361.465 150.6 362.225 150.907 362.838 151.52C363.451 152.12 363.758 152.847 363.758 153.7C363.758 154.567 363.451 155.3 362.838 155.9C362.225 156.5 361.471 156.8 360.578 156.8ZM360.578 170.52C359.671 170.52 358.918 170.213 358.318 169.6C357.731 168.987 357.438 168.253 357.438 167.4C357.438 166.56 357.731 165.833 358.318 165.22C358.918 164.593 359.665 164.28 360.558 164.28C361.465 164.28 362.225 164.593 362.838 165.22C363.451 165.833 363.758 166.56 363.758 167.4C363.758 168.253 363.451 168.987 362.838 169.6C362.225 170.213 361.471 170.52 360.578 170.52ZM399.395 170V149.56H415.615V170H412.335V152.46H402.655V170H399.395ZM422.803 178.1V149.56H426.063V151.32C426.69 150.733 427.423 150.213 428.263 149.76C429.103 149.307 430.217 149.08 431.603 149.08C433.443 149.08 435.023 149.52 436.343 150.4C437.677 151.267 438.703 152.5 439.423 154.1C440.143 155.7 440.503 157.587 440.503 159.76C440.503 162.04 440.123 163.98 439.363 165.58C438.617 167.167 437.577 168.38 436.243 169.22C434.923 170.06 433.417 170.48 431.723 170.48C430.23 170.48 429.05 170.24 428.183 169.76C427.33 169.267 426.623 168.687 426.063 168.02V176.52L422.803 178.1ZM431.323 167.48C433.177 167.48 434.61 166.82 435.623 165.5C436.637 164.167 437.143 162.253 437.143 159.76C437.143 157.427 436.623 155.56 435.583 154.16C434.543 152.76 433.077 152.06 431.183 152.06C430.063 152.06 429.057 152.313 428.163 152.82C427.283 153.327 426.583 154.033 426.063 154.94V164.6C426.69 165.413 427.423 166.1 428.263 166.66C429.103 167.207 430.123 167.48 431.323 167.48ZM454.392 170.48C452.485 170.48 450.819 170.06 449.392 169.22C447.965 168.38 446.852 167.167 446.052 165.58C445.265 163.98 444.872 162.053 444.872 159.8C444.872 157.573 445.265 155.66 446.052 154.06C446.852 152.46 447.965 151.233 449.392 150.38C450.819 149.513 452.485 149.08 454.392 149.08C456.312 149.08 457.985 149.5 459.412 150.34C460.852 151.18 461.965 152.4 462.752 154C463.539 155.6 463.932 157.52 463.932 159.76C463.932 161.987 463.539 163.9 462.752 165.5C461.965 167.1 460.852 168.333 459.412 169.2C457.985 170.053 456.312 170.48 454.392 170.48ZM454.392 167.48C456.365 167.48 457.885 166.793 458.952 165.42C460.032 164.047 460.572 162.16 460.572 159.76C460.572 157.373 460.052 155.493 459.012 154.12C457.972 152.747 456.432 152.06 454.392 152.06C452.379 152.06 450.845 152.733 449.792 154.08C448.739 155.413 448.212 157.32 448.212 159.8C448.212 162.173 448.739 164.047 449.792 165.42C450.845 166.793 452.379 167.48 454.392 167.48ZM471.32 167.36V163L481.92 149.56H485.64L471.32 167.36ZM469.66 170V149.56H472.92V170H469.66ZM483.56 170L477.08 158.04L479.22 155.38L487.2 170H483.56ZM499.949 170.48C498.522 170.48 497.255 170.227 496.149 169.72C495.055 169.2 494.195 168.433 493.569 167.42C492.955 166.393 492.649 165.113 492.649 163.58C492.649 162.007 493.022 160.727 493.769 159.74C494.515 158.74 495.482 158.007 496.669 157.54C497.855 157.06 499.115 156.82 500.449 156.82C501.449 156.82 502.395 156.92 503.289 157.12C504.195 157.32 505.115 157.673 506.049 158.18V156.58C506.049 155.327 505.849 154.367 505.449 153.7C505.049 153.02 504.515 152.553 503.849 152.3C503.182 152.047 502.455 151.92 501.669 151.92C500.575 151.92 499.435 152.147 498.249 152.6C497.075 153.04 496.055 153.533 495.189 154.08L494.249 151.34C495.142 150.793 496.269 150.28 497.629 149.8C499.002 149.32 500.455 149.08 501.989 149.08C502.762 149.08 503.562 149.18 504.389 149.38C505.215 149.567 505.989 149.92 506.709 150.44C507.429 150.96 508.009 151.693 508.449 152.64C508.889 153.573 509.109 154.793 509.109 156.3V170H506.049V168.1C505.289 168.78 504.395 169.347 503.369 169.8C502.355 170.253 501.215 170.48 499.949 170.48ZM500.369 167.64C501.662 167.64 502.782 167.34 503.729 166.74C504.675 166.127 505.449 165.467 506.049 164.76V161.12C505.409 160.72 504.622 160.373 503.689 160.08C502.755 159.787 501.809 159.64 500.849 159.64C499.475 159.64 498.275 159.96 497.249 160.6C496.222 161.227 495.709 162.22 495.709 163.58C495.709 164.793 496.109 165.773 496.909 166.52C497.722 167.267 498.875 167.64 500.369 167.64ZM529.677 170V160.46C529.064 161.327 528.271 161.987 527.297 162.44C526.337 162.893 525.211 163.12 523.917 163.12C522.117 163.12 520.644 162.787 519.497 162.12C518.364 161.44 517.524 160.413 516.977 159.04C516.444 157.667 516.177 155.933 516.177 153.84V149.56H519.437V154.5C519.437 156.473 519.877 157.913 520.757 158.82C521.651 159.713 522.871 160.16 524.417 160.16C526.031 160.16 527.311 159.753 528.257 158.94C529.204 158.113 529.677 156.66 529.677 154.58V149.56H532.917V170H529.677ZM546.846 170.48C545.419 170.48 544.152 170.227 543.046 169.72C541.952 169.2 541.092 168.433 540.466 167.42C539.852 166.393 539.546 165.113 539.546 163.58C539.546 162.007 539.919 160.727 540.666 159.74C541.412 158.74 542.379 158.007 543.566 157.54C544.752 157.06 546.012 156.82 547.346 156.82C548.346 156.82 549.292 156.92 550.186 157.12C551.092 157.32 552.012 157.673 552.946 158.18V156.58C552.946 155.327 552.746 154.367 552.346 153.7C551.946 153.02 551.412 152.553 550.746 152.3C550.079 152.047 549.352 151.92 548.566 151.92C547.472 151.92 546.332 152.147 545.146 152.6C543.972 153.04 542.952 153.533 542.086 154.08L541.146 151.34C542.039 150.793 543.166 150.28 544.526 149.8C545.899 149.32 547.352 149.08 548.886 149.08C549.659 149.08 550.459 149.18 551.286 149.38C552.112 149.567 552.886 149.92 553.606 150.44C554.326 150.96 554.906 151.693 555.346 152.64C555.786 153.573 556.006 154.793 556.006 156.3V170H552.946V168.1C552.186 168.78 551.292 169.347 550.266 169.8C549.252 170.253 548.112 170.48 546.846 170.48ZM547.266 167.64C548.559 167.64 549.679 167.34 550.626 166.74C551.572 166.127 552.346 165.467 552.946 164.76V161.12C552.306 160.72 551.519 160.373 550.586 160.08C549.652 159.787 548.706 159.64 547.746 159.64C546.372 159.64 545.172 159.96 544.146 160.6C543.119 161.227 542.606 162.22 542.606 163.58C542.606 164.793 543.006 165.773 543.806 166.52C544.619 167.267 545.772 167.64 547.266 167.64ZM569.994 170V152.46H563.214V149.56H580.054V152.46H573.234V170H569.994ZM588.063 170V149.56H591.323V157.3H596.523C598.656 157.3 600.363 157.88 601.643 159.04C602.923 160.2 603.563 161.74 603.563 163.66C603.563 165.567 602.923 167.1 601.643 168.26C600.363 169.42 598.656 170 596.523 170H588.063ZM591.323 167.08H596.543C597.729 167.08 598.649 166.78 599.303 166.18C599.956 165.567 600.283 164.727 600.283 163.66C600.283 162.58 599.949 161.733 599.283 161.12C598.616 160.507 597.703 160.2 596.543 160.2H591.323V167.08ZM618.991 170.48C616.351 170.48 614.258 169.547 612.711 167.68C611.178 165.813 610.411 163.187 610.411 159.8C610.411 157.56 610.764 155.64 611.471 154.04C612.178 152.44 613.191 151.213 614.511 150.36C615.831 149.507 617.411 149.08 619.251 149.08C620.971 149.08 622.451 149.467 623.691 150.24C624.944 151.013 625.864 152.16 626.451 153.68L623.451 154.8C623.118 154.013 622.611 153.36 621.931 152.84C621.251 152.32 620.331 152.06 619.171 152.06C617.278 152.06 615.904 152.76 615.051 154.16C614.198 155.547 613.771 157.427 613.771 159.8C613.771 162.213 614.204 164.1 615.071 165.46C615.938 166.807 617.278 167.48 619.091 167.48C620.238 167.48 621.204 167.207 621.991 166.66C622.791 166.113 623.364 165.36 623.711 164.4L626.691 165.46C626.171 167.033 625.238 168.267 623.891 169.16C622.544 170.04 620.911 170.48 618.991 170.48ZM646.519 170V162.26H641.359C639.226 162.26 637.519 161.68 636.239 160.52C634.959 159.347 634.319 157.807 634.319 155.9C634.319 153.967 634.959 152.427 636.239 151.28C637.519 150.133 639.219 149.56 641.339 149.56H649.759V170H646.519ZM632.619 170L639.459 160.76H643.179L636.519 170H632.619ZM641.359 159.34H646.519V152.48H641.359C640.173 152.48 639.246 152.78 638.579 153.38C637.926 153.98 637.599 154.82 637.599 155.9C637.599 156.967 637.933 157.807 638.599 158.42C639.266 159.033 640.186 159.34 641.359 159.34ZM664.368 176.98L662.688 176.36C663.301 175.64 663.868 174.753 664.388 173.7C664.908 172.647 665.188 171.64 665.228 170.68C664.481 170.613 663.861 170.347 663.368 169.88C662.888 169.413 662.648 168.793 662.648 168.02C662.648 167.207 662.914 166.553 663.448 166.06C663.994 165.553 664.628 165.3 665.348 165.3C666.121 165.3 666.794 165.587 667.368 166.16C667.954 166.733 668.248 167.613 668.248 168.8C668.248 169.96 668.054 171.073 667.668 172.14C667.281 173.207 666.788 174.16 666.188 175C665.588 175.853 664.981 176.513 664.368 176.98ZM712.325 170.48C709.431 170.48 707.118 169.547 705.385 167.68C703.665 165.8 702.805 163.173 702.805 159.8V157.1C702.805 153.633 703.225 150.827 704.065 148.68C704.918 146.52 706.165 144.907 707.805 143.84C709.458 142.76 711.485 142.113 713.885 141.9L720.685 141.28L718.725 144.52L713.705 144.96C712.171 145.093 710.938 145.407 710.005 145.9C709.071 146.38 708.325 147.08 707.765 148C707.218 148.92 706.765 150.093 706.405 151.52C706.351 151.76 706.298 151.987 706.245 152.2C706.205 152.4 706.165 152.633 706.125 152.9C706.218 152.713 706.331 152.5 706.465 152.26C706.598 152.02 706.765 151.787 706.965 151.56C707.578 150.827 708.365 150.233 709.325 149.78C710.298 149.313 711.491 149.08 712.905 149.08C714.625 149.08 716.158 149.507 717.505 150.36C718.851 151.2 719.911 152.42 720.685 154.02C721.471 155.607 721.865 157.52 721.865 159.76C721.865 162 721.465 163.92 720.665 165.52C719.865 167.12 718.751 168.347 717.325 169.2C715.898 170.053 714.231 170.48 712.325 170.48ZM712.325 167.48C714.218 167.48 715.718 166.807 716.825 165.46C717.945 164.1 718.505 162.2 718.505 159.76C718.505 157.333 717.951 155.447 716.845 154.1C715.738 152.74 714.238 152.06 712.345 152.06C710.531 152.06 709.045 152.74 707.885 154.1C706.725 155.447 706.145 157.347 706.145 159.8C706.145 162.213 706.691 164.1 707.785 165.46C708.878 166.807 710.391 167.48 712.325 167.48ZM727.633 178.1V149.56H730.893V151.32C731.52 150.733 732.253 150.213 733.093 149.76C733.933 149.307 735.046 149.08 736.433 149.08C738.273 149.08 739.853 149.52 741.173 150.4C742.506 151.267 743.533 152.5 744.253 154.1C744.973 155.7 745.333 157.587 745.333 159.76C745.333 162.04 744.953 163.98 744.193 165.58C743.446 167.167 742.406 168.38 741.073 169.22C739.753 170.06 738.246 170.48 736.553 170.48C735.06 170.48 733.88 170.24 733.013 169.76C732.16 169.267 731.453 168.687 730.893 168.02V176.52L727.633 178.1ZM736.153 167.48C738.006 167.48 739.44 166.82 740.453 165.5C741.466 164.167 741.973 162.253 741.973 159.76C741.973 157.427 741.453 155.56 740.413 154.16C739.373 152.76 737.906 152.06 736.013 152.06C734.893 152.06 733.886 152.313 732.993 152.82C732.113 153.327 731.413 154.033 730.893 154.94V164.6C731.52 165.413 732.253 166.1 733.093 166.66C733.933 167.207 734.953 167.48 736.153 167.48ZM759.222 170.48C757.315 170.48 755.648 170.06 754.222 169.22C752.795 168.38 751.682 167.167 750.882 165.58C750.095 163.98 749.702 162.053 749.702 159.8C749.702 157.573 750.095 155.66 750.882 154.06C751.682 152.46 752.795 151.233 754.222 150.38C755.648 149.513 757.315 149.08 759.222 149.08C761.142 149.08 762.815 149.5 764.242 150.34C765.682 151.18 766.795 152.4 767.582 154C768.368 155.6 768.762 157.52 768.762 159.76C768.762 161.987 768.368 163.9 767.582 165.5C766.795 167.1 765.682 168.333 764.242 169.2C762.815 170.053 761.142 170.48 759.222 170.48ZM759.222 167.48C761.195 167.48 762.715 166.793 763.782 165.42C764.862 164.047 765.402 162.16 765.402 159.76C765.402 157.373 764.882 155.493 763.842 154.12C762.802 152.747 761.262 152.06 759.222 152.06C757.208 152.06 755.675 152.733 754.622 154.08C753.568 155.413 753.042 157.32 753.042 159.8C753.042 162.173 753.568 164.047 754.622 165.42C755.675 166.793 757.208 167.48 759.222 167.48ZM782.67 170.54C781.897 170.54 781.257 170.273 780.75 169.74C780.243 169.193 779.99 168.573 779.99 167.88C779.99 167.187 780.243 166.567 780.75 166.02C781.257 165.473 781.897 165.2 782.67 165.2C783.43 165.2 784.063 165.473 784.57 166.02C785.09 166.567 785.35 167.187 785.35 167.88C785.35 168.573 785.09 169.193 784.57 169.74C784.063 170.273 783.43 170.54 782.67 170.54ZM32.32 210.48C29.4267 210.48 27.1133 209.547 25.38 207.68C23.66 205.8 22.8 203.173 22.8 199.8V197.1C22.8 193.633 23.22 190.827 24.06 188.68C24.9133 186.52 26.16 184.907 27.8 183.84C29.4533 182.76 31.48 182.113 33.88 181.9L40.68 181.28L38.72 184.52L33.7 184.96C32.1667 185.093 30.9333 185.407 30 185.9C29.0667 186.38 28.32 187.08 27.76 188C27.2133 188.92 26.76 190.093 26.4 191.52C26.3467 191.76 26.2933 191.987 26.24 192.2C26.2 192.4 26.16 192.633 26.12 192.9C26.2133 192.713 26.3267 192.5 26.46 192.26C26.5933 192.02 26.76 191.787 26.96 191.56C27.5733 190.827 28.36 190.233 29.32 189.78C30.2933 189.313 31.4867 189.08 32.9 189.08C34.62 189.08 36.1533 189.507 37.5 190.36C38.8467 191.2 39.9067 192.42 40.68 194.02C41.4667 195.607 41.86 197.52 41.86 199.76C41.86 202 41.46 203.92 40.66 205.52C39.86 207.12 38.7467 208.347 37.32 209.2C35.8933 210.053 34.2267 210.48 32.32 210.48ZM32.32 207.48C34.2133 207.48 35.7133 206.807 36.82 205.46C37.94 204.1 38.5 202.2 38.5 199.76C38.5 197.333 37.9467 195.447 36.84 194.1C35.7333 192.74 34.2333 192.06 32.34 192.06C30.5267 192.06 29.04 192.74 27.88 194.1C26.72 195.447 26.14 197.347 26.14 199.8C26.14 202.213 26.6867 204.1 27.78 205.46C28.8733 206.807 30.3867 207.48 32.32 207.48ZM56.1884 210.48C54.2284 210.48 52.5484 210 51.1484 209.04C49.7618 208.08 48.7018 206.787 47.9684 205.16C47.2351 203.533 46.8684 201.733 46.8684 199.76C46.8684 197.507 47.2551 195.587 48.0284 194C48.8018 192.4 49.8818 191.18 51.2684 190.34C52.6684 189.5 54.3084 189.08 56.1884 189.08C57.7218 189.08 59.1284 189.427 60.4084 190.12C61.7018 190.813 62.7351 191.887 63.5084 193.34C64.2818 194.78 64.6684 196.633 64.6684 198.9C64.6684 199.153 64.6618 199.467 64.6484 199.84C64.6484 200.2 64.6218 200.613 64.5684 201.08H49.4284V198.2H61.4084C61.3818 196.573 61.0884 195.313 60.5284 194.42C59.9818 193.513 59.3084 192.88 58.5084 192.52C57.7084 192.16 56.9351 191.98 56.1884 191.98C54.1084 191.98 52.5818 192.64 51.6084 193.96C50.6351 195.267 50.1484 197.02 50.1484 199.22C50.1484 201.78 50.6884 203.8 51.7684 205.28C52.8484 206.76 54.3551 207.5 56.2884 207.5C57.1018 207.5 57.9084 207.373 58.7084 207.12C59.5084 206.853 60.2951 206.413 61.0684 205.8L62.9084 207.94C62.0551 208.673 61.0484 209.28 59.8884 209.76C58.7418 210.24 57.5084 210.48 56.1884 210.48ZM79.2569 210.48C77.2169 210.48 75.4169 210.02 73.8569 209.1C72.3102 208.18 71.1635 206.893 70.4169 205.24L73.2969 204.2C73.8569 205.293 74.6369 206.127 75.6369 206.7C76.6369 207.273 77.8435 207.56 79.2569 207.56C80.6835 207.56 81.8035 207.267 82.6169 206.68C83.4435 206.093 83.8569 205.313 83.8569 204.34C83.8569 203.353 83.4302 202.567 82.5769 201.98C81.7235 201.393 80.5435 201.1 79.0369 201.1H75.5769V198.22H78.9969C80.2102 198.22 81.1835 197.92 81.9169 197.32C82.6635 196.707 83.0369 195.9 83.0369 194.9C83.0369 193.98 82.6902 193.267 81.9969 192.76C81.3035 192.24 80.3635 191.98 79.1769 191.98C77.9235 191.98 76.8502 192.24 75.9569 192.76C75.0635 193.28 74.3635 194.06 73.8569 195.1L71.1369 193.92C71.7902 192.4 72.8302 191.213 74.2569 190.36C75.6969 189.507 77.3502 189.08 79.2169 189.08C81.3902 189.08 83.1235 189.6 84.4169 190.64C85.7102 191.667 86.3569 193.027 86.3569 194.72C86.3569 195.733 86.0702 196.647 85.4969 197.46C84.9369 198.273 84.0502 198.933 82.8369 199.44C84.3169 199.84 85.4102 200.493 86.1169 201.4C86.8235 202.293 87.1769 203.307 87.1769 204.44C87.1769 206.227 86.4635 207.68 85.0369 208.8C83.6235 209.92 81.6969 210.48 79.2569 210.48ZM126.114 210.36L120.414 197.88C120.28 197.627 120.16 197.38 120.054 197.14C119.947 196.887 119.834 196.62 119.714 196.34C119.74 196.607 119.754 196.86 119.754 197.1C119.754 197.34 119.754 197.613 119.754 197.92V210H116.494V189.56H119.934L125.414 201.54C125.574 201.86 125.707 202.153 125.814 202.42C125.934 202.687 126.034 202.92 126.114 203.12C126.194 202.92 126.294 202.687 126.414 202.42C126.534 202.153 126.667 201.86 126.814 201.54L132.334 189.56H135.734V210H132.494V197.92C132.494 197.587 132.494 197.3 132.494 197.06C132.507 196.807 132.52 196.567 132.534 196.34C132.414 196.58 132.3 196.827 132.194 197.08C132.087 197.333 131.967 197.6 131.834 197.88L126.114 210.36ZM154.102 210V202.26H148.942C146.809 202.26 145.102 201.68 143.822 200.52C142.542 199.347 141.902 197.807 141.902 195.9C141.902 193.967 142.542 192.427 143.822 191.28C145.102 190.133 146.802 189.56 148.922 189.56H157.342V210H154.102ZM140.202 210L147.042 200.76H150.762L144.102 210H140.202ZM148.942 199.34H154.102V192.48H148.942C147.756 192.48 146.829 192.78 146.162 193.38C145.509 193.98 145.182 194.82 145.182 195.9C145.182 196.967 145.516 197.807 146.182 198.42C146.849 199.033 147.769 199.34 148.942 199.34ZM166.051 210V189.56H180.931V192.46H169.311V210H166.051ZM189.939 207.36V203L200.539 189.56H204.259L189.939 207.36ZM188.279 210V189.56H191.539V210H188.279ZM202.179 210L195.699 198.04L197.839 195.38L205.819 210H202.179ZM219.907 210.48C218.001 210.48 216.334 210.06 214.907 209.22C213.481 208.38 212.367 207.167 211.567 205.58C210.781 203.98 210.387 202.053 210.387 199.8C210.387 197.573 210.781 195.66 211.567 194.06C212.367 192.46 213.481 191.233 214.907 190.38C216.334 189.513 218.001 189.08 219.907 189.08C221.827 189.08 223.501 189.5 224.927 190.34C226.367 191.18 227.481 192.4 228.267 194C229.054 195.6 229.447 197.52 229.447 199.76C229.447 201.987 229.054 203.9 228.267 205.5C227.481 207.1 226.367 208.333 224.927 209.2C223.501 210.053 221.827 210.48 219.907 210.48ZM219.907 207.48C221.881 207.48 223.401 206.793 224.467 205.42C225.547 204.047 226.087 202.16 226.087 199.76C226.087 197.373 225.567 195.493 224.527 194.12C223.487 192.747 221.947 192.06 219.907 192.06C217.894 192.06 216.361 192.733 215.307 194.08C214.254 195.413 213.727 197.32 213.727 199.8C213.727 202.173 214.254 204.047 215.307 205.42C216.361 206.793 217.894 207.48 219.907 207.48ZM236.396 210V189.56H251.276V192.46H239.656V210H236.396ZM266.804 210.48C264.898 210.48 263.231 210.06 261.804 209.22C260.378 208.38 259.264 207.167 258.464 205.58C257.678 203.98 257.284 202.053 257.284 199.8C257.284 197.573 257.678 195.66 258.464 194.06C259.264 192.46 260.378 191.233 261.804 190.38C263.231 189.513 264.898 189.08 266.804 189.08C268.724 189.08 270.398 189.5 271.824 190.34C273.264 191.18 274.378 192.4 275.164 194C275.951 195.6 276.344 197.52 276.344 199.76C276.344 201.987 275.951 203.9 275.164 205.5C274.378 207.1 273.264 208.333 271.824 209.2C270.398 210.053 268.724 210.48 266.804 210.48ZM266.804 207.48C268.778 207.48 270.298 206.793 271.364 205.42C272.444 204.047 272.984 202.16 272.984 199.76C272.984 197.373 272.464 195.493 271.424 194.12C270.384 192.747 268.844 192.06 266.804 192.06C264.791 192.06 263.258 192.733 262.204 194.08C261.151 195.413 260.624 197.32 260.624 199.8C260.624 202.173 261.151 204.047 262.204 205.42C263.258 206.793 264.791 207.48 266.804 207.48ZM313.741 210.48C311.701 210.48 309.901 210.02 308.341 209.1C306.795 208.18 305.648 206.893 304.901 205.24L307.781 204.2C308.341 205.293 309.121 206.127 310.121 206.7C311.121 207.273 312.328 207.56 313.741 207.56C315.168 207.56 316.288 207.267 317.101 206.68C317.928 206.093 318.341 205.313 318.341 204.34C318.341 203.353 317.915 202.567 317.061 201.98C316.208 201.393 315.028 201.1 313.521 201.1H310.061V198.22H313.481C314.695 198.22 315.668 197.92 316.401 197.32C317.148 196.707 317.521 195.9 317.521 194.9C317.521 193.98 317.175 193.267 316.481 192.76C315.788 192.24 314.848 191.98 313.661 191.98C312.408 191.98 311.335 192.24 310.441 192.76C309.548 193.28 308.848 194.06 308.341 195.1L305.621 193.92C306.275 192.4 307.315 191.213 308.741 190.36C310.181 189.507 311.835 189.08 313.701 189.08C315.875 189.08 317.608 189.6 318.901 190.64C320.195 191.667 320.841 193.027 320.841 194.72C320.841 195.733 320.555 196.647 319.981 197.46C319.421 198.273 318.535 198.933 317.321 199.44C318.801 199.84 319.895 200.493 320.601 201.4C321.308 202.293 321.661 203.307 321.661 204.44C321.661 206.227 320.948 207.68 319.521 208.8C318.108 209.92 316.181 210.48 313.741 210.48ZM328.73 210V189.56H331.97V197.92H342.33V189.56H345.59V210H342.33V200.82H331.97V210H328.73ZM359.258 210.48C357.831 210.48 356.565 210.227 355.458 209.72C354.365 209.2 353.505 208.433 352.878 207.42C352.265 206.393 351.958 205.113 351.958 203.58C351.958 202.007 352.331 200.727 353.078 199.74C353.825 198.74 354.791 198.007 355.978 197.54C357.165 197.06 358.425 196.82 359.758 196.82C360.758 196.82 361.705 196.92 362.598 197.12C363.505 197.32 364.425 197.673 365.358 198.18V196.58C365.358 195.327 365.158 194.367 364.758 193.7C364.358 193.02 363.825 192.553 363.158 192.3C362.491 192.047 361.765 191.92 360.978 191.92C359.885 191.92 358.745 192.147 357.558 192.6C356.385 193.04 355.365 193.533 354.498 194.08L353.558 191.34C354.451 190.793 355.578 190.28 356.938 189.8C358.311 189.32 359.765 189.08 361.298 189.08C362.071 189.08 362.871 189.18 363.698 189.38C364.525 189.567 365.298 189.92 366.018 190.44C366.738 190.96 367.318 191.693 367.758 192.64C368.198 193.573 368.418 194.793 368.418 196.3V210H365.358V208.1C364.598 208.78 363.705 209.347 362.678 209.8C361.665 210.253 360.525 210.48 359.258 210.48ZM359.678 207.64C360.971 207.64 362.091 207.34 363.038 206.74C363.985 206.127 364.758 205.467 365.358 204.76V201.12C364.718 200.72 363.931 200.373 362.998 200.08C362.065 199.787 361.118 199.64 360.158 199.64C358.785 199.64 357.585 199.96 356.558 200.6C355.531 201.227 355.018 202.22 355.018 203.58C355.018 204.793 355.418 205.773 356.218 206.52C357.031 207.267 358.185 207.64 359.678 207.64ZM377.527 207.36V203L388.127 189.56H391.847L377.527 207.36ZM375.867 210V189.56H379.127V210H375.867ZM389.767 210L383.287 198.04L385.427 195.38L393.407 210H389.767ZM406.155 210.48C404.728 210.48 403.462 210.227 402.355 209.72C401.262 209.2 400.402 208.433 399.775 207.42C399.162 206.393 398.855 205.113 398.855 203.58C398.855 202.007 399.228 200.727 399.975 199.74C400.722 198.74 401.688 198.007 402.875 197.54C404.062 197.06 405.322 196.82 406.655 196.82C407.655 196.82 408.602 196.92 409.495 197.12C410.402 197.32 411.322 197.673 412.255 198.18V196.58C412.255 195.327 412.055 194.367 411.655 193.7C411.255 193.02 410.722 192.553 410.055 192.3C409.388 192.047 408.662 191.92 407.875 191.92C406.782 191.92 405.642 192.147 404.455 192.6C403.282 193.04 402.262 193.533 401.395 194.08L400.455 191.34C401.348 190.793 402.475 190.28 403.835 189.8C405.208 189.32 406.662 189.08 408.195 189.08C408.968 189.08 409.768 189.18 410.595 189.38C411.422 189.567 412.195 189.92 412.915 190.44C413.635 190.96 414.215 191.693 414.655 192.64C415.095 193.573 415.315 194.793 415.315 196.3V210H412.255V208.1C411.495 208.78 410.602 209.347 409.575 209.8C408.562 210.253 407.422 210.48 406.155 210.48ZM406.575 207.64C407.868 207.64 408.988 207.34 409.935 206.74C410.882 206.127 411.655 205.467 412.255 204.76V201.12C411.615 200.72 410.828 200.373 409.895 200.08C408.962 199.787 408.015 199.64 407.055 199.64C405.682 199.64 404.482 199.96 403.455 200.6C402.428 201.227 401.915 202.22 401.915 203.58C401.915 204.793 402.315 205.773 403.115 206.52C403.928 207.267 405.082 207.64 406.575 207.64ZM452.752 210V192.46H445.972V189.56H462.812V192.46H455.992V210H452.752ZM477.84 210.48C475.934 210.48 474.267 210.06 472.84 209.22C471.414 208.38 470.3 207.167 469.5 205.58C468.714 203.98 468.32 202.053 468.32 199.8C468.32 197.573 468.714 195.66 469.5 194.06C470.3 192.46 471.414 191.233 472.84 190.38C474.267 189.513 475.934 189.08 477.84 189.08C479.76 189.08 481.434 189.5 482.86 190.34C484.3 191.18 485.414 192.4 486.2 194C486.987 195.6 487.38 197.52 487.38 199.76C487.38 201.987 486.987 203.9 486.2 205.5C485.414 207.1 484.3 208.333 482.86 209.2C481.434 210.053 479.76 210.48 477.84 210.48ZM477.84 207.48C479.814 207.48 481.334 206.793 482.4 205.42C483.48 204.047 484.02 202.16 484.02 199.76C484.02 197.373 483.5 195.493 482.46 194.12C481.42 192.747 479.88 192.06 477.84 192.06C475.827 192.06 474.294 192.733 473.24 194.08C472.187 195.413 471.66 197.32 471.66 199.8C471.66 202.173 472.187 204.047 473.24 205.42C474.294 206.793 475.827 207.48 477.84 207.48ZM492.049 210.48L490.449 207.84C491.742 207.6 492.682 207.187 493.269 206.6C493.855 206.013 494.222 205.107 494.369 203.88L496.029 189.56H509.489V210H506.229V192.58H498.949L497.589 204.5C497.402 206.233 496.842 207.593 495.909 208.58C494.989 209.553 493.702 210.187 492.049 210.48ZM517.717 210V189.56H520.977V197.3H526.177C528.311 197.3 530.017 197.88 531.297 199.04C532.577 200.2 533.217 201.74 533.217 203.66C533.217 205.567 532.577 207.1 531.297 208.26C530.017 209.42 528.311 210 526.177 210H517.717ZM520.977 207.08H526.197C527.384 207.08 528.304 206.78 528.957 206.18C529.611 205.567 529.937 204.727 529.937 203.66C529.937 202.58 529.604 201.733 528.937 201.12C528.271 200.507 527.357 200.2 526.197 200.2H520.977V207.08ZM541.666 207.36V203L552.266 189.56H555.986L541.666 207.36ZM540.006 210V189.56H543.266V210H540.006ZM553.906 210L547.426 198.04L549.566 195.38L557.546 210H553.906ZM571.634 210.48C569.727 210.48 568.061 210.06 566.634 209.22C565.207 208.38 564.094 207.167 563.294 205.58C562.507 203.98 562.114 202.053 562.114 199.8C562.114 197.573 562.507 195.66 563.294 194.06C564.094 192.46 565.207 191.233 566.634 190.38C568.061 189.513 569.727 189.08 571.634 189.08C573.554 189.08 575.227 189.5 576.654 190.34C578.094 191.18 579.207 192.4 579.994 194C580.781 195.6 581.174 197.52 581.174 199.76C581.174 201.987 580.781 203.9 579.994 205.5C579.207 207.1 578.094 208.333 576.654 209.2C575.227 210.053 573.554 210.48 571.634 210.48ZM571.634 207.48C573.607 207.48 575.127 206.793 576.194 205.42C577.274 204.047 577.814 202.16 577.814 199.76C577.814 197.373 577.294 195.493 576.254 194.12C575.214 192.747 573.674 192.06 571.634 192.06C569.621 192.06 568.087 192.733 567.034 194.08C565.981 195.413 565.454 197.32 565.454 199.8C565.454 202.173 565.981 204.047 567.034 205.42C568.087 206.793 569.621 207.48 571.634 207.48ZM618.531 210.48C616.624 210.48 614.958 210.06 613.531 209.22C612.104 208.38 610.991 207.167 610.191 205.58C609.404 203.98 609.011 202.053 609.011 199.8C609.011 197.573 609.404 195.66 610.191 194.06C610.991 192.46 612.104 191.233 613.531 190.38C614.958 189.513 616.624 189.08 618.531 189.08C620.451 189.08 622.124 189.5 623.551 190.34C624.991 191.18 626.104 192.4 626.891 194C627.678 195.6 628.071 197.52 628.071 199.76C628.071 201.987 627.678 203.9 626.891 205.5C626.104 207.1 624.991 208.333 623.551 209.2C622.124 210.053 620.451 210.48 618.531 210.48ZM618.531 207.48C620.504 207.48 622.024 206.793 623.091 205.42C624.171 204.047 624.711 202.16 624.711 199.76C624.711 197.373 624.191 195.493 623.151 194.12C622.111 192.747 620.571 192.06 618.531 192.06C616.518 192.06 614.984 192.733 613.931 194.08C612.878 195.413 612.351 197.32 612.351 199.8C612.351 202.173 612.878 204.047 613.931 205.42C614.984 206.793 616.518 207.48 618.531 207.48ZM633.839 218.1V189.56H637.099V191.32C637.726 190.733 638.459 190.213 639.299 189.76C640.139 189.307 641.253 189.08 642.639 189.08C644.479 189.08 646.059 189.52 647.379 190.4C648.713 191.267 649.739 192.5 650.459 194.1C651.179 195.7 651.539 197.587 651.539 199.76C651.539 202.04 651.159 203.98 650.399 205.58C649.653 207.167 648.613 208.38 647.279 209.22C645.959 210.06 644.453 210.48 642.759 210.48C641.266 210.48 640.086 210.24 639.219 209.76C638.366 209.267 637.659 208.687 637.099 208.02V216.52L633.839 218.1ZM642.359 207.48C644.213 207.48 645.646 206.82 646.659 205.5C647.673 204.167 648.179 202.253 648.179 199.76C648.179 197.427 647.659 195.56 646.619 194.16C645.579 192.76 644.113 192.06 642.219 192.06C641.099 192.06 640.093 192.313 639.199 192.82C638.319 193.327 637.619 194.033 637.099 194.94V204.6C637.726 205.413 638.459 206.1 639.299 206.66C640.139 207.207 641.159 207.48 642.359 207.48ZM658.908 207.36V203L669.508 189.56H673.228L658.908 207.36ZM657.248 210V189.56H660.508V210H657.248ZM671.148 210L664.668 198.04L666.808 195.38L674.788 210H671.148ZM680.516 210V189.56H683.756V204.3L694.036 189.56H697.256V210H693.996V195.3L683.736 210H680.516ZM25.8 247.36V243L36.4 229.56H40.12L25.8 247.36ZM24.14 250V229.56H27.4V250H24.14ZM38.04 250L31.56 238.04L33.7 235.38L41.68 250H38.04ZM54.4284 250.48C53.0018 250.48 51.7351 250.227 50.6284 249.72C49.5351 249.2 48.6751 248.433 48.0484 247.42C47.4351 246.393 47.1284 245.113 47.1284 243.58C47.1284 242.007 47.5018 240.727 48.2484 239.74C48.9951 238.74 49.9618 238.007 51.1484 237.54C52.3351 237.06 53.5951 236.82 54.9284 236.82C55.9284 236.82 56.8751 236.92 57.7684 237.12C58.6751 237.32 59.5951 237.673 60.5284 238.18V236.58C60.5284 235.327 60.3284 234.367 59.9284 233.7C59.5284 233.02 58.9951 232.553 58.3284 232.3C57.6618 232.047 56.9351 231.92 56.1484 231.92C55.0551 231.92 53.9151 232.147 52.7284 232.6C51.5551 233.04 50.5351 233.533 49.6684 234.08L48.7284 231.34C49.6218 230.793 50.7484 230.28 52.1084 229.8C53.4818 229.32 54.9351 229.08 56.4684 229.08C57.2418 229.08 58.0418 229.18 58.8684 229.38C59.6951 229.567 60.4684 229.92 61.1884 230.44C61.9084 230.96 62.4884 231.693 62.9284 232.64C63.3684 233.573 63.5884 234.793 63.5884 236.3V250H60.5284V248.1C59.7684 248.78 58.8751 249.347 57.8484 249.8C56.8351 250.253 55.6951 250.48 54.4284 250.48ZM54.8484 247.64C56.1418 247.64 57.2618 247.34 58.2084 246.74C59.1551 246.127 59.9284 245.467 60.5284 244.76V241.12C59.8884 240.72 59.1018 240.373 58.1684 240.08C57.2351 239.787 56.2884 239.64 55.3284 239.64C53.9551 239.64 52.7551 239.96 51.7284 240.6C50.7018 241.227 50.1884 242.22 50.1884 243.58C50.1884 244.793 50.5884 245.773 51.3884 246.52C52.2018 247.267 53.3551 247.64 54.8484 247.64ZM84.1569 250V240.46C83.5435 241.327 82.7502 241.987 81.7769 242.44C80.8169 242.893 79.6902 243.12 78.3969 243.12C76.5969 243.12 75.1235 242.787 73.9769 242.12C72.8435 241.44 72.0035 240.413 71.4569 239.04C70.9235 237.667 70.6569 235.933 70.6569 233.84V229.56H73.9169V234.5C73.9169 236.473 74.3569 237.913 75.2369 238.82C76.1302 239.713 77.3502 240.16 78.8969 240.16C80.5102 240.16 81.7902 239.753 82.7369 238.94C83.6835 238.113 84.1569 236.66 84.1569 234.58V229.56H87.3969V250H84.1569ZM101.325 250.48C99.8986 250.48 98.632 250.227 97.5253 249.72C96.432 249.2 95.572 248.433 94.9453 247.42C94.332 246.393 94.0253 245.113 94.0253 243.58C94.0253 242.007 94.3986 240.727 95.1453 239.74C95.892 238.74 96.8586 238.007 98.0453 237.54C99.232 237.06 100.492 236.82 101.825 236.82C102.825 236.82 103.772 236.92 104.665 237.12C105.572 237.32 106.492 237.673 107.425 238.18V236.58C107.425 235.327 107.225 234.367 106.825 233.7C106.425 233.02 105.892 232.553 105.225 232.3C104.559 232.047 103.832 231.92 103.045 231.92C101.952 231.92 100.812 232.147 99.6253 232.6C98.452 233.04 97.432 233.533 96.5653 234.08L95.6253 231.34C96.5186 230.793 97.6453 230.28 99.0053 229.8C100.379 229.32 101.832 229.08 103.365 229.08C104.139 229.08 104.939 229.18 105.765 229.38C106.592 229.567 107.365 229.92 108.085 230.44C108.805 230.96 109.385 231.693 109.825 232.64C110.265 233.573 110.485 234.793 110.485 236.3V250H107.425V248.1C106.665 248.78 105.772 249.347 104.745 249.8C103.732 250.253 102.592 250.48 101.325 250.48ZM101.745 247.64C103.039 247.64 104.159 247.34 105.105 246.74C106.052 246.127 106.825 245.467 107.425 244.76V241.12C106.785 240.72 105.999 240.373 105.065 240.08C104.132 239.787 103.185 239.64 102.225 239.64C100.852 239.64 99.652 239.96 98.6253 240.6C97.5986 241.227 97.0853 242.22 97.0853 243.58C97.0853 244.793 97.4853 245.773 98.2853 246.52C99.0986 247.267 100.252 247.64 101.745 247.64ZM129.774 250.48C127.867 250.48 126.334 249.673 125.174 248.06C124.014 246.447 123.334 244.153 123.134 241.18H119.494V250H116.334V229.56H119.494V238.34H123.134C123.347 235.393 124.034 233.113 125.194 231.5C126.354 229.887 127.88 229.08 129.774 229.08C131.894 229.08 133.547 230.02 134.734 231.9C135.92 233.767 136.514 236.387 136.514 239.76C136.514 243.12 135.92 245.747 134.734 247.64C133.547 249.533 131.894 250.48 129.774 250.48ZM129.774 247.6C130.947 247.6 131.834 246.907 132.434 245.52C133.034 244.133 133.334 242.213 133.334 239.76C133.334 237.32 133.04 235.407 132.454 234.02C131.867 232.633 130.974 231.94 129.774 231.94C128.587 231.94 127.7 232.62 127.114 233.98C126.527 235.327 126.234 237.267 126.234 239.8C126.234 242.227 126.527 244.133 127.114 245.52C127.7 246.907 128.587 247.6 129.774 247.6ZM147.922 250V232.46H141.142V229.56H157.982V232.46H151.162V250H147.922ZM173.471 250.48C170.831 250.48 168.737 249.547 167.191 247.68C165.657 245.813 164.891 243.187 164.891 239.8C164.891 237.56 165.244 235.64 165.951 234.04C166.657 232.44 167.671 231.213 168.991 230.36C170.311 229.507 171.891 229.08 173.731 229.08C175.451 229.08 176.931 229.467 178.171 230.24C179.424 231.013 180.344 232.16 180.931 233.68L177.931 234.8C177.597 234.013 177.091 233.36 176.411 232.84C175.731 232.32 174.811 232.06 173.651 232.06C171.757 232.06 170.384 232.76 169.531 234.16C168.677 235.547 168.251 237.427 168.251 239.8C168.251 242.213 168.684 244.1 169.551 245.46C170.417 246.807 171.757 247.48 173.571 247.48C174.717 247.48 175.684 247.207 176.471 246.66C177.271 246.113 177.844 245.36 178.191 244.4L181.171 245.46C180.651 247.033 179.717 248.267 178.371 249.16C177.024 250.04 175.391 250.48 173.471 250.48ZM200.999 250V242.26H195.839C193.706 242.26 191.999 241.68 190.719 240.52C189.439 239.347 188.799 237.807 188.799 235.9C188.799 233.967 189.439 232.427 190.719 231.28C191.999 230.133 193.699 229.56 195.819 229.56H204.239V250H200.999ZM187.099 250L193.939 240.76H197.659L190.999 250H187.099ZM195.839 239.34H200.999V232.48H195.839C194.652 232.48 193.726 232.78 193.059 233.38C192.406 233.98 192.079 234.82 192.079 235.9C192.079 236.967 192.412 237.807 193.079 238.42C193.746 239.033 194.666 239.34 195.839 239.34ZM219.907 250.54C219.134 250.54 218.494 250.273 217.987 249.74C217.481 249.193 217.227 248.573 217.227 247.88C217.227 247.187 217.481 246.567 217.987 246.02C218.494 245.473 219.134 245.2 219.907 245.2C220.667 245.2 221.301 245.473 221.807 246.02C222.327 246.567 222.587 247.187 222.587 247.88C222.587 248.573 222.327 249.193 221.807 249.74C221.301 250.273 220.667 250.54 219.907 250.54Z" fill="#5DCF00"/>
<path d="M900 260V310H850L900 260Z" fill="white"/>
</svg>
