<svg width="500" height="250" viewBox="0 0 500 250" fill="none" xmlns="http://www.w3.org/2000/svg">
<rect width="500" height="250" rx="20" fill="black"/>
<rect x="22.25" y="55.3843" width="441.701" height="48.4413" rx="9.35053" transform="rotate(-5 22.25 55.3843)" fill="#FF0004"/>
<path d="M59.8975 89.4534L54.4032 89.9341L52.5027 68.2114L40.768 69.238L42.6685 90.9608L37.1741 91.4415L34.8773 65.1886L57.6007 63.2005L59.8975 89.4534ZM73.1408 88.6981C71.1638 88.8711 69.4181 88.6144 67.9037 87.928C66.3893 87.2416 65.1715 86.1749 64.2505 84.7278C63.3295 83.2806 62.7767 81.5019 62.5921 79.3914L62.5889 79.3551C62.4053 77.2568 62.648 75.4206 63.3169 73.8466C63.9847 72.2605 65.0048 70.9979 66.377 70.059C67.7493 69.1201 69.4057 68.5658 71.3463 68.396C73.2991 68.2252 75.0326 68.4829 76.5471 69.1693C78.0726 69.8424 79.3019 70.9021 80.235 72.3481C81.1671 73.7821 81.7255 75.5543 81.9101 77.6647L81.9133 77.7011C82.099 79.8236 81.8579 81.6779 81.19 83.2641C80.5343 84.8492 79.5203 86.1112 78.1481 87.0501C76.7748 87.9768 75.1057 88.5262 73.1408 88.6981ZM72.7945 84.5302C73.6557 84.4549 74.3814 84.1592 74.9718 83.6431C75.5733 83.1139 76.0051 82.3917 76.2672 81.4765C76.5404 80.5482 76.6213 79.4473 76.5099 78.1738L76.5067 78.1374C76.3964 76.876 76.1266 75.818 75.6974 74.9634C75.2682 74.1087 74.712 73.4791 74.0288 73.0744C73.3446 72.6576 72.572 72.4869 71.7108 72.5623C70.8618 72.6365 70.1366 72.9383 69.5351 73.4676C68.9447 73.9837 68.5124 74.6998 68.2381 75.616C67.9639 76.5321 67.8819 77.6209 67.9923 78.8823L67.9954 78.9187C68.1069 80.1922 68.3716 81.2629 68.7898 82.1307C69.219 82.9854 69.7757 83.6211 70.4599 84.0379C71.143 84.4425 71.9213 84.6066 72.7945 84.5302ZM91.5996 77.5686C91.6549 79.4581 91.5308 81.1128 91.2273 82.5326C90.9237 83.9524 90.35 85.0781 89.5061 85.9097C88.6623 86.7413 87.4398 87.2271 85.8388 87.3672C85.3537 87.4096 84.9386 87.4154 84.5937 87.3844C84.2499 87.3656 83.997 87.3389 83.8351 87.3042L83.4451 82.8468C83.5564 82.8615 83.7041 82.873 83.8881 82.8814C84.0722 82.8897 84.2855 82.8833 84.5281 82.8621C85.1588 82.8069 85.6467 82.587 85.9919 82.2023C86.3361 81.8056 86.5663 81.2232 86.6824 80.4553C86.8107 79.6864 86.8542 78.7171 86.813 77.5474L86.5181 67.472L101.764 66.1381L103.47 85.6413L98.1579 86.1061L96.8034 70.6236L91.4364 71.0932L91.5996 77.5686ZM127.467 83.5418L126.769 75.555L119.309 76.2076L120.008 84.1944L114.696 84.6592L112.989 65.156L118.302 64.6913L118.958 72.1869L126.417 71.5343L125.761 64.0387L131.073 63.5739L132.78 83.0771L127.467 83.5418ZM145.55 82.3631C143.573 82.5361 141.827 82.2794 140.313 81.593C138.798 80.9067 137.581 79.8399 136.66 78.3928C135.739 76.9457 135.186 75.1669 135.001 73.0565L134.998 73.0201C134.814 70.9218 135.057 69.0856 135.726 67.5116C136.394 65.9255 137.414 64.663 138.786 63.7241C140.158 62.7852 141.815 62.2308 143.755 62.061C145.708 61.8902 147.442 62.1479 148.956 62.8343C150.482 63.5075 151.711 64.5671 152.644 66.0132C153.576 67.4471 154.135 69.2193 154.319 71.3297L154.322 71.3661C154.508 73.4886 154.267 75.343 153.599 76.9291C152.943 78.5142 151.929 79.7762 150.557 80.7151C149.184 81.6419 147.515 82.1912 145.55 82.3631ZM145.204 78.1953C146.065 78.1199 146.791 77.8242 147.381 77.3081C147.982 76.7789 148.414 76.0567 148.676 75.1416C148.95 74.2133 149.03 73.1123 148.919 71.8388L148.916 71.8024C148.806 70.541 148.536 69.483 148.107 68.6284C147.677 67.7737 147.121 67.1441 146.438 66.7394C145.754 66.3227 144.981 66.1519 144.12 66.2273C143.271 66.3016 142.546 66.6033 141.944 67.1326C141.354 67.6487 140.922 68.3648 140.647 69.281C140.373 70.1972 140.291 71.2859 140.401 72.5473L140.405 72.5837C140.516 73.8573 140.781 74.9279 141.199 75.7958C141.628 76.6504 142.185 77.2861 142.869 77.7029C143.552 78.1075 144.33 78.2717 145.204 78.1953ZM175.425 79.3461L170.112 79.8109L169.398 71.6421L169.288 71.6517C168.774 72.3322 168.089 72.8871 167.234 73.3163C166.38 73.7455 165.431 74.0057 164.388 74.097C162.156 74.2922 160.348 73.8149 158.964 72.6649C157.591 71.5017 156.808 69.8164 156.615 67.609L156.071 61.3869L161.383 60.9221L161.853 66.2891C161.956 67.4656 162.349 68.3295 163.033 68.8808C163.716 69.4199 164.639 69.6385 165.804 69.5366C166.289 69.4942 166.739 69.3998 167.154 69.2535C167.58 69.094 167.954 68.8963 168.275 68.6604C168.609 68.4235 168.873 68.162 169.068 67.8761L168.406 60.3077L173.718 59.8429L175.425 79.3461ZM179.245 79.0118L177.539 59.5087L182.76 59.0518L183.825 71.2231L186.372 71.0003L182.879 73.3959L190.638 58.3626L195.841 57.9074L197.548 77.4106L192.326 77.8674L191.247 65.5324L188.682 65.7568L192.157 63.3628L184.449 78.5566L179.245 79.0118ZM208.755 76.4301L207.048 56.9269L224.951 55.3607L226.657 74.8639L221.344 75.3286L219.988 59.828L212.711 60.4647L214.067 75.9653L208.755 76.4301ZM230.477 74.5296L228.771 55.0264L233.993 54.5696L235.058 66.7409L237.605 66.5181L234.111 68.9136L241.87 53.8804L247.074 53.4252L248.78 72.9283L243.558 73.3852L242.479 61.0501L239.914 61.2746L243.389 58.8806L235.681 74.0744L230.477 74.5296ZM261.514 72.2176C259.537 72.3906 257.791 72.1278 256.275 71.4293C254.76 70.7308 253.547 69.6575 252.639 68.2093C251.729 66.749 251.182 64.9757 251 62.8896L250.998 62.8714C250.816 60.7852 251.047 58.9562 251.691 57.3843C252.347 55.7992 253.355 54.5378 254.715 53.5999C256.086 52.6489 257.742 52.0885 259.683 51.9187C261.454 51.7638 263.017 51.9631 264.373 52.5166C265.728 53.058 266.819 53.8609 267.646 54.9252C268.484 55.9885 269.001 57.2204 269.197 58.621L269.208 58.7483L264.278 59.1797L264.227 59.0191C263.988 58.099 263.52 57.3578 262.823 56.7954C262.125 56.221 261.224 55.982 260.12 56.0786C259.259 56.1539 258.528 56.4623 257.928 57.0037C257.339 57.5319 256.907 58.2601 256.634 59.1884C256.372 60.1036 256.295 61.1797 256.403 62.4168L256.405 62.435C256.516 63.7086 256.781 64.7792 257.199 65.6471C257.628 66.5017 258.179 67.1379 258.851 67.5558C259.534 67.9604 260.312 68.1246 261.186 68.0482C262.253 67.9548 263.082 67.5828 263.673 66.9323C264.275 66.2685 264.624 65.4375 264.72 64.4391L264.724 64.2738L269.672 63.8408L269.682 63.95C269.721 65.3765 269.42 66.6861 268.779 67.8788C268.138 69.0715 267.197 70.0582 265.958 70.8388C264.73 71.6063 263.248 72.0658 261.514 72.2176ZM278.99 70.597C277.692 70.7105 276.53 70.5616 275.504 70.1503C274.477 69.7269 273.646 69.0968 273.01 68.2602C272.386 67.4105 272.024 66.4155 271.924 65.2754L271.921 65.239C271.817 64.0504 272.026 63.0116 272.547 62.1227C273.067 61.2217 273.87 60.4793 274.955 59.8955C276.041 59.3116 277.385 58.8946 278.989 58.6443L286.552 57.5059L286.842 60.8171L280.076 61.849C279.062 61.9988 278.307 62.3093 277.811 62.7805C277.313 63.2396 277.095 63.8148 277.155 64.5061L277.158 64.5425C277.221 65.2581 277.543 65.7982 278.125 66.1628C278.706 66.5153 279.457 66.6513 280.379 66.5706C281.167 66.5016 281.858 66.2885 282.45 65.9312C283.053 65.5606 283.507 65.0931 283.812 64.5287C284.128 63.9511 284.256 63.3226 284.197 62.6434L283.68 56.7306C283.604 55.8695 283.272 55.2141 282.683 54.7646C282.092 54.3029 281.275 54.1177 280.232 54.209C279.238 54.296 278.467 54.5712 277.921 55.0345C277.375 55.4978 277.063 56.0506 276.985 56.693L276.963 56.8599L272.105 57.2849L272.104 57.065C272.096 55.8558 272.397 54.7539 273.007 53.7595C273.628 52.7641 274.535 51.9515 275.727 51.3217C276.929 50.6787 278.386 50.2824 280.096 50.1328C281.782 49.9853 283.267 50.1303 284.552 50.5679C285.836 50.9933 286.86 51.6676 287.625 52.5906C288.403 53.5125 288.849 54.6284 288.963 55.9384L290.133 69.3104L284.821 69.7752L284.566 66.8643L284.457 66.8738C284.151 67.5727 283.729 68.1902 283.189 68.7263C282.66 69.2492 282.044 69.6759 281.339 70.0064C280.634 70.3248 279.851 70.5217 278.99 70.597ZM300.276 59.3117C300.332 61.2013 300.207 62.8559 299.904 64.2758C299.6 65.6956 299.027 66.8213 298.183 67.6529C297.339 68.4844 296.117 68.9703 294.515 69.1103C294.03 69.1528 293.615 69.1585 293.27 69.1276C292.927 69.1088 292.674 69.082 292.512 69.0473L292.122 64.59C292.233 64.6047 292.381 64.6162 292.565 64.6245C292.749 64.6329 292.962 64.6264 293.205 64.6052C293.835 64.55 294.323 64.3301 294.669 63.9455C295.013 63.5487 295.243 62.9664 295.359 62.1985C295.487 61.4295 295.531 60.4602 295.49 59.2905L295.195 49.2151L310.441 47.8813L312.147 67.3844L306.835 67.8492L305.48 52.3668L300.113 52.8363L300.276 59.3117ZM328.605 57.6949L327.968 57.7506L328.685 65.9376L323.372 66.4024L321.666 46.8992L326.978 46.4344L327.649 54.0938L328.285 54.0381L333.601 45.855L339.641 45.3266L332.781 55.3496L332.724 54.6947L341.802 64.79L335.416 65.3487L328.605 57.6949ZM347.367 70.7745C346.846 70.8201 346.34 70.8399 345.851 70.8338C345.361 70.8277 344.956 70.8082 344.636 70.7751L344.29 66.8272C344.487 66.8466 344.739 66.8612 345.046 66.8711C345.353 66.8931 345.701 66.8871 346.089 66.8531C346.89 66.7831 347.509 66.5945 347.946 66.2873C348.384 65.9802 348.689 65.489 348.862 64.8139L349.043 64.1565L340.441 45.2566L346.281 44.7456L352.11 60.6616L351.309 59.6685L352.309 59.5809L351.692 60.6982L354.669 44.0118L360.272 43.5216L355.313 63.9562C354.938 65.529 354.401 66.792 353.702 67.7454C353.015 68.6976 352.148 69.409 351.102 69.8794C350.055 70.3498 348.81 70.6482 347.367 70.7745ZM364.682 69.2046L362.419 43.3338L367.731 42.869L368.029 46.2711L368.156 46.26C368.439 45.4408 368.841 44.7213 369.361 44.1014C369.893 43.4804 370.528 42.9849 371.266 42.6148C372.015 42.2437 372.851 42.0178 373.773 41.9371C375.422 41.7928 376.877 42.075 378.137 42.7836C379.395 43.4801 380.412 44.5583 381.188 46.0182C381.963 47.478 382.443 49.2632 382.628 51.3736L382.63 51.3918C382.814 53.5022 382.651 55.3436 382.141 56.9159C381.643 58.4872 380.842 59.7306 379.736 60.6462C378.631 61.5618 377.259 62.0912 375.622 62.2344C374.7 62.3151 373.832 62.2383 373.017 62.004C372.202 61.7698 371.48 61.4052 370.85 60.9104C370.219 60.4034 369.687 59.7777 369.255 59.0333L369.146 59.0428L369.995 68.7398L364.682 69.2046ZM373.417 57.9908C374.303 57.9134 375.047 57.6161 375.649 57.0989C376.251 56.5697 376.69 55.8591 376.966 54.9672C377.242 54.0752 377.329 53.041 377.226 51.8645L377.225 51.8463C377.121 50.6577 376.855 49.6482 376.428 48.8178C376.001 47.9875 375.44 47.3765 374.746 46.9851C374.063 46.5804 373.285 46.4163 372.411 46.4927C371.55 46.568 370.813 46.8709 370.199 47.4012C369.585 47.9194 369.133 48.625 368.845 49.518C368.555 50.3988 368.462 51.4335 368.566 52.6222L368.568 52.6404C368.67 53.8047 368.94 54.8016 369.379 55.6309C369.831 56.4591 370.399 57.0817 371.083 57.4984C371.778 57.902 372.556 58.0662 373.417 57.9908ZM395.453 60.4995C393.476 60.6724 391.729 60.4097 390.214 59.7112C388.698 59.0127 387.486 57.9394 386.577 56.4912C385.667 55.0308 385.121 53.2576 384.939 51.1714L384.937 51.1533C384.754 49.0671 384.986 47.2381 385.63 45.6662C386.286 44.0811 387.294 42.8196 388.654 41.8818C390.025 40.9308 391.681 40.3703 393.622 40.2006C395.392 40.0456 396.956 40.245 398.312 40.7985C399.667 41.3399 400.758 42.1428 401.584 43.2071C402.423 44.2703 402.94 45.5023 403.136 46.9028L403.147 47.0302L398.217 47.4615L398.166 47.301C397.927 46.3809 397.458 45.6396 396.762 45.0773C396.064 44.5028 395.163 44.2639 394.059 44.3605C393.198 44.4358 392.467 44.7442 391.867 45.2856C391.277 45.8138 390.846 46.542 390.573 47.4703C390.311 48.3854 390.234 49.4616 390.342 50.6987L390.344 50.7169C390.455 51.9904 390.72 53.0611 391.138 53.9289C391.567 54.7836 392.118 55.4198 392.79 55.8376C393.473 56.2423 394.251 56.4064 395.124 56.33C396.192 56.2366 397.021 55.8647 397.612 55.2141C398.214 54.5504 398.563 53.7193 398.659 52.721L398.662 52.5557L403.611 52.1227L403.621 52.2319C403.66 53.6584 403.359 54.968 402.718 56.1607C402.076 57.3534 401.136 58.3401 399.897 59.1207C398.668 59.8881 397.187 60.3477 395.453 60.4995ZM412.928 58.8789C411.631 58.9924 410.469 58.8435 409.443 58.4322C408.416 58.0087 407.585 57.3787 406.949 56.5421C406.325 55.6923 405.963 54.6974 405.863 53.5573L405.86 53.5209C405.756 52.3323 405.964 51.2935 406.486 50.4046C407.006 49.5036 407.808 48.7612 408.894 48.1773C409.979 47.5935 411.324 47.1764 412.928 46.9261L420.491 45.7878L420.781 49.099L414.015 50.1309C413.001 50.2807 412.246 50.5912 411.75 51.0624C411.252 51.5214 411.033 52.0966 411.094 52.788L411.097 52.8244C411.16 53.54 411.482 54.0801 412.064 54.4447C412.645 54.7972 413.396 54.9331 414.318 54.8525C415.106 54.7835 415.796 54.5704 416.388 54.213C416.991 53.8425 417.445 53.375 417.751 52.8106C418.067 52.2329 418.195 51.6045 418.136 50.9253L417.618 45.0125C417.543 44.1513 417.211 43.496 416.621 43.0465C416.031 42.5848 415.214 42.3996 414.171 42.4909C413.177 42.5779 412.406 42.8531 411.86 43.3164C411.314 43.7797 411.002 44.3325 410.924 44.9749L410.902 45.1418L406.044 45.5668L406.043 45.3469C406.035 44.1376 406.336 43.0358 406.945 42.0414C407.567 41.046 408.474 40.2333 409.665 39.6036C410.868 38.9606 412.324 38.5643 414.034 38.4147C415.72 38.2672 417.206 38.4122 418.491 38.8498C419.775 39.2752 420.799 39.9494 421.564 40.8724C422.341 41.7944 422.787 42.9103 422.902 44.2202L424.072 57.5923L418.76 58.0571L418.505 55.1461L418.396 55.1557C418.09 55.8546 417.668 56.4721 417.128 57.0082C416.599 57.5311 415.983 57.9578 415.278 58.2883C414.573 58.6067 413.789 58.8035 412.928 58.8789ZM445.085 55.7539L439.773 56.2186L439.058 48.0499L438.949 48.0594C438.434 48.74 437.749 49.2949 436.895 49.7241C436.04 50.1533 435.091 50.4135 434.048 50.5048C431.816 50.7 430.009 50.2226 428.625 49.0727C427.252 47.9095 426.469 46.2242 426.276 44.0167L425.731 37.7946L431.044 37.3299L431.513 42.6969C431.616 43.8734 432.01 44.7373 432.693 45.2885C433.376 45.8277 434.3 46.0463 435.464 45.9444C435.949 45.902 436.399 45.8076 436.814 45.6613C437.24 45.5018 437.614 45.3041 437.936 45.0682C438.269 44.8312 438.534 44.5698 438.729 44.2839L438.066 36.7155L443.379 36.2507L445.085 55.7539ZM448.184 61.0008L448.632 50.8238L453.653 50.3845L451.859 60.6793L448.184 61.0008Z" fill="white"/>
<path d="M86.6191 96.9685L406.1 69.0176L409.181 104.234C409.631 109.378 405.825 113.913 400.681 114.363L99.83 140.685C94.6855 141.135 90.1502 137.329 89.7001 132.185L86.6191 96.9685Z" fill="#FF0004"/>
<path d="M106.557 129.144C105.259 129.258 104.097 129.109 103.071 128.697C102.044 128.274 101.213 127.644 100.577 126.807C99.9531 125.958 99.5911 124.963 99.4913 123.823L99.4881 123.786C99.3841 122.598 99.5927 121.559 100.114 120.67C100.634 119.769 101.437 119.026 102.522 118.443C103.608 117.859 104.952 117.442 106.556 117.191L114.119 116.053L114.409 119.364L107.643 120.396C106.629 120.546 105.874 120.856 105.378 121.328C104.88 121.787 104.662 122.362 104.722 123.053L104.725 123.09C104.788 123.805 105.11 124.345 105.692 124.71C106.273 125.062 107.024 125.198 107.946 125.118C108.734 125.049 109.425 124.836 110.017 124.478C110.62 124.108 111.074 123.64 111.379 123.076C111.695 122.498 111.823 121.87 111.764 121.191L111.247 115.278C111.171 114.417 110.839 113.761 110.25 113.312C109.659 112.85 108.842 112.665 107.799 112.756C106.805 112.843 106.034 113.118 105.488 113.582C104.942 114.045 104.63 114.598 104.552 115.24L104.53 115.407L99.6722 115.832L99.6713 115.612C99.6633 114.403 99.9641 113.301 100.574 112.307C101.195 111.311 102.102 110.499 103.294 109.869C104.496 109.226 105.953 108.83 107.663 108.68C109.349 108.532 110.834 108.677 112.119 109.115C113.403 109.54 114.427 110.215 115.192 111.138C115.97 112.06 116.416 113.176 116.53 114.485L117.7 127.858L112.388 128.322L112.133 125.411L112.024 125.421C111.718 126.12 111.296 126.737 110.756 127.273C110.227 127.796 109.611 128.223 108.906 128.554C108.201 128.872 107.418 129.069 106.557 129.144ZM128.816 126.885L127.11 107.382L145.012 105.816L146.718 125.319L141.406 125.784L140.05 110.283L132.773 110.92L134.129 126.42L128.816 126.885ZM151.06 131.355L148.796 105.485L154.109 105.02L154.406 108.422L154.534 108.411C154.817 107.592 155.218 106.872 155.738 106.252C156.27 105.631 156.905 105.136 157.643 104.766C158.393 104.394 159.229 104.168 160.15 104.088C161.8 103.944 163.254 104.226 164.514 104.934C165.773 105.631 166.79 106.709 167.565 108.169C168.341 109.629 168.821 111.414 169.006 113.524L169.007 113.543C169.192 115.653 169.029 117.494 168.519 119.067C168.021 120.638 167.219 121.881 166.114 122.797C165.008 123.713 163.637 124.242 161.999 124.385C161.078 124.466 160.209 124.389 159.394 124.155C158.579 123.921 157.857 123.556 157.227 123.061C156.596 122.554 156.065 121.928 155.633 121.184L155.524 121.194L156.372 130.891L151.06 131.355ZM159.795 120.142C160.68 120.064 161.424 119.767 162.027 119.25C162.628 118.72 163.067 118.01 163.344 117.118C163.62 116.226 163.707 115.192 163.604 114.015L163.602 113.997C163.498 112.808 163.233 111.799 162.806 110.969C162.378 110.138 161.818 109.527 161.124 109.136C160.44 108.731 159.662 108.567 158.789 108.643C157.928 108.719 157.19 109.022 156.577 109.552C155.962 110.07 155.511 110.776 155.222 111.669C154.933 112.55 154.84 113.584 154.944 114.773L154.945 114.791C155.047 115.955 155.318 116.952 155.757 117.782C156.208 118.61 156.776 119.232 157.46 119.649C158.156 120.053 158.934 120.217 159.795 120.142ZM181.794 122.653C179.805 122.827 178.059 122.571 176.557 121.883C175.053 121.184 173.847 120.11 172.938 118.662C172.041 117.212 171.502 115.451 171.321 113.377L171.319 113.359C171.138 111.285 171.363 109.456 171.994 107.873C172.637 106.277 173.619 105.005 174.942 104.059C176.276 103.099 177.895 102.535 179.799 102.369C181.703 102.202 183.382 102.465 184.836 103.156C186.301 103.835 187.474 104.875 188.354 106.277C189.246 107.678 189.779 109.36 189.951 111.325L190.094 112.963L174.029 114.368L173.736 111.021L187.29 109.835L185.035 113.185L184.857 111.148C184.757 110.007 184.498 109.071 184.079 108.337C183.66 107.592 183.118 107.053 182.453 106.72C181.8 106.386 181.062 106.255 180.237 106.327C179.412 106.399 178.696 106.663 178.088 107.12C177.492 107.575 177.047 108.207 176.751 109.015C176.466 109.81 176.372 110.765 176.47 111.881L176.65 113.937C176.744 115.017 177.001 115.923 177.419 116.656C177.85 117.389 178.417 117.932 179.12 118.286C179.822 118.628 180.634 118.758 181.556 118.678C182.284 118.614 182.904 118.444 183.418 118.166C183.931 117.889 184.342 117.56 184.651 117.179C184.96 116.797 185.159 116.419 185.249 116.045L185.275 115.932L190.151 115.506L190.114 115.711C190.031 116.439 189.809 117.186 189.449 117.951C189.088 118.715 188.57 119.433 187.895 120.103C187.233 120.772 186.396 121.334 185.385 121.789C184.385 122.243 183.188 122.531 181.794 122.653ZM193.875 121.193L192.169 101.69L210.071 100.124L211.778 119.627L206.465 120.092L205.109 104.591L197.832 105.228L199.188 120.728L193.875 121.193ZM224.548 118.913C222.571 119.086 220.825 118.829 219.311 118.143C217.796 117.456 216.579 116.39 215.658 114.943C214.737 113.495 214.184 111.717 213.999 109.606L213.996 109.57C213.812 107.472 214.055 105.635 214.724 104.061C215.392 102.475 216.412 101.213 217.784 100.274C219.156 99.3349 220.813 98.7806 222.753 98.6108C224.706 98.44 226.44 98.6977 227.954 99.3841C229.48 100.057 230.709 101.117 231.642 102.563C232.574 103.997 233.132 105.769 233.317 107.879L233.32 107.916C233.506 110.038 233.265 111.893 232.597 113.479C231.941 115.064 230.927 116.326 229.555 117.265C228.182 118.192 226.513 118.741 224.548 118.913ZM224.202 114.745C225.063 114.67 225.788 114.374 226.379 113.858C226.98 113.329 227.412 112.606 227.674 111.691C227.947 110.763 228.028 109.662 227.917 108.389L227.914 108.352C227.803 107.091 227.534 106.033 227.104 105.178C226.675 104.324 226.119 103.694 225.436 103.289C224.752 102.872 223.979 102.702 223.118 102.777C222.269 102.851 221.544 103.153 220.942 103.682C220.352 104.198 219.919 104.915 219.645 105.831C219.371 106.747 219.289 107.836 219.399 109.097L219.402 109.134C219.514 110.407 219.779 111.478 220.197 112.346C220.626 113.2 221.183 113.836 221.867 114.253C222.55 114.657 223.328 114.821 224.202 114.745ZM240.704 122.321L235.864 122.744L235.054 113.484L236.546 113.353C237.225 112.878 237.679 112.124 237.906 111.089C238.133 110.055 238.232 108.873 238.201 107.544L237.98 97.682L253.589 96.3163L254.939 111.744L257.85 111.49L258.66 120.75L253.821 121.173L253.367 115.988L240.25 117.136L240.704 122.321ZM249.627 112.209L248.634 100.856L242.812 101.366L242.907 107.48C242.937 108.529 242.876 109.5 242.722 110.393C242.579 111.273 242.306 112.067 241.903 112.775L241.913 112.884L249.627 112.209ZM276.908 114.332C274.931 114.505 273.185 114.242 271.669 113.544C270.154 112.845 268.942 111.772 268.033 110.324C267.123 108.863 266.577 107.09 266.394 105.004L266.392 104.986C266.21 102.9 266.441 101.071 267.086 99.4987C267.741 97.9136 268.749 96.6521 270.109 95.7143C271.481 94.7633 273.136 94.2028 275.077 94.0331C276.848 93.8781 278.411 94.0774 279.768 94.631C281.123 95.1724 282.213 95.9753 283.04 97.0396C283.878 98.1028 284.396 99.3348 284.591 100.735L284.603 100.863L279.672 101.294L279.621 101.133C279.382 100.213 278.914 99.4721 278.217 98.9098C277.519 98.3353 276.618 98.0964 275.514 98.1929C274.653 98.2683 273.922 98.5767 273.322 99.1181C272.733 99.6463 272.302 100.375 272.028 101.303C271.766 102.218 271.689 103.294 271.797 104.531L271.799 104.549C271.91 105.823 272.175 106.894 272.593 107.761C273.023 108.616 273.573 109.252 274.245 109.67C274.928 110.075 275.707 110.239 276.58 110.163C277.647 110.069 278.476 109.697 279.067 109.047C279.669 108.383 280.018 107.552 280.114 106.553L280.118 106.388L285.066 105.955L285.076 106.064C285.115 107.491 284.814 108.8 284.173 109.993C283.532 111.186 282.592 112.173 281.352 112.953C280.124 113.721 278.642 114.18 276.908 114.332ZM293.822 104.199L293.186 104.255L293.902 112.442L288.589 112.907L286.883 93.4035L292.196 92.9387L292.866 100.598L293.502 100.542L298.818 92.3593L304.858 91.8309L297.999 101.854L297.941 101.199L307.019 111.294L300.633 111.853L293.822 104.199ZM314.906 110.916C313.608 111.029 312.446 110.881 311.42 110.469C310.393 110.046 309.562 109.416 308.927 108.579C308.302 107.729 307.94 106.734 307.84 105.594L307.837 105.558C307.733 104.369 307.942 103.331 308.463 102.442C308.983 101.541 309.786 100.798 310.871 100.214C311.957 99.6305 313.301 99.2135 314.905 98.9632L322.468 97.8248L322.758 101.136L315.992 102.168C314.979 102.318 314.223 102.628 313.727 103.099C313.229 103.558 313.011 104.134 313.071 104.825L313.074 104.861C313.137 105.577 313.459 106.117 314.041 106.482C314.622 106.834 315.373 106.97 316.295 106.89C317.083 106.821 317.774 106.607 318.366 106.25C318.969 105.88 319.423 105.412 319.728 104.848C320.044 104.27 320.172 103.642 320.113 102.962L319.596 97.0495C319.52 96.1884 319.188 95.5331 318.599 95.0835C318.008 94.6219 317.192 94.4367 316.149 94.5279C315.154 94.6149 314.384 94.8901 313.838 95.3534C313.291 95.8167 312.979 96.3696 312.901 97.0119L312.879 97.1789L308.021 97.6039L308.02 97.3839C308.012 96.1747 308.313 95.0729 308.923 94.0785C309.545 93.083 310.451 92.2704 311.643 91.6406C312.845 90.9976 314.302 90.6013 316.012 90.4517C317.698 90.3042 319.183 90.4493 320.468 90.8868C321.752 91.3123 322.776 91.9865 323.542 92.9095C324.319 93.8314 324.765 94.9474 324.879 96.2573L326.049 109.629L320.737 110.094L320.482 107.183L320.373 107.193C320.068 107.892 319.645 108.509 319.105 109.045C318.577 109.568 317.96 109.995 317.256 110.325C316.55 110.644 315.767 110.841 314.906 110.916ZM337.746 109.009C336.036 109.159 334.529 109.04 333.224 108.653C331.919 108.266 330.856 107.644 330.036 106.787C329.214 105.918 328.679 104.834 328.431 103.536L328.397 103.356L333.437 102.915L333.509 103.11C333.779 103.82 334.239 104.336 334.891 104.658C335.541 104.967 336.364 105.079 337.358 104.992C338.389 104.902 339.172 104.631 339.707 104.181C340.253 103.718 340.494 103.122 340.431 102.395L340.428 102.358C340.362 101.606 340.034 101.073 339.444 100.758C338.853 100.431 338 100.316 336.884 100.413L334.246 100.644L333.957 97.3331L336.558 97.1055C337.553 97.0184 338.283 96.7712 338.748 96.3639C339.214 95.9565 339.415 95.395 339.352 94.6794L339.349 94.643C339.289 93.9517 338.993 93.4398 338.463 93.1073C337.933 92.7748 337.219 92.6478 336.322 92.7263C335.388 92.808 334.652 93.0618 334.115 93.4877C333.589 93.9004 333.284 94.4709 333.202 95.1992L333.196 95.3464L328.229 95.7809L328.235 95.6338C328.287 94.2726 328.618 93.1009 329.229 92.1186C329.852 91.1353 330.743 90.3546 331.902 89.7765C333.062 89.1984 334.466 88.8372 336.115 88.6929C337.753 88.5496 339.173 88.6515 340.377 88.9984C341.592 89.3321 342.55 89.8837 343.253 90.6533C343.955 91.4107 344.356 92.3595 344.456 93.4996L344.459 93.536C344.551 94.5912 344.314 95.5103 343.747 96.2932C343.192 97.0751 342.356 97.6432 341.238 97.9977L341.25 98.1432C342.162 98.2224 342.938 98.4355 343.58 98.7827C344.232 99.1167 344.736 99.5676 345.091 100.135C345.458 100.69 345.675 101.355 345.743 102.132L345.746 102.168C345.853 103.393 345.595 104.497 344.972 105.481C344.348 106.452 343.416 107.248 342.175 107.87C340.945 108.479 339.469 108.859 337.746 109.009ZM355.258 107.386C353.961 107.499 352.799 107.35 351.773 106.939C350.746 106.515 349.915 105.885 349.279 105.049C348.655 104.199 348.293 103.204 348.193 102.064L348.19 102.028C348.086 100.839 348.295 99.8002 348.816 98.9113C349.336 98.0103 350.138 97.2678 351.224 96.684C352.31 96.1002 353.654 95.6831 355.258 95.4328L362.821 94.2944L363.111 97.6056L356.345 98.6375C355.331 98.7873 354.576 99.0978 354.08 99.569C353.582 100.028 353.363 100.603 353.424 101.295L353.427 101.331C353.49 102.047 353.812 102.587 354.394 102.951C354.975 103.304 355.726 103.44 356.648 103.359C357.436 103.29 358.126 103.077 358.718 102.72C359.321 102.349 359.776 101.882 360.081 101.317C360.397 100.74 360.525 100.111 360.466 99.432L359.948 93.5191C359.873 92.658 359.541 92.0027 358.951 91.5531C358.361 91.0915 357.544 90.9063 356.501 90.9975C355.507 91.0845 354.736 91.3597 354.19 91.823C353.644 92.2863 353.332 92.8392 353.254 93.4815L353.232 93.6485L348.374 94.0735L348.373 93.8535C348.365 92.6443 348.666 91.5425 349.276 90.5481C349.897 89.5526 350.804 88.74 351.995 88.1102C353.198 87.4672 354.654 87.0709 356.365 86.9213C358.05 86.7738 359.536 86.9189 360.821 87.3564C362.105 87.7819 363.129 88.4561 363.894 89.3791C364.672 90.301 365.118 91.417 365.232 92.7269L366.402 106.099L361.09 106.564L360.835 103.653L360.726 103.662C360.42 104.361 359.998 104.979 359.458 105.515C358.929 106.038 358.313 106.464 357.608 106.795C356.903 107.113 356.12 107.31 355.258 107.386ZM376.545 96.1003C376.6 97.9898 376.476 99.6445 376.173 101.064C375.869 102.484 375.296 103.61 374.452 104.441C373.608 105.273 372.385 105.759 370.784 105.899C370.299 105.941 369.884 105.947 369.539 105.916C369.195 105.897 368.942 105.871 368.781 105.836L368.391 101.378C368.502 101.393 368.65 101.405 368.834 101.413C369.018 101.421 369.231 101.415 369.474 101.394C370.104 101.339 370.592 101.119 370.937 100.734C371.282 100.337 371.512 99.7549 371.628 98.987C371.756 98.2181 371.8 97.2487 371.758 96.0791L371.464 86.0037L386.71 84.6698L388.416 104.173L383.103 104.638L381.749 89.1553L376.382 89.6248L376.545 96.1003ZM391.533 109.418L391.981 99.2413L397.002 98.802L395.208 109.097L391.533 109.418Z" fill="white"/>
<rect width="243.701" height="44.7011" transform="translate(128.746 136.744) rotate(-5)" fill="#FF0004"/>
<path d="M147.892 168.677L142.889 169.115L141.183 149.612L148.078 149.008L154.268 161.3L154.396 161.288L158.357 148.109L165.18 147.512L166.886 167.015L161.883 167.453L160.742 154.408L160.614 154.42L156.621 166.814L152.946 167.135L146.878 155.621L146.751 155.633L147.892 168.677ZM179.675 166.3C177.698 166.473 175.952 166.216 174.437 165.53C172.923 164.843 171.705 163.777 170.784 162.329C169.863 160.882 169.31 159.104 169.126 156.993L169.123 156.957C168.939 154.858 169.182 153.022 169.851 151.448C170.519 149.862 171.539 148.6 172.911 147.661C174.283 146.722 175.939 146.168 177.88 145.998C179.833 145.827 181.566 146.085 183.081 146.771C184.606 147.444 185.836 148.504 186.769 149.95C187.701 151.384 188.259 153.156 188.444 155.266L188.447 155.303C188.633 157.425 188.392 159.28 187.724 160.866C187.068 162.451 186.054 163.713 184.682 164.652C183.309 165.579 181.64 166.128 179.675 166.3ZM179.328 162.132C180.189 162.057 180.915 161.761 181.506 161.245C182.107 160.716 182.539 159.993 182.801 159.078C183.074 158.15 183.155 157.049 183.044 155.776L183.04 155.739C182.93 154.478 182.66 153.42 182.231 152.565C181.802 151.71 181.246 151.081 180.563 150.676C179.878 150.259 179.106 150.089 178.245 150.164C177.396 150.238 176.67 150.54 176.069 151.069C175.479 151.585 175.046 152.301 174.772 153.218C174.498 154.134 174.416 155.223 174.526 156.484L174.529 156.52C174.641 157.794 174.905 158.865 175.324 159.732C175.753 160.587 176.309 161.223 176.994 161.64C177.677 162.044 178.455 162.208 179.328 162.132ZM195.995 164.469L189.737 165.016L196.56 153.53L196.635 154.385L188.322 145.488L194.398 144.956L200.802 152.15L201.257 152.11L200.584 144.415L205.842 143.955L206.515 151.65L206.97 151.611L212.009 143.415L218.049 142.887L211.456 153.015L211.381 152.16L220.138 162.356L213.825 162.909L207.283 155.195L206.829 155.235L207.548 163.458L202.29 163.918L201.571 155.695L201.116 155.734L195.995 164.469ZM235.02 161.054L234.321 153.068L226.862 153.72L227.561 161.707L222.248 162.172L220.542 142.669L225.854 142.204L226.51 149.699L233.969 149.047L233.314 141.551L238.626 141.086L240.332 160.59L235.02 161.054ZM253.103 159.876C251.126 160.049 249.38 159.792 247.865 159.106C246.351 158.419 245.133 157.352 244.212 155.905C243.291 154.458 242.738 152.679 242.554 150.569L242.551 150.533C242.367 148.434 242.61 146.598 243.279 145.024C243.947 143.438 244.967 142.176 246.339 141.237C247.711 140.298 249.367 139.743 251.308 139.574C253.261 139.403 254.994 139.661 256.509 140.347C258.034 141.02 259.264 142.08 260.197 143.526C261.129 144.96 261.687 146.732 261.872 148.842L261.875 148.879C262.061 151.001 261.82 152.856 261.152 154.442C260.496 156.027 259.482 157.289 258.11 158.228C256.737 159.154 255.067 159.704 253.103 159.876ZM252.756 155.708C253.617 155.632 254.343 155.337 254.934 154.821C255.535 154.291 255.967 153.569 256.229 152.654C256.502 151.726 256.583 150.625 256.472 149.351L256.468 149.315C256.358 148.054 256.088 146.996 255.659 146.141C255.23 145.286 254.674 144.657 253.991 144.252C253.306 143.835 252.534 143.665 251.673 143.74C250.824 143.814 250.098 144.116 249.497 144.645C248.907 145.161 248.474 145.877 248.2 146.794C247.926 147.71 247.844 148.799 247.954 150.06L247.957 150.096C248.069 151.37 248.333 152.441 248.752 153.308C249.181 154.163 249.737 154.799 250.422 155.215C251.105 155.62 251.883 155.784 252.756 155.708ZM282.412 157.311C280.314 157.495 278.493 157.22 276.95 156.488C275.418 155.742 274.196 154.553 273.283 152.922C272.371 151.291 271.804 149.22 271.585 146.709L271.582 146.673C271.343 143.944 271.37 141.601 271.663 139.644C271.957 137.688 272.499 136.064 273.29 134.772C274.082 133.481 275.125 132.485 276.421 131.785C277.728 131.084 279.265 130.626 281.03 130.41L283.299 130.157C284.4 130.024 285.387 129.852 286.261 129.641C287.135 129.43 287.834 129.186 288.36 128.907L288.72 133.019C288.375 133.269 287.779 133.511 286.931 133.744C286.095 133.964 285.115 134.141 283.99 134.276L281.849 134.537C280.277 134.723 279.028 135.12 278.104 135.726C277.191 136.331 276.519 137.172 276.088 138.249C275.669 139.324 275.414 140.673 275.323 142.294L275.309 142.552L275.418 142.542C275.762 141.718 276.219 141.006 276.79 140.406C277.361 139.806 278.058 139.329 278.883 138.976C279.706 138.611 280.652 138.381 281.719 138.288C283.466 138.135 285.015 138.378 286.366 139.018C287.729 139.644 288.827 140.605 289.662 141.901C290.496 143.197 290.995 144.779 291.158 146.647L291.162 146.683C291.338 148.696 291.102 150.471 290.454 152.006C289.806 153.542 288.795 154.767 287.421 155.682C286.059 156.595 284.389 157.138 282.412 157.311ZM281.956 153.153C282.854 153.075 283.606 152.795 284.211 152.314C284.816 151.821 285.253 151.154 285.521 150.311C285.788 149.457 285.871 148.448 285.769 147.283L285.766 147.247C285.669 146.131 285.416 145.2 285.008 144.453C284.6 143.695 284.056 143.137 283.377 142.781C282.698 142.425 281.91 142.286 281.013 142.365C280.103 142.444 279.345 142.718 278.738 143.187C278.131 143.655 277.686 144.299 277.404 145.119C277.132 145.924 277.045 146.885 277.143 148.001L277.146 148.038C277.248 149.202 277.504 150.182 277.916 150.977C278.339 151.759 278.891 152.34 279.572 152.72C280.252 153.088 281.047 153.233 281.956 153.153ZM295.13 155.795L293.424 136.292L298.737 135.827L299.23 141.467L303.014 141.136C305.319 140.935 307.205 141.399 308.672 142.53C310.152 143.659 310.985 145.279 311.169 147.389L311.172 147.426C311.357 149.536 310.819 151.276 309.557 152.645C308.308 154.013 306.532 154.798 304.227 155L295.13 155.795ZM302.4 145.223L299.58 145.47L300.093 151.328L302.913 151.081C303.871 150.998 304.606 150.664 305.117 150.082C305.628 149.499 305.845 148.772 305.769 147.898L305.766 147.862C305.688 146.977 305.348 146.297 304.744 145.825C304.14 145.34 303.358 145.139 302.4 145.223ZM313.851 154.158L312.145 134.654L317.457 134.19L319.164 153.693L313.851 154.158ZM329.38 143.688C329.435 145.577 329.311 147.232 329.007 148.652C328.704 150.072 328.13 151.197 327.286 152.029C326.442 152.86 325.22 153.346 323.619 153.486C323.134 153.529 322.719 153.535 322.374 153.504C322.03 153.485 321.777 153.458 321.615 153.423L321.225 148.966C321.336 148.981 321.484 148.992 321.668 149.001C321.852 149.009 322.065 149.002 322.308 148.981C322.939 148.926 323.427 148.706 323.772 148.322C324.116 147.925 324.346 147.342 324.462 146.575C324.591 145.806 324.634 144.836 324.593 143.667L324.298 133.591L339.544 132.257L341.25 151.76L335.938 152.225L334.583 136.743L329.216 137.212L329.38 143.688ZM354.039 151.045C352.062 151.218 350.316 150.961 348.802 150.275C347.287 149.588 346.07 148.522 345.149 147.075C344.227 145.627 343.675 143.849 343.49 141.738L343.487 141.702C343.303 139.604 343.546 137.767 344.215 136.193C344.883 134.607 345.903 133.345 347.275 132.406C348.647 131.467 350.304 130.913 352.244 130.743C354.197 130.572 355.931 130.83 357.445 131.516C358.971 132.189 360.2 133.249 361.133 134.695C362.065 136.129 362.623 137.901 362.808 140.011L362.811 140.048C362.997 142.17 362.756 144.025 362.088 145.611C361.432 147.196 360.418 148.458 359.046 149.397C357.673 150.324 356.004 150.873 354.039 151.045ZM353.693 146.877C354.554 146.802 355.279 146.506 355.87 145.99C356.471 145.461 356.903 144.738 357.165 143.823C357.438 142.895 357.519 141.794 357.408 140.521L357.405 140.484C357.294 139.223 357.025 138.165 356.595 137.31C356.166 136.456 355.61 135.826 354.927 135.421C354.243 135.004 353.47 134.834 352.609 134.909C351.76 134.983 351.035 135.285 350.433 135.814C349.843 136.33 349.41 137.047 349.136 137.963C348.862 138.879 348.78 139.968 348.89 141.229L348.893 141.266C349.005 142.539 349.27 143.61 349.688 144.478C350.117 145.332 350.674 145.968 351.358 146.385C352.041 146.789 352.819 146.953 353.693 146.877Z" fill="white"/>
<rect x="71.2539" y="185.235" width="366.701" height="44.7011" rx="9.35053" transform="rotate(-5 71.2539 185.235)" fill="#FF0004"/>
<path d="M98.1687 216.489L97.47 208.502L90.0107 209.154L90.7095 217.141L85.397 217.606L83.6907 198.103L89.0032 197.638L89.659 205.134L97.1182 204.481L96.4624 196.985L101.775 196.521L103.481 216.024L98.1687 216.489ZM116.179 215.316C114.19 215.49 112.444 215.234 110.942 214.546C109.438 213.847 108.232 212.773 107.323 211.325C106.426 209.875 105.887 208.114 105.706 206.04L105.704 206.021C105.523 203.947 105.748 202.119 106.379 200.536C107.022 198.94 108.004 197.668 109.327 196.722C110.661 195.762 112.28 195.198 114.184 195.032C116.088 194.865 117.767 195.128 119.221 195.819C120.686 196.498 121.858 197.538 122.739 198.94C123.631 200.34 124.164 202.023 124.336 203.988L124.479 205.626L108.414 207.031L108.121 203.683L121.675 202.498L119.42 205.848L119.242 203.81C119.142 202.67 118.883 201.734 118.464 201C118.045 200.255 117.503 199.716 116.838 199.383C116.185 199.049 115.447 198.918 114.622 198.99C113.797 199.062 113.081 199.326 112.473 199.783C111.877 200.238 111.432 200.87 111.136 201.678C110.851 202.473 110.757 203.428 110.855 204.544L111.035 206.6C111.129 207.68 111.386 208.586 111.804 209.319C112.235 210.052 112.802 210.595 113.505 210.949C114.207 211.291 115.019 211.421 115.941 211.341C116.669 211.277 117.289 211.107 117.803 210.829C118.316 210.552 118.727 210.223 119.036 209.842C119.345 209.46 119.544 209.082 119.634 208.708L119.66 208.595L124.536 208.169L124.499 208.374C124.416 209.102 124.194 209.849 123.834 210.613C123.473 211.378 122.955 212.096 122.28 212.766C121.618 213.435 120.781 213.997 119.77 214.452C118.77 214.906 117.573 215.194 116.179 215.316ZM143.614 212.916C141.904 213.066 140.396 212.947 139.091 212.56C137.787 212.173 136.724 211.551 135.903 210.694C135.082 209.825 134.547 208.741 134.299 207.443L134.265 207.263L139.304 206.822L139.377 207.017C139.646 207.727 140.107 208.242 140.758 208.564C141.409 208.874 142.231 208.985 143.226 208.898C144.257 208.808 145.04 208.538 145.575 208.088C146.121 207.625 146.362 207.029 146.299 206.301L146.295 206.265C146.23 205.513 145.902 204.98 145.312 204.664C144.721 204.337 143.868 204.223 142.752 204.32L140.114 204.551L139.824 201.24L142.426 201.012C143.421 200.925 144.151 200.678 144.616 200.271C145.081 199.863 145.283 199.302 145.22 198.586L145.217 198.55C145.157 197.858 144.861 197.346 144.331 197.014C143.801 196.681 143.087 196.554 142.19 196.633C141.256 196.715 140.52 196.969 139.983 197.394C139.457 197.807 139.152 198.378 139.069 199.106L139.064 199.253L134.097 199.688L134.103 199.54C134.155 198.179 134.486 197.008 135.097 196.025C135.719 195.042 136.611 194.261 137.77 193.683C138.929 193.105 140.334 192.744 141.983 192.6C143.621 192.456 145.041 192.558 146.245 192.905C147.46 193.239 148.418 193.79 149.121 194.56C149.823 195.317 150.224 196.266 150.323 197.406L150.327 197.443C150.419 198.498 150.182 199.417 149.615 200.2C149.06 200.982 148.223 201.55 147.106 201.904L147.118 202.05C148.03 202.129 148.806 202.342 149.447 202.689C150.1 203.023 150.604 203.474 150.959 204.042C151.325 204.597 151.542 205.262 151.61 206.038L151.614 206.075C151.721 207.3 151.463 208.404 150.84 209.387C150.216 210.358 149.284 211.155 148.043 211.777C146.813 212.386 145.336 212.765 143.614 212.916ZM161.126 211.292C159.828 211.406 158.667 211.257 157.641 210.846C156.614 210.422 155.782 209.792 155.147 208.955C154.523 208.106 154.161 207.111 154.061 205.971L154.058 205.934C153.954 204.746 154.162 203.707 154.683 202.818C155.203 201.917 156.006 201.175 157.092 200.591C158.177 200.007 159.522 199.59 161.125 199.339L168.689 198.201L168.979 201.512L162.212 202.544C161.199 202.694 160.444 203.004 159.947 203.476C159.45 203.935 159.231 204.51 159.292 205.201L159.295 205.238C159.358 205.953 159.68 206.493 160.262 206.858C160.842 207.211 161.594 207.346 162.516 207.266C163.304 207.197 163.994 206.984 164.586 206.626C165.189 206.256 165.643 205.788 165.948 205.224C166.265 204.646 166.393 204.018 166.333 203.339L165.816 197.426C165.741 196.565 165.409 195.909 164.819 195.46C164.229 194.998 163.412 194.813 162.369 194.904C161.374 194.991 160.604 195.266 160.058 195.73C159.512 196.193 159.2 196.746 159.122 197.388L159.099 197.555L154.242 197.98L154.241 197.76C154.233 196.551 154.534 195.449 155.143 194.455C155.765 193.459 156.672 192.647 157.863 192.017C159.066 191.374 160.522 190.978 162.232 190.828C163.918 190.681 165.404 190.826 166.689 191.263C167.972 191.689 168.997 192.363 169.762 193.286C170.539 194.208 170.985 195.324 171.1 196.634L172.27 210.006L166.957 210.47L166.703 207.559L166.594 207.569C166.288 208.268 165.865 208.885 165.326 209.422C164.797 209.944 164.181 210.371 163.476 210.702C162.771 211.02 161.987 211.217 161.126 211.292ZM181.003 209.242L175.999 209.679L174.293 190.176L181.188 189.573L187.379 201.864L187.506 201.853L191.468 188.674L198.29 188.077L199.996 207.58L194.993 208.018L193.852 194.973L193.725 194.984L189.731 207.378L186.056 207.7L179.989 196.186L179.861 196.197L181.003 209.242ZM212.785 206.864C210.808 207.037 209.062 206.781 207.548 206.094C206.033 205.408 204.816 204.341 203.895 202.894C202.974 201.447 202.421 199.668 202.236 197.558L202.233 197.521C202.049 195.423 202.292 193.587 202.961 192.013C203.629 190.427 204.649 189.164 206.021 188.225C207.393 187.286 209.05 186.732 210.99 186.562C212.943 186.391 214.677 186.649 216.191 187.336C217.717 188.009 218.946 189.068 219.879 190.514C220.811 191.948 221.369 193.72 221.554 195.831L221.557 195.867C221.743 197.99 221.502 199.844 220.834 201.43C220.178 203.015 219.164 204.277 217.792 205.216C216.419 206.143 214.75 206.692 212.785 206.864ZM212.439 202.696C213.3 202.621 214.025 202.325 214.616 201.809C215.217 201.28 215.649 200.558 215.911 199.643C216.184 198.714 216.265 197.614 216.154 196.34L216.151 196.304C216.04 195.042 215.771 193.984 215.341 193.13C214.912 192.275 214.356 191.645 213.673 191.241C212.989 190.824 212.216 190.653 211.355 190.729C210.506 190.803 209.781 191.105 209.179 191.634C208.589 192.15 208.156 192.866 207.882 193.782C207.608 194.698 207.526 195.787 207.636 197.049L207.639 197.085C207.751 198.358 208.016 199.429 208.434 200.297C208.863 201.152 209.42 201.787 210.104 202.204C210.787 202.609 211.565 202.773 212.439 202.696ZM225.969 211.724L223.706 185.853L229.018 185.388L229.316 188.79L229.443 188.779C229.726 187.96 230.128 187.241 230.648 186.621C231.18 186 231.815 185.504 232.553 185.134C233.302 184.763 234.138 184.537 235.06 184.456C236.71 184.312 238.164 184.594 239.424 185.303C240.683 185.999 241.7 187.078 242.475 188.537C243.251 189.997 243.731 191.782 243.915 193.893L243.917 193.911C244.101 196.022 243.939 197.863 243.429 199.435C242.93 201.007 242.129 202.25 241.023 203.166C239.918 204.081 238.547 204.61 236.909 204.754C235.987 204.834 235.119 204.758 234.304 204.523C233.489 204.289 232.767 203.925 232.137 203.43C231.506 202.923 230.974 202.297 230.543 201.553L230.434 201.562L231.282 211.259L225.969 211.724ZM234.705 200.51C235.59 200.433 236.334 200.135 236.936 199.618C237.538 199.089 237.977 198.378 238.253 197.486C238.53 196.595 238.616 195.56 238.513 194.384L238.512 194.366C238.408 193.177 238.142 192.168 237.715 191.337C237.288 190.507 236.728 189.896 236.033 189.504C235.35 189.1 234.572 188.936 233.699 189.012C232.838 189.087 232.1 189.39 231.487 189.92C230.872 190.439 230.42 191.144 230.132 192.037C229.842 192.918 229.749 193.953 229.853 195.141L229.855 195.16C229.957 196.324 230.227 197.321 230.667 198.15C231.118 198.978 231.686 199.601 232.37 200.018C233.065 200.421 233.843 200.585 234.705 200.51ZM253.621 203.2C252.323 203.314 251.161 203.165 250.135 202.753C249.108 202.33 248.277 201.7 247.642 200.863C247.017 200.013 246.655 199.018 246.555 197.878L246.552 197.842C246.448 196.653 246.657 195.615 247.178 194.726C247.698 193.825 248.501 193.082 249.586 192.498C250.672 191.915 252.016 191.498 253.62 191.247L261.183 190.109L261.473 193.42L254.707 194.452C253.693 194.602 252.938 194.912 252.442 195.383C251.944 195.843 251.726 196.418 251.786 197.109L251.789 197.145C251.852 197.861 252.174 198.401 252.756 198.766C253.337 199.118 254.088 199.254 255.01 199.174C255.798 199.105 256.489 198.891 257.081 198.534C257.684 198.164 258.138 197.696 258.443 197.132C258.759 196.554 258.887 195.926 258.828 195.246L258.311 189.334C258.235 188.472 257.903 187.817 257.314 187.368C256.723 186.906 255.907 186.721 254.864 186.812C253.869 186.899 253.099 187.174 252.553 187.637C252.006 188.101 251.694 188.654 251.616 189.296L251.594 189.463L246.736 189.888L246.735 189.668C246.727 188.459 247.028 187.357 247.638 186.363C248.26 185.367 249.166 184.554 250.358 183.925C251.56 183.282 253.017 182.885 254.727 182.736C256.413 182.588 257.898 182.733 259.183 183.171C260.467 183.596 261.491 184.271 262.257 185.194C263.034 186.116 263.48 187.231 263.594 188.541L264.764 201.913L259.452 202.378L259.197 199.467L259.088 199.477C258.783 200.176 258.36 200.793 257.82 201.329C257.292 201.852 256.675 202.279 255.971 202.609C255.265 202.928 254.482 203.125 253.621 203.2ZM285.778 200.075L280.465 200.54L279.75 192.371L279.641 192.381C279.126 193.061 278.442 193.616 277.587 194.045C276.732 194.474 275.784 194.735 274.74 194.826C272.509 195.021 270.701 194.544 269.317 193.394C267.944 192.231 267.161 190.545 266.968 188.338L266.424 182.116L271.736 181.651L272.206 187.018C272.309 188.194 272.702 189.058 273.386 189.61C274.069 190.149 274.992 190.367 276.156 190.266C276.642 190.223 277.092 190.129 277.507 189.982C277.933 189.823 278.306 189.625 278.628 189.389C278.962 189.152 279.226 188.891 279.421 188.605L278.759 181.037L284.071 180.572L285.778 200.075ZM289.598 199.741L287.892 180.238L293.113 179.781L294.178 191.952L296.725 191.729L293.232 194.125L300.991 179.092L306.194 178.636L307.901 198.139L302.679 198.596L301.6 186.261L299.035 186.486L302.51 184.092L294.801 199.285L289.598 199.741ZM311.721 197.805L310.015 178.302L319.785 177.447C321.81 177.27 323.437 177.568 324.666 178.34C325.895 179.113 326.576 180.269 326.711 181.809L326.714 181.846C326.804 182.877 326.545 183.828 325.937 184.7C325.34 185.559 324.545 186.111 323.552 186.357L323.565 186.503C324.448 186.536 325.235 186.729 325.926 187.085C326.628 187.426 327.189 187.903 327.609 188.514C328.041 189.124 328.293 189.835 328.364 190.648L328.367 190.684C328.466 191.812 328.261 192.826 327.754 193.726C327.245 194.614 326.471 195.341 325.433 195.909C324.406 196.463 323.153 196.805 321.673 196.935L311.721 197.805ZM316.643 193.928L319.864 193.646C320.907 193.555 321.683 193.273 322.191 192.801C322.712 192.328 322.936 191.673 322.863 190.836L322.859 190.799C322.788 189.987 322.438 189.406 321.809 189.058C321.192 188.709 320.319 188.583 319.191 188.682L316.207 188.943L316.643 193.928ZM315.922 185.687L318.761 185.438C319.731 185.353 320.455 185.107 320.932 184.698C321.409 184.278 321.615 183.704 321.552 182.976L321.548 182.939C321.486 182.224 321.202 181.699 320.696 181.364C320.202 181.028 319.518 180.899 318.645 180.975L315.534 181.247L315.922 185.687ZM337.856 195.83C336.558 195.944 335.396 195.795 334.37 195.384C333.343 194.96 332.512 194.33 331.876 193.494C331.252 192.644 330.89 191.649 330.79 190.509L330.787 190.472C330.683 189.284 330.892 188.245 331.413 187.356C331.933 186.455 332.736 185.713 333.821 185.129C334.907 184.545 336.251 184.128 337.855 183.878L345.418 182.739L345.708 186.05L338.942 187.082C337.928 187.232 337.173 187.543 336.677 188.014C336.179 188.473 335.961 189.048 336.021 189.74L336.024 189.776C336.087 190.491 336.409 191.032 336.991 191.396C337.572 191.749 338.323 191.885 339.245 191.804C340.033 191.735 340.723 191.522 341.316 191.165C341.919 190.794 342.373 190.327 342.678 189.762C342.994 189.184 343.122 188.556 343.063 187.877L342.545 181.964C342.47 181.103 342.138 180.448 341.549 179.998C340.958 179.536 340.141 179.351 339.098 179.442C338.104 179.529 337.333 179.805 336.787 180.268C336.241 180.731 335.929 181.284 335.851 181.926L335.829 182.093L330.971 182.518L330.97 182.298C330.962 181.089 331.263 179.987 331.873 178.993C332.494 177.997 333.401 177.185 334.593 176.555C335.795 175.912 337.252 175.516 338.962 175.366C340.648 175.219 342.133 175.364 343.418 175.801C344.702 176.227 345.726 176.901 346.491 177.824C347.269 178.746 347.715 179.862 347.829 181.172L348.999 194.544L343.687 195.009L343.432 192.098L343.323 192.107C343.017 192.806 342.595 193.424 342.055 193.96C341.526 194.483 340.91 194.909 340.205 195.24C339.5 195.558 338.717 195.755 337.856 195.83ZM366.65 173.347L367.002 177.368L361.199 177.876L362.553 193.358L357.241 193.823L355.886 178.34L350.083 178.848L349.731 174.827L366.65 173.347ZM371.068 192.613L369.361 173.11L374.674 172.645L375.167 178.285L378.951 177.954C381.256 177.752 383.142 178.217 384.61 179.347C386.089 180.477 386.922 182.096 387.106 184.207L387.11 184.243C387.294 186.354 386.756 188.093 385.495 189.463C384.245 190.831 382.469 191.616 380.164 191.817L371.068 192.613ZM378.337 182.041L375.517 182.288L376.03 188.146L378.85 187.899C379.808 187.815 380.543 187.482 381.054 186.9C381.565 186.317 381.783 185.589 381.706 184.716L381.703 184.68C381.626 183.794 381.285 183.115 380.681 182.642C380.077 182.158 379.295 181.957 378.337 182.041ZM399.593 190.521C397.616 190.694 395.87 190.431 394.354 189.732C392.839 189.034 391.627 187.961 390.718 186.512C389.808 185.052 389.262 183.279 389.079 181.193L389.078 181.175C388.895 179.088 389.126 177.259 389.771 175.687C390.427 174.102 391.435 172.841 392.795 171.903C394.166 170.952 395.822 170.392 397.762 170.222C399.533 170.067 401.097 170.266 402.453 170.82C403.808 171.361 404.899 172.164 405.725 173.228C406.564 174.292 407.081 175.524 407.277 176.924L407.288 177.051L402.357 177.483L402.307 177.322C402.067 176.402 401.599 175.661 400.902 175.099C400.204 174.524 399.303 174.285 398.2 174.382C397.338 174.457 396.608 174.765 396.007 175.307C395.418 175.835 394.987 176.563 394.713 177.492C394.451 178.407 394.374 179.483 394.483 180.72L394.484 180.738C394.596 182.012 394.86 183.082 395.279 183.95C395.708 184.805 396.258 185.441 396.93 185.859C397.614 186.264 398.392 186.428 399.265 186.351C400.332 186.258 401.162 185.886 401.752 185.235C402.354 184.572 402.703 183.741 402.799 182.742L402.803 182.577L407.752 182.144L407.761 182.253C407.8 183.68 407.499 184.989 406.858 186.182C406.217 187.375 405.277 188.361 404.037 189.142C402.809 189.909 401.328 190.369 399.593 190.521ZM422.391 188.123L421.84 181.828L419.602 182.024L415.823 188.697L409.91 189.215L414.42 181.671C413.061 181.362 411.951 180.756 411.089 179.854C410.24 178.95 409.755 177.807 409.634 176.424L409.631 176.388C409.51 175.005 409.727 173.783 410.282 172.72C410.837 171.657 411.672 170.801 412.789 170.154C413.917 169.493 415.269 169.094 416.846 168.956L425.888 168.164L427.594 187.668L422.391 188.123ZM418.201 178.37L421.512 178.08L421.031 172.586L417.72 172.876C416.786 172.957 416.069 173.277 415.568 173.834C415.077 174.378 414.87 175.08 414.945 175.942L414.948 175.978C415.015 176.742 415.344 177.355 415.934 177.817C416.524 178.266 417.279 178.451 418.201 178.37Z" fill="white"/>
</svg>
