<svg width="900" height="312" viewBox="0 0 900 312" fill="none" xmlns="http://www.w3.org/2000/svg">
<rect y="31" width="900" height="250" rx="20" fill="black"/>
<rect x="125.262" y="54.9888" width="629.468" height="69.9392" rx="13.308" transform="rotate(-5 125.262 54.9888)" fill="#FF0004"/>
<path d="M179.355 104.432L171.535 105.116L168.83 74.1997L152.129 75.6609L154.834 106.577L147.014 107.262L143.745 69.8976L176.086 67.0682L179.355 104.432ZM198.203 103.357C195.389 103.603 192.905 103.238 190.749 102.261C188.594 101.284 186.861 99.7661 185.55 97.7064C184.239 95.6468 183.452 93.1152 183.19 90.1116L183.185 90.0598C182.924 87.0735 183.269 84.4602 184.221 82.22C185.172 79.9626 186.623 78.1657 188.577 76.8294C190.53 75.4931 192.887 74.7042 195.649 74.4625C198.428 74.2194 200.895 74.5862 203.051 75.5631C205.222 76.5212 206.972 78.0292 208.3 80.0873C209.626 82.1282 210.421 84.6504 210.684 87.654L210.688 87.7058C210.953 90.7267 210.609 93.3658 209.659 95.6233C208.726 97.8792 207.282 99.6753 205.329 101.012C203.375 102.331 200.999 103.112 198.203 103.357ZM197.71 97.4253C198.936 97.3181 199.969 96.8972 200.809 96.1627C201.665 95.4095 202.279 94.3816 202.653 93.0792C203.041 91.758 203.157 90.1911 202.998 88.3786L202.993 88.3268C202.836 86.5316 202.452 85.0258 201.842 83.8094C201.231 82.5931 200.439 81.6969 199.467 81.121C198.493 80.5278 197.393 80.2849 196.168 80.3921C194.959 80.4978 193.927 80.9273 193.071 81.6806C192.231 82.4151 191.616 83.4343 191.225 84.7382C190.835 86.0421 190.718 87.5917 190.875 89.387L190.88 89.4388C191.038 91.2513 191.415 92.7751 192.01 94.0103C192.621 95.2266 193.414 96.1314 194.387 96.7245C195.36 97.3005 196.467 97.5341 197.71 97.4253ZM224.474 87.5173C224.553 90.2065 224.376 92.5615 223.944 94.5822C223.512 96.603 222.696 98.2051 221.495 99.3886C220.294 100.572 218.554 101.264 216.275 101.463C215.585 101.523 214.994 101.532 214.503 101.488C214.014 101.461 213.654 101.423 213.423 101.373L212.868 95.0294C213.027 95.0503 213.237 95.0667 213.499 95.0786C213.761 95.0905 214.064 95.0813 214.41 95.0511C215.307 94.9726 216.002 94.6596 216.493 94.1122C216.983 93.5475 217.31 92.7187 217.476 91.6258C217.658 90.5314 217.72 89.1518 217.662 87.4871L217.242 73.1474L238.941 71.249L241.369 99.0066L233.808 99.6681L231.88 77.6329L224.242 78.3012L224.474 87.5173ZM275.522 96.0186L274.528 84.6514L263.911 85.5802L264.906 96.9474L257.345 97.6089L254.917 69.8513L262.477 69.1898L263.411 79.8578L274.027 78.929L273.094 68.261L280.655 67.5995L283.083 95.3571L275.522 96.0186ZM301.258 94.341C298.444 94.5872 295.96 94.2218 293.804 93.245C291.649 92.2681 289.916 90.7499 288.605 88.6903C287.294 86.6307 286.508 84.0991 286.245 81.0955L286.24 81.0437C285.979 78.0573 286.324 75.444 287.276 73.2039C288.227 70.9464 289.679 69.1495 291.632 67.8133C293.585 66.477 295.942 65.688 298.704 65.4464C301.483 65.2032 303.951 65.5701 306.106 66.5469C308.277 67.505 310.027 69.0131 311.355 71.0712C312.681 73.112 313.476 75.6342 313.739 78.6379L313.743 78.6896C314.008 81.7105 313.665 84.3497 312.714 86.6071C311.781 88.8631 310.338 90.6592 308.385 91.9955C306.43 93.3145 304.055 94.0963 301.258 94.341ZM300.765 88.4092C301.991 88.3019 303.024 87.8811 303.864 87.1466C304.72 86.3933 305.335 85.3655 305.708 84.063C306.097 82.7418 306.212 81.175 306.053 79.3625L306.049 79.3107C305.891 77.5154 305.508 76.0096 304.897 74.7933C304.286 73.5769 303.494 72.6808 302.522 72.1049C301.548 71.5117 300.448 71.2687 299.223 71.3759C298.015 71.4817 296.982 71.9111 296.126 72.6644C295.286 73.3989 294.671 74.4181 294.28 75.7221C293.89 77.026 293.773 78.5756 293.931 80.3709L293.935 80.4226C294.094 82.2352 294.47 83.759 295.066 84.9941C295.676 86.2104 296.469 87.1152 297.443 87.7084C298.415 88.2843 299.522 88.5179 300.765 88.4092ZM343.777 90.0471L336.216 90.7086L335.199 79.0825L335.043 79.0961C334.311 80.0647 333.336 80.8544 332.12 81.4653C330.903 82.0761 329.553 82.4465 328.068 82.5764C324.892 82.8543 322.319 82.1749 320.35 80.5382C318.396 78.8827 317.281 76.4841 317.007 73.3424L316.232 64.4869L323.793 63.8254L324.461 71.4639C324.607 73.1384 325.167 74.3679 326.14 75.1524C327.112 75.9198 328.426 76.2309 330.084 76.0859C330.774 76.0255 331.415 75.8912 332.005 75.683C332.612 75.456 333.144 75.1746 333.601 74.8389C334.076 74.5016 334.452 74.1295 334.73 73.7226L333.787 62.951L341.348 62.2895L343.777 90.0471ZM349.214 89.5713L346.786 61.8138L354.217 61.1636L355.733 78.4862L359.358 78.1691L354.386 81.5785L365.429 60.1827L372.835 59.5348L375.263 87.2924L367.832 87.9425L366.296 70.3869L362.645 70.7063L367.591 67.2992L356.62 88.9234L349.214 89.5713ZM391.213 85.8969L388.785 58.1394L414.264 55.9102L416.692 83.6678L409.131 84.3293L407.201 62.2682L396.844 63.1744L398.774 85.2354L391.213 85.8969ZM422.13 83.1921L419.701 55.4345L427.133 54.7843L428.648 72.1069L432.273 71.7898L427.301 75.1992L438.344 53.8034L445.75 53.1555L448.178 80.9131L440.747 81.5633L439.211 64.0077L435.56 64.3271L440.506 60.9199L429.535 82.5442L422.13 83.1921ZM466.302 79.9015C463.488 80.1477 461.003 79.7737 458.846 78.7796C456.689 77.7855 454.964 76.2579 453.67 74.1968C452.375 72.1184 451.598 69.5947 451.338 66.6256L451.336 66.5997C451.076 63.6306 451.405 61.0275 452.322 58.7903C453.255 56.5344 454.69 54.739 456.626 53.4042C458.577 52.0507 460.934 51.2531 463.696 51.0115C466.216 50.791 468.441 51.0746 470.371 51.8625C472.3 52.633 473.852 53.7757 475.029 55.2905C476.222 56.8037 476.958 58.557 477.237 60.5504L477.253 60.7316L470.236 61.3455L470.164 61.117C469.823 59.8075 469.157 58.7525 468.165 57.9522C467.171 57.1346 465.889 56.7945 464.318 56.932C463.093 57.0392 462.053 57.4781 461.198 58.2486C460.359 59.0004 459.746 60.0368 459.357 61.358C458.984 62.6605 458.874 64.192 459.028 65.9528L459.03 65.9787C459.189 67.7912 459.566 69.315 460.161 70.5501C460.772 71.7665 461.555 72.672 462.512 73.2667C463.484 73.8426 464.592 74.0762 465.835 73.9675C467.354 73.8346 468.534 73.3052 469.375 72.3793C470.231 71.4346 470.728 70.2518 470.865 68.8309L470.87 68.5956L477.913 67.9795L477.927 68.1348C477.982 70.1651 477.554 72.0289 476.642 73.7264C475.729 75.424 474.391 76.8282 472.627 77.9392C470.879 79.0315 468.77 79.6856 466.302 79.9015ZM491.174 77.5951C489.327 77.7567 487.673 77.5447 486.213 76.9593C484.751 76.3566 483.568 75.46 482.664 74.2693C481.775 73.0599 481.26 71.6438 481.118 70.0212L481.114 69.9694C480.966 68.2777 481.263 66.7993 482.004 65.5342C482.744 64.2519 483.887 63.1952 485.432 62.3643C486.977 61.5333 488.89 60.9398 491.173 60.5835L501.937 58.9634L502.349 63.676L492.72 65.1446C491.277 65.3578 490.203 65.7997 489.496 66.4703C488.788 67.1237 488.477 67.9424 488.563 68.9263L488.567 68.9781C488.656 69.9966 489.115 70.7653 489.943 71.2842C490.77 71.7859 491.839 71.9794 493.151 71.8646C494.273 71.7664 495.255 71.463 496.098 70.9545C496.956 70.4271 497.603 69.7618 498.037 68.9585C498.487 68.1363 498.669 67.242 498.585 66.2753L497.849 57.86C497.741 56.6344 497.268 55.7017 496.43 55.0619C495.589 54.4048 494.427 54.1412 492.943 54.2711C491.527 54.3949 490.431 54.7866 489.653 55.446C488.876 56.1054 488.432 56.8922 488.321 57.8065L488.289 58.044L481.376 58.6489L481.374 58.3359C481.363 56.6149 481.791 55.0467 482.659 53.6314C483.544 52.2146 484.834 51.0581 486.53 50.1618C488.241 49.2467 490.314 48.6827 492.748 48.4697C495.148 48.2598 497.262 48.4662 499.09 49.089C500.917 49.6945 502.376 50.654 503.465 51.9677C504.571 53.2799 505.206 54.8681 505.369 56.7324L507.034 75.7639L499.473 76.4254L499.11 72.2825L498.955 72.2961C498.52 73.2908 497.919 74.1697 497.151 74.9327C496.398 75.6769 495.521 76.2842 494.518 76.7545C493.514 77.2077 492.399 77.4878 491.174 77.5951ZM521.47 61.5335C521.548 64.2227 521.372 66.5777 520.94 68.5985C520.508 70.6192 519.691 72.2213 518.49 73.4049C517.289 74.5884 515.549 75.2798 513.271 75.4792C512.58 75.5396 511.99 75.5478 511.499 75.5038C511.009 75.477 510.649 75.4389 510.419 75.3895L509.864 69.0456C510.022 69.0666 510.232 69.083 510.494 69.0949C510.756 69.1067 511.06 69.0976 511.405 69.0674C512.303 68.9888 512.997 68.6758 513.489 68.1284C513.978 67.5637 514.306 66.7349 514.471 65.642C514.654 64.5476 514.716 63.168 514.657 61.5033L514.238 47.1637L535.936 45.2653L538.365 73.0228L530.804 73.6843L528.876 51.6492L521.237 52.3175L521.47 61.5335ZM561.788 59.2324L560.882 59.3117L561.902 70.9636L554.341 71.6251L551.912 43.8676L559.473 43.2061L560.427 54.1071L561.333 54.0278L568.898 42.3815L577.495 41.6294L567.732 55.8945L567.651 54.9623L580.571 69.3303L571.482 70.1254L561.788 59.2324ZM588.491 77.8476C587.749 77.9126 587.029 77.9407 586.333 77.9321C585.636 77.9235 585.06 77.8956 584.603 77.8486L584.112 72.2297C584.392 72.2574 584.751 72.2782 585.187 72.2922C585.625 72.3235 586.12 72.315 586.672 72.2667C587.811 72.167 588.692 71.8986 589.315 71.4614C589.938 71.0243 590.372 70.3252 590.619 69.3644L590.876 68.4287L578.634 41.5297L586.946 40.8025L595.242 63.4546L594.1 62.0412L595.525 61.9166L594.646 63.5067L598.883 39.7582L606.858 39.0604L599.8 68.1436C599.266 70.3821 598.501 72.1797 597.507 73.5365C596.529 74.8918 595.296 75.9042 593.806 76.5738C592.317 77.2433 590.545 77.6679 588.491 77.8476ZM613.134 75.6133L609.913 38.7931L617.474 38.1316L617.898 42.9737L618.079 42.9578C618.481 41.792 619.053 40.7679 619.793 39.8856C620.551 39.0018 621.454 38.2965 622.504 37.7698C623.571 37.2416 624.761 36.9201 626.072 36.8054C628.42 36.6 630.49 37.0016 632.283 38.0101C634.075 39.0014 635.522 40.5359 636.626 42.6137C637.729 44.6914 638.413 47.2321 638.675 50.2357L638.678 50.2616C638.941 53.2652 638.709 55.8859 637.983 58.1237C637.274 60.36 636.133 62.1297 634.56 63.4328C632.986 64.7358 631.035 65.4893 628.704 65.6932C627.392 65.8079 626.156 65.6986 624.997 65.3653C623.837 65.0319 622.809 64.513 621.912 63.8087C621.014 63.0871 620.258 62.1966 619.643 61.1372L619.488 61.1507L620.695 74.9518L613.134 75.6133ZM625.567 59.6535C626.827 59.5433 627.886 59.1202 628.743 58.3842C629.599 57.6309 630.224 56.6195 630.617 55.3501C631.011 54.0807 631.134 52.6088 630.987 50.9344L630.985 50.9085C630.837 49.2168 630.459 47.78 629.851 46.5982C629.244 45.4164 628.446 44.5469 627.458 43.9898C626.485 43.4139 625.378 43.1803 624.135 43.289C622.909 43.3962 621.86 43.8272 620.987 44.582C620.112 45.3195 619.469 46.3237 619.058 47.5947C618.646 48.8483 618.514 50.321 618.662 52.0127L618.665 52.0386C618.81 53.6958 619.195 55.1145 619.82 56.2948C620.462 57.4736 621.27 58.3596 622.244 58.9528C623.233 59.5272 624.341 59.7608 625.567 59.6535ZM656.928 63.2239C654.114 63.4701 651.629 63.0961 649.472 62.102C647.315 61.1079 645.59 59.5803 644.296 57.5192C643.001 55.4408 642.224 52.9171 641.964 49.948L641.962 49.9221C641.702 46.953 642.031 44.3499 642.948 42.1127C643.882 39.8568 645.316 38.0614 647.252 36.7266C649.203 35.3731 651.56 34.5755 654.322 34.3338C656.842 34.1134 659.067 34.397 660.998 35.1848C662.926 35.9554 664.479 37.0981 665.655 38.6128C666.848 40.1261 667.584 41.8794 667.863 43.8727L667.879 44.054L660.862 44.6679L660.79 44.4394C660.449 43.1298 659.783 42.0749 658.791 41.2746C657.797 40.457 656.515 40.1169 654.944 40.2543C653.719 40.3616 652.679 40.8004 651.824 41.571C650.985 42.3227 650.372 43.3592 649.983 44.6804C649.61 45.9828 649.5 47.5144 649.654 49.2752L649.656 49.301C649.815 51.1136 650.192 52.6374 650.787 53.8725C651.398 55.0889 652.182 55.9944 653.138 56.5891C654.11 57.165 655.218 57.3986 656.461 57.2898C657.98 57.1569 659.16 56.6275 660.001 55.7016C660.857 54.757 661.354 53.5742 661.491 52.1533L661.496 51.918L668.539 51.3018L668.553 51.4572C668.609 53.4874 668.18 55.3513 667.268 57.0488C666.355 58.7463 665.017 60.1506 663.253 61.2616C661.505 62.3538 659.396 63.008 656.928 63.2239ZM681.8 60.9174C679.953 61.079 678.299 60.8671 676.839 60.2817C675.377 59.679 674.194 58.7823 673.29 57.5917C672.402 56.3822 671.886 54.9662 671.744 53.3436L671.74 53.2918C671.592 51.6001 671.889 50.1217 672.63 48.8566C673.37 47.5742 674.513 46.5176 676.058 45.6866C677.603 44.8557 679.517 44.2621 681.799 43.9059L692.563 42.2858L692.976 46.9983L683.346 48.467C681.903 48.6802 680.829 49.1221 680.122 49.7927C679.414 50.4461 679.103 51.2647 679.189 52.2487L679.194 52.3005C679.283 53.3189 679.741 54.0876 680.569 54.6066C681.396 55.1083 682.465 55.3017 683.777 55.187C684.899 55.0888 685.882 54.7854 686.724 54.2768C687.583 53.7495 688.229 53.0842 688.663 52.2808C689.113 51.4587 689.296 50.5643 689.211 49.5976L688.475 41.1823C688.368 39.9567 687.895 39.024 687.056 38.3842C686.216 37.7272 685.053 37.4636 683.569 37.5935C682.153 37.7173 681.057 38.1089 680.28 38.7684C679.502 39.4278 679.058 40.2146 678.947 41.1288L678.915 41.3664L672.002 41.9713L672.001 41.6583C671.989 39.9372 672.417 38.3691 673.285 36.9538C674.17 35.537 675.46 34.3805 677.156 33.4842C678.867 32.5691 680.94 32.005 683.374 31.7921C685.774 31.5822 687.888 31.7886 689.716 32.4113C691.544 33.0168 693.002 33.9764 694.091 35.2901C695.197 36.6022 695.832 38.1905 695.995 40.0548L697.66 59.0863L690.099 59.7478L689.737 55.6049L689.581 55.6185C689.146 56.6132 688.545 57.4921 687.777 58.255C687.024 58.9992 686.147 59.6065 685.144 60.0769C684.14 60.53 683.026 60.8102 681.8 60.9174ZM727.567 56.4698L720.006 57.1313L718.989 45.5052L718.833 45.5188C718.1 46.4874 717.126 47.2772 715.909 47.888C714.693 48.4989 713.343 48.8692 711.858 48.9991C708.682 49.277 706.109 48.5976 704.139 46.9609C702.186 45.3055 701.071 42.9069 700.796 39.7652L700.022 30.9097L707.582 30.2482L708.251 37.8867C708.397 39.5611 708.957 40.7906 709.93 41.5752C710.902 42.3425 712.216 42.6537 713.873 42.5087C714.564 42.4483 715.204 42.314 715.795 42.1057C716.401 41.8788 716.933 41.5974 717.391 41.2616C717.866 40.9244 718.242 40.5523 718.52 40.1453L717.577 29.3737L725.138 28.7123L727.567 56.4698ZM731.977 63.9375L732.615 49.4531L739.761 48.8279L737.207 63.4799L731.977 63.9375Z" fill="white"/>
<path d="M217.279 115.137L672.158 75.3403L676.629 126.453C677.27 133.775 671.854 140.23 664.532 140.87L236.168 178.347C228.846 178.988 222.392 173.572 221.751 166.25L217.279 115.137Z" fill="#FF0004"/>
<path d="M245.742 161.923C243.895 162.084 242.242 161.872 240.781 161.287C239.32 160.684 238.137 159.788 237.232 158.597C236.344 157.387 235.829 155.971 235.687 154.349L235.682 154.297C235.534 152.605 235.831 151.127 236.573 149.862C237.313 148.579 238.455 147.523 240 146.692C241.545 145.861 243.459 145.267 245.741 144.911L256.506 143.291L256.918 148.004L247.288 149.472C245.846 149.685 244.771 150.127 244.064 150.798C243.356 151.451 243.045 152.27 243.131 153.254L243.136 153.306C243.225 154.324 243.684 155.093 244.512 155.612C245.338 156.113 246.408 156.307 247.72 156.192C248.842 156.094 249.824 155.791 250.667 155.282C251.525 154.755 252.171 154.089 252.605 153.286C253.055 152.464 253.238 151.57 253.153 150.603L252.417 142.188C252.31 140.962 251.837 140.029 250.998 139.389C250.158 138.732 248.996 138.469 247.511 138.599C246.095 138.722 244.999 139.114 244.222 139.774C243.445 140.433 243 141.22 242.889 142.134L242.858 142.372L235.944 142.976L235.943 142.663C235.931 140.942 236.36 139.374 237.227 137.959C238.112 136.542 239.402 135.386 241.098 134.489C242.81 133.574 244.883 133.01 247.317 132.797C249.716 132.587 251.83 132.794 253.659 133.417C255.486 134.022 256.944 134.982 258.033 136.295C259.139 137.607 259.774 139.196 259.937 141.06L261.602 160.091L254.041 160.753L253.679 156.61L253.524 156.624C253.089 157.618 252.487 158.497 251.719 159.26C250.967 160.004 250.089 160.612 249.087 161.082C248.083 161.535 246.968 161.815 245.742 161.923ZM277.423 158.707L274.994 130.95L300.473 128.721L302.902 156.478L295.341 157.14L293.411 135.079L283.054 135.985L284.984 158.046L277.423 158.707ZM309.081 165.07L305.859 128.249L313.42 127.588L313.844 132.43L314.025 132.414C314.427 131.248 314.999 130.224 315.739 129.342C316.497 128.458 317.4 127.753 318.45 127.226C319.517 126.698 320.707 126.376 322.019 126.262C324.366 126.056 326.436 126.458 328.229 127.466C330.021 128.458 331.468 129.992 332.572 132.07C333.676 134.148 334.359 136.688 334.622 139.692L334.624 139.718C334.887 142.722 334.655 145.342 333.929 147.58C333.22 149.816 332.079 151.586 330.506 152.889C328.932 154.192 326.981 154.946 324.65 155.15C323.338 155.264 322.102 155.155 320.943 154.822C319.783 154.488 318.755 153.969 317.858 153.265C316.96 152.543 316.204 151.653 315.589 150.593L315.434 150.607L316.641 164.408L309.081 165.07ZM321.513 149.11C322.773 149 323.832 148.576 324.689 147.84C325.545 147.087 326.17 146.076 326.563 144.806C326.957 143.537 327.08 142.065 326.934 140.391L326.931 140.365C326.783 138.673 326.405 137.236 325.798 136.055C325.19 134.873 324.392 134.003 323.404 133.446C322.431 132.87 321.324 132.637 320.081 132.745C318.855 132.853 317.806 133.284 316.933 134.038C316.058 134.776 315.415 135.78 315.005 137.051C314.592 138.305 314.46 139.777 314.608 141.469L314.611 141.495C314.756 143.152 315.141 144.571 315.766 145.751C316.408 146.93 317.216 147.816 318.19 148.409C319.18 148.984 320.287 149.217 321.513 149.11ZM352.822 152.685C349.991 152.932 347.507 152.567 345.368 151.589C343.229 150.593 341.512 149.065 340.219 147.004C338.942 144.941 338.175 142.434 337.917 139.482L337.915 139.456C337.656 136.504 337.977 133.902 338.875 131.649C339.79 129.377 341.188 127.568 343.071 126.22C344.969 124.854 347.273 124.052 349.983 123.815C352.693 123.578 355.083 123.952 357.152 124.936C359.237 125.902 360.906 127.382 362.159 129.377C363.429 131.371 364.187 133.766 364.431 136.562L364.635 138.893L341.771 140.893L341.355 136.129L360.645 134.441L357.435 139.209L357.182 136.309C357.04 134.687 356.671 133.353 356.075 132.31C355.478 131.249 354.706 130.481 353.76 130.008C352.832 129.532 351.78 129.346 350.607 129.449C349.433 129.551 348.413 129.927 347.548 130.577C346.7 131.225 346.066 132.124 345.645 133.274C345.239 134.406 345.106 135.766 345.245 137.354L345.501 140.28C345.635 141.816 346 143.106 346.596 144.15C347.209 145.192 348.016 145.965 349.017 146.469C350.016 146.955 351.172 147.141 352.484 147.026C353.519 146.936 354.403 146.693 355.134 146.299C355.864 145.904 356.45 145.436 356.889 144.893C357.329 144.35 357.612 143.812 357.739 143.279L357.778 143.119L364.717 142.512L364.664 142.804C364.546 143.84 364.23 144.903 363.717 145.992C363.203 147.08 362.466 148.101 361.506 149.055C360.563 150.007 359.372 150.807 357.933 151.455C356.511 152.101 354.807 152.511 352.822 152.685ZM370.017 150.606L367.589 122.849L393.068 120.62L395.496 148.377L387.935 149.039L386.005 126.978L375.648 127.884L377.578 149.945L370.017 150.606ZM413.671 147.361C410.858 147.607 408.373 147.242 406.218 146.265C404.062 145.288 402.329 143.77 401.018 141.71C399.707 139.651 398.921 137.119 398.658 134.116L398.653 134.064C398.392 131.078 398.737 128.464 399.689 126.224C400.64 123.967 402.092 122.17 404.045 120.833C405.998 119.497 408.355 118.708 411.117 118.467C413.896 118.223 416.364 118.59 418.519 119.567C420.69 120.525 422.44 122.033 423.768 124.091C425.095 126.132 425.889 128.654 426.152 131.658L426.157 131.71C426.421 134.731 426.078 137.37 425.127 139.627C424.194 141.883 422.751 143.679 420.798 145.016C418.843 146.335 416.468 147.117 413.671 147.361ZM413.178 141.429C414.404 141.322 415.437 140.901 416.277 140.167C417.133 139.414 417.748 138.386 418.121 137.083C418.51 135.762 418.625 134.195 418.466 132.383L418.462 132.331C418.305 130.536 417.921 129.03 417.31 127.813C416.699 126.597 415.907 125.701 414.935 125.125C413.961 124.532 412.862 124.289 411.636 124.396C410.428 124.502 409.395 124.931 408.539 125.685C407.699 126.419 407.084 127.438 406.694 128.742C406.303 130.046 406.187 131.596 406.344 133.391L406.348 133.443C406.507 135.255 406.884 136.779 407.479 138.014C408.09 139.231 408.882 140.135 409.856 140.729C410.828 141.305 411.936 141.538 413.178 141.429ZM436.665 152.212L429.777 152.814L428.624 139.634L430.747 139.449C431.714 138.773 432.36 137.699 432.683 136.227C433.007 134.755 433.146 133.073 433.103 131.18L432.788 117.145L455.004 115.201L456.925 137.158L461.068 136.796L462.221 149.976L455.334 150.578L454.688 143.199L436.019 144.832L436.665 152.212ZM449.365 137.82L447.951 121.663L439.665 122.387L439.8 131.09C439.844 132.582 439.756 133.964 439.537 135.236C439.333 136.488 438.945 137.618 438.372 138.625L438.386 138.78L449.365 137.82ZM488.192 140.841C485.378 141.088 482.893 140.714 480.736 139.72C478.579 138.725 476.854 137.198 475.56 135.137C474.265 133.058 473.488 130.535 473.228 127.566L473.226 127.54C472.966 124.571 473.295 121.967 474.213 119.73C475.146 117.474 476.58 115.679 478.516 114.344C480.468 112.991 482.824 112.193 485.586 111.951C488.106 111.731 490.332 112.015 492.262 112.802C494.19 113.573 495.743 114.716 496.919 116.23C498.112 117.744 498.849 119.497 499.127 121.49L499.143 121.672L492.126 122.285L492.054 122.057C491.713 120.747 491.047 119.692 490.055 118.892C489.062 118.075 487.779 117.734 486.209 117.872C484.983 117.979 483.943 118.418 483.088 119.189C482.25 119.94 481.636 120.977 481.247 122.298C480.874 123.6 480.764 125.132 480.918 126.893L480.921 126.919C481.079 128.731 481.456 130.255 482.051 131.49C482.662 132.706 483.446 133.612 484.402 134.207C485.375 134.783 486.482 135.016 487.725 134.907C489.244 134.774 490.424 134.245 491.265 133.319C492.122 132.375 492.618 131.192 492.755 129.771L492.76 129.536L499.803 128.919L499.817 129.075C499.873 131.105 499.444 132.969 498.532 134.666C497.619 136.364 496.281 137.768 494.517 138.879C492.769 139.971 490.661 140.625 488.192 140.841ZM512.265 126.42L511.359 126.499L512.378 138.151L504.817 138.813L502.389 111.055L509.95 110.394L510.904 121.295L511.81 121.216L519.375 109.569L527.972 108.817L518.209 123.082L518.127 122.15L531.047 136.518L521.959 137.313L512.265 126.42ZM542.272 135.98C540.425 136.141 538.771 135.929 537.311 135.344C535.849 134.741 534.666 133.845 533.762 132.654C532.873 131.444 532.358 130.028 532.216 128.406L532.212 128.354C532.064 126.662 532.36 125.184 533.102 123.919C533.842 122.636 534.985 121.58 536.53 120.749C538.075 119.918 539.988 119.324 542.271 118.968L553.035 117.348L553.447 122.061L543.818 123.529C542.375 123.742 541.301 124.184 540.594 124.855C539.886 125.508 539.575 126.327 539.661 127.311L539.665 127.363C539.754 128.381 540.213 129.15 541.041 129.669C541.868 130.17 542.937 130.364 544.249 130.249C545.371 130.151 546.353 129.848 547.196 129.339C548.054 128.812 548.701 128.146 549.135 127.343C549.585 126.521 549.767 125.627 549.683 124.66L548.947 116.245C548.839 115.019 548.366 114.086 547.528 113.446C546.687 112.789 545.525 112.526 544.04 112.656C542.625 112.78 541.529 113.171 540.751 113.831C539.974 114.49 539.53 115.277 539.419 116.191L539.387 116.429L532.474 117.033L532.472 116.72C532.461 114.999 532.889 113.431 533.757 112.016C534.642 110.599 535.932 109.443 537.628 108.546C539.339 107.631 541.412 107.067 543.846 106.854C546.245 106.644 548.36 106.851 550.188 107.474C552.015 108.079 553.474 109.039 554.563 110.352C555.669 111.664 556.304 113.253 556.467 115.117L558.132 134.149L550.571 134.81L550.208 130.667L550.053 130.681C549.618 131.675 549.017 132.554 548.249 133.317C547.496 134.061 546.619 134.669 545.616 135.139C544.612 135.592 543.497 135.872 542.272 135.98ZM574.779 133.266C572.345 133.479 570.2 133.31 568.342 132.759C566.485 132.209 564.973 131.324 563.805 130.104C562.636 128.867 561.875 127.324 561.522 125.477L561.473 125.22L568.645 124.592L568.748 124.87C569.132 125.881 569.788 126.615 570.715 127.073C571.641 127.514 572.811 127.672 574.227 127.548C575.694 127.42 576.808 127.035 577.57 126.395C578.347 125.735 578.69 124.888 578.6 123.852L578.595 123.8C578.502 122.73 578.035 121.971 577.196 121.522C576.355 121.057 575.14 120.893 573.552 121.032L569.798 121.361L569.385 116.648L573.088 116.324C574.504 116.2 575.543 115.848 576.205 115.269C576.867 114.689 577.154 113.89 577.065 112.871L577.061 112.82C576.974 111.836 576.554 111.107 575.8 110.634C575.045 110.161 574.029 109.98 572.752 110.092C571.422 110.208 570.376 110.569 569.611 111.175C568.862 111.763 568.429 112.575 568.311 113.611L568.303 113.821L561.234 114.439L561.242 114.23C561.316 112.292 561.788 110.625 562.657 109.227C563.543 107.827 564.811 106.716 566.462 105.893C568.112 105.071 570.11 104.556 572.458 104.351C574.788 104.147 576.81 104.292 578.523 104.786C580.252 105.261 581.617 106.046 582.617 107.141C583.616 108.219 584.186 109.57 584.328 111.192L584.333 111.244C584.464 112.746 584.126 114.054 583.319 115.168C582.529 116.281 581.339 117.089 579.748 117.594L579.766 117.801C581.063 117.914 582.168 118.217 583.081 118.711C584.01 119.187 584.727 119.828 585.233 120.636C585.754 121.426 586.063 122.373 586.16 123.478L586.164 123.529C586.317 125.273 585.95 126.844 585.063 128.244C584.175 129.626 582.848 130.76 581.082 131.645C579.331 132.511 577.23 133.052 574.779 133.266ZM599.703 130.955C597.856 131.117 596.202 130.905 594.742 130.319C593.28 129.717 592.097 128.82 591.193 127.629C590.305 126.42 589.789 125.004 589.647 123.381L589.643 123.329C589.495 121.638 589.792 120.159 590.533 118.894C591.273 117.612 592.416 116.555 593.961 115.724C595.506 114.893 597.42 114.3 599.702 113.944L610.466 112.323L610.879 117.036L601.249 118.505C599.806 118.718 598.732 119.16 598.025 119.83C597.317 120.484 597.006 121.302 597.092 122.286L597.097 122.338C597.186 123.357 597.644 124.125 598.472 124.644C599.299 125.146 600.368 125.339 601.68 125.225C602.802 125.126 603.785 124.823 604.627 124.314C605.486 123.787 606.132 123.122 606.566 122.318C607.016 121.496 607.199 120.602 607.114 119.635L606.378 111.22C606.271 109.994 605.798 109.062 604.959 108.422C604.119 107.765 602.956 107.501 601.472 107.631C600.056 107.755 598.96 108.147 598.183 108.806C597.405 109.465 596.961 110.252 596.85 111.166L596.818 111.404L589.905 112.009L589.904 111.696C589.892 109.975 590.32 108.407 591.188 106.991C592.073 105.575 593.363 104.418 595.059 103.522C596.771 102.607 598.843 102.043 601.277 101.83C603.677 101.62 605.791 101.826 607.619 102.449C609.447 103.054 610.905 104.014 611.994 105.328C613.1 106.64 613.735 108.228 613.898 110.092L615.563 129.124L608.002 129.785L607.64 125.643L607.484 125.656C607.049 126.651 606.448 127.53 605.68 128.293C604.927 129.037 604.05 129.644 603.047 130.115C602.043 130.568 600.929 130.848 599.703 130.955ZM629.999 114.894C630.078 117.583 629.901 119.938 629.469 121.958C629.037 123.979 628.22 125.581 627.019 126.765C625.818 127.948 624.079 128.64 621.8 128.839C621.109 128.9 620.519 128.908 620.028 128.864C619.538 128.837 619.179 128.799 618.948 128.749L618.393 122.406C618.551 122.427 618.762 122.443 619.024 122.455C619.286 122.467 619.589 122.458 619.934 122.427C620.832 122.349 621.527 122.036 622.018 121.488C622.508 120.924 622.835 120.095 623.001 119.002C623.183 117.908 623.245 116.528 623.186 114.863L622.767 100.524L644.465 98.6253L646.894 126.383L639.333 127.044L637.405 105.009L629.767 105.677L629.999 114.894ZM651.33 133.848L651.968 119.364L659.114 118.739L656.561 133.391L651.33 133.848Z" fill="white"/>
<rect width="346.616" height="64.616" transform="translate(277.527 172.721) rotate(-5)" fill="#FF0004"/>
<path d="M304.864 219.162L297.744 219.785L295.315 192.027L305.129 191.168L313.939 208.662L314.12 208.646L319.758 189.888L329.468 189.039L331.897 216.797L324.776 217.419L323.152 198.854L322.971 198.87L317.287 216.509L312.056 216.967L303.421 200.58L303.24 200.596L304.864 219.162ZM350.098 215.778C347.284 216.024 344.8 215.659 342.644 214.682C340.489 213.705 338.756 212.187 337.445 210.127C336.134 208.068 335.347 205.536 335.084 202.533L335.08 202.481C334.819 199.494 335.164 196.881 336.116 194.641C337.067 192.384 338.518 190.587 340.471 189.25C342.424 187.914 344.782 187.125 347.544 186.884C350.323 186.64 352.79 187.007 354.946 187.984C357.117 188.942 358.866 190.45 360.194 192.508C361.521 194.549 362.316 197.071 362.579 200.075L362.583 200.127C362.847 203.148 362.504 205.787 361.554 208.044C360.62 210.3 359.177 212.096 357.224 213.433C355.27 214.752 352.894 215.533 350.098 215.778ZM349.605 209.846C350.831 209.739 351.863 209.318 352.704 208.584C353.56 207.83 354.174 206.803 354.547 205.5C354.936 204.179 355.051 202.612 354.893 200.8L354.888 200.748C354.731 198.953 354.347 197.447 353.736 196.23C353.125 195.014 352.334 194.118 351.362 193.542C350.388 192.949 349.288 192.706 348.063 192.813C346.854 192.919 345.822 193.348 344.966 194.102C344.126 194.836 343.51 195.855 343.12 197.159C342.73 198.463 342.613 200.013 342.77 201.808L342.775 201.86C342.933 203.672 343.31 205.196 343.905 206.431C344.516 207.648 345.308 208.552 346.282 209.146C347.254 209.721 348.362 209.955 349.605 209.846ZM373.326 213.172L364.419 213.951L374.13 197.603L374.236 198.82L362.405 186.157L371.053 185.401L380.168 195.64L380.815 195.583L379.857 184.631L387.34 183.976L388.298 194.929L388.945 194.872L396.118 183.208L404.714 182.456L395.33 196.87L395.223 195.653L407.686 210.166L398.701 210.952L389.392 199.973L388.744 200.03L389.768 211.733L382.285 212.388L381.261 200.684L380.614 200.741L373.326 213.172ZM428.867 208.313L427.873 196.946L417.256 197.874L418.251 209.242L410.69 209.903L408.261 182.145L415.822 181.484L416.756 192.152L427.372 191.223L426.439 180.555L433.999 179.894L436.428 207.651L428.867 208.313ZM454.603 206.635C451.789 206.881 449.305 206.516 447.149 205.539C444.994 204.562 443.261 203.044 441.95 200.984C440.639 198.925 439.852 196.393 439.59 193.39L439.585 193.338C439.324 190.351 439.669 187.738 440.621 185.498C441.572 183.241 443.023 181.444 444.976 180.107C446.929 178.771 449.287 177.982 452.049 177.741C454.828 177.497 457.295 177.864 459.451 178.841C461.622 179.799 463.372 181.307 464.7 183.365C466.026 185.406 466.821 187.928 467.084 190.932L467.088 190.984C467.352 194.005 467.009 196.644 466.059 198.901C465.126 201.157 463.682 202.953 461.729 204.29C459.775 205.609 457.399 206.39 454.603 206.635ZM454.11 200.703C455.336 200.596 456.369 200.175 457.209 199.441C458.065 198.687 458.679 197.66 459.052 196.357C459.441 195.036 459.556 193.469 459.398 191.657L459.393 191.605C459.236 189.81 458.852 188.304 458.241 187.087C457.631 185.871 456.839 184.975 455.867 184.399C454.893 183.806 453.793 183.563 452.568 183.67C451.359 183.776 450.327 184.205 449.471 184.959C448.631 185.693 448.016 186.712 447.625 188.016C447.235 189.32 447.118 190.87 447.275 192.665L447.28 192.717C447.438 194.529 447.815 196.053 448.41 197.288C449.021 198.505 449.814 199.409 450.787 200.003C451.76 200.578 452.867 200.812 454.11 200.703ZM496.317 202.986C493.331 203.247 490.739 202.856 488.544 201.813C486.363 200.752 484.624 199.06 483.325 196.738C482.026 194.417 481.22 191.469 480.907 187.896L480.903 187.844C480.563 183.96 480.602 180.626 481.019 177.841C481.437 175.056 482.208 172.745 483.335 170.907C484.461 169.069 485.946 167.652 487.79 166.656C489.651 165.658 491.837 165.006 494.35 164.699L497.58 164.338C499.146 164.149 500.551 163.904 501.795 163.604C503.038 163.304 504.034 162.956 504.782 162.56L505.294 168.412C504.804 168.768 503.955 169.112 502.749 169.443C501.559 169.756 500.163 170.009 498.563 170.201L495.516 170.572C493.278 170.837 491.501 171.401 490.185 172.265C488.886 173.126 487.93 174.323 487.316 175.855C486.72 177.386 486.357 179.305 486.228 181.612L486.208 181.979L486.364 181.966C486.852 180.792 487.503 179.779 488.315 178.925C489.128 178.071 490.121 177.393 491.294 176.89C492.466 176.37 493.812 176.044 495.331 175.911C497.817 175.693 500.021 176.04 501.945 176.95C503.884 177.841 505.447 179.209 506.635 181.053C507.823 182.897 508.533 185.149 508.765 187.807L508.77 187.859C509.021 190.724 508.685 193.25 507.763 195.435C506.841 197.621 505.402 199.364 503.446 200.666C501.507 201.966 499.131 202.739 496.317 202.986ZM495.669 197.067C496.946 196.956 498.016 196.558 498.878 195.873C499.738 195.172 500.36 194.222 500.742 193.023C501.123 191.807 501.24 190.37 501.095 188.713L501.091 188.661C500.952 187.073 500.592 185.748 500.012 184.685C499.431 183.606 498.657 182.812 497.691 182.305C496.725 181.798 495.603 181.601 494.325 181.713C493.031 181.826 491.952 182.216 491.088 182.883C490.225 183.55 489.592 184.466 489.189 185.632C488.802 186.779 488.679 188.147 488.817 189.735L488.822 189.787C488.967 191.444 489.333 192.838 489.919 193.97C490.52 195.083 491.306 195.91 492.275 196.451C493.243 196.975 494.374 197.181 495.669 197.067ZM514.418 200.828L511.99 173.07L519.551 172.409L520.253 180.436L525.639 179.965C528.919 179.678 531.603 180.339 533.692 181.947C535.798 183.555 536.982 185.86 537.245 188.864L537.25 188.916C537.513 191.919 536.746 194.395 534.951 196.344C533.174 198.291 530.645 199.408 527.365 199.695L514.418 200.828ZM524.765 185.781L520.751 186.132L521.481 194.47L525.494 194.119C526.858 194 527.904 193.525 528.631 192.696C529.359 191.867 529.668 190.831 529.559 189.589L529.555 189.537C529.445 188.277 528.96 187.31 528.101 186.637C527.241 185.947 526.128 185.662 524.765 185.781ZM541.062 198.497L538.634 170.739L546.195 170.078L548.623 197.835L541.062 198.497ZM563.163 183.596C563.242 186.285 563.065 188.64 562.633 190.661C562.201 192.682 561.384 194.284 560.183 195.467C558.982 196.651 557.243 197.342 554.964 197.542C554.273 197.602 553.683 197.61 553.192 197.566C552.702 197.539 552.343 197.501 552.112 197.452L551.557 191.108C551.715 191.129 551.926 191.145 552.188 191.157C552.45 191.169 552.753 191.16 553.098 191.13C553.996 191.051 554.69 190.738 555.182 190.191C555.672 189.626 555.999 188.797 556.164 187.704C556.347 186.61 556.409 185.23 556.35 183.566L555.931 169.226L577.629 167.328L580.058 195.085L572.497 195.747L570.569 173.712L562.931 174.38L563.163 183.596ZM598.259 194.067C595.445 194.313 592.96 193.948 590.805 192.971C588.65 191.994 586.917 190.476 585.606 188.416C584.295 186.357 583.508 183.825 583.245 180.821L583.241 180.77C582.98 177.783 583.325 175.17 584.277 172.93C585.227 170.672 586.679 168.875 588.632 167.539C590.585 166.203 592.943 165.414 595.705 165.172C598.484 164.929 600.951 165.296 603.107 166.273C605.278 167.231 607.027 168.739 608.355 170.797C609.682 172.838 610.477 175.36 610.739 178.364L610.744 178.416C611.008 181.436 610.665 184.076 609.715 186.333C608.781 188.589 607.338 190.385 605.385 191.721C603.431 193.04 601.055 193.822 598.259 194.067ZM597.766 188.135C598.991 188.028 600.024 187.607 600.865 186.872C601.721 186.119 602.335 185.091 602.708 183.789C603.097 182.468 603.212 180.901 603.054 179.088L603.049 179.037C602.892 177.241 602.508 175.735 601.897 174.519C601.286 173.303 600.495 172.407 599.523 171.831C598.549 171.238 597.449 170.995 596.223 171.102C595.015 171.208 593.983 171.637 593.127 172.39C592.287 173.125 591.671 174.144 591.281 175.448C590.891 176.752 590.774 178.301 590.931 180.097L590.936 180.149C591.094 181.961 591.471 183.485 592.066 184.72C592.677 185.936 593.469 186.841 594.443 187.434C595.415 188.01 596.523 188.244 597.766 188.135Z" fill="white"/>
<rect x="195.818" y="242.725" width="521.616" height="64.616" rx="13.308" transform="rotate(-5 195.818 242.725)" fill="#FF0004"/>
<path d="M234.212 288.198L233.217 276.831L222.601 277.76L223.595 289.127L216.035 289.788L213.606 262.031L221.167 261.369L222.1 272.037L232.717 271.109L231.783 260.441L239.344 259.779L241.773 287.537L234.212 288.198ZM259.844 286.53C257.013 286.777 254.528 286.412 252.39 285.434C250.251 284.438 248.534 282.91 247.241 280.849C245.964 278.786 245.197 276.279 244.939 273.327L244.936 273.301C244.678 270.349 244.998 267.747 245.897 265.494C246.812 263.222 248.21 261.413 250.093 260.065C251.991 258.699 254.295 257.897 257.005 257.66C259.715 257.423 262.105 257.796 264.174 258.781C266.259 259.746 267.928 261.227 269.181 263.222C270.451 265.216 271.208 267.611 271.453 270.407L271.657 272.737L248.793 274.738L248.376 269.973L267.667 268.286L264.457 273.054L264.204 270.154C264.062 268.531 263.693 267.198 263.097 266.155C262.5 265.094 261.728 264.326 260.782 263.852C259.854 263.377 258.802 263.191 257.628 263.293C256.455 263.396 255.435 263.772 254.57 264.422C253.722 265.07 253.088 265.969 252.667 267.119C252.261 268.251 252.128 269.61 252.267 271.198L252.523 274.124C252.657 275.661 253.022 276.951 253.618 277.994C254.231 279.037 255.038 279.81 256.039 280.314C257.038 280.8 258.194 280.986 259.506 280.871C260.541 280.781 261.425 280.538 262.155 280.144C262.886 279.749 263.471 279.281 263.911 278.738C264.351 278.195 264.634 277.657 264.761 277.124L264.799 276.964L271.739 276.357L271.686 276.649C271.568 277.685 271.252 278.748 270.739 279.836C270.225 280.925 269.488 281.946 268.528 282.9C267.585 283.852 266.394 284.652 264.955 285.3C263.533 285.946 261.829 286.356 259.844 286.53ZM298.891 283.113C296.457 283.326 294.312 283.158 292.454 282.607C290.597 282.056 289.085 281.171 287.917 279.951C286.748 278.714 285.986 277.172 285.634 275.324L285.585 275.067L292.757 274.44L292.86 274.718C293.244 275.728 293.9 276.462 294.827 276.92C295.753 277.361 296.923 277.519 298.339 277.396C299.806 277.267 300.92 276.883 301.682 276.242C302.459 275.583 302.802 274.735 302.712 273.699L302.707 273.648C302.614 272.577 302.147 271.818 301.308 271.37C300.467 270.904 299.252 270.741 297.664 270.88L293.91 271.208L293.497 266.495L297.2 266.171C298.616 266.048 299.655 265.696 300.317 265.116C300.979 264.536 301.266 263.737 301.177 262.719L301.172 262.667C301.086 261.683 300.666 260.954 299.912 260.481C299.157 260.008 298.141 259.827 296.864 259.939C295.534 260.055 294.488 260.416 293.723 261.023C292.974 261.61 292.541 262.422 292.423 263.458L292.415 263.668L285.346 264.286L285.354 264.077C285.428 262.14 285.9 260.472 286.769 259.074C287.655 257.675 288.923 256.563 290.574 255.741C292.224 254.918 294.222 254.404 296.57 254.198C298.9 253.995 300.922 254.139 302.635 254.633C304.364 255.108 305.729 255.893 306.729 256.989C307.728 258.067 308.298 259.417 308.44 261.04L308.445 261.091C308.576 262.593 308.238 263.901 307.431 265.015C306.641 266.128 305.451 266.937 303.86 267.441L303.878 267.648C305.175 267.761 306.28 268.064 307.193 268.559C308.122 269.034 308.839 269.676 309.345 270.484C309.866 271.273 310.175 272.22 310.272 273.325L310.276 273.377C310.429 275.12 310.062 276.692 309.175 278.091C308.287 279.474 306.96 280.607 305.194 281.492C303.443 282.359 301.342 282.899 298.891 283.113ZM323.815 280.802C321.968 280.964 320.314 280.752 318.854 280.167C317.392 279.564 316.209 278.667 315.305 277.477C314.417 276.267 313.901 274.851 313.759 273.229L313.755 273.177C313.607 271.485 313.904 270.007 314.645 268.742C315.385 267.459 316.528 266.403 318.073 265.572C319.618 264.741 321.532 264.147 323.814 263.791L334.578 262.171L334.991 266.883L325.361 268.352C323.918 268.565 322.844 269.007 322.137 269.678C321.429 270.331 321.118 271.15 321.204 272.134L321.209 272.185C321.298 273.204 321.756 273.973 322.584 274.492C323.411 274.993 324.48 275.187 325.792 275.072C326.914 274.974 327.897 274.67 328.739 274.162C329.598 273.634 330.244 272.969 330.678 272.166C331.128 271.344 331.311 270.449 331.226 269.483L330.49 261.067C330.383 259.842 329.91 258.909 329.071 258.269C328.231 257.612 327.068 257.349 325.584 257.478C324.168 257.602 323.072 257.994 322.295 258.653C321.517 259.313 321.073 260.1 320.962 261.014L320.93 261.251L314.017 261.856L314.016 261.543C314.004 259.822 314.432 258.254 315.3 256.839C316.185 255.422 317.475 254.265 319.171 253.369C320.883 252.454 322.955 251.89 325.389 251.677C327.789 251.467 329.903 251.674 331.731 252.296C333.559 252.902 335.017 253.861 336.106 255.175C337.212 256.487 337.847 258.075 338.01 259.94L339.675 278.971L332.114 279.633L331.752 275.49L331.596 275.503C331.161 276.498 330.56 277.377 329.792 278.14C329.039 278.884 328.162 279.492 327.159 279.962C326.155 280.415 325.041 280.695 323.815 280.802ZM352.104 277.884L344.983 278.507L342.555 250.749L352.368 249.891L361.178 267.384L361.359 267.368L366.998 248.611L376.708 247.761L379.136 275.519L372.016 276.142L370.391 257.576L370.21 257.592L364.526 275.232L359.296 275.689L350.661 259.303L350.479 259.318L352.104 277.884ZM397.337 274.501C394.523 274.747 392.039 274.381 389.884 273.405C387.728 272.428 385.995 270.909 384.684 268.85C383.373 266.79 382.587 264.259 382.324 261.255L382.319 261.203C382.058 258.217 382.403 255.604 383.355 253.363C384.306 251.106 385.758 249.309 387.711 247.973C389.664 246.637 392.021 245.848 394.783 245.606C397.562 245.363 400.03 245.73 402.185 246.706C404.356 247.665 406.106 249.173 407.434 251.231C408.76 253.272 409.555 255.794 409.818 258.797L409.822 258.849C410.087 261.87 409.744 264.509 408.793 266.767C407.86 269.023 406.417 270.819 404.464 272.155C402.509 273.474 400.134 274.256 397.337 274.501ZM396.844 268.569C398.07 268.461 399.103 268.041 399.943 267.306C400.799 266.553 401.414 265.525 401.787 264.223C402.176 262.901 402.291 261.335 402.132 259.522L402.128 259.47C401.971 257.675 401.587 256.169 400.976 254.953C400.365 253.736 399.573 252.84 398.601 252.264C397.627 251.671 396.528 251.428 395.302 251.535C394.094 251.641 393.061 252.071 392.205 252.824C391.365 253.558 390.75 254.578 390.36 255.882C389.969 257.186 389.853 258.735 390.01 260.53L390.014 260.582C390.173 262.395 390.55 263.919 391.145 265.154C391.755 266.37 392.548 267.275 393.522 267.868C394.494 268.444 395.601 268.677 396.844 268.569ZM416.102 281.417L412.881 244.597L420.441 243.935L420.865 248.777L421.046 248.761C421.449 247.595 422.02 246.571 422.76 245.689C423.518 244.805 424.422 244.1 425.472 243.573C426.539 243.045 427.728 242.724 429.04 242.609C431.388 242.403 433.458 242.805 435.251 243.814C437.042 244.805 438.49 246.339 439.593 248.417C440.697 250.495 441.38 253.036 441.643 256.039L441.645 256.065C441.908 259.069 441.676 261.689 440.95 263.927C440.241 266.163 439.1 267.933 437.527 269.236C435.954 270.539 434.002 271.293 431.672 271.497C430.36 271.611 429.124 271.502 427.964 271.169C426.804 270.835 425.776 270.316 424.88 269.612C423.981 268.891 423.225 268 422.611 266.941L422.455 266.954L423.663 280.755L416.102 281.417ZM428.534 265.457C429.794 265.347 430.853 264.924 431.711 264.188C432.567 263.434 433.191 262.423 433.585 261.154C433.978 259.884 434.101 258.412 433.955 256.738L433.953 256.712C433.805 255.02 433.427 253.584 432.819 252.402C432.211 251.22 431.413 250.35 430.425 249.793C429.453 249.217 428.345 248.984 427.102 249.092C425.877 249.2 424.827 249.631 423.954 250.385C423.079 251.123 422.437 252.127 422.026 253.398C421.614 254.652 421.482 256.124 421.63 257.816L421.632 257.842C421.777 259.499 422.162 260.918 422.787 262.098C423.429 263.277 424.238 264.163 425.211 264.756C426.201 265.331 427.308 265.564 428.534 265.457ZM455.456 269.285C453.609 269.447 451.956 269.235 450.495 268.65C449.034 268.047 447.851 267.15 446.946 265.96C446.058 264.75 445.543 263.334 445.401 261.711L445.396 261.66C445.248 259.968 445.545 258.49 446.287 257.224C447.027 255.942 448.169 254.885 449.714 254.055C451.259 253.224 453.173 252.63 455.455 252.274L466.22 250.654L466.632 255.366L457.002 256.835C455.56 257.048 454.485 257.49 453.778 258.161C453.07 258.814 452.759 259.633 452.845 260.617L452.85 260.668C452.939 261.687 453.398 262.456 454.226 262.974C455.052 263.476 456.122 263.67 457.434 263.555C458.556 263.457 459.538 263.153 460.381 262.645C461.239 262.117 461.885 261.452 462.319 260.649C462.769 259.827 462.952 258.932 462.867 257.966L462.131 249.55C462.024 248.325 461.551 247.392 460.712 246.752C459.872 246.095 458.71 245.831 457.225 245.961C455.809 246.085 454.713 246.477 453.936 247.136C453.159 247.796 452.714 248.582 452.603 249.497L452.572 249.734L445.658 250.339L445.657 250.026C445.645 248.305 446.074 246.737 446.941 245.322C447.826 243.905 449.116 242.748 450.812 241.852C452.524 240.937 454.597 240.373 457.031 240.16C459.43 239.95 461.544 240.156 463.373 240.779C465.2 241.385 466.658 242.344 467.747 243.658C468.853 244.97 469.488 246.558 469.651 248.423L471.316 267.454L463.755 268.116L463.393 263.973L463.238 263.986C462.803 264.981 462.201 265.86 461.433 266.623C460.681 267.367 459.803 267.974 458.801 268.445C457.797 268.898 456.682 269.178 455.456 269.285ZM501.223 264.838L493.662 265.499L492.645 253.873L492.49 253.887C491.757 254.855 490.782 255.645 489.566 256.256C488.349 256.867 486.999 257.237 485.515 257.367C482.338 257.645 479.765 256.965 477.796 255.329C475.842 253.673 474.728 251.275 474.453 248.133L473.678 239.278L481.239 238.616L481.907 246.255C482.054 247.929 482.613 249.158 483.587 249.943C484.558 250.71 485.873 251.022 487.53 250.877C488.22 250.816 488.861 250.682 489.451 250.474C490.058 250.247 490.59 249.965 491.047 249.63C491.522 249.292 491.898 248.92 492.176 248.513L491.234 237.742L498.794 237.08L501.223 264.838ZM506.66 264.362L504.232 236.604L511.663 235.954L513.179 253.277L516.804 252.96L511.832 256.369L522.875 234.973L530.281 234.325L532.709 262.083L525.278 262.733L523.742 245.178L520.091 245.497L525.037 242.09L514.066 263.714L506.66 264.362ZM538.147 261.607L535.718 233.85L549.623 232.633C552.506 232.381 554.821 232.805 556.57 233.904C558.319 235.003 559.289 236.649 559.481 238.842L559.485 238.893C559.614 240.361 559.245 241.715 558.38 242.956C557.53 244.178 556.398 244.964 554.985 245.314L555.003 245.521C556.26 245.568 557.38 245.844 558.363 246.349C559.363 246.836 560.161 247.514 560.759 248.384C561.374 249.252 561.732 250.264 561.834 251.421L561.838 251.472C561.979 253.078 561.687 254.521 560.964 255.802C560.24 257.065 559.139 258.101 557.662 258.908C556.2 259.697 554.416 260.184 552.31 260.368L538.147 261.607ZM545.152 256.089L549.735 255.688C551.22 255.558 552.324 255.157 553.048 254.485C553.789 253.812 554.108 252.879 554.003 251.688L553.999 251.636C553.898 250.48 553.399 249.654 552.504 249.158C551.625 248.661 550.383 248.482 548.778 248.623L544.531 248.994L545.152 256.089ZM544.126 244.36L548.165 244.006C549.546 243.885 550.577 243.534 551.256 242.953C551.934 242.354 552.228 241.537 552.138 240.502L552.133 240.45C552.044 239.431 551.639 238.684 550.919 238.208C550.217 237.73 549.244 237.545 548.001 237.654L543.573 238.042L544.126 244.36ZM575.342 258.797C573.495 258.958 571.841 258.746 570.381 258.161C568.919 257.558 567.736 256.662 566.832 255.471C565.944 254.261 565.428 252.845 565.286 251.223L565.282 251.171C565.134 249.479 565.431 248.001 566.172 246.736C566.912 245.453 568.055 244.397 569.6 243.566C571.145 242.735 573.059 242.141 575.341 241.785L586.105 240.165L586.518 244.878L576.888 246.346C575.445 246.559 574.371 247.001 573.664 247.672C572.956 248.325 572.645 249.144 572.731 250.128L572.736 250.18C572.825 251.198 573.283 251.967 574.111 252.486C574.938 252.988 576.007 253.181 577.319 253.066C578.441 252.968 579.424 252.665 580.266 252.156C581.125 251.629 581.771 250.963 582.205 250.16C582.655 249.338 582.838 248.444 582.753 247.477L582.017 239.062C581.91 237.836 581.437 236.903 580.598 236.263C579.758 235.606 578.595 235.343 577.111 235.473C575.695 235.597 574.599 235.988 573.822 236.648C573.044 237.307 572.6 238.094 572.489 239.008L572.457 239.246L565.544 239.85L565.543 239.538C565.531 237.816 565.959 236.248 566.827 234.833C567.712 233.416 569.002 232.26 570.698 231.363C572.41 230.448 574.482 229.884 576.916 229.671C579.316 229.461 581.43 229.668 583.258 230.291C585.086 230.896 586.544 231.856 587.633 233.169C588.739 234.481 589.374 236.07 589.537 237.934L591.202 256.966L583.641 257.627L583.279 253.484L583.123 253.498C582.688 254.492 582.087 255.371 581.319 256.134C580.566 256.878 579.689 257.486 578.686 257.956C577.682 258.409 576.568 258.689 575.342 258.797ZM616.324 226.798L616.824 232.52L608.565 233.243L610.492 255.278L602.932 255.939L601.004 233.904L592.744 234.627L592.243 228.904L616.324 226.798ZM622.61 254.218L620.182 226.46L627.743 225.799L628.445 233.826L633.831 233.354C637.111 233.067 639.795 233.728 641.884 235.337C643.99 236.945 645.175 239.25 645.437 242.254L645.442 242.305C645.705 245.309 644.939 247.785 643.143 249.734C641.366 251.681 638.837 252.798 635.557 253.085L622.61 254.218ZM632.957 239.171L628.943 239.522L629.673 247.86L633.686 247.509C635.05 247.389 636.096 246.915 636.823 246.086C637.551 245.257 637.86 244.221 637.752 242.978L637.747 242.926C637.637 241.666 637.152 240.7 636.293 240.027C635.433 239.337 634.321 239.052 632.957 239.171ZM663.209 251.24C660.395 251.486 657.91 251.112 655.753 250.118C653.596 249.124 651.871 247.596 650.577 245.535C649.282 243.457 648.505 240.933 648.245 237.964L648.243 237.938C647.983 234.969 648.312 232.366 649.23 230.129C650.163 227.873 651.597 226.077 653.533 224.742C655.485 223.389 657.841 222.591 660.603 222.35C663.124 222.129 665.349 222.413 667.279 223.201C669.207 223.971 670.76 225.114 671.936 226.629C673.129 228.142 673.866 229.895 674.144 231.889L674.16 232.07L667.143 232.684L667.071 232.455C666.73 231.146 666.064 230.091 665.072 229.29C664.079 228.473 662.796 228.133 661.226 228.27C660 228.377 658.96 228.816 658.105 229.587C657.267 230.339 656.653 231.375 656.264 232.696C655.891 233.999 655.781 235.53 655.936 237.291L655.938 237.317C656.096 239.129 656.473 240.653 657.068 241.888C657.679 243.105 658.463 244.01 659.419 244.605C660.392 245.181 661.499 245.414 662.742 245.306C664.261 245.173 665.441 244.643 666.282 243.717C667.139 242.773 667.635 241.59 667.772 240.169L667.777 239.934L674.82 239.318L674.834 239.473C674.89 241.503 674.461 243.367 673.549 245.065C672.636 246.762 671.298 248.166 669.534 249.277C667.786 250.37 665.678 251.024 663.209 251.24ZM695.655 247.827L694.871 238.868L691.687 239.147L686.308 248.645L677.893 249.381L684.311 238.644C682.376 238.204 680.796 237.342 679.571 236.058C678.363 234.772 677.672 233.145 677.5 231.178L677.496 231.126C677.323 229.158 677.632 227.417 678.422 225.905C679.211 224.392 680.401 223.175 681.99 222.253C683.595 221.312 685.519 220.744 687.763 220.547L700.632 219.422L703.061 247.179L695.655 247.827ZM689.692 233.946L694.405 233.534L693.721 225.714L689.008 226.127C687.679 226.243 686.658 226.697 685.944 227.49C685.247 228.265 684.951 229.265 685.059 230.49L685.063 230.542C685.158 231.629 685.626 232.502 686.466 233.159C687.305 233.799 688.38 234.061 689.692 233.946Z" fill="white"/>
</svg>
