<svg width="900" height="323" viewBox="0 0 900 323" fill="none" xmlns="http://www.w3.org/2000/svg">
<rect y="31" width="900" height="250" rx="20" fill="black"/>
<rect x="125.262" y="54.9883" width="629.468" height="69.9392" rx="13.308" transform="rotate(-5 125.262 54.9883)" fill="#FF0004"/>
<path d="M179.355 104.431L171.535 105.115L168.83 74.1983L152.129 75.6594L154.834 106.576L147.014 107.26L143.745 69.8962L176.086 67.0667L179.355 104.431ZM198.203 103.356C195.389 103.602 192.905 103.237 190.749 102.26C188.594 101.283 186.861 99.7646 185.55 97.705C184.239 95.6454 183.452 93.1138 183.19 90.1101L183.185 90.0584C182.924 87.072 183.269 84.4587 184.221 82.2186C185.172 79.9611 186.623 78.1642 188.577 76.828C190.53 75.4917 192.887 74.7027 195.649 74.4611C198.428 74.2179 200.895 74.5848 203.051 75.5616C205.222 76.5197 206.972 78.0278 208.3 80.0859C209.626 82.1267 210.421 84.6489 210.684 87.6525L210.688 87.7043C210.953 90.7252 210.609 93.3644 209.659 95.6218C208.726 97.8778 207.282 99.6739 205.329 101.01C203.375 102.329 200.999 103.111 198.203 103.356ZM197.71 97.4239C198.936 97.3166 199.969 96.8958 200.809 96.1613C201.665 95.408 202.279 94.3802 202.653 93.0777C203.041 91.7565 203.157 90.1897 202.998 88.3771L202.993 88.3254C202.836 86.5301 202.452 85.0243 201.842 83.8079C201.231 82.5916 200.439 81.6955 199.467 81.1196C198.493 80.5264 197.393 80.2834 196.168 80.3906C194.959 80.4963 193.927 80.9258 193.071 81.6791C192.231 82.4136 191.616 83.4328 191.225 84.7367C190.835 86.0407 190.718 87.5903 190.875 89.3855L190.88 89.4373C191.038 91.2499 191.415 92.7737 192.01 94.0088C192.621 95.2251 193.414 96.1299 194.387 96.7231C195.36 97.299 196.467 97.5326 197.71 97.4239ZM224.474 87.5158C224.553 90.205 224.376 92.56 223.944 94.5807C223.512 96.6015 222.696 98.2036 221.495 99.3872C220.294 100.571 218.554 101.262 216.275 101.461C215.585 101.522 214.994 101.53 214.503 101.486C214.014 101.459 213.654 101.421 213.423 101.372L212.868 95.0279C213.027 95.0489 213.237 95.0653 213.499 95.0771C213.761 95.089 214.064 95.0798 214.41 95.0496C215.307 94.9711 216.002 94.6581 216.493 94.1107C216.983 93.546 217.31 92.7172 217.476 91.6243C217.658 90.5299 217.72 89.1503 217.662 87.4856L217.242 73.1459L238.941 71.2476L241.369 99.0051L233.808 99.6666L231.88 77.6315L224.242 78.2997L224.474 87.5158ZM275.522 96.0171L274.528 84.65L263.911 85.5788L264.906 96.9459L257.345 97.6074L254.917 69.8498L262.477 69.1883L263.411 79.8564L274.027 78.9276L273.094 68.2595L280.655 67.5981L283.083 95.3556L275.522 96.0171ZM301.258 94.3395C298.444 94.5857 295.96 94.2203 293.804 93.2435C291.649 92.2667 289.916 90.7484 288.605 88.6888C287.294 86.6292 286.508 84.0976 286.245 81.094L286.24 81.0422C285.979 78.0559 286.324 75.4426 287.276 73.2024C288.227 70.9449 289.679 69.1481 291.632 67.8118C293.585 66.4755 295.942 65.6866 298.704 65.4449C301.483 65.2018 303.951 65.5686 306.106 66.5455C308.277 67.5035 310.027 69.0116 311.355 71.0697C312.681 73.1105 313.476 75.6328 313.739 78.6364L313.743 78.6882C314.008 81.7091 313.665 84.3482 312.714 86.6057C311.781 88.8616 310.338 90.6577 308.385 91.994C306.43 93.313 304.055 94.0949 301.258 94.3395ZM300.765 88.4077C301.991 88.3005 303.024 87.8796 303.864 87.1451C304.72 86.3918 305.335 85.364 305.708 84.0616C306.097 82.7404 306.212 81.1735 306.053 79.361L306.049 79.3092C305.891 77.5139 305.508 76.0081 304.897 74.7918C304.286 73.5754 303.494 72.6793 302.522 72.1034C301.548 71.5102 300.448 71.2672 299.223 71.3745C298.015 71.4802 296.982 71.9097 296.126 72.6629C295.286 73.3974 294.671 74.4167 294.28 75.7206C293.89 77.0245 293.773 78.5741 293.931 80.3694L293.935 80.4212C294.094 82.2337 294.47 83.7575 295.066 84.9926C295.676 86.209 296.469 87.1137 297.443 87.7069C298.415 88.2828 299.522 88.5164 300.765 88.4077ZM343.777 90.0456L336.216 90.7071L335.199 79.081L335.043 79.0946C334.311 80.0632 333.336 80.853 332.12 81.4638C330.903 82.0747 329.553 82.445 328.068 82.5749C324.892 82.8528 322.319 82.1734 320.35 80.5367C318.396 78.8812 317.281 76.4827 317.007 73.3409L316.232 64.4854L323.793 63.824L324.461 71.4625C324.607 73.1369 325.167 74.3664 326.14 75.151C327.112 75.9183 328.426 76.2295 330.084 76.0845C330.774 76.0241 331.415 75.8897 332.005 75.6815C332.612 75.4545 333.144 75.1732 333.601 74.8374C334.076 74.5002 334.452 74.1281 334.73 73.7211L333.787 62.9495L341.348 62.288L343.777 90.0456ZM349.214 89.5699L346.786 61.8123L354.217 61.1622L355.733 78.4847L359.358 78.1676L354.386 81.577L365.429 60.1812L372.835 59.5334L375.263 87.2909L367.832 87.9411L366.296 70.3855L362.645 70.7049L367.591 67.2977L356.62 88.922L349.214 89.5699ZM391.213 85.8955L388.785 58.1379L414.264 55.9088L416.692 83.6663L409.131 84.3278L407.201 62.2668L396.844 63.1729L398.774 85.234L391.213 85.8955ZM422.13 83.1906L419.701 55.433L427.133 54.7829L428.648 72.1055L432.273 71.7883L427.301 75.1978L438.344 53.802L445.75 53.1541L448.178 80.9116L440.747 81.5618L439.211 64.0062L435.56 64.3256L440.506 60.9184L429.535 82.5427L422.13 83.1906ZM466.302 79.9001C463.488 80.1462 461.003 79.7723 458.846 78.7782C456.689 77.7841 454.964 76.2564 453.67 74.1953C452.375 72.117 451.598 69.5932 451.338 66.6241L451.336 66.5982C451.076 63.6291 451.405 61.026 452.322 58.7888C453.255 56.5329 454.69 54.7376 456.626 53.4028C458.577 52.0492 460.934 51.2516 463.696 51.01C466.216 50.7895 468.441 51.0732 470.371 51.861C472.3 52.6316 473.852 53.7742 475.029 55.289C476.222 56.8022 476.958 58.5555 477.237 60.5489L477.253 60.7302L470.236 61.3441L470.164 61.1156C469.823 59.806 469.157 58.7511 468.165 57.9507C467.171 57.1331 465.889 56.7931 464.318 56.9305C463.093 57.0377 462.053 57.4766 461.198 58.2471C460.359 58.9989 459.746 60.0354 459.357 61.3566C458.984 62.659 458.874 64.1906 459.028 65.9513L459.03 65.9772C459.189 67.7897 459.566 69.3136 460.161 70.5487C460.772 71.765 461.555 72.6705 462.512 73.2652C463.484 73.8411 464.592 74.0747 465.835 73.966C467.354 73.8331 468.534 73.3037 469.375 72.3778C470.231 71.4331 470.728 70.2504 470.865 68.8295L470.87 68.5942L477.913 67.978L477.927 68.1334C477.982 70.1636 477.554 72.0275 476.642 73.725C475.729 75.4225 474.391 76.8267 472.627 77.9378C470.879 79.03 468.77 79.6841 466.302 79.9001ZM491.174 77.5936C489.327 77.7552 487.673 77.5433 486.213 76.9579C484.751 76.3552 483.568 75.4585 482.664 74.2678C481.775 73.0584 481.26 71.6424 481.118 70.0197L481.114 69.9679C480.966 68.2762 481.263 66.7978 482.004 65.5328C482.744 64.2504 483.887 63.1938 485.432 62.3628C486.977 61.5319 488.89 60.9383 491.173 60.5821L501.937 58.9619L502.349 63.6745L492.72 65.1432C491.277 65.3563 490.203 65.7982 489.496 66.4689C488.788 67.1222 488.477 67.9409 488.563 68.9248L488.567 68.9766C488.656 69.9951 489.115 70.7638 489.943 71.2828C490.77 71.7844 491.839 71.9779 493.151 71.8631C494.273 71.765 495.255 71.4616 496.098 70.953C496.956 70.4257 497.603 69.7603 498.037 68.957C498.487 68.1349 498.669 67.2405 498.585 66.2738L497.849 57.8585C497.741 56.6329 497.268 55.7002 496.43 55.0604C495.589 54.4033 494.427 54.1398 492.943 54.2696C491.527 54.3935 490.431 54.7851 489.653 55.4445C488.876 56.1039 488.432 56.8907 488.321 57.805L488.289 58.0426L481.376 58.6474L481.374 58.3344C481.363 56.6134 481.791 55.0452 482.659 53.63C483.544 52.2132 484.834 51.0566 486.53 50.1603C488.241 49.2452 490.314 48.6812 492.748 48.4683C495.148 48.2583 497.262 48.4648 499.09 49.0875C500.917 49.693 502.376 50.6526 503.465 51.9662C504.571 53.2784 505.206 54.8666 505.369 56.7309L507.034 75.7625L499.473 76.424L499.11 72.281L498.955 72.2946C498.52 73.2894 497.919 74.1682 497.151 74.9312C496.398 75.6754 495.521 76.2827 494.518 76.7531C493.514 77.2062 492.399 77.4864 491.174 77.5936ZM521.47 61.532C521.548 64.2213 521.372 66.5763 520.94 68.597C520.508 70.6177 519.691 72.2199 518.49 73.4034C517.289 74.5869 515.549 75.2784 513.271 75.4777C512.58 75.5381 511.99 75.5463 511.499 75.5023C511.009 75.4755 510.649 75.4374 510.419 75.388L509.864 69.0442C510.022 69.0651 510.232 69.0815 510.494 69.0934C510.756 69.1053 511.06 69.0961 511.405 69.0659C512.303 68.9874 512.997 68.6744 513.489 68.127C513.978 67.5623 514.306 66.7335 514.471 65.6406C514.654 64.5462 514.716 63.1666 514.657 61.5019L514.238 47.1622L535.936 45.2638L538.365 73.0214L530.804 73.6829L528.876 51.6477L521.237 52.316L521.47 61.532ZM561.788 59.2309L560.882 59.3102L561.902 70.9622L554.341 71.6237L551.912 43.8661L559.473 43.2046L560.427 54.1057L561.333 54.0264L568.898 42.38L577.495 41.6279L567.732 55.893L567.651 54.9609L580.571 69.3288L571.482 70.124L561.788 59.2309ZM588.491 77.8462C587.749 77.9111 587.029 77.9393 586.333 77.9306C585.636 77.922 585.06 77.8941 584.603 77.8471L584.112 72.2283C584.392 72.2559 584.751 72.2767 585.187 72.2907C585.625 72.322 586.12 72.3135 586.672 72.2652C587.811 72.1655 588.692 71.8971 589.315 71.4599C589.938 71.0228 590.372 70.3238 590.619 69.3629L590.876 68.4272L578.634 41.5282L586.946 40.801L595.242 63.4532L594.1 62.0397L595.525 61.9151L594.646 63.5053L598.883 39.7567L606.858 39.059L599.8 68.1422C599.266 70.3806 598.501 72.1783 597.507 73.5351C596.529 74.8903 595.296 75.9028 593.806 76.5723C592.317 77.2418 590.545 77.6665 588.491 77.8462ZM613.134 75.6119L609.913 38.7917L617.474 38.1302L617.898 42.9722L618.079 42.9564C618.481 41.7905 619.053 40.7665 619.793 39.8841C620.551 39.0003 621.454 38.2951 622.504 37.7684C623.571 37.2402 624.761 36.9187 626.072 36.8039C628.42 36.5985 630.49 37.0001 632.283 38.0086C634.075 38.9999 635.522 40.5345 636.626 42.6122C637.729 44.6899 638.413 47.2306 638.675 50.2342L638.678 50.2601C638.941 53.2637 638.709 55.8844 637.983 58.1222C637.274 60.3585 636.133 62.1282 634.56 63.4313C632.986 64.7343 631.035 65.4878 628.704 65.6917C627.392 65.8065 626.156 65.6972 624.997 65.3638C623.837 65.0304 622.809 64.5116 621.912 63.8072C621.014 63.0857 620.258 62.1952 619.643 61.1357L619.488 61.1493L620.695 74.9504L613.134 75.6119ZM625.567 59.6521C626.827 59.5418 627.886 59.1187 628.743 58.3827C629.599 57.6294 630.224 56.6181 630.617 55.3487C631.011 54.0793 631.134 52.6073 630.987 50.9329L630.985 50.907C630.837 49.2153 630.459 47.7786 629.851 46.5968C629.244 45.4149 628.446 44.5455 627.458 43.9883C626.485 43.4124 625.378 43.1788 624.135 43.2875C622.909 43.3948 621.86 43.8258 620.987 44.5805C620.112 45.3181 619.469 46.3223 619.058 47.5932C618.646 48.8469 618.514 50.3195 618.662 52.0112L618.665 52.0371C618.81 53.6943 619.195 55.113 619.82 56.2933C620.462 57.4721 621.27 58.3581 622.244 58.9513C623.233 59.5257 624.341 59.7593 625.567 59.6521ZM656.928 63.2225C654.114 63.4686 651.629 63.0947 649.472 62.1005C647.315 61.1064 645.59 59.5788 644.296 57.5177C643.001 55.4393 642.224 52.9156 641.964 49.9465L641.962 49.9206C641.702 46.9515 642.031 44.3484 642.948 42.1112C643.882 39.8553 645.316 38.0599 647.252 36.7252C649.203 35.3716 651.56 34.574 654.322 34.3324C656.842 34.1119 659.067 34.3956 660.998 35.1834C662.926 35.9539 664.479 37.0966 665.655 38.6114C666.848 40.1246 667.584 41.8779 667.863 43.8713L667.879 44.0525L660.862 44.6664L660.79 44.4379C660.449 43.1284 659.783 42.0734 658.791 41.2731C657.797 40.4555 656.515 40.1154 654.944 40.2529C653.719 40.3601 652.679 40.799 651.824 41.5695C650.985 42.3213 650.372 43.3577 649.983 44.6789C649.61 45.9814 649.5 47.513 649.654 49.2737L649.656 49.2996C649.815 51.1121 650.192 52.6359 650.787 53.871C651.398 55.0874 652.182 55.9929 653.138 56.5876C654.11 57.1635 655.218 57.3971 656.461 57.2884C657.98 57.1555 659.16 56.6261 660.001 55.7002C660.857 54.7555 661.354 53.5727 661.491 52.1519L661.496 51.9166L668.539 51.3004L668.553 51.4557C668.609 53.486 668.18 55.3499 667.268 57.0474C666.355 58.7449 665.017 60.1491 663.253 61.2601C661.505 62.3524 659.396 63.0065 656.928 63.2225ZM681.8 60.916C679.953 61.0776 678.299 60.8657 676.839 60.2802C675.377 59.6776 674.194 58.7809 673.29 57.5902C672.402 56.3808 671.886 54.9647 671.744 53.3421L671.74 53.2903C671.592 51.5986 671.889 50.1202 672.63 48.8551C673.37 47.5728 674.513 46.5161 676.058 45.6852C677.603 44.8542 679.517 44.2607 681.799 43.9044L692.563 42.2843L692.976 46.9969L683.346 48.4656C681.903 48.6787 680.829 49.1206 680.122 49.7912C679.414 50.4446 679.103 51.2633 679.189 52.2472L679.194 52.299C679.283 53.3175 679.741 54.0862 680.569 54.6051C681.396 55.1068 682.465 55.3003 683.777 55.1855C684.899 55.0873 685.882 54.784 686.724 54.2754C687.583 53.748 688.229 53.0827 688.663 52.2794C689.113 51.4573 689.296 50.5629 689.211 49.5962L688.475 41.1809C688.368 39.9553 687.895 39.0226 687.056 38.3828C686.216 37.7257 685.053 37.4621 683.569 37.592C682.153 37.7159 681.057 38.1075 680.28 38.7669C679.502 39.4263 679.058 40.2131 678.947 41.1274L678.915 41.3649L672.002 41.9698L672.001 41.6568C671.989 39.9358 672.417 38.3676 673.285 36.9523C674.17 35.5356 675.46 34.379 677.156 33.4827C678.867 32.5676 680.94 32.0036 683.374 31.7906C685.774 31.5807 687.888 31.7871 689.716 32.4099C691.544 33.0154 693.002 33.9749 694.091 35.2886C695.197 36.6008 695.832 38.189 695.995 40.0533L697.66 59.0848L690.099 59.7463L689.737 55.6034L689.581 55.617C689.146 56.6117 688.545 57.4906 687.777 58.2536C687.024 58.9978 686.147 59.6051 685.144 60.0754C684.14 60.5286 683.026 60.8087 681.8 60.916ZM727.567 56.4684L720.006 57.1298L718.989 45.5038L718.833 45.5174C718.1 46.486 717.126 47.2757 715.909 47.8866C714.693 48.4974 713.343 48.8678 711.858 48.9977C708.682 49.2755 706.109 48.5961 704.139 46.9595C702.186 45.304 701.071 42.9054 700.796 39.7637L700.022 30.9082L707.582 30.2467L708.251 37.8852C708.397 39.5596 708.957 40.7892 709.93 41.5737C710.902 42.341 712.216 42.6522 713.873 42.5072C714.564 42.4468 715.204 42.3125 715.795 42.1043C716.401 41.8773 716.933 41.5959 717.391 41.2602C717.866 40.9229 718.242 40.5508 718.52 40.1439L717.577 29.3723L725.138 28.7108L727.567 56.4684ZM731.977 63.936L732.615 49.4517L739.761 48.8264L737.207 63.4784L731.977 63.936Z" fill="white"/>
<path d="M217.279 115.137L672.158 75.34L676.629 126.453C677.27 133.775 671.854 140.229 664.532 140.87L236.168 178.347C228.846 178.988 222.392 173.571 221.751 166.249L217.279 115.137Z" fill="#FF0004"/>
<path d="M245.742 161.922C243.895 162.083 242.242 161.871 240.781 161.286C239.32 160.683 238.137 159.787 237.232 158.596C236.344 157.386 235.829 155.97 235.687 154.348L235.682 154.296C235.534 152.604 235.831 151.126 236.573 149.861C237.313 148.578 238.455 147.522 240 146.691C241.545 145.86 243.459 145.266 245.741 144.91L256.506 143.29L256.918 148.003L247.288 149.471C245.846 149.684 244.771 150.126 244.064 150.797C243.356 151.45 243.045 152.269 243.131 153.253L243.136 153.305C243.225 154.323 243.684 155.092 244.512 155.611C245.338 156.112 246.408 156.306 247.72 156.191C248.842 156.093 249.824 155.79 250.667 155.281C251.525 154.754 252.171 154.088 252.605 153.285C253.055 152.463 253.238 151.569 253.153 150.602L252.417 142.187C252.31 140.961 251.837 140.028 250.998 139.388C250.158 138.731 248.996 138.468 247.511 138.598C246.095 138.722 244.999 139.113 244.222 139.773C243.445 140.432 243 141.219 242.889 142.133L242.858 142.371L235.944 142.975L235.943 142.662C235.931 140.941 236.36 139.373 237.227 137.958C238.112 136.541 239.402 135.385 241.098 134.488C242.81 133.573 244.883 133.009 247.317 132.796C249.716 132.586 251.83 132.793 253.659 133.416C255.486 134.021 256.944 134.981 258.033 136.294C259.139 137.606 259.774 139.195 259.937 141.059L261.602 160.091L254.041 160.752L253.679 156.609L253.524 156.623C253.089 157.617 252.487 158.496 251.719 159.259C250.967 160.003 250.089 160.611 249.087 161.081C248.083 161.534 246.968 161.814 245.742 161.922ZM277.423 158.706L274.994 130.949L300.473 128.72L302.902 156.477L295.341 157.139L293.411 135.078L283.054 135.984L284.984 158.045L277.423 158.706ZM309.081 165.069L305.859 128.248L313.42 127.587L313.844 132.429L314.025 132.413C314.427 131.247 314.999 130.223 315.739 129.341C316.497 128.457 317.4 127.752 318.45 127.225C319.517 126.697 320.707 126.375 322.019 126.261C324.366 126.055 326.436 126.457 328.229 127.465C330.021 128.457 331.468 129.991 332.572 132.069C333.676 134.147 334.359 136.687 334.622 139.691L334.624 139.717C334.887 142.721 334.655 145.341 333.929 147.579C333.22 149.815 332.079 151.585 330.506 152.888C328.932 154.191 326.981 154.945 324.65 155.149C323.338 155.263 322.102 155.154 320.943 154.821C319.783 154.487 318.755 153.968 317.858 153.264C316.96 152.543 316.204 151.652 315.589 150.593L315.434 150.606L316.641 164.407L309.081 165.069ZM321.513 149.109C322.773 148.999 323.832 148.576 324.689 147.84C325.545 147.086 326.17 146.075 326.563 144.805C326.957 143.536 327.08 142.064 326.934 140.39L326.931 140.364C326.783 138.672 326.405 137.235 325.798 136.054C325.19 134.872 324.392 134.002 323.404 133.445C322.431 132.869 321.324 132.636 320.081 132.744C318.855 132.852 317.806 133.283 316.933 134.037C316.058 134.775 315.415 135.779 315.005 137.05C314.592 138.304 314.46 139.776 314.608 141.468L314.611 141.494C314.756 143.151 315.141 144.57 315.766 145.75C316.408 146.929 317.216 147.815 318.19 148.408C319.18 148.983 320.287 149.216 321.513 149.109ZM352.822 152.684C349.991 152.931 347.507 152.566 345.368 151.588C343.229 150.592 341.512 149.064 340.219 147.003C338.942 144.94 338.175 142.433 337.917 139.481L337.915 139.455C337.656 136.503 337.977 133.901 338.875 131.648C339.79 129.376 341.188 127.567 343.071 126.219C344.969 124.853 347.273 124.051 349.983 123.814C352.693 123.577 355.083 123.951 357.152 124.935C359.237 125.901 360.906 127.381 362.159 129.376C363.429 131.37 364.187 133.765 364.431 136.561L364.635 138.892L341.771 140.892L341.355 136.128L360.645 134.44L357.435 139.208L357.182 136.308C357.04 134.686 356.671 133.353 356.075 132.309C355.478 131.248 354.706 130.48 353.76 130.007C352.832 129.531 351.78 129.345 350.607 129.448C349.433 129.55 348.413 129.926 347.548 130.576C346.7 131.224 346.066 132.123 345.645 133.274C345.239 134.405 345.106 135.765 345.245 137.353L345.501 140.279C345.635 141.815 346 143.105 346.596 144.149C347.209 145.191 348.016 145.964 349.017 146.468C350.016 146.954 351.172 147.14 352.484 147.025C353.519 146.935 354.403 146.692 355.134 146.298C355.864 145.903 356.45 145.435 356.889 144.892C357.329 144.349 357.612 143.811 357.739 143.278L357.778 143.118L364.717 142.511L364.664 142.803C364.546 143.839 364.23 144.902 363.717 145.991C363.203 147.079 362.466 148.1 361.506 149.054C360.563 150.006 359.372 150.806 357.933 151.454C356.511 152.1 354.807 152.51 352.822 152.684ZM370.017 150.605L367.589 122.848L393.068 120.619L395.496 148.376L387.935 149.038L386.005 126.977L375.648 127.883L377.578 149.944L370.017 150.605ZM413.671 147.36C410.858 147.606 408.373 147.241 406.218 146.264C404.062 145.287 402.329 143.769 401.018 141.71C399.707 139.65 398.921 137.118 398.658 134.115L398.653 134.063C398.392 131.077 398.737 128.463 399.689 126.223C400.64 123.966 402.092 122.169 404.045 120.832C405.998 119.496 408.355 118.707 411.117 118.466C413.896 118.222 416.364 118.589 418.519 119.566C420.69 120.524 422.44 122.032 423.768 124.09C425.095 126.131 425.889 128.653 426.152 131.657L426.157 131.709C426.421 134.73 426.078 137.369 425.127 139.626C424.194 141.882 422.751 143.678 420.798 145.015C418.843 146.334 416.468 147.116 413.671 147.36ZM413.178 141.428C414.404 141.321 415.437 140.9 416.277 140.166C417.133 139.413 417.748 138.385 418.121 137.082C418.51 135.761 418.625 134.194 418.466 132.382L418.462 132.33C418.305 130.535 417.921 129.029 417.31 127.812C416.699 126.596 415.907 125.7 414.935 125.124C413.961 124.531 412.862 124.288 411.636 124.395C410.428 124.501 409.395 124.93 408.539 125.684C407.699 126.418 407.084 127.437 406.694 128.741C406.303 130.045 406.187 131.595 406.344 133.39L406.348 133.442C406.507 135.254 406.884 136.778 407.479 138.013C408.09 139.23 408.882 140.134 409.856 140.728C410.828 141.304 411.936 141.537 413.178 141.428ZM436.665 152.211L429.777 152.813L428.624 139.634L430.747 139.448C431.714 138.772 432.36 137.698 432.683 136.226C433.007 134.754 433.146 133.072 433.103 131.179L432.788 117.144L455.004 115.2L456.925 137.157L461.068 136.795L462.221 149.975L455.334 150.577L454.688 143.198L436.019 144.831L436.665 152.211ZM449.365 137.819L447.951 121.662L439.665 122.386L439.8 131.089C439.844 132.581 439.756 133.963 439.537 135.235C439.333 136.487 438.945 137.617 438.372 138.624L438.386 138.779L449.365 137.819ZM488.192 140.84C485.378 141.087 482.893 140.713 480.736 139.719C478.579 138.724 476.854 137.197 475.56 135.136C474.265 133.057 473.488 130.534 473.228 127.565L473.226 127.539C472.966 124.57 473.295 121.966 474.213 119.729C475.146 117.473 476.58 115.678 478.516 114.343C480.468 112.99 482.824 112.192 485.586 111.95C488.106 111.73 490.332 112.014 492.262 112.801C494.19 113.572 495.743 114.715 496.919 116.229C498.112 117.743 498.849 119.496 499.127 121.489L499.143 121.671L492.126 122.284L492.054 122.056C491.713 120.746 491.047 119.691 490.055 118.891C489.062 118.074 487.779 117.733 486.209 117.871C484.983 117.978 483.943 118.417 483.088 119.188C482.25 119.939 481.636 120.976 481.247 122.297C480.874 123.599 480.764 125.131 480.918 126.892L480.921 126.918C481.079 128.73 481.456 130.254 482.051 131.489C482.662 132.705 483.446 133.611 484.402 134.206C485.375 134.782 486.482 135.015 487.725 134.906C489.244 134.773 490.424 134.244 491.265 133.318C492.122 132.374 492.618 131.191 492.755 129.77L492.76 129.535L499.803 128.918L499.817 129.074C499.873 131.104 499.444 132.968 498.532 134.665C497.619 136.363 496.281 137.767 494.517 138.878C492.769 139.97 490.661 140.625 488.192 140.84ZM512.265 126.419L511.359 126.498L512.378 138.15L504.817 138.812L502.389 111.054L509.95 110.393L510.904 121.294L511.81 121.215L519.375 109.568L527.972 108.816L518.209 123.081L518.127 122.149L531.047 136.517L521.959 137.312L512.265 126.419ZM542.272 135.979C540.425 136.14 538.771 135.928 537.311 135.343C535.849 134.74 534.666 133.844 533.762 132.653C532.873 131.443 532.358 130.027 532.216 128.405L532.212 128.353C532.064 126.661 532.36 125.183 533.102 123.918C533.842 122.635 534.985 121.579 536.53 120.748C538.075 119.917 539.988 119.323 542.271 118.967L553.035 117.347L553.447 122.06L543.818 123.528C542.375 123.741 541.301 124.183 540.594 124.854C539.886 125.507 539.575 126.326 539.661 127.31L539.665 127.362C539.754 128.38 540.213 129.149 541.041 129.668C541.868 130.17 542.937 130.363 544.249 130.248C545.371 130.15 546.353 129.847 547.196 129.338C548.054 128.811 548.701 128.145 549.135 127.342C549.585 126.52 549.767 125.626 549.683 124.659L548.947 116.244C548.839 115.018 548.366 114.085 547.528 113.445C546.687 112.788 545.525 112.525 544.04 112.655C542.625 112.779 541.529 113.17 540.751 113.83C539.974 114.489 539.53 115.276 539.419 116.19L539.387 116.428L532.474 117.032L532.472 116.719C532.461 114.998 532.889 113.43 533.757 112.015C534.642 110.598 535.932 109.442 537.628 108.545C539.339 107.63 541.412 107.066 543.846 106.853C546.245 106.643 548.36 106.85 550.188 107.473C552.015 108.078 553.474 109.038 554.563 110.351C555.669 111.663 556.304 113.252 556.467 115.116L558.132 134.148L550.571 134.809L550.208 130.666L550.053 130.68C549.618 131.674 549.017 132.553 548.249 133.316C547.496 134.06 546.619 134.668 545.616 135.138C544.612 135.591 543.497 135.871 542.272 135.979ZM574.779 133.265C572.345 133.478 570.2 133.309 568.342 132.758C566.485 132.208 564.973 131.323 563.805 130.103C562.636 128.866 561.875 127.323 561.522 125.476L561.473 125.219L568.645 124.591L568.748 124.869C569.132 125.88 569.788 126.614 570.715 127.072C571.641 127.513 572.811 127.671 574.227 127.547C575.694 127.419 576.808 127.034 577.57 126.394C578.347 125.734 578.69 124.887 578.6 123.851L578.595 123.799C578.502 122.729 578.035 121.97 577.196 121.521C576.355 121.056 575.14 120.892 573.552 121.031L569.798 121.36L569.385 116.647L573.088 116.323C574.504 116.199 575.543 115.847 576.205 115.268C576.867 114.688 577.154 113.889 577.065 112.87L577.061 112.819C576.974 111.835 576.554 111.106 575.8 110.633C575.045 110.16 574.029 109.979 572.752 110.091C571.422 110.207 570.376 110.568 569.611 111.174C568.862 111.762 568.429 112.574 568.311 113.61L568.303 113.82L561.234 114.438L561.242 114.229C561.316 112.291 561.788 110.624 562.657 109.226C563.543 107.826 564.811 106.715 566.462 105.892C568.112 105.07 570.11 104.555 572.458 104.35C574.788 104.146 576.81 104.291 578.523 104.785C580.252 105.26 581.617 106.045 582.617 107.14C583.616 108.218 584.186 109.569 584.328 111.191L584.333 111.243C584.464 112.745 584.126 114.053 583.319 115.167C582.529 116.28 581.339 117.088 579.748 117.593L579.766 117.8C581.063 117.913 582.168 118.216 583.081 118.71C584.01 119.186 584.727 119.827 585.233 120.635C585.754 121.425 586.063 122.372 586.16 123.477L586.164 123.528C586.317 125.272 585.95 126.843 585.063 128.243C584.175 129.625 582.848 130.759 581.082 131.644C579.331 132.51 577.23 133.051 574.779 133.265ZM599.703 130.954C597.856 131.116 596.202 130.904 594.742 130.318C593.28 129.716 592.097 128.819 591.193 127.628C590.305 126.419 589.789 125.003 589.647 123.38L589.643 123.328C589.495 121.637 589.792 120.158 590.533 118.893C591.273 117.611 592.416 116.554 593.961 115.723C595.506 114.892 597.42 114.299 599.702 113.943L610.466 112.322L610.879 117.035L601.249 118.504C599.806 118.717 598.732 119.159 598.025 119.829C597.317 120.483 597.006 121.301 597.092 122.285L597.097 122.337C597.186 123.356 597.644 124.124 598.472 124.643C599.299 125.145 600.368 125.338 601.68 125.224C602.802 125.125 603.785 124.822 604.627 124.313C605.486 123.786 606.132 123.121 606.566 122.317C607.016 121.495 607.199 120.601 607.114 119.634L606.378 111.219C606.271 109.993 605.798 109.061 604.959 108.421C604.119 107.764 602.956 107.5 601.472 107.63C600.056 107.754 598.96 108.146 598.183 108.805C597.405 109.464 596.961 110.251 596.85 111.165L596.818 111.403L589.905 112.008L589.904 111.695C589.892 109.974 590.32 108.406 591.188 106.99C592.073 105.574 593.363 104.417 595.059 103.521C596.771 102.606 598.843 102.042 601.277 101.829C603.677 101.619 605.791 101.825 607.619 102.448C609.447 103.053 610.905 104.013 611.994 105.327C613.1 106.639 613.735 108.227 613.898 110.091L615.563 129.123L608.002 129.784L607.64 125.642L607.484 125.655C607.049 126.65 606.448 127.529 605.68 128.292C604.927 129.036 604.05 129.643 603.047 130.114C602.043 130.567 600.929 130.847 599.703 130.954ZM629.999 114.893C630.078 117.582 629.901 119.937 629.469 121.957C629.037 123.978 628.22 125.58 627.019 126.764C625.818 127.947 624.079 128.639 621.8 128.838C621.109 128.899 620.519 128.907 620.028 128.863C619.538 128.836 619.179 128.798 618.948 128.749L618.393 122.405C618.551 122.426 618.762 122.442 619.024 122.454C619.286 122.466 619.589 122.457 619.934 122.426C620.832 122.348 621.527 122.035 622.018 121.487C622.508 120.923 622.835 120.094 623.001 119.001C623.183 117.907 623.245 116.527 623.186 114.862L622.767 100.523L644.465 98.6243L646.894 126.382L639.333 127.043L637.405 105.008L629.767 105.676L629.999 114.893ZM651.33 133.847L651.968 119.363L659.114 118.738L656.561 133.39L651.33 133.847Z" fill="white"/>
<rect width="346.616" height="64.616" transform="translate(277.527 172.721) rotate(-5)" fill="#FF0004"/>
<path d="M304.864 219.161L297.744 219.784L295.315 192.026L305.129 191.167L313.939 208.661L314.12 208.645L319.758 189.887L329.468 189.038L331.897 216.796L324.776 217.419L323.152 198.853L322.971 198.869L317.287 216.508L312.056 216.966L303.421 200.579L303.24 200.595L304.864 219.161ZM350.098 215.777C347.284 216.023 344.8 215.658 342.644 214.681C340.489 213.704 338.756 212.186 337.445 210.126C336.134 208.067 335.347 205.535 335.084 202.532L335.08 202.48C334.819 199.493 335.164 196.88 336.116 194.64C337.067 192.383 338.518 190.586 340.471 189.249C342.424 187.913 344.782 187.124 347.544 186.883C350.323 186.639 352.79 187.006 354.946 187.983C357.117 188.941 358.866 190.449 360.194 192.507C361.521 194.548 362.316 197.07 362.579 200.074L362.583 200.126C362.847 203.147 362.504 205.786 361.554 208.043C360.62 210.299 359.177 212.095 357.224 213.432C355.27 214.751 352.894 215.533 350.098 215.777ZM349.605 209.845C350.831 209.738 351.863 209.317 352.704 208.583C353.56 207.829 354.174 206.802 354.547 205.499C354.936 204.178 355.051 202.611 354.893 200.799L354.888 200.747C354.731 198.952 354.347 197.446 353.736 196.229C353.125 195.013 352.334 194.117 351.362 193.541C350.388 192.948 349.288 192.705 348.063 192.812C346.854 192.918 345.822 193.347 344.966 194.101C344.126 194.835 343.51 195.854 343.12 197.158C342.73 198.462 342.613 200.012 342.77 201.807L342.775 201.859C342.933 203.671 343.31 205.195 343.905 206.43C344.516 207.647 345.308 208.551 346.282 209.145C347.254 209.72 348.362 209.954 349.605 209.845ZM373.326 213.171L364.419 213.95L374.13 197.602L374.236 198.819L362.405 186.156L371.053 185.4L380.168 195.639L380.815 195.582L379.857 184.63L387.34 183.975L388.298 194.928L388.945 194.871L396.118 183.207L404.714 182.455L395.33 196.869L395.223 195.652L407.686 210.165L398.701 210.951L389.392 199.972L388.744 200.029L389.768 211.732L382.285 212.387L381.261 200.683L380.614 200.74L373.326 213.171ZM428.867 208.312L427.873 196.945L417.256 197.873L418.251 209.241L410.69 209.902L408.261 182.144L415.822 181.483L416.756 192.151L427.372 191.222L426.439 180.554L433.999 179.893L436.428 207.65L428.867 208.312ZM454.603 206.634C451.789 206.88 449.305 206.515 447.149 205.538C444.994 204.561 443.261 203.043 441.95 200.983C440.639 198.924 439.852 196.392 439.59 193.389L439.585 193.337C439.324 190.35 439.669 187.737 440.621 185.497C441.572 183.24 443.023 181.443 444.976 180.106C446.929 178.77 449.287 177.981 452.049 177.74C454.828 177.496 457.295 177.863 459.451 178.84C461.622 179.798 463.372 181.306 464.7 183.364C466.026 185.405 466.821 187.927 467.084 190.931L467.088 190.983C467.352 194.004 467.009 196.643 466.059 198.9C465.126 201.156 463.682 202.952 461.729 204.289C459.775 205.608 457.399 206.389 454.603 206.634ZM454.11 200.702C455.336 200.595 456.369 200.174 457.209 199.44C458.065 198.686 458.679 197.659 459.052 196.356C459.441 195.035 459.556 193.468 459.398 191.656L459.393 191.604C459.236 189.809 458.852 188.303 458.241 187.086C457.631 185.87 456.839 184.974 455.867 184.398C454.893 183.805 453.793 183.562 452.568 183.669C451.359 183.775 450.327 184.204 449.471 184.958C448.631 185.692 448.016 186.711 447.625 188.015C447.235 189.319 447.118 190.869 447.275 192.664L447.28 192.716C447.438 194.528 447.815 196.052 448.41 197.287C449.021 198.504 449.814 199.408 450.787 200.002C451.76 200.577 452.867 200.811 454.11 200.702ZM496.317 202.985C493.331 203.246 490.739 202.855 488.544 201.812C486.363 200.751 484.624 199.059 483.325 196.737C482.026 194.416 481.22 191.468 480.907 187.895L480.903 187.843C480.563 183.959 480.602 180.625 481.019 177.84C481.437 175.055 482.208 172.744 483.335 170.906C484.461 169.068 485.946 167.651 487.79 166.655C489.651 165.657 491.837 165.005 494.35 164.698L497.58 164.337C499.146 164.148 500.551 163.903 501.795 163.603C503.038 163.303 504.034 162.955 504.782 162.559L505.294 168.411C504.804 168.767 503.955 169.111 502.749 169.442C501.559 169.755 500.163 170.008 498.563 170.2L495.516 170.571C493.278 170.836 491.501 171.4 490.185 172.264C488.886 173.125 487.93 174.322 487.316 175.854C486.72 177.385 486.357 179.304 486.228 181.611L486.208 181.978L486.364 181.965C486.852 180.791 487.503 179.778 488.315 178.924C489.128 178.07 490.121 177.392 491.294 176.889C492.466 176.369 493.812 176.043 495.331 175.91C497.817 175.692 500.021 176.039 501.945 176.949C503.884 177.84 505.447 179.208 506.635 181.052C507.823 182.896 508.533 185.148 508.765 187.806L508.77 187.858C509.021 190.723 508.685 193.249 507.763 195.434C506.841 197.62 505.402 199.363 503.446 200.665C501.507 201.965 499.131 202.738 496.317 202.985ZM495.669 197.066C496.946 196.955 498.016 196.557 498.878 195.872C499.738 195.171 500.36 194.221 500.742 193.022C501.123 191.806 501.24 190.369 501.095 188.712L501.091 188.66C500.952 187.072 500.592 185.747 500.012 184.684C499.431 183.605 498.657 182.811 497.691 182.304C496.725 181.798 495.603 181.6 494.325 181.712C493.031 181.825 491.952 182.215 491.088 182.882C490.225 183.549 489.592 184.465 489.189 185.631C488.802 186.778 488.679 188.146 488.817 189.734L488.822 189.786C488.967 191.443 489.333 192.837 489.919 193.969C490.52 195.082 491.306 195.909 492.275 196.45C493.243 196.974 494.374 197.18 495.669 197.066ZM514.418 200.827L511.99 173.069L519.551 172.408L520.253 180.435L525.639 179.964C528.919 179.677 531.603 180.338 533.692 181.946C535.798 183.554 536.982 185.859 537.245 188.863L537.25 188.915C537.513 191.918 536.746 194.394 534.951 196.343C533.174 198.29 530.645 199.407 527.365 199.694L514.418 200.827ZM524.765 185.78L520.751 186.131L521.481 194.469L525.494 194.118C526.858 193.999 527.904 193.524 528.631 192.695C529.359 191.866 529.668 190.83 529.559 189.588L529.555 189.536C529.445 188.276 528.96 187.309 528.101 186.636C527.241 185.946 526.128 185.661 524.765 185.78ZM541.062 198.496L538.634 170.738L546.195 170.077L548.623 197.834L541.062 198.496ZM563.163 183.595C563.242 186.284 563.065 188.639 562.633 190.66C562.201 192.681 561.384 194.283 560.183 195.466C558.982 196.65 557.243 197.341 554.964 197.541C554.273 197.601 553.683 197.609 553.192 197.565C552.702 197.538 552.343 197.5 552.112 197.451L551.557 191.107C551.715 191.128 551.926 191.144 552.188 191.156C552.45 191.168 552.753 191.159 553.098 191.129C553.996 191.05 554.69 190.737 555.182 190.19C555.672 189.625 555.999 188.796 556.164 187.703C556.347 186.609 556.409 185.229 556.35 183.565L555.931 169.225L577.629 167.327L580.058 195.084L572.497 195.746L570.569 173.711L562.931 174.379L563.163 183.595ZM598.259 194.066C595.445 194.312 592.96 193.947 590.805 192.97C588.65 191.993 586.917 190.475 585.606 188.415C584.295 186.356 583.508 183.824 583.245 180.82L583.241 180.769C582.98 177.782 583.325 175.169 584.277 172.929C585.227 170.671 586.679 168.874 588.632 167.538C590.585 166.202 592.943 165.413 595.705 165.171C598.484 164.928 600.951 165.295 603.107 166.272C605.278 167.23 607.027 168.738 608.355 170.796C609.682 172.837 610.477 175.359 610.739 178.363L610.744 178.415C611.008 181.435 610.665 184.075 609.715 186.332C608.781 188.588 607.338 190.384 605.385 191.72C603.431 193.039 601.055 193.821 598.259 194.066ZM597.766 188.134C598.991 188.027 600.024 187.606 600.865 186.871C601.721 186.118 602.335 185.09 602.708 183.788C603.097 182.467 603.212 180.9 603.054 179.087L603.049 179.036C602.892 177.24 602.508 175.735 601.897 174.518C601.286 173.302 600.495 172.406 599.523 171.83C598.549 171.237 597.449 170.994 596.223 171.101C595.015 171.207 593.983 171.636 593.127 172.389C592.287 173.124 591.671 174.143 591.281 175.447C590.891 176.751 590.774 178.301 590.931 180.096L590.936 180.148C591.094 181.96 591.471 183.484 592.066 184.719C592.677 185.935 593.469 186.84 594.443 187.433C595.415 188.009 596.523 188.243 597.766 188.134Z" fill="white"/>
<rect x="195.818" y="242.725" width="521.616" height="64.616" rx="13.308" transform="rotate(-5 195.818 242.725)" fill="#FF0004"/>
<path d="M234.212 288.197L233.217 276.83L222.601 277.759L223.595 289.126L216.035 289.787L213.606 262.03L221.167 261.368L222.1 272.036L232.717 271.108L231.783 260.44L239.344 259.778L241.773 287.536L234.212 288.197ZM259.844 286.529C257.013 286.776 254.528 286.411 252.39 285.433C250.251 284.437 248.534 282.909 247.241 280.848C245.964 278.785 245.197 276.278 244.939 273.326L244.936 273.3C244.678 270.348 244.998 267.746 245.897 265.493C246.812 263.221 248.21 261.412 250.093 260.064C251.991 258.698 254.295 257.896 257.005 257.659C259.715 257.422 262.105 257.795 264.174 258.78C266.259 259.746 267.928 261.226 269.181 263.221C270.451 265.215 271.208 267.61 271.453 270.406L271.657 272.736L248.793 274.737L248.376 269.972L267.667 268.285L264.457 273.053L264.204 270.153C264.062 268.531 263.693 267.197 263.097 266.154C262.5 265.093 261.728 264.325 260.782 263.851C259.854 263.376 258.802 263.19 257.628 263.292C256.455 263.395 255.435 263.771 254.57 264.421C253.722 265.069 253.088 265.968 252.667 267.118C252.261 268.25 252.128 269.609 252.267 271.197L252.523 274.123C252.657 275.66 253.022 276.95 253.618 277.994C254.231 279.036 255.038 279.809 256.039 280.313C257.038 280.799 258.194 280.985 259.506 280.87C260.541 280.78 261.425 280.537 262.155 280.143C262.886 279.748 263.471 279.28 263.911 278.737C264.351 278.194 264.634 277.656 264.761 277.123L264.799 276.963L271.739 276.356L271.686 276.648C271.568 277.684 271.252 278.747 270.739 279.835C270.225 280.924 269.488 281.945 268.528 282.899C267.585 283.851 266.394 284.651 264.955 285.299C263.533 285.945 261.829 286.355 259.844 286.529ZM298.891 283.112C296.457 283.325 294.312 283.157 292.454 282.606C290.597 282.055 289.085 281.17 287.917 279.95C286.748 278.713 285.986 277.171 285.634 275.323L285.585 275.066L292.757 274.439L292.86 274.717C293.244 275.727 293.9 276.461 294.827 276.919C295.753 277.36 296.923 277.518 298.339 277.395C299.806 277.266 300.92 276.882 301.682 276.241C302.459 275.582 302.802 274.734 302.712 273.698L302.707 273.647C302.614 272.576 302.147 271.817 301.308 271.369C300.467 270.903 299.252 270.74 297.664 270.879L293.91 271.207L293.497 266.494L297.2 266.171C298.616 266.047 299.655 265.695 300.317 265.115C300.979 264.535 301.266 263.736 301.177 262.718L301.172 262.666C301.086 261.682 300.666 260.953 299.912 260.48C299.157 260.007 298.141 259.826 296.864 259.938C295.534 260.054 294.488 260.415 293.723 261.022C292.974 261.609 292.541 262.421 292.423 263.457L292.415 263.667L285.346 264.285L285.354 264.076C285.428 262.139 285.9 260.471 286.769 259.073C287.655 257.674 288.923 256.562 290.574 255.74C292.224 254.917 294.222 254.403 296.57 254.197C298.9 253.994 300.922 254.139 302.635 254.632C304.364 255.107 305.729 255.892 306.729 256.988C307.728 258.066 308.298 259.416 308.44 261.039L308.445 261.09C308.576 262.592 308.238 263.9 307.431 265.014C306.641 266.127 305.451 266.936 303.86 267.44L303.878 267.647C305.175 267.76 306.28 268.064 307.193 268.558C308.122 269.033 308.839 269.675 309.345 270.483C309.866 271.272 310.175 272.219 310.272 273.324L310.276 273.376C310.429 275.119 310.062 276.691 309.175 278.09C308.287 279.473 306.96 280.606 305.194 281.491C303.443 282.358 301.342 282.898 298.891 283.112ZM323.815 280.801C321.968 280.963 320.314 280.751 318.854 280.166C317.392 279.563 316.209 278.666 315.305 277.476C314.417 276.266 313.901 274.85 313.759 273.228L313.755 273.176C313.607 271.484 313.904 270.006 314.645 268.741C315.385 267.458 316.528 266.402 318.073 265.571C319.618 264.74 321.532 264.146 323.814 263.79L334.578 262.17L334.991 266.882L325.361 268.351C323.918 268.564 322.844 269.006 322.137 269.677C321.429 270.33 321.118 271.149 321.204 272.133L321.209 272.184C321.298 273.203 321.756 273.972 322.584 274.491C323.411 274.992 324.48 275.186 325.792 275.071C326.914 274.973 327.897 274.669 328.739 274.161C329.598 273.634 330.244 272.968 330.678 272.165C331.128 271.343 331.311 270.448 331.226 269.482L330.49 261.066C330.383 259.841 329.91 258.908 329.071 258.268C328.231 257.611 327.068 257.348 325.584 257.478C324.168 257.601 323.072 257.993 322.295 258.652C321.517 259.312 321.073 260.099 320.962 261.013L320.93 261.25L314.017 261.855L314.016 261.542C314.004 259.821 314.432 258.253 315.3 256.838C316.185 255.421 317.475 254.264 319.171 253.368C320.883 252.453 322.955 251.889 325.389 251.676C327.789 251.466 329.903 251.673 331.731 252.295C333.559 252.901 335.017 253.86 336.106 255.174C337.212 256.486 337.847 258.074 338.01 259.939L339.675 278.97L332.114 279.632L331.752 275.489L331.596 275.502C331.161 276.497 330.56 277.376 329.792 278.139C329.039 278.883 328.162 279.491 327.159 279.961C326.155 280.414 325.041 280.694 323.815 280.801ZM352.104 277.883L344.983 278.506L342.555 250.748L352.368 249.89L361.178 267.383L361.359 267.367L366.998 248.61L376.708 247.76L379.136 275.518L372.016 276.141L370.391 257.575L370.21 257.591L364.526 275.231L359.296 275.688L350.661 259.302L350.479 259.317L352.104 277.883ZM397.337 274.5C394.523 274.746 392.039 274.38 389.884 273.404C387.728 272.427 385.995 270.908 384.684 268.849C383.373 266.789 382.587 264.258 382.324 261.254L382.319 261.202C382.058 258.216 382.403 255.603 383.355 253.362C384.306 251.105 385.758 249.308 387.711 247.972C389.664 246.636 392.021 245.847 394.783 245.605C397.562 245.362 400.03 245.729 402.185 246.705C404.356 247.664 406.106 249.172 407.434 251.23C408.76 253.271 409.555 255.793 409.818 258.796L409.822 258.848C410.087 261.869 409.744 264.508 408.793 266.766C407.86 269.022 406.417 270.818 404.464 272.154C402.509 273.473 400.134 274.255 397.337 274.5ZM396.844 268.568C398.07 268.46 399.103 268.04 399.943 267.305C400.799 266.552 401.414 265.524 401.787 264.222C402.176 262.9 402.291 261.334 402.132 259.521L402.128 259.469C401.971 257.674 401.587 256.168 400.976 254.952C400.365 253.735 399.573 252.839 398.601 252.263C397.627 251.67 396.528 251.427 395.302 251.534C394.094 251.64 393.061 252.07 392.205 252.823C391.365 253.557 390.75 254.577 390.36 255.881C389.969 257.185 389.853 258.734 390.01 260.529L390.014 260.581C390.173 262.394 390.55 263.918 391.145 265.153C391.755 266.369 392.548 267.274 393.522 267.867C394.494 268.443 395.601 268.676 396.844 268.568ZM416.102 281.416L412.881 244.596L420.441 243.934L420.865 248.776L421.046 248.76C421.449 247.594 422.02 246.57 422.76 245.688C423.518 244.804 424.422 244.099 425.472 243.572C426.539 243.044 427.728 242.723 429.04 242.608C431.388 242.402 433.458 242.804 435.251 243.813C437.042 244.804 438.49 246.338 439.593 248.416C440.697 250.494 441.38 253.035 441.643 256.038L441.645 256.064C441.908 259.068 441.676 261.688 440.95 263.926C440.241 266.163 439.1 267.932 437.527 269.235C435.954 270.538 434.002 271.292 431.672 271.496C430.36 271.61 429.124 271.501 427.964 271.168C426.804 270.834 425.776 270.316 424.88 269.611C423.981 268.89 423.225 267.999 422.611 266.94L422.455 266.953L423.663 280.754L416.102 281.416ZM428.534 265.456C429.794 265.346 430.853 264.923 431.711 264.187C432.567 263.433 433.191 262.422 433.585 261.153C433.978 259.883 434.101 258.411 433.955 256.737L433.953 256.711C433.805 255.019 433.427 253.583 432.819 252.401C432.211 251.219 431.413 250.349 430.425 249.792C429.453 249.216 428.345 248.983 427.102 249.092C425.877 249.199 424.827 249.63 423.954 250.385C423.079 251.122 422.437 252.126 422.026 253.397C421.614 254.651 421.482 256.124 421.63 257.815L421.632 257.841C421.777 259.498 422.162 260.917 422.787 262.097C423.429 263.276 424.238 264.162 425.211 264.755C426.201 265.33 427.308 265.563 428.534 265.456ZM455.456 269.284C453.609 269.446 451.956 269.234 450.495 268.649C449.034 268.046 447.851 267.149 446.946 265.959C446.058 264.749 445.543 263.333 445.401 261.71L445.396 261.659C445.248 259.967 445.545 258.489 446.287 257.223C447.027 255.941 448.169 254.884 449.714 254.054C451.259 253.223 453.173 252.629 455.455 252.273L466.22 250.653L466.632 255.365L457.002 256.834C455.56 257.047 454.485 257.489 453.778 258.16C453.07 258.813 452.759 259.632 452.845 260.616L452.85 260.667C452.939 261.686 453.398 262.455 454.226 262.973C455.052 263.475 456.122 263.669 457.434 263.554C458.556 263.456 459.538 263.152 460.381 262.644C461.239 262.116 461.885 261.451 462.319 260.648C462.769 259.826 462.952 258.931 462.867 257.965L462.131 249.549C462.024 248.324 461.551 247.391 460.712 246.751C459.872 246.094 458.71 245.831 457.225 245.96C455.809 246.084 454.713 246.476 453.936 247.135C453.159 247.795 452.714 248.581 452.603 249.496L452.572 249.733L445.658 250.338L445.657 250.025C445.645 248.304 446.074 246.736 446.941 245.321C447.826 243.904 449.116 242.747 450.812 241.851C452.524 240.936 454.597 240.372 457.031 240.159C459.43 239.949 461.544 240.155 463.373 240.778C465.2 241.384 466.658 242.343 467.747 243.657C468.853 244.969 469.488 246.557 469.651 248.422L471.316 267.453L463.755 268.115L463.393 263.972L463.238 263.985C462.803 264.98 462.201 265.859 461.433 266.622C460.681 267.366 459.803 267.973 458.801 268.444C457.797 268.897 456.682 269.177 455.456 269.284ZM501.223 264.837L493.662 265.498L492.645 253.872L492.49 253.886C491.757 254.854 490.782 255.644 489.566 256.255C488.349 256.866 486.999 257.236 485.515 257.366C482.338 257.644 479.765 256.965 477.796 255.328C475.842 253.672 474.728 251.274 474.453 248.132L473.678 239.277L481.239 238.615L481.907 246.254C482.054 247.928 482.613 249.158 483.587 249.942C484.558 250.709 485.873 251.021 487.53 250.876C488.22 250.815 488.861 250.681 489.451 250.473C490.058 250.246 490.59 249.964 491.047 249.629C491.522 249.291 491.898 248.919 492.176 248.512L491.234 237.741L498.794 237.079L501.223 264.837ZM506.66 264.361L504.232 236.603L511.663 235.953L513.179 253.276L516.804 252.959L511.832 256.368L522.875 234.972L530.281 234.324L532.709 262.082L525.278 262.732L523.742 245.177L520.091 245.496L525.037 242.089L514.066 263.713L506.66 264.361ZM538.147 261.606L535.718 233.849L549.623 232.632C552.506 232.38 554.821 232.804 556.57 233.903C558.319 235.002 559.289 236.648 559.481 238.841L559.485 238.892C559.614 240.36 559.245 241.714 558.38 242.955C557.53 244.177 556.398 244.963 554.985 245.313L555.003 245.52C556.26 245.567 557.38 245.843 558.363 246.348C559.363 246.835 560.161 247.513 560.759 248.383C561.374 249.251 561.732 250.263 561.834 251.42L561.838 251.471C561.979 253.077 561.687 254.52 560.964 255.801C560.24 257.064 559.139 258.1 557.662 258.907C556.2 259.696 554.416 260.183 552.31 260.367L538.147 261.606ZM545.152 256.088L549.735 255.687C551.22 255.557 552.324 255.156 553.048 254.484C553.789 253.811 554.108 252.878 554.003 251.687L553.999 251.635C553.898 250.479 553.399 249.653 552.504 249.157C551.625 248.66 550.383 248.481 548.778 248.622L544.531 248.993L545.152 256.088ZM544.126 244.359L548.165 244.005C549.546 243.884 550.577 243.533 551.256 242.952C551.934 242.353 552.228 241.536 552.138 240.501L552.133 240.449C552.044 239.43 551.639 238.683 550.919 238.207C550.217 237.729 549.244 237.545 548.001 237.653L543.573 238.041L544.126 244.359ZM575.342 258.796C573.495 258.957 571.841 258.745 570.381 258.16C568.919 257.557 567.736 256.661 566.832 255.47C565.944 254.26 565.428 252.844 565.286 251.222L565.282 251.17C565.134 249.478 565.431 248 566.172 246.735C566.912 245.452 568.055 244.396 569.6 243.565C571.145 242.734 573.059 242.14 575.341 241.784L586.105 240.164L586.518 244.877L576.888 246.345C575.445 246.558 574.371 247 573.664 247.671C572.956 248.324 572.645 249.143 572.731 250.127L572.736 250.179C572.825 251.197 573.283 251.966 574.111 252.485C574.938 252.987 576.007 253.18 577.319 253.065C578.441 252.967 579.424 252.664 580.266 252.155C581.125 251.628 581.771 250.962 582.205 250.159C582.655 249.337 582.838 248.443 582.753 247.476L582.017 239.061C581.91 237.835 581.437 236.902 580.598 236.262C579.758 235.605 578.595 235.342 577.111 235.472C575.695 235.596 574.599 235.987 573.822 236.647C573.044 237.306 572.6 238.093 572.489 239.007L572.457 239.245L565.544 239.85L565.543 239.537C565.531 237.815 565.959 236.247 566.827 234.832C567.712 233.415 569.002 232.259 570.698 231.362C572.41 230.447 574.482 229.883 576.916 229.67C579.316 229.46 581.43 229.667 583.258 230.29C585.086 230.895 586.544 231.855 587.633 233.168C588.739 234.48 589.374 236.069 589.537 237.933L591.202 256.965L583.641 257.626L583.279 253.483L583.123 253.497C582.688 254.491 582.087 255.37 581.319 256.133C580.566 256.877 579.689 257.485 578.686 257.955C577.682 258.408 576.568 258.688 575.342 258.796ZM616.324 226.797L616.824 232.519L608.565 233.242L610.492 255.277L602.932 255.938L601.004 233.903L592.744 234.626L592.243 228.903L616.324 226.797ZM622.61 254.217L620.182 226.459L627.743 225.798L628.445 233.825L633.831 233.353C637.111 233.066 639.795 233.727 641.884 235.336C643.99 236.944 645.175 239.249 645.437 242.253L645.442 242.304C645.705 245.308 644.939 247.784 643.143 249.733C641.366 251.68 638.837 252.797 635.557 253.084L622.61 254.217ZM632.957 239.17L628.943 239.521L629.673 247.859L633.686 247.508C635.05 247.388 636.096 246.914 636.823 246.085C637.551 245.256 637.86 244.22 637.752 242.977L637.747 242.925C637.637 241.665 637.152 240.699 636.293 240.026C635.433 239.336 634.321 239.051 632.957 239.17ZM663.209 251.239C660.395 251.485 657.91 251.111 655.753 250.117C653.596 249.123 651.871 247.595 650.577 245.534C649.282 243.456 648.505 240.932 648.245 237.963L648.243 237.937C647.983 234.968 648.312 232.365 649.23 230.128C650.163 227.872 651.597 226.076 653.533 224.741C655.485 223.388 657.841 222.59 660.603 222.349C663.124 222.128 665.349 222.412 667.279 223.2C669.207 223.97 670.76 225.113 671.936 226.628C673.129 228.141 673.866 229.894 674.144 231.888L674.16 232.069L667.143 232.683L667.071 232.454C666.73 231.145 666.064 230.09 665.072 229.289C664.079 228.472 662.796 228.132 661.226 228.269C660 228.376 658.96 228.815 658.105 229.586C657.267 230.338 656.653 231.374 656.264 232.695C655.891 233.998 655.781 235.529 655.936 237.29L655.938 237.316C656.096 239.128 656.473 240.652 657.068 241.887C657.679 243.104 658.463 244.009 659.419 244.604C660.392 245.18 661.499 245.413 662.742 245.305C664.261 245.172 665.441 244.642 666.282 243.717C667.139 242.772 667.635 241.589 667.772 240.168L667.777 239.933L674.82 239.317L674.834 239.472C674.89 241.502 674.461 243.366 673.549 245.064C672.636 246.761 671.298 248.165 669.534 249.276C667.786 250.369 665.678 251.023 663.209 251.239ZM695.655 247.826L694.871 238.867L691.687 239.146L686.308 248.644L677.893 249.38L684.311 238.643C682.376 238.203 680.796 237.341 679.571 236.057C678.363 234.771 677.672 233.144 677.5 231.177L677.496 231.125C677.323 229.157 677.632 227.417 678.422 225.904C679.211 224.391 680.401 223.174 681.99 222.252C683.595 221.311 685.519 220.743 687.763 220.547L700.632 219.421L703.061 247.178L695.655 247.826ZM689.692 233.945L694.405 233.533L693.721 225.713L689.008 226.126C687.679 226.242 686.658 226.696 685.944 227.489C685.247 228.264 684.951 229.264 685.059 230.489L685.063 230.541C685.158 231.628 685.626 232.501 686.466 233.158C687.305 233.798 688.38 234.06 689.692 233.945Z" fill="white"/>
<path d="M692.561 292.643L822.23 322.579L852.167 192.91L722.498 162.974L692.561 292.643Z" fill="black"/>
</svg>
